<?xml version="1.0" encoding="utf-8"?>
<!-- Generator: Adobe Illustrator 27.5.0, SVG Export Plug-In . SVG Version: 6.00 Build 0)  -->
<svg version="1.1" xmlns="http://www.w3.org/2000/svg" xmlns:xlink="http://www.w3.org/1999/xlink" x="0px" y="0px"
	 viewBox="0 0 500 500" style="enable-background:new 0 0 500 500;" xml:space="preserve">
<g id="BACKGROUND">
	<rect style="fill:#FFFFFF;" width="500" height="500"/>
</g>
<g id="OBJECTS">
	<g>
		
			<ellipse transform="matrix(0.7071 -0.7071 0.7071 0.7071 -106.4686 289.0258)" style="fill:#F0F6FC;" cx="295.651" cy="273.032" rx="137.285" ry="137.285"/>
		<circle style="fill:#F0F6FC;" cx="192.372" cy="177.837" r="124.69"/>
		<circle style="fill:#F0F6FC;" cx="144.44" cy="343.198" r="89.748"/>
		<g>
			<path id="XMLID_28_" style="fill:#31216D;" d="M246.189,260.957c0-2.105,1.706-3.811,3.811-3.811
				c2.105,0,3.811,1.706,3.811,3.811c0,2.105-1.706,3.811-3.811,3.811C247.895,264.767,246.189,263.061,246.189,260.957z"/>
			<path id="XMLID_26_" style="fill:#5184AF;" d="M248.21,264.038c0-0.988,0.801-1.79,1.79-1.79c0.989,0,1.79,0.801,1.79,1.79
				c0,0.988-0.801,1.79-1.79,1.79C249.011,265.828,248.21,265.027,248.21,264.038z"/>
			<path id="XMLID_25_" style="fill:#F75477;" d="M251.332,262.814h-2.664c-0.788,0-1.427-0.639-1.427-1.427v-0.717
				c0-0.788,0.639-1.427,1.427-1.427h2.664c0.788,0,1.427,0.639,1.427,1.427v0.717C252.759,262.175,252.12,262.814,251.332,262.814z
				"/>
			<path style="fill:#001E32;" d="M461.758,475.679H38.242c-2.642,0-4.784-2.142-4.784-4.784v-0.724
				c0-2.642,2.142-4.784,4.784-4.784h423.516c2.642,0,4.784,2.142,4.784,4.784v0.724C466.542,473.537,464.4,475.679,461.758,475.679
				z"/>
			<path id="XMLID_23_" style="fill:#A0B3C1;" d="M407.38,449.746H92.62V255.682c0-2.085,1.691-3.776,3.776-3.776h307.207
				c2.086,0,3.776,1.691,3.776,3.776V449.746z"/>
			<g>
				<path style="fill:#FFFFFF;" d="M385.329,426.633c1.17,0,2.119-0.949,2.119-2.119v-83.141l-97.132,85.26H385.329z"/>
				<path style="fill:#FFFFFF;" d="M118.141,269.01c-1.17,0-2.119,0.949-2.119,2.119v74.13l86.866-76.249H118.141z"/>
				<path style="fill:#FFFFFF;" d="M387.448,271.128c0-1.17-0.949-2.119-2.118-2.119H280.745L116.022,413.6v10.915
					c0,1.17,0.948,2.119,2.119,2.119h94.319l174.988-153.601V271.128z"/>
				<polygon style="fill:#FFFFFF;" points="212.459,426.633 290.316,426.633 387.448,341.373 387.448,273.032 				"/>
				<polygon style="fill:#FFFFFF;" points="202.888,269.01 116.022,345.259 116.022,413.6 280.745,269.01 				"/>
			</g>
			<path style="fill:#8398A5;" d="M425.519,465.388H74.481c-3.769,0-6.824-3.055-6.824-6.824v-1.994
				c0-3.769,3.055-6.824,6.824-6.824h351.039c3.769,0,6.824,3.055,6.824,6.824v1.994
				C432.343,462.332,429.288,465.388,425.519,465.388z"/>
			<path id="XMLID_3_" style="fill:#A0B3C1;" d="M274.158,460.15h-48.315c-1.642,0-2.987-1.162-2.987-2.583l0,0
				c0-1.421,1.344-2.584,2.987-2.584h48.315c1.642,0,2.985,1.163,2.985,2.584l0,0C277.143,458.988,275.8,460.15,274.158,460.15z"/>
			<g>
				<g>
					<g>
						<polygon style="fill:#A0B3C1;" points="306.532,311.008 266.206,310.801 265.839,382.255 316.75,382.516 317.062,321.647 
													"/>
						<polygon style="fill:#C0CFDD;" points="306.477,321.593 317.062,321.647 306.532,311.008 						"/>
					</g>
					<g>
						
							<rect x="289.799" y="306.924" transform="matrix(0.0051 -1 1 0.0051 -30.1225 610.202)" style="fill:#FFFFFF;" width="3.629" height="26.632"/>
					</g>
					<g>
						
							<rect x="290.966" y="309.137" transform="matrix(0.0051 -1 1 0.0051 -38.555 618.511)" style="fill:#FFFFFF;" width="1.21" height="38.99"/>
					</g>
					<g>
						
							<rect x="290.934" y="315.219" transform="matrix(0.0051 -1 1 0.0051 -44.6676 624.5304)" style="fill:#FFFFFF;" width="1.21" height="38.99"/>
					</g>
					<g>
						
							<rect x="290.903" y="321.3" transform="matrix(0.0052 -1 1 0.0052 -50.7846 630.5437)" style="fill:#FFFFFF;" width="1.21" height="38.99"/>
					</g>
					<g>
						
							<rect x="290.872" y="327.382" transform="matrix(0.0051 -1 1 0.0051 -56.8917 636.569)" style="fill:#FFFFFF;" width="1.21" height="38.99"/>
					</g>
					<g>
						
							<rect x="290.841" y="333.463" transform="matrix(0.0051 -1 1 0.0051 -63.0045 642.5877)" style="fill:#FFFFFF;" width="1.21" height="38.99"/>
					</g>
					<g>
						
							<rect x="290.809" y="339.545" transform="matrix(0.0051 -1 1 0.0051 -69.1178 648.6063)" style="fill:#FFFFFF;" width="1.21" height="38.99"/>
					</g>
					<g>
						
							<rect x="280.041" y="356.309" transform="matrix(0.0052 -1 1 0.0052 -85.8627 643.8257)" style="fill:#FFFFFF;" width="1.21" height="17.515"/>
					</g>
					<path style="fill:#FFFFFF;" d="M311.289,371.838c-0.024,4.652-3.814,8.404-8.466,8.38c-4.652-0.024-8.404-3.814-8.38-8.466
						c0.024-4.652,3.814-8.404,8.466-8.38C307.561,363.396,311.313,367.186,311.289,371.838z"/>
				</g>
				<g>
					<g>
						<polygon style="fill:#F0F6FC;" points="285.12,317.308 244.794,317.1 244.427,388.555 295.338,388.816 295.651,327.947 						
							"/>
						<polygon style="fill:#C0CFDD;" points="285.066,327.893 295.651,327.947 285.12,317.308 						"/>
					</g>
					<g>
						
							<rect x="268.387" y="313.224" transform="matrix(0.0051 -1 1 0.0051 -57.7234 595.0579)" style="fill:#A0B3C1;" width="3.629" height="26.632"/>
					</g>
					<g>
						
							<rect x="269.554" y="315.437" transform="matrix(0.0051 -1 1 0.0051 -66.1562 603.367)" style="fill:#A0B3C1;" width="1.21" height="38.99"/>
					</g>
					<g>
						
							<rect x="269.523" y="321.519" transform="matrix(0.0051 -1 1 0.0051 -72.2688 609.3864)" style="fill:#A0B3C1;" width="1.21" height="38.99"/>
					</g>
					<g>
						
							<rect x="269.492" y="327.6" transform="matrix(0.0052 -1 1 0.0052 -78.3854 615.3995)" style="fill:#A0B3C1;" width="1.21" height="38.99"/>
					</g>
					<g>
						
							<rect x="269.46" y="333.681" transform="matrix(0.0051 -1 1 0.0051 -84.4936 621.424)" style="fill:#A0B3C1;" width="1.21" height="38.99"/>
					</g>
					<g>
						
							<rect x="269.429" y="339.763" transform="matrix(0.0051 -1 1 0.0051 -90.6057 627.4437)" style="fill:#A0B3C1;" width="1.21" height="38.99"/>
					</g>
					<g>
						
							<rect x="269.397" y="345.845" transform="matrix(0.0051 -1 1 0.0051 -96.719 633.4622)" style="fill:#A0B3C1;" width="1.21" height="38.99"/>
					</g>
					<g>
						
							<rect x="258.629" y="362.608" transform="matrix(0.0052 -1 1 0.0052 -113.4649 628.6794)" style="fill:#A0B3C1;" width="1.21" height="17.515"/>
					</g>
					<path style="fill:#A0B3C1;" d="M289.877,378.138c-0.024,4.652-3.814,8.404-8.466,8.38c-4.652-0.024-8.404-3.814-8.38-8.466
						c0.024-4.652,3.814-8.404,8.466-8.38C286.149,369.695,289.901,373.486,289.877,378.138z"/>
				</g>
			</g>
			<g>
				<g>
					<g>
						<path style="fill:#003954;" d="M263.42,302.348l-26.485,0.028c-1.97,0.002-3.569-1.593-3.571-3.563l-0.005-4.184
							c-0.002-1.97,1.593-3.569,3.564-3.571l26.486-0.028c1.97-0.002,3.569,1.593,3.571,3.564l0.004,4.184
							C266.986,300.747,265.391,302.346,263.42,302.348z"/>
					</g>
					<g>
						<path style="fill:#007DF3;" d="M269.374,240.776c31.353-8.523,54.401-37.205,54.365-71.271
							c-0.043-40.749-33.093-73.748-73.818-73.705c-40.726,0.043-73.705,33.112-73.662,73.861
							c0.036,34.065,23.145,62.698,54.516,71.155"/>
					</g>
					<g>
						<g>
							<g>
								<g>
									<path style="fill:#007DF3;" d="M326.555,266.931l-25.954-32.75c0.339-0.268,0.675-0.539,1.01-0.812l26.462,32.34
										C327.57,266.121,327.063,266.528,326.555,266.931z M173.423,266.914c-0.501-0.398-1.001-0.8-1.497-1.206l26.453-32.348
										c0.34,0.278,0.682,0.553,1.026,0.826L173.423,266.914z M358.839,228.353l-36.808-19.783
										c0.197-0.368,0.392-0.736,0.583-1.108l37.149,19.132C359.459,227.184,359.152,227.77,358.839,228.353z M141.135,228.3
										c-0.302-0.564-0.599-1.133-0.893-1.703l37.134-19.161c0.203,0.393,0.409,0.783,0.617,1.172L141.135,228.3z
										 M373.032,179.992l-41.653-3.36c0.034-0.416,0.064-0.833,0.09-1.249l41.705,2.627
										C373.133,178.671,373.085,179.333,373.032,179.992z M126.966,179.96c-0.053-0.66-0.1-1.321-0.14-1.984l41.706-2.59
										c0.026,0.417,0.056,0.834,0.09,1.251L126.966,179.96z M327.25,143.579c-0.14-0.41-0.285-0.82-0.431-1.228l39.302-14.196
										c0.22,0.612,0.436,1.226,0.648,1.841L327.25,143.579z M172.756,143.561l-39.529-13.554
										c0.211-0.615,0.427-1.227,0.648-1.837l39.31,14.17C173.039,142.746,172.895,143.153,172.756,143.561z M310.218,114.922
										c-0.283-0.308-0.567-0.615-0.855-0.918l30.324-28.751c0.457,0.482,0.908,0.967,1.355,1.456L310.218,114.922z
										 M189.798,114.906l-30.856-28.18c0.436-0.478,0.878-0.951,1.322-1.422l30.417,28.652
										C190.384,114.271,190.089,114.587,189.798,114.906z M283.189,95.416c-0.393-0.174-0.785-0.347-1.18-0.515l16.421-38.425
										c0.595,0.254,1.189,0.513,1.779,0.777L283.189,95.416z M216.831,95.409l-17.057-38.148c0.598-0.266,1.202-0.53,1.808-0.789
										l16.42,38.425C217.609,95.064,217.218,95.235,216.831,95.409z M250.678,88.391l-0.764-0.002l-0.553,0.002l-0.33-41.785
										l0.838-0.004l1.084,0.004L250.678,88.391z"/>
								</g>
							</g>
						</g>
					</g>
					<g>
						<path style="fill:#FFFFFF;" d="M305.312,144.884c-0.518-0.287-0.958-0.735-1.233-1.312
							c-9.916-20.753-31.167-34.146-54.142-34.119c-1.643-0.002-2.966-1.324-2.965-2.959c-0.002-1.636,1.322-2.962,2.957-2.965
							c25.249-0.025,48.601,14.691,59.495,37.491c0.706,1.476,0.08,3.243-1.395,3.948
							C307.127,145.396,306.121,145.333,305.312,144.884z"/>
					</g>
					<g>
						<path style="fill:#FFFFFF;" d="M311.433,171.919c-0.91-0.505-1.527-1.473-1.528-2.587c-0.002-2.292-0.134-4.588-0.389-6.824
							c-0.187-1.625,0.98-3.092,2.605-3.279c1.62-0.185,3.09,0.981,3.277,2.606c0.282,2.456,0.426,4.975,0.431,7.489
							c0.002,1.636-1.323,2.963-2.957,2.966C312.349,172.29,311.858,172.155,311.433,171.919z"/>
					</g>
					<g>
						<polyline style="fill:#007DF3;" points="224.63,203.869 224.696,266.101 275.581,266.047 275.516,203.815 						"/>
					</g>
					<g>
						<path style="fill:#003954;" d="M275.538,272.872l-50.783,0.054c-1.917,0.002-3.472-1.55-3.474-3.467l-0.004-4.379
							c-0.002-1.917,1.55-3.472,3.467-3.474l50.783-0.053c1.917-0.002,3.472,1.55,3.474,3.467l0.005,4.378
							C279.006,271.314,277.454,272.87,275.538,272.872z"/>
					</g>
					<g>
						<path style="fill:#003954;" d="M275.562,295.51l-50.783,0.054c-1.917,0.002-3.472-1.55-3.474-3.467l-0.005-4.378
							c-0.002-1.917,1.55-3.472,3.467-3.474l50.783-0.054c1.917-0.002,3.472,1.55,3.474,3.466l0.005,4.378
							C279.031,293.953,277.479,295.508,275.562,295.51z"/>
					</g>
					<g>
						<path style="fill:#003954;" d="M275.549,284.191l-50.782,0.054c-1.917,0.002-3.472-1.55-3.474-3.466l-0.005-4.378
							c-0.002-1.917,1.55-3.472,3.466-3.474l50.784-0.054c1.917-0.002,3.472,1.55,3.474,3.467l0.004,4.378
							C279.018,282.634,277.466,284.189,275.549,284.191z"/>
					</g>
				</g>
				
					<text transform="matrix(1 0 0 1 219.7554 196.6766)" style="fill:#003954; font-family:'Montserrat-SemiBold'; font-size:97.5986px;">c</text>
				<circle style="fill:none;stroke:#FFFFFF;stroke-width:8;stroke-miterlimit:10;" cx="249.993" cy="170.035" r="43.553"/>
			</g>
			<g>
				<g>
					<g>
						<g>
							<polygon style="fill:#001E32;" points="170.918,275.434 142.074,275.434 142.074,310.492 144.249,310.492 146.548,432.547 
								181.182,432.547 							"/>
						</g>
					</g>
				</g>
				<g>
					<g>
						<g>
							<polygon style="fill:#001E32;" points="113.303,275.434 142.146,275.434 142.146,310.492 139.972,310.492 137.672,432.547 
								103.039,432.547 							"/>
						</g>
					</g>
				</g>
				<polygon style="fill:#003954;" points="112.312,286.441 111.954,293.813 173.059,294.447 171.866,287.132 				"/>
				<g>
					<g>
						<path style="fill:#001E32;" d="M157.035,445.781h0.681h2.32h0.781h31.555l0.622,3.528h-32.102v0
							c-0.211-0.868-0.988-1.479-1.881-1.479h-0.272c-0.893,0-1.67,0.611-1.881,1.478l-1.396,0h-7.662v-3.528H157.035z"/>
					</g>
					<g>
						<path style="fill:#003954;" d="M148.126,432.403l28.593-0.47c12.873,3.905,15.652,13.846,15.653,13.849l0,0h-44.571
							L148.126,432.403z"/>
					</g>
				</g>
				<g>
					<g>
						<line style="fill:#001E32;" x1="150.343" y1="424.826" x2="150.343" y2="424.268"/>
					</g>
				</g>
				<g>
					<g>
						<rect x="147.319" y="426.685" style="fill:#003954;" width="32.738" height="0.558"/>
					</g>
				</g>
				<g>
					<g>
						<path style="fill:#001E32;" d="M127.185,445.781h-0.681h-2.32h-0.781H91.849l-0.622,3.528h32.102v0
							c0.211-0.868,0.988-1.479,1.881-1.479h0.272c0.893,0,1.67,0.611,1.881,1.478l1.396,0h7.662v-3.528H127.185z"/>
					</g>
					<g>
						<path style="fill:#003954;" d="M136.095,432.403l-28.593-0.47c-12.873,3.905-15.652,13.846-15.653,13.849l0,0h44.571
							L136.095,432.403z"/>
					</g>
				</g>
				<g>
					<g>
						<line style="fill:#001E32;" x1="133.878" y1="424.826" x2="133.878" y2="424.268"/>
					</g>
				</g>
				<g>
					<g>
						<rect x="104.164" y="426.685" style="fill:#003954;" width="32.738" height="0.558"/>
					</g>
				</g>
				<g>
					<g>
						<path style="fill:#FFCCC6;" d="M160.368,188.935c-0.793,2.225-2.892,3.452-4.69,2.742s-2.612-3.089-1.82-5.313
							c0.793-2.225,2.892-3.452,4.69-2.742C160.346,184.332,161.161,186.711,160.368,188.935"/>
					</g>
				</g>
				<g>
					<g>
						<path style="fill:#001E32;" d="M159.059,189.245l-0.356-0.105c0.007-0.024,0.67-2.372-0.933-3.633l0.23-0.292
							C159.802,186.633,159.09,189.139,159.059,189.245z"/>
					</g>
				</g>
				<g>
					<g>
						<path style="fill:#FFCCC6;" d="M125.882,188.935c0.793,2.225,2.892,3.452,4.69,2.742c1.798-0.71,2.612-3.089,1.82-5.313
							c-0.793-2.225-2.892-3.452-4.69-2.742C125.905,184.332,125.09,186.711,125.882,188.935"/>
					</g>
				</g>
				<g>
					<g>
						<path style="fill:#001E32;" d="M126.913,189.245c-0.031-0.106-0.743-2.611,1.059-4.03l0.23,0.292
							c-1.603,1.261-0.939,3.61-0.933,3.633L126.913,189.245z"/>
					</g>
				</g>
				<g>
					<g>
						<g>
							<path style="fill:#007DF3;" d="M152.187,210.009h-9.504h-9.505c-15.568,0-22.451,13.623-20.562,29.076l-0.305,47.356
								l30.371,0.852h29.183l-0.361-31.128l-1.236-16.13C172.157,224.581,167.756,210.009,152.187,210.009"/>
						</g>
					</g>
				</g>
				<g>
					<g>
						<polygon style="fill:#FFCCC6;" points="150.581,198.673 151.417,211.09 134.926,211.09 135.839,198.673 						"/>
					</g>
				</g>
				<g>
					<g>
						<path style="fill:#FFCCC6;" d="M131.021,210.135c0,0,1.408,8.266,12.283,8.266c10.875,0,11.926-8.193,11.926-8.193
							l-11.926-1.617L131.021,210.135z"/>
					</g>
				</g>
				<g>
					<g>
						<path style="fill:#F6AFAA;" d="M135.407,204.546c0,0,2.892,5.054,7.718,5.054c4.826,0,7.849-5.082,7.849-5.082v-3.967h-15.568
							V204.546z"/>
					</g>
				</g>
				<g>
					<g>
						<path style="fill:#FFCCC6;" d="M157.573,183.002c0.007-0.063,0.016-0.125,0.023-0.188l0.002-0.014h-0.001
							c0.047-0.475,0.072-0.957,0.072-1.445c0-8.006-6.491-14.497-14.497-14.497c-8.006,0-14.497,6.49-14.497,14.497
							c0,0.488,0.025,0.969,0.072,1.445h0l0.002,0.014c0.006,0.061,0.015,0.121,0.022,0.183l1.501,12.48
							c0.003,0.026,0.006,0.051,0.009,0.077l0.036,0.299l0.002,0c0.83,6.361,6.266,11.275,12.854,11.275
							c6.518,0,11.91-4.809,12.828-11.071h0.001l0.018-0.153c0.021-0.159,0.042-0.318,0.058-0.479L157.573,183.002z"/>
					</g>
				</g>
				<g>
					<g>
						<path style="fill:#001E32;" d="M143.191,166.677c0,0-13.965-0.228-14.486,14.068c-0.049,1.334,0.052,2.669,0.244,3.99
							l0.513,3.529c0,0,3.304-3.239,4.957-8.355h8.772h8.772c1.653,5.117,4.958,8.355,4.958,8.355l0.512-3.53
							c0.192-1.32,0.293-2.656,0.244-3.989C157.156,166.449,143.191,166.677,143.191,166.677"/>
					</g>
				</g>
				<g>
					<g>
						<path style="fill:#001E32;" d="M157.591,183.422c2.33-10.367,3.41-14.497-4.288-14.779c0,0-6.129-6.71-16.081-6.288
							c-9.951,0.423-6.733,6.194-6.733,6.194s-10.843,0-1.032,10.514l14.974-6.149l10.374,3.849L157.591,183.422z"/>
					</g>
				</g>
				<g>
					<g>
						<polygon style="fill:#001E32;" points="128.79,183.421 127.954,174.933 130.958,177.116 						"/>
					</g>
				</g>
				<g>
					<g>
						<path style="fill:#001E32;" d="M143.374,195.268c-0.87-0.063-1.44-0.375-1.694-0.929c-0.615-1.344,0.97-3.533,1.152-3.778
							l0.447,0.333c-0.442,0.593-1.499,2.327-1.093,3.213c0.162,0.355,0.575,0.558,1.227,0.605L143.374,195.268z"/>
					</g>
				</g>
				<g>
					<g>
						
							<rect x="149.517" y="184.011" transform="matrix(0.224 -0.9746 0.9746 0.224 -65.2143 291.2063)" style="fill:#001E32;" width="1.487" height="5.088"/>
					</g>
				</g>
				<g>
					<g>
						
							<rect x="133.617" y="185.812" transform="matrix(0.9746 -0.2241 0.2241 0.9746 -38.3413 35.2555)" style="fill:#001E32;" width="5.087" height="1.487"/>
					</g>
				</g>
				<g>
					<g>
						<path style="fill:#001E32;" d="M137.921,189.819c0,0.486-0.394,0.88-0.88,0.88c-0.486,0-0.88-0.394-0.88-0.88
							c0-0.486,0.394-0.88,0.88-0.88C137.527,188.939,137.921,189.333,137.921,189.819"/>
					</g>
				</g>
				<g>
					<g>
						<path style="fill:#001E32;" d="M150.26,189.819c0,0.486-0.394,0.88-0.88,0.88c-0.486,0-0.88-0.394-0.88-0.88
							c0-0.486,0.394-0.88,0.88-0.88C149.866,188.939,150.26,189.333,150.26,189.819"/>
					</g>
				</g>
				<g>
					<g>
						<path style="fill:#001E32;" d="M143.127,199.335c-0.818,0-1.358-0.195-1.407-0.213l0.195-0.522l-0.098,0.261l0.097-0.261
							c0.099,0.036,2.451,0.865,4.866-1.387l0.38,0.408C145.661,199.02,144.168,199.335,143.127,199.335z"/>
					</g>
				</g>
				<g>
					<g>
						<path style="fill:#FFCCC6;" d="M159.949,285.16c2.417-2.488,4.605-4.482,4.605-4.482l21.911,11.125
							c0,0-3.417,6.666-11.604,14.183c-5.131,4.712-6.971,5.531-7.62,2.997c0,0-2.711,0.272-2.84-2.445c0,0-1.968,0.484-2.909-0.942
							c-0.699-1.06-0.208-2.397-0.208-2.397s-8.633,6.078-9.919,4.602c-1.532-1.757,4.249-8.875,9.879-14.414"/>
					</g>
					<g>
						<g>
							<path style="fill:#F6AFAA;" d="M162.897,282.236l17.899,17.589c0,0,2.576-2.789,3.424-4.698L162.897,282.236z"/>
						</g>
					</g>
					<g>
						<path style="fill:#FFCCC6;" d="M161.245,293.387c0,0-5.797,3.299-7.444,0.945c-0.955-1.365,2.813-5.738,6.148-9.172"/>
					</g>
				</g>
				<path style="fill:#001E32;" d="M159.279,294.447c0,0,4.73,14.298,13.483,13.678l0.297,18.337l-23.367-7.252l-1.302-17.913
					L159.279,294.447z"/>
				<g>
					<g>
						
							<rect x="142.307" y="304.806" transform="matrix(0.0124 -0.9999 0.9999 0.0124 -169.7379 449.628)" style="fill:#003954;" width="0.866" height="11.864"/>
					</g>
				</g>
				<path style="fill:#007DF3;" d="M160.876,280.528l21.703,18.342c0,0,17.807-23.024,17.621-29.811
					c-0.186-6.787-18.526-52.762-41.479-58.013l12.209,42.607l5.655,8.48c0.727,1.09,0.531,2.551-0.457,3.411L160.876,280.528z"/>
				<g>
					
						<rect x="170.1" y="240.395" transform="matrix(0.987 -0.161 0.161 0.987 -37.7965 30.6674)" style="fill:#001E32;" width="0.451" height="16.301"/>
				</g>
				<g>
					<g>
						<path style="fill:#FFCCC6;" d="M125.563,285.16c-2.416-2.488-4.605-4.482-4.605-4.482l-21.911,11.125
							c0,0,3.417,6.666,11.604,14.183c5.131,4.712,6.971,5.531,7.62,2.997c0,0,2.711,0.272,2.84-2.445c0,0,1.968,0.484,2.909-0.942
							c0.699-1.06,0.208-2.397,0.208-2.397s8.633,6.078,9.919,4.602c1.532-1.757-4.249-8.875-9.879-14.414"/>
					</g>
					<g>
						<g>
							<path style="fill:#F6AFAA;" d="M122.615,282.236l-17.899,17.589c0,0-2.576-2.789-3.424-4.698L122.615,282.236z"/>
						</g>
					</g>
					<g>
						<path style="fill:#FFCCC6;" d="M124.267,293.387c0,0,5.797,3.299,7.444,0.945c0.955-1.365-2.813-5.738-6.148-9.172"/>
					</g>
				</g>
				<path style="fill:#001E32;" d="M126.233,294.447c0,0-4.73,14.298-13.483,13.678l-0.297,18.337l23.367-7.252l1.302-17.913
					L126.233,294.447z"/>
				<path style="fill:#007DF3;" d="M124.636,280.528l-21.703,18.342c0,0-17.807-23.024-17.621-29.811
					c0.186-6.787,17.969-52.717,40.922-57.968l-11.651,42.561l-5.655,8.48c-0.727,1.09-0.531,2.551,0.457,3.411L124.636,280.528z"/>
				<g>
					
						<rect x="105.754" y="249.329" transform="matrix(0.161 -0.987 0.987 0.161 -150.7335 321.7934)" style="fill:#001E32;" width="16.301" height="0.451"/>
				</g>
				<g>
					<path style="fill:none;stroke:#001E32;stroke-width:0.5;stroke-miterlimit:10;" d="M176.854,263.758
						c1.322-1.103,5.624-3.029,12.817-0.007"/>
					<path style="fill:none;stroke:#001E32;stroke-width:0.5;stroke-miterlimit:10;" d="M176.73,264.776
						c1.781-0.817,5.29-1.107,8.735,1.053"/>
				</g>
				<g>
					<path style="fill:none;stroke:#001E32;stroke-width:0.5;stroke-miterlimit:10;" d="M108.565,263.758
						c-1.322-1.103-5.625-3.029-12.817-0.007"/>
					<path style="fill:none;stroke:#001E32;stroke-width:0.5;stroke-miterlimit:10;" d="M108.688,264.776
						c-1.781-0.817-5.29-1.107-8.735,1.053"/>
				</g>
				<polygon style="fill:#007DF3;" points="155.23,210.207 151.324,209.599 143.125,213.495 134.926,209.599 131.021,210.135 
					134.926,227.697 143.125,224.755 151.324,227.697 				"/>
				<rect x="121.464" y="232.044" style="fill:#003954;" width="12.098" height="3.681"/>
				<polygon style="fill:#003954;" points="127.513,236.645 121.464,236.645 121.464,243.804 127.513,245.44 133.562,243.804 
					133.562,236.645 				"/>
				
					<line style="fill:none;stroke:#003954;stroke-width:0.5;stroke-miterlimit:10;" x1="143.125" y1="214.352" x2="143.125" y2="287.293"/>
				<polygon style="fill:#0465A8;" points="138.334,218.648 143.125,214.352 147.916,218.648 148.714,214.352 143.125,213.495 
					137.26,216.653 				"/>
				<g>
					<polygon style="fill:#003954;" points="143.125,213.495 147.916,218.648 157.454,210.641 151.324,209.599 					"/>
					<polygon style="fill:#003954;" points="143.125,213.495 138.334,218.648 129.137,210.34 134.926,209.599 					"/>
				</g>
				<polygon style="fill:#003954;" points="102.932,298.869 98.138,292.391 114.609,278.42 117.268,278.42 117.268,275.864 
					118.826,274.82 124.636,280.528 				"/>
				<polygon style="fill:#003954;" points="182.607,298.869 187.402,292.391 170.931,278.42 168.272,278.42 168.272,275.864 
					166.713,274.82 160.904,280.528 				"/>
				<rect x="137.16" y="286.183" style="fill:#FFFFFF;" width="12.082" height="8.865"/>
				<g>
					<path style="fill:#007DF3;" d="M143.413,158.13c-14.648,0-29.508,15.281-15.597,19.707h15.597h15.597
						C172.921,173.411,158.062,158.13,143.413,158.13z"/>
					<path style="fill:#003954;" d="M127.817,177.837c0,0,3.436-4.769,15.597-4.769s15.597,4.769,15.597,4.769H127.817z"/>
					<path style="fill:#003954;" d="M143.413,161.319c0,0-0.743,1.765-3.592,1.548v3.109c0,1.073,0.488,2.098,1.351,2.736
						c0.636,0.47,1.432,0.891,2.24,0.891c0.808,0,1.604-0.421,2.24-0.891c0.863-0.638,1.351-1.663,1.351-2.736v-3.109
						C144.157,163.084,143.413,161.319,143.413,161.319z"/>
				</g>
			</g>
			<g>
				<g>
					<path style="fill:#C0CFDD;" d="M217.302,333.057l-29.128,0.439l-0.168-11.155c-0.121-8.031,6.314-14.663,14.344-14.784
						c8.031-0.121,14.663,6.314,14.784,14.345L217.302,333.057z M192.68,328.853l19.979-0.301l-0.099-6.581
						c-0.083-5.508-4.632-9.922-10.14-9.839s-9.922,4.632-9.839,10.141L192.68,328.853z"/>
				</g>
				<g>
					<path style="fill:#A0B3C1;" d="M217.393,328.116l-29.458,0.444c-2.046,0.031-3.68,1.715-3.649,3.761l0.336,22.275
						c0.031,2.046,1.715,3.68,3.761,3.649l29.458-0.444c2.046-0.031,3.68-1.715,3.649-3.761l-0.336-22.275
						C221.123,329.718,219.439,328.085,217.393,328.116z M204.36,343.268l1.059,7.059l-4.846,0.073l0.846-7.088
						c-1.374-0.554-2.354-1.889-2.377-3.464c-0.032-2.096,1.642-3.821,3.738-3.852c2.096-0.032,3.821,1.642,3.853,3.738
						C206.656,341.308,205.717,342.673,204.36,343.268z"/>
				</g>
			</g>
			<g>
				<path style="fill:#A0B3C1;" d="M374.422,302.437c-9.301-0.584-13.256-4.794-14.83-7.41c-0.45-0.748-1.526-0.779-2.02-0.059
					c-1.724,2.519-5.918,6.492-15.238,6.532c-0.899,0.004-1.708,0.543-2.032,1.382c-2.275,5.886-9.106,28.68,16.929,38.354
					c26.556-8.139,21.066-31.292,19.139-37.301C376.096,303.079,375.32,302.493,374.422,302.437z"/>
				<path style="fill:#F0F6FC;" d="M371.509,304.841c-7.341-0.524-10.636-3.769-12.035-5.945c-0.467-0.727-1.502-0.757-2.011-0.059
					c-1.524,2.091-5.002,5.138-12.361,5.232c-0.904,0.012-1.712,0.56-2.03,1.406c-1.987,5.289-7.185,23.902,14.272,31.876
					c21.886-6.707,17.783-25.592,16.108-30.988C373.185,305.5,372.411,304.905,371.509,304.841z"/>
				<path style="fill:#A0B3C1;" d="M367.533,309.897c-0.751-0.629-1.869-0.53-2.498,0.22l-9.474,11.307l-4.973-3.064
					c-0.719-0.444-1.675-0.324-2.258,0.328c-0.656,0.732-0.594,1.856,0.138,2.512l6.129,5.49c0.064,0.057,0.143,0.12,0.215,0.171
					c1.042,0.73,2.478,0.478,3.208-0.564l0.062-0.089l9.765-13.933C368.365,311.529,368.242,310.492,367.533,309.897z"/>
			</g>
			<g>
				<path style="fill:#A0B3C1;" d="M369.439,394.361v-4.381h-3.611c-0.176-0.629-0.422-1.227-0.736-1.783l2.552-2.552l-3.098-3.098
					l-2.552,2.552c-0.557-0.314-1.155-0.56-1.784-0.736v-3.611h-4.381v3.611c-0.628,0.176-1.227,0.422-1.783,0.736l-2.552-2.552
					l-3.098,3.098l2.551,2.552c-0.314,0.557-0.56,1.155-0.736,1.783h-3.611v4.381h3.611c0.176,0.629,0.422,1.227,0.736,1.784
					l-2.551,2.551l3.098,3.098l2.552-2.552c0.557,0.314,1.155,0.56,1.783,0.736v3.611h4.381v-3.611
					c0.629-0.176,1.227-0.423,1.784-0.736l2.552,2.552l3.098-3.098l-2.552-2.551c0.314-0.557,0.56-1.155,0.736-1.784H369.439z
					 M358.02,396.605c-2.449,0-4.435-1.985-4.435-4.435c0-2.449,1.985-4.435,4.435-4.435c2.449,0,4.435,1.985,4.435,4.435
					C362.454,394.619,360.469,396.605,358.02,396.605z"/>
			</g>
			<g>
				<path style="fill:#A0B3C1;" d="M346.577,413.379v-4.381h-3.611c-0.176-0.628-0.422-1.227-0.736-1.783l2.552-2.552l-3.098-3.098
					l-2.552,2.551c-0.557-0.314-1.155-0.56-1.784-0.736v-3.611h-4.381v3.611c-0.629,0.176-1.227,0.422-1.784,0.736l-2.551-2.551
					l-3.098,3.098l2.552,2.552c-0.314,0.557-0.56,1.155-0.736,1.783h-3.611v4.381h3.611c0.176,0.629,0.422,1.227,0.736,1.784
					l-2.552,2.552l3.098,3.098l2.551-2.552c0.557,0.314,1.155,0.56,1.784,0.736v3.611h4.381v-3.611
					c0.629-0.176,1.227-0.422,1.784-0.736l2.552,2.552l3.098-3.098l-2.552-2.552c0.314-0.557,0.56-1.155,0.736-1.784H346.577z
					 M335.158,415.623c-2.449,0-4.435-1.986-4.435-4.435c0-2.449,1.985-4.435,4.435-4.435c2.449,0,4.435,1.985,4.435,4.435
					C339.593,413.638,337.608,415.623,335.158,415.623z"/>
			</g>
		</g>
		<g>
			<g>
				<g>
					<g>
						<path style="fill:#A0B3C1;" d="M453.249,429.242l4.299-1.436l-1.184-3.544c0.559-0.379,1.065-0.817,1.509-1.307l3.341,1.668
							l2.025-4.056l-3.341-1.668c0.125-0.649,0.171-1.317,0.138-1.992l3.544-1.184l-1.436-4.299l-3.544,1.184
							c-0.379-0.559-0.817-1.065-1.307-1.509l1.668-3.341l-4.056-2.025l-1.668,3.341c-0.65-0.125-1.317-0.171-1.992-0.138
							l-1.184-3.544l-4.299,1.436l1.184,3.544c-0.559,0.379-1.065,0.817-1.509,1.307l-3.341-1.668l-2.025,4.056l3.341,1.668
							c-0.125,0.65-0.171,1.317-0.138,1.992l-3.544,1.184l1.436,4.299l3.544-1.184c0.379,0.559,0.817,1.065,1.307,1.509
							l-1.667,3.341l4.056,2.025l1.667-3.341c0.65,0.125,1.317,0.171,1.992,0.138L453.249,429.242z M447.302,418.771
							c-0.803-2.404,0.494-5.003,2.898-5.806c2.404-0.803,5.003,0.495,5.806,2.898c0.803,2.404-0.495,5.003-2.898,5.806
							C450.705,422.472,448.105,421.174,447.302,418.771z"/>
					</g>
				</g>
				<g>
					<g>
						<path style="fill:#A0B3C1;" d="M433.595,410.892l2.578-0.861l-0.71-2.125c0.335-0.227,0.639-0.49,0.905-0.784l2.003,1
							l1.214-2.432l-2.003-1c0.075-0.389,0.103-0.79,0.083-1.194l2.125-0.71l-0.861-2.578l-2.125,0.71
							c-0.227-0.335-0.49-0.639-0.784-0.905l1-2.003l-2.432-1.214l-1,2.003c-0.389-0.075-0.79-0.103-1.194-0.082l-0.71-2.125
							l-2.578,0.861l0.71,2.125c-0.335,0.227-0.639,0.49-0.905,0.784l-2.003-1l-1.214,2.432l2.003,1
							c-0.075,0.389-0.103,0.79-0.083,1.194l-2.125,0.71l0.861,2.578l2.125-0.71c0.227,0.335,0.49,0.639,0.784,0.905l-1,2.003
							l2.432,1.214l1-2.003c0.389,0.075,0.79,0.103,1.194,0.083L433.595,410.892z M430.029,404.614
							c-0.481-1.441,0.297-3,1.738-3.482c1.441-0.482,3,0.297,3.481,1.738c0.482,1.441-0.296,3-1.738,3.482
							C432.069,406.833,430.511,406.055,430.029,404.614z"/>
					</g>
				</g>
			</g>
			<g>
				<g>
					<g>
						<path style="fill:#A0B3C1;" d="M24.851,305.638l1.437,4.299l3.544-1.184c0.379,0.559,0.817,1.065,1.307,1.509l-1.668,3.341
							l4.056,2.025l1.667-3.341c0.65,0.125,1.317,0.171,1.992,0.138l1.184,3.544l4.299-1.436l-1.184-3.544
							c0.559-0.379,1.065-0.817,1.509-1.307l3.341,1.668l2.024-4.056l-3.341-1.668c0.125-0.65,0.171-1.317,0.138-1.992l3.544-1.184
							l-1.437-4.299l-3.544,1.184c-0.379-0.559-0.817-1.065-1.307-1.509l1.667-3.341l-4.056-2.025l-1.668,3.341
							c-0.649-0.125-1.317-0.171-1.992-0.138l-1.184-3.544l-4.299,1.436l1.184,3.544c-0.559,0.379-1.065,0.817-1.509,1.307
							l-3.341-1.668l-2.024,4.056l3.341,1.667c-0.125,0.65-0.171,1.317-0.138,1.992L24.851,305.638z M35.321,299.691
							c2.404-0.803,5.003,0.494,5.806,2.898c0.803,2.404-0.495,5.003-2.898,5.806c-2.404,0.803-5.003-0.495-5.806-2.898
							C31.62,303.094,32.918,300.494,35.321,299.691z"/>
					</g>
				</g>
				<g>
					<g>
						<path style="fill:#A0B3C1;" d="M43.2,285.983l0.861,2.578l2.125-0.71c0.227,0.335,0.49,0.639,0.784,0.905l-1,2.003
							l2.432,1.214l1-2.003c0.389,0.075,0.79,0.102,1.194,0.082l0.71,2.125l2.578-0.861l-0.71-2.125
							c0.335-0.227,0.639-0.49,0.905-0.784l2.003,1l1.214-2.432l-2.003-1c0.075-0.389,0.102-0.79,0.083-1.194l2.125-0.71
							l-0.861-2.578l-2.125,0.71c-0.227-0.335-0.49-0.639-0.784-0.905l1-2.003l-2.432-1.214l-1,2.003
							c-0.389-0.075-0.79-0.103-1.194-0.083l-0.71-2.125l-2.578,0.861l0.71,2.125c-0.335,0.227-0.639,0.49-0.905,0.784l-2.003-1
							l-1.214,2.432l2.003,1c-0.075,0.389-0.103,0.79-0.083,1.194L43.2,285.983z M49.478,282.418c1.441-0.481,3,0.297,3.481,1.738
							c0.482,1.441-0.297,3-1.738,3.481c-1.441,0.482-3-0.296-3.481-1.738C47.259,284.458,48.037,282.899,49.478,282.418z"/>
					</g>
				</g>
			</g>
			<g>
				<g>
					<path style="fill:#003954;" d="M385.621,84.424c-2.99,0-5.424-2.434-5.424-5.425c0-2.991,2.434-5.425,5.424-5.425
						c2.991,0,5.425,2.434,5.425,5.425C391.046,81.991,388.612,84.424,385.621,84.424z M385.621,75.575
						c-1.888,0-3.424,1.536-3.424,3.425c0,1.889,1.536,3.425,3.424,3.425c1.889,0,3.425-1.536,3.425-3.425
						C389.046,77.111,387.51,75.575,385.621,75.575z"/>
				</g>
				<g>
					<path style="fill:#003954;" d="M367.382,51.017c-2.99,0-5.424-2.434-5.424-5.425c0-2.99,2.434-5.424,5.424-5.424
						c2.991,0,5.425,2.434,5.425,5.424C372.807,48.583,370.374,51.017,367.382,51.017z M367.382,42.168
						c-1.888,0-3.424,1.536-3.424,3.424c0,1.889,1.536,3.425,3.424,3.425c1.889,0,3.425-1.536,3.425-3.425
						C370.807,43.704,369.271,42.168,367.382,42.168z"/>
				</g>
				<g>
					<g>
						<path style="fill:#007DF3;" d="M379.214,65.831c-0.553,0-1-0.447-1-1V54.017c0-0.553,0.447-1,1-1c0.553,0,1,0.447,1,1v10.814
							C380.214,65.384,379.767,65.831,379.214,65.831z"/>
					</g>
					<g>
						<path style="fill:#007DF3;" d="M384.622,60.424h-10.815c-0.553,0-1-0.447-1-1s0.447-1,1-1h10.815c0.553,0,1,0.447,1,1
							S385.174,60.424,384.622,60.424z"/>
					</g>
				</g>
			</g>
			<g>
				<g>
					<path style="fill:#003954;" d="M23.824,213.38c0-2.991,2.434-5.425,5.425-5.425c2.99,0,5.424,2.434,5.424,5.425
						s-2.434,5.425-5.424,5.425C26.258,218.805,23.824,216.371,23.824,213.38z M25.824,213.38c0,1.889,1.536,3.425,3.425,3.425
						c1.888,0,3.424-1.536,3.424-3.425c0-1.889-1.536-3.425-3.424-3.425C27.36,209.955,25.824,211.491,25.824,213.38z"/>
				</g>
				<g>
					<path style="fill:#003954;" d="M42.063,179.972c0-2.99,2.434-5.424,5.425-5.424c2.99,0,5.424,2.434,5.424,5.424
						c0,2.991-2.434,5.425-5.424,5.425C44.497,185.397,42.063,182.964,42.063,179.972z M44.063,179.972
						c0,1.889,1.536,3.425,3.425,3.425c1.888,0,3.424-1.536,3.424-3.425c0-1.888-1.536-3.424-3.424-3.424
						C45.599,176.548,44.063,178.085,44.063,179.972z"/>
				</g>
				<g>
					<g>
						<path style="fill:#007DF3;" d="M35.656,200.212c0.553,0,1-0.447,1-1v-10.814c0-0.553-0.447-1-1-1s-1,0.447-1,1v10.814
							C34.656,199.764,35.103,200.212,35.656,200.212z"/>
					</g>
					<g>
						<path style="fill:#007DF3;" d="M30.249,194.804h10.814c0.553,0,1-0.447,1-1c0-0.553-0.447-1-1-1H30.249c-0.553,0-1,0.447-1,1
							C29.249,194.357,29.696,194.804,30.249,194.804z"/>
					</g>
				</g>
			</g>
		</g>
		<path style="fill:#F0F6FC;" d="M468.27,92.239c0-3.859,3.128-6.987,6.987-6.987c3.859,0,6.987,3.128,6.987,6.987
			c0,3.859-3.128,6.987-6.987,6.987C471.398,99.225,468.27,96.097,468.27,92.239z"/>
		<circle style="fill:#F0F6FC;" cx="445.596" cy="91.237" r="3.745"/>
		<circle style="fill:#F0F6FC;" cx="458.46" cy="64.236" r="6.334"/>
		
			<ellipse transform="matrix(0.9453 -0.3262 0.3262 0.9453 -5.8641 40.4559)" style="fill:#F0F6FC;" cx="117.712" cy="37.715" rx="13.391" ry="13.391"/>
		<circle style="fill:#F0F6FC;" cx="468.27" cy="228.353" r="5.891"/>
		<path style="fill:#F0F6FC;" d="M31.162,35.859c-1.465,2.948-5.042,4.15-7.99,2.685c-2.948-1.465-4.15-5.042-2.684-7.99
			c1.465-2.948,5.042-4.15,7.99-2.684C31.425,29.334,32.627,32.911,31.162,35.859z"/>
		<g>
			<path style="fill:#F0F6FC;" d="M460.235,320.005c-2.353,4.734-8.099,6.665-12.833,4.312c-4.734-2.353-6.665-8.099-4.312-12.833
				c2.353-4.734,8.099-6.665,12.833-4.312C460.658,309.525,462.588,315.271,460.235,320.005z"/>
			<path style="fill:#F0F6FC;" d="M474.361,343.931c-1.108,2.229-3.814,3.139-6.043,2.031c-2.229-1.108-3.138-3.814-2.03-6.043
				s3.814-3.139,6.043-2.03C474.56,338.996,475.469,341.701,474.361,343.931z"/>
			<path style="fill:#F0F6FC;" d="M451.869,352.152c-1.103,2.22-3.797,3.125-6.017,2.021c-2.22-1.103-3.125-3.797-2.021-6.017
				c1.103-2.22,3.797-3.125,6.017-2.021C452.067,347.238,452.972,349.932,451.869,352.152z"/>
		</g>
		<circle style="fill:#F0F6FC;" cx="55.096" cy="419.613" r="4.95"/>
		<path style="fill:#F0F6FC;" d="M24.08,404.475c0-1.466,1.188-2.654,2.654-2.654c1.465,0,2.654,1.188,2.654,2.654
			c0,1.466-1.188,2.654-2.654,2.654C25.268,407.129,24.08,405.941,24.08,404.475z"/>
		<path style="fill:#F0F6FC;" d="M38.708,387.102c0-2.479,2.009-4.488,4.488-4.488c2.479,0,4.488,2.009,4.488,4.488
			c0,2.479-2.009,4.488-4.488,4.488C40.717,391.591,38.708,389.581,38.708,387.102z"/>
		<path style="fill:#F0F6FC;" d="M425.21,165.242c-1.065-2.001-0.306-4.485,1.694-5.55c2-1.065,4.485-0.306,5.55,1.694
			c1.065,2.001,0.306,4.485-1.694,5.55C428.76,168.001,426.275,167.243,425.21,165.242z"/>
		<path style="fill:#F0F6FC;" d="M47.064,90.37c3.772-2.424,8.795-1.33,11.219,2.442c2.424,3.772,1.331,8.795-2.442,11.219
			c-3.772,2.424-8.795,1.33-11.219-2.442C42.198,97.817,43.292,92.794,47.064,90.37z"/>
		<path style="fill:#F0F6FC;" d="M65.303,68.897c1.907-1.225,4.445-0.672,5.67,1.234s0.672,4.445-1.234,5.67
			c-1.907,1.225-4.445,0.672-5.67-1.234C62.844,72.661,63.397,70.122,65.303,68.897z"/>
	</g>
</g>
</svg>
