<?xml version="1.0" encoding="utf-8"?>
<!-- Generator: Adobe Illustrator 27.5.0, SVG Export Plug-In . SVG Version: 6.00 Build 0)  -->
<svg version="1.1" xmlns="http://www.w3.org/2000/svg" xmlns:xlink="http://www.w3.org/1999/xlink" x="0px" y="0px"
	 viewBox="0 0 500 500" style="enable-background:new 0 0 500 500;" xml:space="preserve">
<g id="BACKGROUND">
	<rect x="-0.607" style="fill:#FFFFFF;" width="500" height="500"/>
</g>
<g id="OBJECTS">
	<path style="fill:#D4F6FF;" d="M79.93,429.455c-2.866-21.731,10.382-42.976,27.855-56.21
		c17.474-13.234,38.765-20.154,59.337-27.718c20.573-7.564,41.494-16.427,56.538-32.369c18.859-19.985,25.844-48.234,29.93-75.407
		c4.086-27.173,6.159-55.256,17.773-80.161c15.952-34.203,57.128-42.899,91.376-38.012c36.257,5.174,66.842,28.455,81.404,62.064
		c10.717,24.735,10.731,51.773,4.834,77.719c-5.834,25.668-24.067,47.913-16.564,75.298c3.726,13.599,11.834,25.243,16.379,38.508
		c6.128,17.885,0.542,39.192-13.571,51.771L79.93,429.455z"/>
	<g>
		<g>
			<g>
				<path style="fill:#F1725F;" d="M246.588,223.024c1.341,5.418,2.252,10.942,2.722,16.504c0.703,8.323,0.14,17.479-5.34,23.783
					c3.884,4.756,9.582,8.522,15.608,9.704c6.026,1.182,12.454,0.194,17.847-2.743c1.471-0.801,2.863-1.739,4.252-2.676
					c1.704-1.149,3.408-2.298,5.112-3.447c-8.382-12.734-15.731-26.931-14.532-42.13c-3.855-0.496-9.346-1.801-13.2-2.297
					c-1.672-0.215-3.361-0.431-5.039-0.264C251.355,219.721,249.247,223.327,246.588,223.024z"/>
				<path style="fill:#FAD3AF;" d="M336.411,432.074v-26.012c0-24.276-19.862-44.138-44.138-44.138h-30.596
					c-24.276,0-44.138,19.862-44.138,44.138v26.012H336.411z"/>
				<path style="fill:#FADFC4;" d="M188.611,369.567c2.429,11.529,5.162,22.999,7.831,34.477c1.551,6.649,3.067,13.298,4.503,19.968
					c0.576,2.683,1.132,5.371,1.672,8.062h143.831c0.956-11.717,1.936-23.438,2.665-35.172c1.407-22.716,1.892-45.65-0.573-68.301
					c-0.681-6.352-1.602-12.681-2.799-18.975c-2.542-13.362-7.654-26.151-14.733-37.561c-1.575-1.031-3.183-2.015-4.833-2.932
					c-4.152-2.309-8.502-4.137-12.988-5.442c-4.775-0.237-9.58-0.207-14.358-0.165c-2.081,0.015-4.162,0.036-6.228,0.036h-0.203
					c-0.493,0-0.986,0-1.479-0.007c-1.515-0.007-3.038-0.029-4.553-0.058c-5.779-0.101-11.558-0.319-17.337-0.493
					c-0.594-0.014-1.196-0.036-1.791-0.051c-6.395-0.174-12.79-0.275-19.185-0.08c-0.935,0.029-1.87,0.058-2.813,0.102
					c-0.34,0.014-0.689,0.029-1.029,0.051c-0.384,0.014-0.769,0.036-1.153,0.058c-1.472,0.073-2.951,0.167-4.43,0.29
					c-0.449,0.036-0.906,0.073-1.355,0.116c-0.791,0.065-1.588,0.138-2.379,0.232c-0.116,0.007-0.232,0.015-0.348,0.036
					c-0.421,0.044-0.841,0.094-1.262,0.145c-0.079,0-0.152,0.008-0.225,0.022c-0.37,0.043-0.74,0.094-1.109,0.145
					c-3.147,0.406-6.279,0.95-9.368,1.66c-5.822,1.349-11.463,3.314-16.633,6.178c-6.576,3.647-12.551,8.193-18.011,13.312
					c-3.176,2.973-6.17,6.141-9.012,9.44c-0.015,0.21-0.029,0.428-0.044,0.638c-0.044,0.573-0.087,1.146-0.116,1.718
					c-1.211,22.194,4.162,44.135,8.491,65.93C187.69,365.159,188.147,367.363,188.611,369.567z"/>
				<path style="fill:#FADFC4;" d="M246.465,278.064c5.69,4.876,12.421,9.859,19.123,12.434c1.499,0.576,3.035,1.063,4.601,1.419
					c1.767,0.403,2.12,0.461,3.871,0.52c2.624,0.088,5.237-0.372,7.205-1.283c6.282-2.907,10.245-9.106,13.207-15.588
					c1.769-3.873,3.186-7.915,4.36-12.044c-2.151,0.019-4.296,0.039-6.431,0.038c-14.787-0.01-26.801-2.971-41.591-2.52
					c-5.271,0.161-17.511,0.313-22.91,1.018C232.514,266.957,241.359,273.688,246.465,278.064z"/>
				<path style="fill:#FADFC4;" d="M292.128,259.679c0.007-0.012,0.016-0.021,0.023-0.033c0.716-3.031,0.841-6.11-0.006-9.12
					c-3.143-11.173-17.528-4.413-21.182,2.752c-2.026,3.973-2.589,8.609-1.354,12.677c-4.496-6.335-10.919-14.15-18.29-16.624
					c-6.628-2.224-16.199-0.821-17.372,6.07c-1.105,6.488,5.92,13.757,10.82,16.229l38.978,4.672
					c3.006-4.477,6.554-9.947,8.145-15.632C291.865,260.335,291.95,259.99,292.128,259.679z"/>
			</g>
		</g>
		<path style="fill:#495A7E;" d="M310.777,432.074h40.038V328.362c5.587-5.748,11.129-12.428,16.534-19.677
			c-4.712-6.075-9.559-12.045-14.767-17.705c-7.749-8.421-14.48-14.568-27.841-23.273c-9.765-6.362-24.002-9.157-33.734-4.291
			c-0.296,0.148,1.341,45.27,3.684,72.682C297.443,368.282,305.215,400.172,310.777,432.074z"/>
		<path style="fill:#495A7E;" d="M237.509,369.175c-0.261-35.137,1.327-76.363-8.236-107.65c-0.002-0.006-12.521,4.341-22.37,9.349
			c-3.258,1.656-6.553,3.908-9.701,6.358c-2.987,1.857-7.486,4.734-10.166,6.83c-14.029,10.973-22.777,24.667-28.826,39.698h13.292
			v108.313h15.855c0.567-1.66,1.139-3.356,1.715-5.089c0.001,0.082,0.002,0.164,0.002,0.247c0.01,1.614,0.015,3.228,0.023,4.842
			h44.472C236.276,411.774,237.669,390.505,237.509,369.175z"/>
		<path style="fill:#495A7E;" d="M410.285,367.962c-7.323-10.698-14.645-21.396-21.968-32.094c-1.167-1.416-2.323-2.841-3.459-4.28
			c-3.45-4.367-6.797-8.815-10.151-13.256c-7.067-9.358-14.176-18.714-22.124-27.352c-2.92-3.173-5.962-6.264-9.158-9.182
			c-2.602-0.854-5.295-0.997-7.94-0.01c-6.046,2.256-8.636,9.371-9.477,15.769c-4.039,30.743,18.122,61.281,37.198,85.725
			c-14.795,8.904-40.11,28.711-50.823,42.253l104.956-2.637c7.58-6.736,9.315-18.255,6.914-28.108
			C421.85,384.938,416.013,376.33,410.285,367.962z"/>
		<path style="fill:#FFFFFF;" d="M272.689,213.636h-20.394c2.565,3.358,5.739,6.724,9.944,7.141
			C266.444,221.193,272.408,217.852,272.689,213.636z"/>
		<g>
			<path style="fill:#F3725F;" d="M178.314,259.188c0.536,7.053,1.689,22.241,1.69,22.247c-0.033-0.338,3.248-1.715,3.544-1.851
				c4.261-1.968,9.922-5.219,14.167-1.6c3.856,3.289-0.171,4.634-0.173,4.634c-2.995,0.254-5.834,2.564-8.234,4.208
				c-4.175,2.861-6.767,6.33-9.716,10.326c-2.719,3.685-5.969,6.868-10.368,8.437c-4.37,1.558-8.896,1.722-13.301,0.463
				c-3.675-1.052-6.594-3.551-9.195-6.233c-4.245-4.377-4.309-15.042-4.874-20.686c-0.543-5.426,0.354-13.557,4.675-17.423
				L178.314,259.188z"/>
			<path style="fill:#F3725F;" d="M168.675,246.143l2.514,32.515c0.268,3.464,2.086,6.17,4.04,6.013l1.682-0.135
				c1.954-0.157,3.334-3.12,3.066-6.583l-2.514-32.515c-0.268-3.464-2.086-6.17-4.04-6.013l-1.682,0.135
				C169.787,239.717,168.407,242.68,168.675,246.143z"/>
			<path style="fill:#F3725F;" d="M160.452,261.049l1.715,22.343c0.177,2.309,2.218,4.048,4.535,3.864l0.294-0.023
				c2.317-0.184,4.068-2.223,3.891-4.532l-1.715-22.343c-0.177-2.309-2.218-4.048-4.535-3.864l-0.294,0.023
				C162.026,256.7,160.275,258.74,160.452,261.049z"/>
			<path style="fill:#F3725F;" d="M152.351,262.302l1.715,22.343c0.177,2.309,2.218,4.047,4.535,3.864l0.294-0.023
				c2.317-0.184,4.068-2.223,3.891-4.532l-1.715-22.343c-0.177-2.309-2.218-4.048-4.535-3.864l-0.294,0.023
				C153.925,257.954,152.174,259.993,152.351,262.302z"/>
			<path style="fill:#F3725F;" d="M145.146,264.775l1.332,17.35c0.16,2.078,1.996,3.644,4.082,3.478l1.136-0.09
				c2.086-0.165,3.662-2.001,3.502-4.08l-1.331-17.35c-0.16-2.078-1.996-3.643-4.082-3.478l-1.136,0.09
				C146.563,260.861,144.987,262.696,145.146,264.775z"/>
			<polygon style="fill:#F3725F;" points="172.292,299.31 176.604,326.387 150.596,330.876 147.799,290.647 			"/>
		</g>
		<rect x="135.102" y="320.209" style="fill:#3D4F6B;" width="53.269" height="110.089"/>
	</g>
	<g>
		<path style="fill:#B1DADE;" d="M317.543,373.574c0,6.659-5.398,12.056-12.056,12.056c-6.659,0-12.057-5.398-12.057-12.056
			c0-6.659,5.398-12.057,12.057-12.057C312.145,361.518,317.543,366.916,317.543,373.574z"/>
		<path style="fill:#A2A2F9;" d="M355.724,426.747H168.395c-3.174,0-5.771-2.597-5.771-5.771l0,0c0-3.174,2.597-5.771,5.771-5.771
			h187.329c3.174,0,5.771,2.597,5.771,5.771l0,0C361.495,424.15,358.898,426.747,355.724,426.747z"/>
		<path style="fill:#BEBBFF;" d="M361.25,425.814H235.637c-6.593,0-11.938-5.345-11.938-11.937v-80.521
			c0-6.593,5.345-11.937,11.938-11.937H361.25c6.593,0,11.938,5.345,11.938,11.937v80.521
			C373.188,420.469,367.843,425.814,361.25,425.814z"/>
		<circle style="fill:#A2A2F9;" cx="310.744" cy="370.67" r="11.475"/>
	</g>
	<path style="fill:#503C6F;" d="M453.943,434.934H45.249c-3.065,0-5.573-2.508-5.573-5.573l0,0c0-3.065,2.508-5.573,5.573-5.573
		h408.694c3.065,0,5.573,2.508,5.573,5.573l0,0C459.516,432.427,457.008,434.934,453.943,434.934z"/>
	<path style="fill:#F3725F;" d="M228.902,203.024c0.262,5.345,4.808,9.466,10.154,9.204c5.345-0.262,9.466-4.808,9.204-10.154
		c-0.262-5.345-4.808-9.466-10.154-9.204C232.761,193.133,228.64,197.678,228.902,203.024z"/>
	<path style="fill:none;stroke:#2D1A14;stroke-width:1.1836;stroke-linecap:round;stroke-linejoin:round;stroke-miterlimit:10;" d="
		M153.625,278.832c7.578,5.238,12.013,14.706,11.186,23.881"/>
	<path style="fill:none;stroke:#2D1A14;stroke-width:1.1836;stroke-linecap:round;stroke-linejoin:round;stroke-miterlimit:10;" d="
		M163.839,278.713c2.788,0.753,5.798-1.041,7.212-3.558s1.529-5.563,1.231-8.435"/>
	<g>
		<g>
			<path style="fill:#9CE5D6;" d="M130.743,254.732c6.882,65.715-47.274,102.417-51.308,105.054v0.159c0,0-0.048-0.031-0.123-0.079
				c-0.075,0.049-0.123,0.079-0.123,0.079v-0.159c-4.035-2.637-58.191-39.339-51.308-105.054H130.743z"/>
			<path style="fill:#9CE5D6;" d="M130.743,254.732c6.882,65.715-47.274,102.417-51.308,105.054v0.159c0,0-0.048-0.031-0.123-0.079
				c-0.075,0.049-0.123,0.079-0.123,0.079v-0.159c-4.035-2.637-58.191-39.339-51.308-105.054H130.743z"/>
			<path style="fill:#65C9AD;" d="M117.785,264.189c5.233,49.963-35.942,77.868-39.01,79.873v0.121c0,0-0.036-0.023-0.093-0.06
				c-0.057,0.037-0.094,0.06-0.094,0.06v-0.121c-3.067-2.005-44.243-29.909-39.01-79.873H117.785z"/>
			<g>
				<path style="fill:#9CE5D6;" d="M68.055,306.65c0,3.312,1.328,6.318,3.476,8.499c1.807,1.841,4.195,3.09,6.86,3.43
					c0.189,0.025,0.378,0.042,0.572,0.059c0.307,0.034,0.618,0.046,0.929,0.046c3.258,0,6.217-1.354,8.361-3.535
					c2.144-2.181,3.476-5.187,3.476-8.499c0-5.271-3.375-9.773-8.041-11.387c-1.051-0.37-2.165-0.584-3.325-0.63
					c-0.109-0.004-0.219-0.008-0.332-0.008c-0.038-0.004-0.076-0.004-0.113-0.004h-0.025c-1.328,0-2.606,0.223-3.8,0.643
					c-0.029,0.013-0.063,0.021-0.092,0.034c-1.694,0.601-3.22,1.589-4.468,2.858C69.383,300.332,68.055,303.342,68.055,306.65z"/>
				<path style="fill:#9CE5D6;" d="M76.092,284.061v13.442c0,1.059,0.429,2.03,1.114,2.728c0.693,0.698,1.639,1.131,2.686,1.131
					c2.051,0,3.737-1.677,3.791-3.749c0.004-0.038,0.004-0.072,0.004-0.109v-13.442c0-2.123-1.707-3.858-3.796-3.858h-0.025
					c-0.601,0.004-1.16,0.151-1.66,0.408c-0.139,0.067-0.273,0.147-0.399,0.231C76.777,281.531,76.092,282.72,76.092,284.061z"/>
			</g>
			<path style="fill:#503C6F;" d="M68.055,306.65c0,3.312,1.328,6.318,3.476,8.499c1.807,1.841,4.195,3.09,6.86,3.43
				c5.044-1.736,8.697-6.612,8.697-12.303c0-2.841-0.912-5.477-2.451-7.625c-0.294-0.412-0.614-0.803-0.95-1.173
				c-0.416-0.454-0.857-0.879-1.333-1.27c-0.744-0.622-1.564-1.156-2.438-1.589c-0.487-0.244-0.992-0.454-1.509-0.635v-12.097
				c0-0.446-0.071-0.874-0.202-1.278c-0.139,0.067-0.273,0.147-0.399,0.231c-1.03,0.689-1.715,1.879-1.715,3.22v11.202
				c-1.732,0.597-3.291,1.597-4.561,2.892C69.383,300.332,68.055,303.342,68.055,306.65z"/>
			<path style="fill:#503C6F;" d="M75.999,295.297c0.021,0.109,0.05,0.214,0.092,0.315c0.311,0.837,1.122,1.433,2.064,1.433
				c1.215,0,2.207-0.992,2.207-2.207v-13.241c0-0.529-0.189-1.013-0.496-1.395c-0.601,0.004-1.16,0.151-1.66,0.408
				c-0.139,0.067-0.273,0.147-0.399,0.231c-1.03,0.689-1.715,1.879-1.715,3.22v11.202C76.062,295.276,76.029,295.284,75.999,295.297
				z"/>
		</g>
		<g>
			<path style="fill:#9CE5D6;" d="M91.569,255.769v-29.982c0-8.414-6.845-15.259-15.259-15.259c-8.414,0-15.259,6.845-15.259,15.259
				v29.982H50.879v-29.982c0-14.023,11.409-25.432,25.432-25.432c14.023,0,25.431,11.409,25.431,25.432v29.982H91.569z"/>
		</g>
	</g>
	<g>
		<g>
			<g>
				<path style="fill:#FFC757;" d="M212.8,144.286c0-23.192-18.8-41.992-41.992-41.992s-41.992,18.8-41.992,41.992
					c0,17.339,10.51,32.223,25.506,38.631v23.891c0,8.896,7.279,16.175,16.175,16.175l0,0c8.896,0,16.175-7.279,16.175-16.175
					v-23.633C201.999,176.916,212.8,161.864,212.8,144.286z"/>
				<path style="fill:#F2AC30;" d="M171.898,102.308v120.609c8.246-0.717,14.774-7.686,14.774-16.11v-23.633
					c15.327-6.259,26.128-21.311,26.128-38.889C212.8,121.459,194.586,102.886,171.898,102.308z"/>
				<path style="fill:#503C6F;" d="M154.945,199.964v14.931c0,8.896,7.279,16.175,16.175,16.175l0,0
					c8.896,0,16.175-7.279,16.175-16.175v-14.931H154.945z"/>
				<path style="fill:#A595FA;" d="M189.471,220.183h-36.082c-2.908,0-5.288-2.379-5.288-5.288l0,0c0-2.908,2.38-5.288,5.288-5.288
					h36.082c2.908,0,5.288,2.38,5.288,5.288l0,0C194.759,217.803,192.38,220.183,189.471,220.183z"/>
				
					<path style="fill:none;stroke:#FFFFFF;stroke-width:4.9768;stroke-linecap:round;stroke-linejoin:round;stroke-miterlimit:10;" d="
					M202.928,131.298c1.251,2.621,2.058,5.44,2.407,8.322"/>
				
					<path style="fill:none;stroke:#FFFFFF;stroke-width:4.9768;stroke-linecap:round;stroke-linejoin:round;stroke-miterlimit:10;" d="
					M179.207,112.87c6.843,1.866,13.375,5.91,18.409,10.857"/>
			</g>
			<path style="fill:#503C6F;" d="M188.227,210.54h-36.082c-2.908,0-5.288-2.379-5.288-5.288l0,0c0-2.908,2.379-5.288,5.288-5.288
				h36.082c2.908,0,5.288,2.38,5.288,5.288l0,0C193.515,208.161,191.136,210.54,188.227,210.54z"/>
			<path style="fill:#A595FA;" d="M187.294,200.586h-36.082c-2.908,0-5.288-2.38-5.288-5.288v0c0-2.908,2.38-5.288,5.288-5.288
				h36.082c2.908,0,5.288,2.38,5.288,5.288v0C192.582,198.207,190.202,200.586,187.294,200.586z"/>
		</g>
		
			<polyline style="fill:none;stroke:#2D1A14;stroke-width:1.1836;stroke-linecap:round;stroke-linejoin:round;stroke-miterlimit:10;" points="
			161.28,185.288 161.28,148.49 169.882,172.385 178.484,149.924 178.484,185.765 		"/>
		<path style="fill:#FFC757;" d="M184.891,142.654L184.891,142.654c-3.68,0-6.691-3.011-6.691-6.691l0,0
			c0-3.68,3.011-6.691,6.691-6.691l0,0c3.68,0,6.691,3.011,6.691,6.691l0,0C191.582,139.643,188.571,142.654,184.891,142.654z"/>
	</g>
	
		<line style="fill:none;stroke:#2D1A14;stroke-width:1.1836;stroke-linecap:round;stroke-linejoin:round;stroke-miterlimit:10;" x1="235.637" y1="321.418" x2="235.637" y2="425.814"/>
	
		<ellipse transform="matrix(0.7071 -0.7071 0.7071 0.7071 -98.4818 135.4306)" style="fill:#D4F6FF;" cx="114.238" cy="186.593" rx="15.537" ry="15.537"/>
	<circle style="fill:#D4F6FF;" cx="94.538" cy="164.818" r="7.102"/>
	<circle style="fill:#D4F6FF;" cx="58.769" cy="390.696" r="7.103"/>
	<circle style="fill:#D4F6FF;" cx="29.008" cy="348.176" r="5.771"/>
	<g>
		<path style="fill:#FFC757;" d="M324.782,234.86c-3.07,19.802,10.493,38.343,30.295,41.413
			c19.802,3.071,38.343-10.493,41.413-30.295c3.07-19.802-10.493-38.343-30.295-41.413S327.852,215.058,324.782,234.86z"/>
		<polygon style="fill:#FFC757;" points="327.552,248.129 308.469,242.594 328.012,237.059 		"/>
		<path style="fill:#FFFFFF;" d="M373.461,241.358c0.049,2.685,2.265,4.823,4.95,4.774c2.685-0.049,4.823-2.265,4.774-4.95
			c-0.049-2.685-2.265-4.823-4.95-4.774C375.549,236.456,373.412,238.673,373.461,241.358z"/>
		<path style="fill:#FFFFFF;" d="M356.57,242.076c0.276,2.672,2.665,4.614,5.337,4.338c2.672-0.276,4.614-2.665,4.338-5.337
			c-0.276-2.672-2.665-4.614-5.337-4.338C358.237,237.015,356.295,239.404,356.57,242.076z"/>
		<path style="fill:#FFFFFF;" d="M340.68,242.363c0.276,2.672,2.665,4.614,5.337,4.338c2.672-0.276,4.614-2.665,4.338-5.337
			c-0.276-2.672-2.665-4.614-5.337-4.338C342.347,237.302,340.405,239.692,340.68,242.363z"/>
	</g>
	
		<ellipse transform="matrix(0.1602 -0.9871 0.9871 0.1602 34.0446 697.2248)" style="fill:#D4F6FF;" cx="426.767" cy="328.605" rx="10.692" ry="10.692"/>
	<path style="fill:#D4F6FF;" d="M430.586,362.591c0,3.164-2.565,5.728-5.728,5.728c-3.163,0-5.728-2.565-5.728-5.728
		c0-3.163,2.565-5.728,5.728-5.728C428.021,356.863,430.586,359.428,430.586,362.591z"/>
	<g>
		<g>
			<path style="fill:#503C6F;" d="M410.031,104.531v61.777h-17.867c0.111-0.678,0.167-1.374,0.167-2.082
				c0-3.628-1.483-6.924-3.875-9.314c-2.39-2.392-5.687-3.875-9.314-3.875c-3.628,0-6.922,1.483-9.314,3.875
				c-2.39,2.39-3.873,5.686-3.873,9.314c0,0.708,0.055,1.404,0.167,2.082h-17.867v-61.777H410.031z"/>
			<path style="fill:#503C6F;" d="M414.194,148.26L414.194,148.26c-7.253,0-13.188-5.935-13.188-13.188l0,0
				c0-7.254,5.935-13.188,13.188-13.188l0,0c7.254,0,13.188,5.935,13.188,13.188l0,0C427.382,142.325,421.448,148.26,414.194,148.26
				z"/>
			<path style="fill:#503C6F;" d="M378.101,116.331L378.101,116.331c-7.253,0-13.188-5.935-13.188-13.188l0,0
				c0-7.254,5.935-13.188,13.188-13.188h0c7.253,0,13.188,5.935,13.188,13.188l0,0C391.289,110.396,385.354,116.331,378.101,116.331
				z"/>
		</g>
	</g>
	<g>
		<path style="fill:#65C9AD;" d="M371.855,82.336v61.777h-17.867c0.111-0.678,0.167-1.374,0.167-2.082
			c0-3.627-1.483-6.924-3.875-9.314c-2.39-2.392-5.686-3.875-9.314-3.875c-3.628,0-6.922,1.483-9.314,3.875
			c-2.39,2.39-3.873,5.687-3.873,9.314c0,0.708,0.055,1.404,0.166,2.082h-17.867V82.336H371.855z"/>
		<path style="fill:#65C9AD;" d="M376.018,126.065L376.018,126.065c-7.254,0-13.188-5.935-13.188-13.188v0
			c0-7.253,5.935-13.188,13.188-13.188l0,0c7.254,0,13.188,5.935,13.188,13.188v0C389.207,120.13,383.272,126.065,376.018,126.065z"
			/>
		<path style="fill:#65C9AD;" d="M339.925,94.135L339.925,94.135c-7.253,0-13.188-5.935-13.188-13.188l0,0
			c0-7.253,5.935-13.188,13.188-13.188l0,0c7.254,0,13.188,5.935,13.188,13.188l0,0C353.113,88.201,347.178,94.135,339.925,94.135z"
			/>
	</g>
	<g>
		<g>
			<path style="fill:#BEBBFF;" d="M296.898,221.487L296.898,221.487c4.527,0,8.232-3.704,8.232-8.232v-23.482
				c0-4.527-3.704-8.232-8.232-8.232l0,0c-4.527,0-8.232,3.704-8.232,8.232v23.482C288.667,217.783,292.371,221.487,296.898,221.487
				z"/>
			<path style="fill:#A095F8;" d="M289.374,224.326L289.374,224.326c6.225,0,11.318-5.093,11.318-11.318v-23.898
				c0-6.225-5.093-11.318-11.318-11.318l0,0c-6.225,0-11.318,5.093-11.318,11.318v23.898
				C278.056,219.232,283.149,224.326,289.374,224.326z"/>
		</g>
		<path style="fill:#F3725F;" d="M293.758,215.825c0,0.274-0.005,0.548-0.015,0.822c-0.005,0.138-0.01,0.279-0.017,0.417
			c-0.005,0.086-0.007,0.173-0.015,0.259c-0.015,0.264-0.034,0.523-0.059,0.785c-0.007,0.079-0.015,0.155-0.022,0.234
			c-0.039,0.38-0.086,0.76-0.143,1.135c-0.059,0.4-0.128,0.797-0.207,1.192c-0.027,0.141-0.057,0.279-0.086,0.417
			c-0.017,0.084-0.037,0.168-0.057,0.252c-0.074,0.336-0.158,0.666-0.249,0.997c-0.215,0.8-0.471,1.584-0.765,2.354
			c-0.069,0.185-0.143,0.37-0.217,0.553c-0.676,1.651-1.52,3.218-2.514,4.678c-0.217,0.316-0.439,0.627-0.666,0.93
			c-0.123,0.165-0.249,0.326-0.375,0.489c-0.212,0.266-0.427,0.528-0.649,0.787c-0.54,0.634-1.113,1.239-1.712,1.816
			c-0.281,0.269-0.568,0.53-0.859,0.787c-1.194,1.046-2.485,1.982-3.862,2.788c-1.036,0.612-2.122,1.147-3.25,1.606
			c-0.247,0.101-0.496,0.198-0.745,0.289c-0.178,0.067-0.355,0.131-0.535,0.19c-0.096,0.035-0.195,0.069-0.294,0.101
			c-0.091,0.03-0.182,0.059-0.274,0.086c-0.291,0.094-0.582,0.182-0.878,0.264c-1.752,0.486-3.578,0.785-5.463,0.878
			c-0.414,0.02-0.824,0.03-1.234,0.03c-4.609,0-8.967-1.266-12.717-3.479c-7.064-4.168-11.987-11.693-12.416-20.453l-0.291-5.944
			l-0.856-17.482l-0.269-5.468l-0.37-7.546c-0.02-0.415-0.03-0.829-0.03-1.239c0-0.202,0.002-0.407,0.007-0.61
			c0.003-0.163,0.007-0.321,0.017-0.481c0.005-0.161,0.015-0.323,0.027-0.484c0-0.04,0.002-0.079,0.007-0.116
			c0.005-0.099,0.012-0.197,0.022-0.296c0.007-0.118,0.017-0.234,0.029-0.353c0.005-0.072,0.012-0.143,0.02-0.215
			c0.017-0.173,0.037-0.345,0.059-0.518c0.017-0.145,0.037-0.291,0.059-0.437c0.01-0.086,0.022-0.17,0.037-0.257
			c0.049-0.338,0.109-0.671,0.175-1.004c0.034-0.188,0.074-0.378,0.116-0.563c0.037-0.173,0.076-0.343,0.118-0.516
			c0.04-0.168,0.084-0.336,0.126-0.503c0.002-0.005,0.002-0.01,0.005-0.015c0.044-0.168,0.091-0.333,0.138-0.501
			c0.049-0.168,0.099-0.336,0.151-0.503c0.052-0.165,0.106-0.333,0.16-0.498c0.112-0.336,0.232-0.669,0.358-0.999
			c0.024-0.063,0.05-0.125,0.074-0.188c0.106-0.272,0.216-0.542,0.331-0.809c0.027-0.062,0.055-0.124,0.082-0.186
			c0.121-0.276,0.247-0.549,0.379-0.82c0.021-0.043,0.041-0.086,0.062-0.128c3.907-7.969,11.919-13.662,21.368-14.126
			c10.627-0.521,20.1,5.717,24.216,14.911c1.239,2.764,1.994,5.794,2.149,8.989l1.789,36.44
			C293.748,214.986,293.758,215.406,293.758,215.825z"/>
		<path style="fill:#2D1A14;" d="M293.758,215.825c0,0.274-0.005,0.548-0.015,0.822c-0.005,0.138-0.01,0.279-0.017,0.417
			c-0.005,0.086-0.007,0.173-0.015,0.259c-0.015,0.264-0.034,0.523-0.059,0.785c-0.007,0.079-0.015,0.155-0.022,0.234
			c-0.039,0.38-0.086,0.76-0.143,1.135c-0.059,0.4-0.128,0.797-0.207,1.192c-0.027,0.141-0.057,0.279-0.086,0.417
			c-0.017,0.084-0.037,0.168-0.057,0.252c-0.074,0.336-0.158,0.669-0.249,0.997c-0.215,0.8-0.471,1.584-0.765,2.354
			c-0.069,0.185-0.143,0.37-0.217,0.553c-0.676,1.651-1.52,3.218-2.514,4.678c-0.215,0.316-0.439,0.624-0.666,0.93
			c-0.123,0.165-0.249,0.326-0.375,0.489c-0.212,0.266-0.427,0.528-0.649,0.787c-0.54,0.634-1.113,1.239-1.712,1.816
			c-0.281,0.269-0.568,0.533-0.859,0.787c-1.194,1.046-2.485,1.982-3.862,2.788c-1.036,0.612-2.122,1.147-3.25,1.606
			c-0.244,0.101-0.493,0.198-0.745,0.289c-0.178,0.067-0.355,0.131-0.535,0.19c-0.096,0.035-0.195,0.069-0.294,0.101
			c-0.091,0.03-0.182,0.059-0.274,0.086c-0.291,0.094-0.582,0.182-0.878,0.264c-1.752,0.486-3.578,0.785-5.463,0.878
			c-0.414,0.02-0.824,0.03-1.234,0.03c-4.609,0-8.967-1.266-12.717-3.479c-7.064-4.168-11.987-11.693-12.416-20.453l-0.291-5.944
			l-0.856-17.482l-0.269-5.468l-0.37-7.546c-0.02-0.415-0.03-0.829-0.03-1.239c0-0.202,0.002-0.407,0.007-0.61
			c0.003-0.163,0.007-0.321,0.017-0.481c0.005-0.161,0.015-0.323,0.027-0.484c0-0.04,0.002-0.079,0.007-0.116
			c0.005-0.099,0.012-0.197,0.022-0.296c0.007-0.118,0.017-0.234,0.029-0.353c0.005-0.072,0.012-0.143,0.02-0.215
			c0.017-0.173,0.037-0.345,0.059-0.518c0.017-0.145,0.037-0.291,0.059-0.437c0.01-0.086,0.022-0.17,0.037-0.257
			c0.052-0.335,0.109-0.671,0.175-1.004c0.034-0.188,0.074-0.378,0.116-0.563c0.037-0.173,0.076-0.343,0.118-0.516
			c0.04-0.168,0.084-0.336,0.126-0.503c0.002-0.005,0.002-0.01,0.005-0.015c0.044-0.168,0.091-0.333,0.138-0.501
			c0.049-0.168,0.099-0.336,0.151-0.503c0.052-0.165,0.106-0.333,0.16-0.498c0.938-2.816,2.364-5.421,4.18-7.713l0.461,9.399
			l0.92,18.787c0.017,0.358,0.094,0.671,0.207,0.952c3.571,0.829,6.85,3.055,9.179,5.934c2.352,2.909,3.842,6.401,4.772,10.043
			c0.343-0.15,0.676-0.39,0.98-0.738c3.938-4.508,11.126-4.913,16.616-3.837c5.875,1.152,11.918,4.402,13.164,10.719
			C293.457,215.324,293.585,215.591,293.758,215.825z"/>
		<path style="fill:#FFFFFF;" d="M265.091,215.354c0.826,5.172,5.217,9.041,10.404,8.834c5.186-0.208,9.255-4.415,9.665-9.636
			L265.091,215.354z"/>
		<path style="fill:#2D1A14;" d="M289.79,169.136c-4.007,2.988-9.248,4.688-14.292,5.118c-8.607,0.735-17.213-1.256-25.852-1.298
			c-0.696-0.003-1.426,0.017-2.085,0.212c-0.35,0.101-0.678,0.252-0.972,0.474l-2.47,20.956l-0.469,3.977
			c-0.114-1.53-0.301-3.06-0.535-4.592c-0.299-1.949-0.674-3.901-1.071-5.848l-0.37-7.546c-0.02-0.415-0.03-0.829-0.03-1.239
			c0-0.202,0.002-0.407,0.007-0.61c0.003-0.163,0.007-0.321,0.017-0.481c0.005-0.161,0.015-0.323,0.027-0.484
			c0-0.04,0.002-0.079,0.007-0.116c0.005-0.099,0.012-0.197,0.022-0.296c0.007-0.118,0.017-0.234,0.029-0.353
			c0.005-0.072,0.012-0.143,0.02-0.215c0.017-0.173,0.037-0.345,0.059-0.518c0.017-0.145,0.037-0.291,0.059-0.437
			c0.01-0.086,0.022-0.17,0.037-0.257c0.049-0.338,0.109-0.671,0.175-1.004c0.034-0.188,0.074-0.378,0.116-0.563
			c0.037-0.173,0.076-0.343,0.118-0.516c0.04-0.168,0.084-0.336,0.126-0.503c0.002-0.005,0.002-0.01,0.005-0.015
			c0.044-0.168,0.091-0.333,0.138-0.501c0.049-0.168,0.099-0.336,0.151-0.503c0.052-0.165,0.106-0.333,0.16-0.498
			c0.112-0.336,0.232-0.669,0.358-0.999c0.024-0.063,0.05-0.125,0.074-0.188c0.106-0.272,0.216-0.542,0.331-0.809
			c0.027-0.062,0.055-0.124,0.082-0.186c0.121-0.276,0.247-0.549,0.379-0.82c0.021-0.043,0.041-0.086,0.062-0.128
			c3.907-7.969,11.919-13.662,21.368-14.126C276.202,153.704,285.674,159.942,289.79,169.136z"/>
		<g>
			<path style="fill:#A095F8;" d="M238.608,185.536v-22.414c0-14.969,12.179-27.148,27.148-27.148
				c14.969,0,27.148,12.178,27.148,27.148v22.414h5.622v-22.414c0-18.07-14.701-32.77-32.771-32.77
				c-18.07,0-32.77,14.701-32.77,32.77v22.414H238.608z"/>
		</g>
		<g>
			<path style="fill:#A095F8;" d="M235.131,224.769L235.131,224.769c-6.225,0-11.318-5.093-11.318-11.318v-23.898
				c0-6.225,5.093-11.318,11.318-11.318l0,0c6.225,0,11.318,5.093,11.318,11.318v23.898
				C246.449,219.676,241.356,224.769,235.131,224.769z"/>
			<path style="fill:#BEBBFF;" d="M228.79,221.931L228.79,221.931c-4.527,0-8.232-3.704-8.232-8.232v-23.482
				c0-4.527,3.704-8.232,8.232-8.232l0,0c4.527,0,8.232,3.704,8.232,8.232v23.482C237.022,218.227,233.317,221.931,228.79,221.931z"
				/>
		</g>
		
			<path style="fill:none;stroke:#A095F8;stroke-width:1.7754;stroke-linecap:round;stroke-linejoin:round;stroke-miterlimit:10;" d="
			M243.17,211.085c0,0,4.635,16.083,19.727,16.378"/>
		<path style="fill:#BEBBFF;" d="M268.519,229.239c0,2.451-1.987,4.439-4.439,4.439c-2.451,0-4.439-1.987-4.439-4.439
			s1.987-4.439,4.439-4.439C266.531,224.801,268.519,226.788,268.519,229.239z"/>
	</g>
	<circle style="fill:#D4F6FF;" cx="235.425" cy="114.237" r="7.103"/>
	<circle style="fill:#D4F6FF;" cx="220.913" cy="89.398" r="11.098"/>
	<path style="fill:#D4F6FF;" d="M215.893,251.404c0,2.697-2.186,4.883-4.883,4.883c-2.697,0-4.883-2.186-4.883-4.883
		c0-2.697,2.186-4.883,4.883-4.883C213.707,246.521,215.893,248.707,215.893,251.404z"/>
	<path style="fill:#D4F6FF;" d="M210.566,220.33c0,1.716-1.391,3.107-3.107,3.107s-3.107-1.391-3.107-3.107
		c0-1.716,1.391-3.107,3.107-3.107S210.566,218.614,210.566,220.33z"/>
	<circle style="fill:#D4F6FF;" cx="456.998" cy="302.278" r="10.075"/>
	
		<ellipse transform="matrix(0.7071 -0.7071 0.7071 0.7071 -12.5148 368.8526)" style="fill:#D4F6FF;" cx="438.987" cy="199.533" rx="9.929" ry="9.929"/>
	<circle style="fill:#D4F6FF;" cx="31.383" cy="231.003" r="5.327"/>
	<g>
		<path style="fill:#503C6F;" d="M84.496,373.478c0,2.452-1.987,4.439-4.439,4.439c-2.452,0-4.439-1.987-4.439-4.439
			c0-2.452,1.987-4.439,4.439-4.439C82.509,369.039,84.496,371.027,84.496,373.478z"/>
		<path style="fill:#503C6F;" d="M84.496,393.898c0,2.452-1.987,4.439-4.439,4.439c-2.452,0-4.439-1.987-4.439-4.439
			s1.987-4.439,4.439-4.439C82.509,389.459,84.496,391.446,84.496,393.898z"/>
		<path style="fill:#503C6F;" d="M84.496,415.206c0,2.452-1.987,4.439-4.439,4.439c-2.452,0-4.439-1.987-4.439-4.439
			c0-2.452,1.987-4.439,4.439-4.439C82.509,410.767,84.496,412.754,84.496,415.206z"/>
	</g>
	<g>
		<path style="fill:#503C6F;" d="M407.892,279.246c0,2.452-1.987,4.439-4.439,4.439c-2.452,0-4.439-1.987-4.439-4.439
			c0-2.452,1.987-4.439,4.439-4.439C405.904,274.807,407.892,276.794,407.892,279.246z"/>
		<circle style="fill:#503C6F;" cx="403.453" cy="299.665" r="4.439"/>
		<path style="fill:#503C6F;" d="M407.892,320.973c0,2.452-1.987,4.439-4.439,4.439c-2.452,0-4.439-1.987-4.439-4.439
			c0-2.452,1.987-4.439,4.439-4.439C405.904,316.534,407.892,318.521,407.892,320.973z"/>
	</g>
	<g>
		<path style="fill:#503C6F;" d="M115.388,141.799c-2.452,0-4.439-1.987-4.439-4.439c0-2.452,1.987-4.439,4.439-4.439
			c2.452,0,4.439,1.987,4.439,4.439C119.827,139.811,117.839,141.799,115.388,141.799z"/>
		<path style="fill:#503C6F;" d="M94.968,141.799c-2.452,0-4.439-1.987-4.439-4.439c0-2.452,1.987-4.439,4.439-4.439
			c2.452,0,4.439,1.987,4.439,4.439C99.407,139.811,97.42,141.799,94.968,141.799z"/>
		<path style="fill:#503C6F;" d="M73.66,141.799c-2.452,0-4.439-1.987-4.439-4.439c0-2.452,1.988-4.439,4.439-4.439
			s4.439,1.987,4.439,4.439C78.1,139.811,76.112,141.799,73.66,141.799z"/>
	</g>
	<g>
		<path style="fill:#503C6F;" d="M296.614,104.35c-2.452,0-4.439-1.987-4.439-4.439c0-2.452,1.987-4.439,4.439-4.439
			s4.439,1.987,4.439,4.439C301.053,102.362,299.065,104.35,296.614,104.35z"/>
		<path style="fill:#503C6F;" d="M276.194,104.35c-2.452,0-4.439-1.987-4.439-4.439c0-2.452,1.987-4.439,4.439-4.439
			c2.452,0,4.439,1.987,4.439,4.439C280.633,102.362,278.646,104.35,276.194,104.35z"/>
		<path style="fill:#503C6F;" d="M254.887,104.35c-2.452,0-4.439-1.987-4.439-4.439c0-2.452,1.987-4.439,4.439-4.439
			c2.452,0,4.439,1.987,4.439,4.439C259.326,102.362,257.338,104.35,254.887,104.35z"/>
	</g>
	<g>
		<path style="fill:none;stroke:#FFFFFF;stroke-width:0.75;stroke-miterlimit:10;" d="M175.831,339.441
			c-1.49,2.831-1.447,6.356,0.111,9.153c1.13,2.03,3.042,3.823,3.134,6.122c0.085,2.106-1.392,3.925-2.441,5.777
			c-1.049,1.853-1.589,4.428,0.025,5.86"/>
		<path style="fill:none;stroke:#FFFFFF;stroke-width:0.75;stroke-miterlimit:10;" d="M167.104,339.01
			c-1.49,2.831-1.447,6.356,0.111,9.154c1.13,2.03,3.042,3.823,3.134,6.122c0.085,2.106-1.393,3.925-2.441,5.777
			c-1.049,1.853-1.589,4.428,0.025,5.86"/>
		<path style="fill:none;stroke:#FFFFFF;stroke-width:0.75;stroke-miterlimit:10;" d="M184.719,339.517
			c-1.49,2.831-1.447,6.356,0.111,9.154c1.13,2.03,3.042,3.823,3.134,6.122c0.085,2.106-1.393,3.925-2.441,5.777
			c-1.049,1.853-1.589,4.428,0.025,5.86"/>
	</g>
	
		<ellipse transform="matrix(0.7071 -0.7071 0.7071 0.7071 -114.1243 413.6274)" style="fill:#A095F8;" cx="442.23" cy="344.574" rx="29.242" ry="29.242"/>
	<g>
		<circle style="fill:#A095F8;" cx="45.638" cy="168.891" r="27.492"/>
		<text transform="matrix(1 0 0 1 36.2642 184.646)" style="fill:#FFFFFF; font-family:'Montserrat-Black'; font-size:43.4707px;">1</text>
	</g>
	<g>
		
			<ellipse transform="matrix(0.7071 -0.7071 0.7071 0.7071 -15.6673 373.2703)" style="fill:#A095F8;" cx="442.743" cy="205.547" rx="30.547" ry="30.547"/>
		
			<text transform="matrix(1 0 0 1 429.6343 221.2563)" style="fill:#FFFFFF; font-family:'Montserrat-Black'; font-size:49.2644px;">2</text>
	</g>
	<text transform="matrix(1 0 0 1 431.019 358.3965)" style="fill:#FFFFFF; font-family:'Montserrat-Black'; font-size:41.0537px;">3</text>
	<polygon style="fill:#BEBBFF;" points="99.092,96.187 102.658,102.707 109.179,106.273 102.658,109.839 99.092,116.359 
		95.526,109.839 89.006,106.273 95.526,102.707 	"/>
	<polygon style="fill:#BEBBFF;" points="276.057,70.12 278.11,73.874 281.865,75.928 278.11,77.981 276.057,81.735 274.004,77.981 
		270.249,75.928 274.004,73.874 	"/>
	<polygon style="fill:#BEBBFF;" points="450.355,138.946 453.565,144.816 459.435,148.026 453.565,151.237 450.355,157.107 
		447.144,151.237 441.274,148.026 447.144,144.816 	"/>
	<polygon style="fill:#BEBBFF;" points="440.161,117.669 441.794,120.654 444.78,122.287 441.794,123.92 440.161,126.905 
		438.529,123.92 435.543,122.287 438.529,120.654 	"/>
	<polygon style="fill:#FFFFFF;" points="335.44,180.301 338.744,186.342 344.786,189.646 338.744,192.95 335.44,198.992 
		332.136,192.95 326.095,189.646 332.136,186.342 	"/>
	<polygon style="fill:#FFFFFF;" points="425.683,257.544 428.987,263.586 435.029,266.89 428.987,270.194 425.683,276.235 
		422.379,270.194 416.338,266.89 422.379,263.586 	"/>
	<polygon style="fill:#FFFFFF;" points="384.456,286.055 387.76,292.096 393.801,295.4 387.76,298.704 384.456,304.745 
		381.151,298.704 375.11,295.4 381.151,292.096 	"/>
	<polygon style="fill:#FFFFFF;" points="321.575,163.954 324.009,168.405 328.46,170.839 324.009,173.273 321.575,177.723 
		319.141,173.273 314.691,170.839 319.141,168.405 	"/>
	<polygon style="fill:#FFFFFF;" points="417.045,236.337 419.479,240.787 423.93,243.221 419.479,245.656 417.045,250.106 
		414.611,245.656 410.16,243.221 414.611,240.787 	"/>
	<polygon style="fill:#FFFFFF;" points="115.275,392.522 117.709,396.972 122.159,399.406 117.709,401.841 115.275,406.291 
		112.841,401.841 108.39,399.406 112.841,396.972 	"/>
	<polygon style="fill:#BEBBFF;" points="34.945,366.015 38.511,372.535 45.031,376.101 38.511,379.667 34.945,386.187 
		31.379,379.667 24.858,376.101 31.379,372.535 	"/>
	<g>
		
			<path style="fill:none;stroke:#2D1A14;stroke-width:1.1097;stroke-linecap:round;stroke-linejoin:round;stroke-miterlimit:10;" d="
			M272.224,276.6c0,1.845-1.496,3.341-3.341,3.341c-1.845,0-3.341-1.496-3.341-3.341c0-1.845,1.496-3.341,3.341-3.341
			C270.728,273.259,272.224,274.754,272.224,276.6z"/>
		
			<path style="fill:none;stroke:#2D1A14;stroke-width:1.1097;stroke-linecap:round;stroke-linejoin:round;stroke-miterlimit:10;" d="
			M272.224,315.738c0,1.845-1.496,3.341-3.341,3.341c-1.845,0-3.341-1.496-3.341-3.341c0-1.845,1.496-3.341,3.341-3.341
			C270.728,312.397,272.224,313.892,272.224,315.738z"/>
		
			<path style="fill:none;stroke:#2D1A14;stroke-width:1.1097;stroke-linecap:round;stroke-linejoin:round;stroke-miterlimit:10;" d="
			M272.224,296.232c0,1.845-1.496,3.341-3.341,3.341c-1.845,0-3.341-1.496-3.341-3.341s1.496-3.341,3.341-3.341
			C270.728,292.891,272.224,294.387,272.224,296.232z"/>
	</g>
	<g>
		<g>
			<g>
				<path style="fill:#F2AC30;" d="M201.477,363.991v46.765c0,7.599-6.217,13.817-13.817,13.817h-22.075
					c-7.599,0-13.817-6.217-13.817-13.817v-46.765H201.477z"/>
			</g>
			<g>
				<path style="fill:#F2AC30;" d="M127.087,388.328c0-9.041,7.356-16.397,16.397-16.397c9.041,0,16.397,7.356,16.397,16.397
					c0,9.041-7.356,16.397-16.397,16.397C134.442,404.725,127.087,397.369,127.087,388.328z M137.098,388.328
					c0,3.521,2.865,6.386,6.386,6.386c3.521,0,6.386-2.865,6.386-6.386c0-3.521-2.865-6.386-6.386-6.386
					C139.962,381.942,137.098,384.806,137.098,388.328z"/>
			</g>
		</g>
		
			<line style="fill:none;stroke:#FFFFFF;stroke-width:2;stroke-miterlimit:10;" x1="189.997" y1="363.866" x2="189.997" y2="393.434"/>
		
			<rect x="181.819" y="392.176" transform="matrix(-1 -1.224647e-16 1.224647e-16 -1 377.4785 804.4833)" style="fill:#FFFFFF;" width="13.84" height="20.132"/>
	</g>
</g>
</svg>
