<?xml version="1.0" encoding="utf-8"?>
<!-- Generator: Adobe Illustrator 27.5.0, SVG Export Plug-In . SVG Version: 6.00 Build 0)  -->
<svg version="1.1" xmlns="http://www.w3.org/2000/svg" xmlns:xlink="http://www.w3.org/1999/xlink" x="0px" y="0px"
	 viewBox="0 0 500 500" style="enable-background:new 0 0 500 500;" xml:space="preserve">
<g id="BACKGROUND">
	<rect style="fill:#DBE2EF;" width="500" height="500"/>
</g>
<g id="OBJECTS">
	<path style="fill:#A3B7D3;" d="M429.978,225.997c0.348,14.423-1.185,28.968-4.776,43.302
		c-13.155,52.506-54.004,101.23-105.922,120.566c-80.009,29.798-156.558-10.749-203.89-74.514
		c-37.112-49.998-32.36-125.653-0.386-177.068c3.346-5.38,7.011-10.568,10.989-15.518c55.896-69.562,170.134-87.972,240.065-28.377
		C405.017,127.589,428.773,176.062,429.978,225.997z"/>
	<g>
		<g>
			<path style="fill:#1054D7;" d="M283.522,193.333h75.838c12.858,0,22.891,11.121,21.564,23.911
				c-2.141,20.643-8.931,50.959-11.798,75.71c-2.509,21.66-20.849,37.997-42.654,37.997H257.96L283.522,193.333z"/>
			<path style="fill:#054BAF;" d="M274.072,193.333h72.252c12.858,0,22.891,11.121,21.564,23.911
				c-2.141,20.643-5.346,39.343-8.213,64.094c-2.509,21.66-20.849,37.998-42.654,37.998H248.51L274.072,193.333z"/>
		</g>
		<g>
			<rect x="300.651" y="331.763" style="fill:#011843;" width="8.86" height="111.409"/>
			<path style="fill:#011843;" d="M325.52,334.405h-46.194c-1.617,0-2.928-1.311-2.928-2.928v-0.592h52.05v0.592
				C328.448,333.094,327.137,334.405,325.52,334.405z"/>
			<g>
				
					<path style="fill:none;stroke:#011843;stroke-width:2.6579;stroke-linecap:round;stroke-linejoin:round;stroke-miterlimit:10;" d="
					M268.757,453.656L268.757,453.656c0-6.361,5.156-11.517,11.517-11.517h53.157c6.361,0,11.517,5.156,11.517,11.517v0.452"/>
				
					<line style="fill:none;stroke:#011843;stroke-width:2.6579;stroke-miterlimit:10;" x1="323.796" y1="453.545" x2="323.796" y2="442.027"/>
				
					<line style="fill:none;stroke:#011843;stroke-width:2.6579;stroke-miterlimit:10;" x1="289.244" y1="453.545" x2="289.244" y2="442.027"/>
				<g>
					<circle style="fill:#011843;" cx="269.67" cy="453.839" r="5.422"/>
					
						<circle style="fill:none;stroke:#DBE2EF;stroke-width:0.8184;stroke-linecap:round;stroke-linejoin:round;stroke-miterlimit:10;" cx="269.67" cy="453.839" r="1.75"/>
				</g>
				<g>
					<circle style="fill:#011843;" cx="289.67" cy="453.839" r="5.422"/>
					
						<circle style="fill:none;stroke:#DBE2EF;stroke-width:0.8184;stroke-linecap:round;stroke-linejoin:round;stroke-miterlimit:10;" cx="289.67" cy="453.839" r="1.75"/>
				</g>
				<g>
					<circle style="fill:#011843;" cx="324.795" cy="453.839" r="5.422"/>
					
						<circle style="fill:none;stroke:#DBE2EF;stroke-width:0.8184;stroke-linecap:round;stroke-linejoin:round;stroke-miterlimit:10;" cx="324.795" cy="453.839" r="1.75"/>
				</g>
				<g>
					<circle style="fill:#011843;" cx="344.795" cy="453.839" r="5.422"/>
					
						<circle style="fill:none;stroke:#DBE2EF;stroke-width:0.8184;stroke-linecap:round;stroke-linejoin:round;stroke-miterlimit:10;" cx="344.795" cy="453.839" r="1.75"/>
				</g>
			</g>
		</g>
	</g>
	<g>
		<path style="fill:#FFFFFF;" d="M168.643,280.526l10.232,177.307c0.014,2.641-3.562,2.776-3.714,0.14l-19.476-177.428"/>
		<polygon style="fill:#011843;" points="155.686,280.489 168.65,280.539 156.388,286.746 		"/>
	</g>
	<ellipse style="fill:#A3B7D3;" cx="250.474" cy="463.051" rx="232.246" ry="3.923"/>
	<g>
		<path style="fill:#1054D7;" d="M154.521,169.143H103.43c-5.917,0-10.402-5.338-9.382-11.167l4.574-26.132
			c0.798-4.558,4.755-7.882,9.382-7.882h51.091c5.917,0,10.402,5.338,9.382,11.167l-4.574,26.132
			C163.105,165.818,159.148,169.143,154.521,169.143z"/>
		
			<path style="fill:none;stroke:#DBE2EF;stroke-width:0.6645;stroke-linecap:round;stroke-linejoin:round;stroke-miterlimit:10;" d="
			M140.36,165.388h10.409c3.992,0,7.466-2.688,8.516-6.54c0.914-3.352,1.255-6.657,2.074-9.793"/>
		<path style="fill:#1054D7;" d="M119.407,166.4l5.003,9.838c0.983,1.932,3.238,2.162,4.476,0.457l7.796-10.738"/>
		<g>
			<circle style="fill:none;stroke:#DBE2EF;stroke-width:0.6645;stroke-miterlimit:10;" cx="116.633" cy="145.58" r="2.685"/>
			<path style="fill:none;stroke:#DBE2EF;stroke-width:0.6645;stroke-miterlimit:10;" d="M133.947,145.58
				c0,1.483-1.202,2.685-2.685,2.685c-1.483,0-2.685-1.202-2.685-2.685c0-1.483,1.202-2.685,2.685-2.685
				C132.745,142.895,133.947,144.098,133.947,145.58z"/>
			<circle style="fill:none;stroke:#DBE2EF;stroke-width:0.6645;stroke-miterlimit:10;" cx="145.893" cy="145.58" r="2.685"/>
		</g>
		
			<path style="fill:none;stroke:#DBE2EF;stroke-width:0.6645;stroke-linecap:round;stroke-linejoin:round;stroke-miterlimit:10;" d="
			M162.226,145.062c0.273-1.279,0.546-2.558,0.819-3.837"/>
	</g>
	<g>
		
			<ellipse transform="matrix(0.2323 -0.9726 0.9726 0.2323 76.2848 300.6296)" style="fill:#F4F4F4;" cx="228.593" cy="101.988" rx="26.045" ry="26.045"/>
		<path style="fill:#1054D7;" d="M245.093,103.718v-2.746c0-0.71-0.575-1.285-1.285-1.285h-1.149c-0.972,0-1.799-0.644-2.113-1.564
			c-0.081-0.237-0.169-0.471-0.263-0.701c-0.382-0.931-0.071-2.004,0.71-2.64l0.795-0.647c0.545-0.444,0.627-1.245,0.183-1.79
			l-1.749-2.148c-0.444-0.545-1.245-0.627-1.79-0.184l-1.001,0.815c-0.82,0.667-1.95,0.725-2.88,0.222
			c-0.516-0.279-1.053-0.524-1.609-0.73c-1.009-0.374-1.712-1.293-1.712-2.37v-1.094c0-0.636-0.515-1.151-1.151-1.151h-3.014
			c-0.636,0-1.151,0.515-1.151,1.151v1.15c0,1.043-0.679,1.936-1.659,2.294c-0.615,0.225-1.207,0.497-1.774,0.811
			c-0.886,0.491-1.971,0.434-2.756-0.205l-0.839-0.683c-0.687-0.56-1.698-0.456-2.258,0.231l-1.33,1.633
			c-0.56,0.687-0.456,1.698,0.231,2.258l0.829,0.675c0.68,0.554,0.883,1.486,0.543,2.295c-0.136,0.325-0.26,0.656-0.369,0.994
			c-0.263,0.813-0.998,1.378-1.852,1.378h-1.308c-0.708,0-1.281,0.574-1.281,1.281v2.753c0,0.708,0.574,1.281,1.281,1.281h1.517
			c0.779,0,1.462,0.502,1.713,1.24c0.163,0.478,0.354,0.943,0.57,1.394c0.335,0.697,0.205,1.526-0.342,2.073l-1.05,1.05
			c-0.509,0.509-0.509,1.334,0,1.843l1.915,1.915c0.509,0.509,1.335,0.509,1.844,0L220.06,114c0.757-0.757,1.916-0.977,2.873-0.499
			c0.443,0.221,0.9,0.416,1.371,0.585c0.982,0.352,1.61,1.318,1.61,2.362v0.643c0,0.652,0.529,1.181,1.182,1.181h2.953
			c0.653,0,1.182-0.529,1.182-1.181v-0.861c0-0.969,0.635-1.799,1.548-2.122c0.543-0.192,1.069-0.42,1.575-0.681
			c0.889-0.458,1.981-0.223,2.662,0.51l0.663,0.713c0.502,0.54,1.346,0.57,1.885,0.069l1.939-1.803
			c0.539-0.502,0.57-1.346,0.069-1.885l-1.057-1.137c-0.651-0.7-0.78-1.716-0.391-2.589c0.104-0.234,0.201-0.471,0.291-0.712
			c0.363-0.97,1.321-1.588,2.357-1.588h1.036C244.518,105.003,245.093,104.428,245.093,103.718z M228.572,108.599
			c-3.544,0-6.417-2.873-6.417-6.417s2.873-6.417,6.417-6.417c3.544,0,6.417,2.873,6.417,6.417S232.116,108.599,228.572,108.599z"/>
	</g>
	<g>
		<path style="fill:#011843;" d="M394.806,241.305c-1.277,0-2.245,1.152-2.026,2.41l3.455,19.819
			c0.619,2.508,2.869,4.271,5.452,4.271h9.177c2.628,0,4.904-1.822,5.479-4.386l2.698-19.779c0.168-1.235-0.791-2.334-2.038-2.334
			H394.806z"/>
		<path style="fill:none;stroke:#011843;stroke-width:2;stroke-linecap:round;stroke-linejoin:round;stroke-miterlimit:10;" d="
			M398.693,253.722c0,2.946-2.388,5.333-5.333,5.333s-5.333-2.388-5.333-5.333c0-2.946,2.388-5.333,5.333-5.333
			S398.693,250.776,398.693,253.722z"/>
		<path style="fill:#F4F4F4;" d="M411.235,241.247c-0.333-2.208,0.194-4.458,1.486-6.03c1.16-1.412,2.659-2.538,3.46-4.218
			c0.919-1.926,1.2-4.124,0.821-6.223c-0.414-2.295-1.645-4.606-3.519-6.033c-2.532-1.928-5.576-1.554-8.572-1.714
			c-0.393-0.021-0.786-0.048-1.176-0.1c-4.628-0.621-6.25-4-8.975-8.924c-0.484,2.387-0.97,4.809-0.791,7.238
			c0.179,2.428,1.111,4.906,3.01,6.431c3.182,2.555,7.946,0.459,11.319,2.755c0.898,0.611,2.058,2.119,2.25,3.188
			c0.349,1.946-1.563,4.688-3.463,5.172c-1.916,0.488-3.865,0.302-5.555,1.328c-1.69,1.026-2.253,3.252-2.253,5.229
			c0,1.125,0.042,1.9,0.042,1.9"/>
		
			<line style="fill:none;stroke:#DBE2EF;stroke-width:0.8184;stroke-linecap:round;stroke-linejoin:round;stroke-miterlimit:10;" x1="394.027" y1="249.555" x2="418.11" y2="249.638"/>
		
			<line style="fill:none;stroke:#DBE2EF;stroke-width:0.8184;stroke-linecap:round;stroke-linejoin:round;stroke-miterlimit:10;" x1="395.443" y1="257.138" x2="416.943" y2="257.138"/>
		
			<path style="fill:none;stroke:#DBE2EF;stroke-width:0.8184;stroke-linecap:round;stroke-linejoin:round;stroke-miterlimit:10;" d="
			M415.112,260.063c0.393-4.06,0.787-8.121,1.18-12.181"/>
	</g>
	<g>
		<path style="fill:#011843;" d="M151.438,86.048l0.081-0.059c0.397-0.289,0.484-0.846,0.195-1.242l-4.547-6.241
			c-0.289-0.397-0.845-0.484-1.242-0.195l0,0c-2.616,1.906-6.282,1.33-8.188-1.286l-4.875-6.691
			c-1.906-2.616-1.33-6.282,1.286-8.188l0,0c0.397-0.289,0.484-0.845,0.195-1.242l-3.663-5.028
			c-0.289-0.397-0.845-0.484-1.242-0.195l-0.081,0.059c-5.361,3.906-6.541,11.418-2.635,16.78l7.937,10.895
			C138.564,88.774,146.076,89.954,151.438,86.048z"/>
		<circle style="fill:none;stroke:#1054D7;stroke-miterlimit:10;" cx="150.36" cy="65.055" r="2.5"/>
		<circle style="fill:none;stroke:#1054D7;stroke-miterlimit:10;" cx="169.36" cy="65.055" r="2.5"/>
		<circle style="fill:none;stroke:#011843;stroke-miterlimit:10;" cx="159.36" cy="65.055" r="2.5"/>
	</g>
	<g>
		<path style="fill:#011843;" d="M366.978,153.71l1.458,10.448c0.286,2.052,1.905,2.668,3.212,1.223l8.23-9.098"/>
		<path style="fill:#011843;" d="M409.685,158.722h-71.007c-4.078,0-7.09-3.803-6.156-7.772l5.024-21.352
			c0.672-2.857,3.221-4.876,6.156-4.876h71.007c4.078,0,7.09,3.803,6.156,7.772l-5.024,21.352
			C415.168,156.703,412.619,158.722,409.685,158.722z"/>
		
			<path style="fill:none;stroke:#DBE2EF;stroke-width:0.6645;stroke-linecap:round;stroke-linejoin:round;stroke-miterlimit:10;" d="
			M401.568,155.347h4.827c2.947,0,5.519-2.001,6.242-4.858l1.597-6.308"/>
		
			<path style="fill:none;stroke:#DBE2EF;stroke-width:0.6645;stroke-linecap:round;stroke-linejoin:round;stroke-miterlimit:10;" d="
			M415.011,141.061c0.167-0.75,0.334-1.5,0.501-2.25"/>
		
			<line style="fill:none;stroke:#DBE2EF;stroke-width:0.6645;stroke-linecap:round;stroke-linejoin:round;stroke-miterlimit:10;" x1="348.86" y1="131.555" x2="409.96" y2="131.555"/>
		
			<line style="fill:none;stroke:#DBE2EF;stroke-width:0.6645;stroke-linecap:round;stroke-linejoin:round;stroke-miterlimit:10;" x1="346.36" y1="139.555" x2="386.372" y2="139.555"/>
		
			<line style="fill:none;stroke:#DBE2EF;stroke-width:0.6645;stroke-linecap:round;stroke-linejoin:round;stroke-miterlimit:10;" x1="344.36" y1="146.555" x2="396.403" y2="146.555"/>
	</g>
	<g>
		<path style="fill:#1054D7;" d="M300.36,46.055h-70.667c-4.971,0-9-4.029-9-9l0,0c0-4.971,4.029-9,9-9h70.667c4.971,0,9,4.029,9,9
			l0,0C309.36,42.026,305.331,46.055,300.36,46.055z"/>
		<g>
			<path style="fill:#F4F4F4;" d="M237.814,33.053l1.114,2.257c0.045,0.09,0.131,0.153,0.23,0.167l2.491,0.362
				c0.25,0.036,0.35,0.344,0.169,0.521l-1.803,1.757c-0.072,0.07-0.105,0.171-0.088,0.27l0.426,2.481
				c0.043,0.249-0.219,0.44-0.443,0.322l-2.228-1.172c-0.089-0.047-0.195-0.047-0.284,0l-2.228,1.172
				c-0.224,0.118-0.486-0.072-0.443-0.322l0.426-2.481c0.017-0.099-0.016-0.2-0.088-0.27l-1.803-1.757
				c-0.181-0.177-0.081-0.484,0.169-0.521l2.491-0.362c0.099-0.014,0.185-0.077,0.23-0.167l1.114-2.257
				C237.378,32.826,237.702,32.826,237.814,33.053z"/>
			<path style="fill:#F4F4F4;" d="M251.557,33.053l1.114,2.257c0.045,0.09,0.13,0.153,0.23,0.167l2.491,0.362
				c0.25,0.036,0.35,0.344,0.169,0.521l-1.803,1.757c-0.072,0.07-0.105,0.171-0.088,0.27l0.426,2.481
				c0.043,0.249-0.219,0.44-0.443,0.322l-2.228-1.172c-0.089-0.047-0.195-0.047-0.284,0l-2.228,1.172
				c-0.224,0.118-0.486-0.072-0.443-0.322l0.425-2.481c0.017-0.099-0.016-0.2-0.088-0.27l-1.803-1.757
				c-0.181-0.177-0.081-0.484,0.169-0.521l2.491-0.362c0.1-0.014,0.186-0.077,0.23-0.167l1.114-2.257
				C251.122,32.826,251.445,32.826,251.557,33.053z"/>
			<path style="fill:#F4F4F4;" d="M265.301,33.053l1.114,2.257c0.045,0.09,0.131,0.153,0.23,0.167l2.491,0.362
				c0.25,0.036,0.35,0.344,0.169,0.521l-1.803,1.757c-0.072,0.07-0.105,0.171-0.088,0.27l0.426,2.481
				c0.043,0.249-0.219,0.44-0.443,0.322l-2.228-1.172c-0.089-0.047-0.195-0.047-0.284,0l-2.228,1.172
				c-0.224,0.118-0.486-0.072-0.443-0.322l0.426-2.481c0.017-0.099-0.016-0.2-0.088-0.27l-1.803-1.757
				c-0.181-0.177-0.081-0.484,0.169-0.521l2.491-0.362c0.099-0.014,0.185-0.077,0.23-0.167l1.114-2.257
				C264.865,32.826,265.189,32.826,265.301,33.053z"/>
			<path style="fill:#F4F4F4;" d="M279.044,33.053l1.114,2.257c0.044,0.09,0.13,0.153,0.23,0.167l2.491,0.362
				c0.25,0.036,0.35,0.344,0.169,0.521l-1.803,1.757c-0.072,0.07-0.105,0.171-0.088,0.27l0.426,2.481
				c0.043,0.249-0.219,0.44-0.443,0.322l-2.228-1.172c-0.089-0.047-0.195-0.047-0.284,0l-2.228,1.172
				c-0.224,0.118-0.486-0.072-0.443-0.322l0.426-2.481c0.017-0.099-0.016-0.2-0.088-0.27l-1.803-1.757
				c-0.181-0.177-0.081-0.484,0.169-0.521l2.491-0.362c0.099-0.014,0.185-0.077,0.23-0.167l1.114-2.257
				C278.608,32.826,278.932,32.826,279.044,33.053z"/>
			<path style="fill:#F4F4F4;" d="M292.787,33.053l1.114,2.257c0.044,0.09,0.13,0.153,0.23,0.167l2.491,0.362
				c0.25,0.036,0.35,0.344,0.169,0.521l-1.803,1.757c-0.072,0.07-0.105,0.171-0.088,0.27l0.426,2.481
				c0.043,0.249-0.219,0.44-0.443,0.322l-2.228-1.172c-0.089-0.047-0.195-0.047-0.284,0l-2.228,1.172
				c-0.224,0.118-0.486-0.072-0.443-0.322l0.426-2.481c0.017-0.099-0.016-0.2-0.088-0.27l-1.803-1.757
				c-0.181-0.177-0.081-0.484,0.169-0.521l2.491-0.362c0.099-0.014,0.185-0.077,0.23-0.167l1.114-2.257
				C292.351,32.826,292.675,32.826,292.787,33.053z"/>
		</g>
	</g>
	<g>
		<g>
			<path style="fill:#FFFFFF;" d="M89.073,279.15l-20.92,178.555c-0.163,2.635,3.399,3.012,3.699,0.392l30.162-178.067"/>
			<polygon style="fill:#011843;" points="88.907,280.489 102.204,280.539 88.169,286.579 			"/>
		</g>
		<g>
			<g>
				<path style="fill:#FFFFFF;" d="M441.859,279.15l20.92,180.238c0.163,2.635-3.399,3.012-3.699,0.391l-30.162-179.75"/>
				<polygon style="fill:#011843;" points="428.927,280.489 442.106,280.489 430.071,286.949 				"/>
			</g>
			<g>
				<path style="fill:#FFFFFF;" d="M361.82,280.489l-9.423,176.927c-0.014,2.641,3.562,2.776,3.714,0.14l18.888-177.066"/>
				<polygon style="fill:#011843;" points="361.82,280.489 374.998,280.489 361.524,286.949 				"/>
			</g>
		</g>
		<rect x="67.374" y="267.894" style="fill:#5C9EFF;" width="388.016" height="12.642"/>
		<rect x="56.972" y="267.894" style="fill:#1054D7;" width="246.47" height="12.642"/>
	</g>
	<g>
		<path style="fill:none;stroke:#DBE2EF;stroke-width:0.8184;stroke-miterlimit:10;" d="M222.36,186.388
			c0,1.841-1.492,3.333-3.333,3.333c-1.841,0-3.333-1.492-3.333-3.333c0-1.841,1.492-3.333,3.333-3.333
			C220.868,183.055,222.36,184.547,222.36,186.388z"/>
		<path style="fill:none;stroke:#DBE2EF;stroke-width:0.8184;stroke-miterlimit:10;" d="M314.027,112.388
			c0,1.841-1.492,3.333-3.333,3.333c-1.841,0-3.333-1.492-3.333-3.333c0-1.841,1.492-3.333,3.333-3.333
			C312.534,109.055,314.027,110.547,314.027,112.388z"/>
		<path style="fill:none;stroke:#DBE2EF;stroke-width:0.8184;stroke-miterlimit:10;" d="M395.36,182.055
			c0,1.841-1.492,3.333-3.333,3.333c-1.841,0-3.333-1.492-3.333-3.333c0-1.841,1.492-3.333,3.333-3.333
			C393.868,178.722,395.36,180.214,395.36,182.055z"/>
		<circle style="fill:none;stroke:#DBE2EF;stroke-width:0.8184;stroke-miterlimit:10;" cx="155.36" cy="193.055" r="3.333"/>
		<path style="fill:none;stroke:#DBE2EF;stroke-width:0.8184;stroke-miterlimit:10;" d="M185.753,178.109
			c0,1.259-1.021,2.28-2.28,2.28c-1.259,0-2.28-1.021-2.28-2.28s1.021-2.28,2.28-2.28
			C184.732,175.829,185.753,176.85,185.753,178.109z"/>
		<path style="fill:none;stroke:#DBE2EF;stroke-width:0.8184;stroke-miterlimit:10;" d="M240.693,157.722
			c0,1.259-1.021,2.28-2.28,2.28s-2.28-1.021-2.28-2.28c0-1.259,1.021-2.28,2.28-2.28S240.693,156.463,240.693,157.722z"/>
		<path style="fill:none;stroke:#DBE2EF;stroke-width:0.8184;stroke-miterlimit:10;" d="M182.027,103.388
			c0,1.259-1.021,2.28-2.28,2.28c-1.259,0-2.28-1.021-2.28-2.28c0-1.259,1.021-2.28,2.28-2.28
			C181.006,101.109,182.027,102.129,182.027,103.388z"/>
		<path style="fill:none;stroke:#DBE2EF;stroke-width:0.8184;stroke-miterlimit:10;" d="M365.36,180.388
			c0,1.259-1.021,2.28-2.28,2.28s-2.28-1.021-2.28-2.28c0-1.259,1.021-2.28,2.28-2.28S365.36,179.129,365.36,180.388z"/>
		<path style="fill:none;stroke:#DBE2EF;stroke-width:0.8184;stroke-miterlimit:10;" d="M104.027,213.722
			c0,1.259-1.021,2.28-2.28,2.28c-1.259,0-2.28-1.021-2.28-2.28c0-1.259,1.021-2.28,2.28-2.28
			C103.006,211.442,104.027,212.463,104.027,213.722z"/>
		<g>
			
				<line style="fill:none;stroke:#DBE2EF;stroke-width:0.8184;stroke-linecap:round;stroke-linejoin:round;stroke-miterlimit:10;" x1="194.491" y1="142.59" x2="194.491" y2="135.52"/>
			
				<line style="fill:none;stroke:#DBE2EF;stroke-width:0.8184;stroke-linecap:round;stroke-linejoin:round;stroke-miterlimit:10;" x1="190.956" y1="139.055" x2="198.027" y2="139.055"/>
		</g>
		<g>
			
				<line style="fill:none;stroke:#DBE2EF;stroke-width:0.8184;stroke-linecap:round;stroke-linejoin:round;stroke-miterlimit:10;" x1="273.158" y1="83.257" x2="273.158" y2="76.186"/>
			
				<line style="fill:none;stroke:#DBE2EF;stroke-width:0.8184;stroke-linecap:round;stroke-linejoin:round;stroke-miterlimit:10;" x1="269.622" y1="79.722" x2="276.693" y2="79.722"/>
		</g>
		<g>
			
				<line style="fill:none;stroke:#DBE2EF;stroke-width:0.8184;stroke-linecap:round;stroke-linejoin:round;stroke-miterlimit:10;" x1="337.158" y1="177.924" x2="337.158" y2="170.853"/>
			
				<line style="fill:none;stroke:#DBE2EF;stroke-width:0.8184;stroke-linecap:round;stroke-linejoin:round;stroke-miterlimit:10;" x1="333.622" y1="174.388" x2="340.693" y2="174.388"/>
		</g>
		<g>
			
				<line style="fill:none;stroke:#DBE2EF;stroke-width:0.8184;stroke-linecap:round;stroke-linejoin:round;stroke-miterlimit:10;" x1="109.824" y1="246.59" x2="109.824" y2="239.52"/>
			
				<line style="fill:none;stroke:#DBE2EF;stroke-width:0.8184;stroke-linecap:round;stroke-linejoin:round;stroke-miterlimit:10;" x1="106.289" y1="243.055" x2="113.36" y2="243.055"/>
		</g>
		<g>
			
				<line style="fill:none;stroke:#DBE2EF;stroke-width:0.8184;stroke-linecap:round;stroke-linejoin:round;stroke-miterlimit:10;" x1="141.158" y1="301.257" x2="141.158" y2="294.186"/>
			
				<line style="fill:none;stroke:#DBE2EF;stroke-width:0.8184;stroke-linecap:round;stroke-linejoin:round;stroke-miterlimit:10;" x1="137.622" y1="297.722" x2="144.693" y2="297.722"/>
		</g>
	</g>
	<g>
		<g>
			<g>
				<path style="fill:#FF6258;" d="M230.891,424.886c-0.585-3.738-2.528-8.689-3.361-12.38c0.465-0.29,18.111-6.894,22.495-8.273
					l4.781,20.147"/>
				<path style="fill:#011843;" d="M233.154,307.788h-7.129c0,0,9.835,20.267,17.835,43.767
					c12.229,35.923,14.916,55.153,14.916,55.153l-49.107,11.264l-32.016-115.784c0,0-5.601-13.239,2.546-21.895h70.775
					L233.154,307.788z"/>
				<path style="fill:#011843;" d="M255.175,424.065l6.253,35.111h-16.956l-2.586-12.581l-8.489,12.581h-30.613l-0.059-2.034
					c-0.092-4.205,2.672-7.973,6.738-9.053c7.996-2.123,18.485-7.549,21.307-23.251"/>
				<path style="fill:none;stroke:#FFFFFF;stroke-linecap:round;stroke-linejoin:round;stroke-miterlimit:10;" d="M230.299,436.608
					c-0.818-0.93-1.637-1.86-2.455-2.789c1.911-0.361,3.346-1.197,5.258-1.558c-1.412-0.758-3.074-1.708-4.486-2.467
					c1.78-0.682,5.241-2.262,5.241-2.262"/>
			</g>
			<g>
				<g>
					<path style="fill:#FF6258;" d="M170.043,418.863c0,0,8.077-12.774,10.368-15.785c0.521,0.17,16.922,9.444,20.796,11.916
						l-12.362,16.612"/>
					<path style="fill:#011843;" d="M192.094,428.044l-13.998,32.801l-14.187-9.287l4.727-11.942l-13.993,5.877l-25.613-16.767
						l1.065-1.734c2.226-3.569,6.603-5.207,10.596-3.884c7.853,2.603,19.6,3.808,30.562-7.784"/>
					<path style="fill:none;stroke:#FFFFFF;stroke-linecap:round;stroke-linejoin:round;stroke-miterlimit:10;" d="M165.678,425.23
						c-0.79-1.409-1.499-2.864-2.121-4.355c2.113,0.319,4.185,0.722,6.299,1.041c-0.738-1.716-1.604-3.64-2.342-5.356
						c1.89,0.774,3.798,1.367,5.688,2.141"/>
				</g>
				<g>
					<path style="fill:#00BAD0;" d="M292.616,312.225h16.316c11.594,0,23.465-5.616,24.427-17.17c0.667-8-3.435-14.762-3.435-14.762
						h-80.987c0,0-28.844,26.051-51.578,56.262c-28.924,38.436-38.257,56.458-38.257,56.458l47.973,28.849l72.084-102.643
						C282.239,314.835,287.26,312.225,292.616,312.225z"/>
					
						<path style="fill:none;stroke:#011843;stroke-width:0.886;stroke-linecap:round;stroke-linejoin:round;stroke-miterlimit:10;" d="
						M202.862,418.296c24.929-33.406,48.945-69.69,73.477-103.935c3.108-4.338,8.4-6.57,13.734-6.715l31.425-0.854"/>
					
						<line style="fill:none;stroke:#011843;stroke-width:0.886;stroke-linecap:round;stroke-linejoin:round;stroke-miterlimit:10;" x1="169.314" y1="382.154" x2="215.018" y2="409.868"/>
					
						<path style="fill:none;stroke:#011843;stroke-width:0.886;stroke-linecap:round;stroke-linejoin:round;stroke-miterlimit:10;" d="
						M244.074,295.099c2.412-2.586,4.824-5.171,7.236-7.757"/>
					
						<path style="fill:none;stroke:#011843;stroke-width:0.886;stroke-linecap:round;stroke-linejoin:round;stroke-miterlimit:10;" d="
						M250.386,292.069c-1.514,2.869-2.753,5.882-3.697,8.985"/>
					
						<path style="fill:none;stroke:#011843;stroke-width:0.886;stroke-linecap:round;stroke-linejoin:round;stroke-miterlimit:10;" d="
						M167.783,390.5c4.352-6.154,8.703-12.307,13.055-18.461"/>
				</g>
			</g>
		</g>
		<g>
			<g>
				<g>
					<path style="fill:#F4F4F4;" d="M334.93,206.146c-0.284-7.339-1.607-12.741-7.449-18.426c-2.204-2.145-4.907-4.552-7.806-6.006
						c-4.221-2.116-9.711-2.952-13.735-4.862l-5.956-7.293l-11.354,1.052l-7.891-1.579c-5.136,9.914-22.428,10.385-30.961,18.688
						c-5.842,5.686-7.166,11.088-7.449,18.426c-0.741,19.166,1.863,61.749,1.863,61.749h38.913h11.051h36.096
						C330.249,267.894,335.671,225.312,334.93,206.146z"/>
					<g style="opacity:0.44;">
						<defs>
							<path id="SVGID_1_" style="opacity:0.44;" d="M356.135,248.277c-2.974-11.717-6.698-23.562-10.996-33.995
								c-3.259-7.91-6.974-15.755-12.449-22.329c-5.283-6.343-12.4-11.451-20.474-13.065c-2.225-0.659-4.41-1.313-6.277-2.2
								l-5.956-7.293l-11.354,1.052l-7.891-1.579c-5.136,9.914-22.428,10.384-30.961,18.688c-5.843,5.686-7.166,11.088-7.449,18.426
								c-0.741,19.166,1.863,61.749,1.863,61.749h38.913h11.051h36.096c0,0,0.107-0.838,0.288-2.33
								c3.656,0.268,7.229,0.528,10.559,0.77C350.896,266.886,358.552,257.801,356.135,248.277z"/>
						</defs>
						<clipPath id="SVGID_00000162335603164840596060000011631133302491130298_">
							<use xlink:href="#SVGID_1_"  style="overflow:visible;"/>
						</clipPath>
						<g style="clip-path:url(#SVGID_00000162335603164840596060000011631133302491130298_);">
							<g>
								
									<line style="fill:none;stroke:#B0BFD6;stroke-width:0.9724;stroke-linecap:round;stroke-linejoin:round;stroke-miterlimit:10;" x1="332.843" y1="279.888" x2="332.843" y2="169.032"/>
								
									<line style="fill:none;stroke:#B0BFD6;stroke-width:0.9724;stroke-linecap:round;stroke-linejoin:round;stroke-miterlimit:10;" x1="314.431" y1="277.294" x2="314.431" y2="169.032"/>
								
									<line style="fill:none;stroke:#B0BFD6;stroke-width:0.9724;stroke-linecap:round;stroke-linejoin:round;stroke-miterlimit:10;" x1="296.02" y1="280.212" x2="296.02" y2="169.032"/>
								
									<line style="fill:none;stroke:#B0BFD6;stroke-width:0.9724;stroke-linecap:round;stroke-linejoin:round;stroke-miterlimit:10;" x1="277.544" y1="273.729" x2="277.674" y2="169.032"/>
								
									<line style="fill:none;stroke:#B0BFD6;stroke-width:0.9724;stroke-linecap:round;stroke-linejoin:round;stroke-miterlimit:10;" x1="259.198" y1="281.214" x2="259.198" y2="169.032"/>
								
									<line style="fill:none;stroke:#B0BFD6;stroke-width:0.9724;stroke-linecap:round;stroke-linejoin:round;stroke-miterlimit:10;" x1="240.787" y1="278.267" x2="240.787" y2="169.032"/>
							</g>
							<g>
								
									<line style="fill:none;stroke:#B0BFD6;stroke-width:0.9724;stroke-linecap:round;stroke-linejoin:round;stroke-miterlimit:10;" x1="229.118" y1="193.666" x2="351.319" y2="193.666"/>
								
									<line style="fill:none;stroke:#B0BFD6;stroke-width:0.9724;stroke-linecap:round;stroke-linejoin:round;stroke-miterlimit:10;" x1="229.118" y1="210.197" x2="351.319" y2="210.197"/>
								
									<line style="fill:none;stroke:#B0BFD6;stroke-width:0.9724;stroke-linecap:round;stroke-linejoin:round;stroke-miterlimit:10;" x1="229.118" y1="227.377" x2="351.319" y2="227.377"/>
								
									<line style="fill:none;stroke:#B0BFD6;stroke-width:0.9724;stroke-linecap:round;stroke-linejoin:round;stroke-miterlimit:10;" x1="229.118" y1="244.556" x2="351.319" y2="245.529"/>
								
									<line style="fill:none;stroke:#B0BFD6;stroke-width:0.9724;stroke-linecap:round;stroke-linejoin:round;stroke-miterlimit:10;" x1="229.118" y1="261.736" x2="351.319" y2="261.736"/>
							</g>
						</g>
					</g>
					<g>
						
							<path style="fill:none;stroke:#011843;stroke-width:0.886;stroke-linecap:round;stroke-linejoin:round;stroke-miterlimit:10;" d="
							M254.61,230.558c0.784,9.779,2.232,21.509,3.771,31.198"/>
						<g>
							
								<line style="fill:none;stroke:#011843;stroke-width:0.886;stroke-linecap:round;stroke-linejoin:round;stroke-miterlimit:10;" x1="284.713" y1="179.853" x2="288.875" y2="187.057"/>
							
								<polyline style="fill:none;stroke:#011843;stroke-width:0.886;stroke-linecap:round;stroke-linejoin:round;stroke-miterlimit:10;" points="
								284.667,179.89 279.481,186.008 274.781,176.446 							"/>
							
								<line style="fill:none;stroke:#011843;stroke-width:0.886;stroke-linecap:round;stroke-linejoin:round;stroke-miterlimit:10;" x1="288.929" y1="186.955" x2="304.683" y2="177.419"/>
							
								<path style="fill:none;stroke:#011843;stroke-width:0.886;stroke-linecap:round;stroke-linejoin:round;stroke-miterlimit:10;" d="
								M284.741,180.339c0.118,9.362-6.619,18.499-8.773,27.611c-1.588,6.718-0.82,13.742,0.011,20.595
								c0.639,5.271,1.311,10.537,2.015,15.8"/>
						</g>
					</g>
					
						<path style="fill:none;stroke:#011843;stroke-width:0.886;stroke-linecap:round;stroke-linejoin:round;stroke-miterlimit:10;" d="
						M259.658,181.819c-0.774,2.871-1.228,5.829-1.351,8.8"/>
				</g>
				<path style="fill:#F4F4F4;" d="M238.891,216.924c0.434-7.032,0.855-11.993,3.469-18.536c2.614-6.543,10.134-14.677,16.333-16.5
					c-5.227,13.006-8.199,57.229-1.976,85.34h-15.194"/>
				<g>
					<g>
						<path style="fill:#FF6258;" d="M271.904,255.131c1.783,1.58,3.424,2.593,5.348,3.768c1.766,1.078,6.483,2.054,8.551,2.107
							h3.037l-1.985-14.262c-0.12,0.04,0.127,0,0,0l-1.574-0.038c-5.628-1.021-11.538-2.599-17.094-3.963
							c-6.194,2.68-10.868,5.929-15.764,10.243c-1.067,0.94-0.88,2.646,0.357,3.346c0.07,0.04,0.143,0.079,0.219,0.118
							c0,0-0.269,0.58,0.154,1.293c0.577,0.972,1.643,0.944,2.553,1.033c0.826,0.081,2.765-1.094,2.765-1.094s0.857,1.157,1.453,1.1
							c2.517-0.245,4.887-0.918,7.42-1.829C268.651,256.486,271.904,255.131,271.904,255.131z"/>
						
							<path style="fill:none;stroke:#011843;stroke-width:0.886;stroke-linecap:round;stroke-linejoin:round;stroke-miterlimit:10;" d="
							M252.641,256.274c4.017-2.719,7.954-5.557,11.802-8.51"/>
						
							<path style="fill:none;stroke:#011843;stroke-width:0.886;stroke-linecap:round;stroke-linejoin:round;stroke-miterlimit:10;" d="
							M259.84,258.504c-0.912-0.228-1.25-0.727-1.334-1.26c-0.121-0.771,0.301-1.526,0.95-1.958
							c3.637-2.419,7.178-5.001,10.486-7.851"/>
						
							<path style="fill:none;stroke:#011843;stroke-width:0.886;stroke-linecap:round;stroke-linejoin:round;stroke-miterlimit:10;" d="
							M284.105,257.181c-2.648-0.263-5.211-1.295-7.318-2.918c-0.929-0.715-2.195-0.826-3.235-0.286
							c-2.519,1.309-5.043,2.486-7.649,3.647c-0.883,0.393-1.983-0.09-2.147-1.043c-0.015-0.086-0.022-0.17-0.021-0.251
							c0.008-0.598,11.384-8.935,11.384-8.935"/>
					</g>
					<g>
						<path style="fill:#F4F4F4;" d="M311.335,178.878c8.439,1.405,15.88,6.664,21.355,13.237
							c5.475,6.574,9.19,14.418,12.449,22.329c4.298,10.433,8.022,22.278,10.996,33.995c2.417,9.523-5.535,18.858-15.35,19.293
							c-20.571,0.911-50.875,0.304-50.875,0.162l-4.049-34.006l16.5,1l12.817,1.646c0,0-10.697-27.471-9.481-44.488
							C305.909,189.059,311.335,178.878,311.335,178.878z"/>
						
							<path style="fill:none;stroke:#011843;stroke-width:0.886;stroke-linecap:round;stroke-linejoin:round;stroke-miterlimit:10;" d="
							M315.623,236.554c0,0-11.256-26.95-9.319-43.901c0.973-8.509,5.267-12.642,5.267-12.642"/>
						
							<polyline style="fill:none;stroke:#011843;stroke-width:0.886;stroke-linecap:round;stroke-linejoin:round;stroke-miterlimit:10;" points="
							324.699,236.736 285.86,233.888 289.576,267.827 						"/>
						
							<line style="fill:none;stroke:#011843;stroke-width:0.886;stroke-linecap:round;stroke-linejoin:round;stroke-miterlimit:10;" x1="301.86" y1="235.055" x2="303.442" y2="267.894"/>
						
							<path style="fill:none;stroke:#011843;stroke-width:0.886;stroke-linecap:round;stroke-linejoin:round;stroke-miterlimit:10;" d="
							M306.557,202.038c-0.664-7.498,2.457-15.235,8.136-20.174"/>
						
							<path style="fill:none;stroke:#011843;stroke-width:0.886;stroke-linecap:round;stroke-linejoin:round;stroke-miterlimit:10;" d="
							M315.356,236.048c2.347-1.479,4.694-2.957,7.04-4.436"/>
					</g>
					
						<path style="fill:none;stroke:#011843;stroke-width:0.886;stroke-linecap:round;stroke-linejoin:round;stroke-miterlimit:10;" d="
						M343.871,265.09c4.303-1.366,7.894-4.81,9.439-9.053"/>
				</g>
			</g>
			<g>
				<g>
					<polygon style="fill:#F74343;" points="300.469,170.409 279.197,171.949 279.284,149.259 300.1,149.259 					"/>
					<path style="fill:#F74343;" d="M300.469,170.409l-15.802,9.481l-5.47-7.941c0,0,4.695-9.886,10.487-9.886
						C295.475,162.063,300.469,170.409,300.469,170.409z"/>
					<polyline style="fill:#011843;" points="298.879,154.277 279.203,170.269 279.203,162.835 					"/>
				</g>
				<path style="fill:#011843;" d="M283.796,122.558c-2.203,6.779-8.336,11.859-14.708,15.053
					C270.344,130.418,275.126,123.206,283.796,122.558z"/>
				<g>
					<path style="fill:#FF6258;" d="M301.725,143.101c-0.101,5.376-1.092,11.1-5.288,14.842c-2.059,1.836-4.57,3.108-7.175,4.017
						c-3.882,1.355-8.936,2.518-12.98,1.402c-4.666-1.289-6.783-5.722-7.586-10.161c-0.582-3.214-0.607-6.524-0.438-9.777
						c0.576-11.084,6.297-20.421,15.964-20.421C297.673,123.004,301.933,132.003,301.725,143.101z"/>
					<path style="fill:#FF6258;" d="M306.565,146.037c-0.189,3.389-2.82,5.997-5.878,5.827c-3.057-0.171-5.382-3.056-5.193-6.444
						c0.189-3.389,2.82-5.997,5.877-5.827C304.428,139.763,306.754,142.648,306.565,146.037z"/>
					<g>
						<g>
							<path style="fill:#E52929;" d="M271.742,144.762c0,1.477-1.197,2.674-2.674,2.674c-0.259,0-0.509-0.037-0.746-0.105
								c-0.043-0.012-0.153-0.056-0.153-0.056s-0.063-1.424,0.006-2.82c0.06-1.234,0.172-2.265,0.172-2.265s0.149-0.041,0.213-0.053
								c0.165-0.032,0.335-0.048,0.509-0.048C270.545,142.087,271.742,143.285,271.742,144.762z"/>
							<path style="fill:#E52929;" d="M292.082,144.762c0,1.477-1.197,2.674-2.674,2.674c-1.477,0-2.674-1.197-2.674-2.674
								s1.197-2.674,2.674-2.674C290.885,142.087,292.082,143.285,292.082,144.762z"/>
						</g>
						<g>
							
								<path style="fill:none;stroke:#011843;stroke-width:0.9724;stroke-linecap:round;stroke-linejoin:round;stroke-miterlimit:10;" d="
								M279.846,139.535c-1.459,2.107-3.307,4.539-3.104,5.796c0.203,1.258,1.506,2.23,2.77,2.066"/>
							<path style="fill:#011843;" d="M275.47,141.966c0,0.448-0.363,0.81-0.81,0.81c-0.448,0-0.81-0.363-0.81-0.81
								c0-0.448,0.363-0.81,0.81-0.81C275.107,141.156,275.47,141.518,275.47,141.966z"/>
							<path style="fill:#011843;" d="M285.032,141.966c0,0.448-0.363,0.81-0.81,0.81c-0.448,0-0.81-0.363-0.81-0.81
								c0-0.448,0.363-0.81,0.81-0.81C284.669,141.156,285.032,141.518,285.032,141.966z"/>
							
								<path style="fill:none;stroke:#011843;stroke-width:0.9724;stroke-linecap:round;stroke-linejoin:round;stroke-miterlimit:10;" d="
								M275.401,151.26c1.577,1.43,3.991,1.857,5.963,1.055"/>
						</g>
					</g>
				</g>
				<g>
					<path style="fill:#011843;" d="M313.309,162.616c-4.432,2.559-10.1,1.04-12.659-3.392c-2.559-4.432,3.392-10.892,3.392-12.659
						c0-2.289,10.1-1.04,12.659,3.392C319.26,154.389,317.741,160.057,313.309,162.616z"/>
					<path style="fill:#011843;" d="M307.514,147.794c-0.251-5.058-1.074-10.176-3.318-14.715s-6.053-8.47-10.871-10.028
						c-3.512-1.136-7.341-0.962-10.938-0.136c3.468,2.48,6.617,5.408,9.487,8.561C296.903,136.997,300.841,144.44,307.514,147.794z"
						/>
					<path style="fill:#011843;" d="M301.806,140.143c-9.137-0.435-19.178-7.819-22.062-16.501
						c5.956-2.462,11.983-1.035,16.287,2.924C299.557,129.811,301.563,132.971,301.806,140.143z"/>
					<path style="fill:#011843;" d="M281.48,126.922c-2.766,3.561-6.644,7.254-10.358,9.812c-1.057,0.728-2.552,1.393-3.521,0.551
						c-0.593-0.515-0.694-1.393-0.654-2.177c0.087-1.716,1.21-3.942,1.987-5.475c0.984-1.943,2.351-3.734,4.163-4.943
						c1.146-0.764,2.445-1.279,3.778-1.628c2.116-0.555,4.444-0.682,6.426,0.244"/>
					
						<path style="fill:none;stroke:#011843;stroke-width:0.886;stroke-linecap:round;stroke-linejoin:round;stroke-miterlimit:10;" d="
						M300.86,158.055c0.75,4,3.961,7.272,7.25,7.626c3.321,0.357,6.672-1.586,8.361-4.467c1.689-2.882,1.812-6.531,0.711-9.684"/>
					
						<path style="fill:none;stroke:#011843;stroke-width:0.886;stroke-linecap:round;stroke-linejoin:round;stroke-miterlimit:10;" d="
						M280.677,126.389c-0.53,8.383,9.154,12.631,16.26,10.728"/>
					
						<path style="fill:none;stroke:#011843;stroke-width:0.886;stroke-linecap:round;stroke-linejoin:round;stroke-miterlimit:10;" d="
						M268.056,136.883c-1.03-0.866-1.346-2.331-1.294-3.676c0.242-6.266,8.07-13.63,14.265-8.938"/>
				</g>
				<g>
					<g>
						
							<path style="fill:none;stroke:#011843;stroke-width:0.886;stroke-linecap:round;stroke-linejoin:round;stroke-miterlimit:10;" d="
							M285.842,153.635h3.728c4.447-0.799,10.684-3.53,13.592-6.987"/>
						<path style="fill:#F4F4F4;" d="M288.841,154.769h-2.755c-0.669,0-1.215-0.547-1.215-1.215l0,0
							c0-0.669,0.547-1.216,1.215-1.216h2.755c0.668,0,1.215,0.547,1.215,1.216l0,0
							C290.056,154.222,289.509,154.769,288.841,154.769z"/>
					</g>
					<g>
						<path style="fill:#9AAECC;" d="M304.359,144.275c0,2.417-0.96,4.949-2.704,5.834c0,0-1.486,0-2.158,0
							c-2.685,0-4.862-2.612-4.862-5.834c0-3.222,2.177-5.835,4.862-5.835h1.914C303.304,139.239,304.359,141.732,304.359,144.275z"
							/>
						<path style="fill:#9AAECC;" d="M297.798,142.102c0.583-4.524-0.634-9.256-3.329-12.936c-2.204-3.012-5.55-5.561-9.101-6.812
							c-0.119-0.042-0.356-0.121-0.356-0.121l-0.002-0.506l3.587,0.061c4.468,0,9.729,6.089,11.114,10.337
							c1.385,4.248,1.596,8.772,1.961,13.225"/>
						<path style="fill:#F4F4F4;" d="M306.142,144.275c0,3.222-2.177,5.834-4.862,5.834c-2.685,0-4.862-2.612-4.862-5.834
							c0-3.222,2.177-5.835,4.862-5.835C303.965,138.441,306.142,141.053,306.142,144.275z"/>
						<path style="fill:#F4F4F4;" d="M299.176,142.102c0.583-4.524-0.634-9.256-3.329-12.936c-2.694-3.681-6.348-6.627-10.837-7.439
							h4.965c0.8,0.018,3.828,1.101,5.616,2.621c2.538,2.158,4.685,5.284,5.498,7.776c1.385,4.248,1.596,8.772,1.961,13.225"/>
						
							<path style="fill:none;stroke:#011843;stroke-width:0.886;stroke-linecap:round;stroke-linejoin:round;stroke-miterlimit:10;" d="
							M303.184,144.316c0,1.208-0.762,2.188-1.702,2.188c-0.94,0-1.702-0.98-1.702-2.188c0-1.208,0.762-2.188,1.702-2.188
							C302.422,142.128,303.184,143.107,303.184,144.316z"/>
					</g>
				</g>
			</g>
		</g>
	</g>
	<g>
		<polygon style="fill:#213E66;" points="236.713,267.894 289.152,267.894 288.502,262.304 236.713,262.304 		"/>
		<path style="fill:#213E66;" d="M246.437,267.894l-28.669-55.527c-1.305-2.527-3.911-4.115-6.755-4.115h-72.58
			c-3.178,0-5.249,3.338-3.837,6.185l23.964,48.343c1.827,3.164,5.203,5.113,8.857,5.113H246.437z"/>
		<path style="fill:#011843;" d="M240.279,267.894l-28.669-55.527c-1.305-2.527-3.911-4.115-6.755-4.115h-72.58
			c-3.178,0-5.249,3.338-3.838,6.185l23.964,48.343c1.827,3.164,5.203,5.113,8.857,5.113H240.279z"/>
		
			<path style="fill:none;stroke:#DBE2EF;stroke-width:0.6645;stroke-linecap:round;stroke-linejoin:round;stroke-miterlimit:10;" d="
			M211.879,221.798l-3.019-5.848c-1.305-2.527-3.911-4.114-6.755-4.114H181.36"/>
		<path style="fill:none;stroke:#DBE2EF;stroke-width:0.8184;stroke-miterlimit:10;" d="M180.458,242.286
			c2.588,1.685,5.737,1.436,7.035-0.556c1.298-1.992,0.251-4.974-2.336-6.659c-2.588-1.685-5.737-1.436-7.035,0.556
			C176.825,237.62,177.871,240.601,180.458,242.286z"/>
	</g>
	<g>
		<g>
			<path style="fill:#1054D7;" d="M361.37,98.055h-39.216c-2.494,0-4.377-2.262-3.925-4.715l1.535-8.334l1.661-9.017
				c0.349-1.894,2-3.268,3.925-3.268h39.216c2.494,0,4.377,2.262,3.925,4.715l-1.432,7.774l-1.764,9.576
				C364.947,96.68,363.296,98.055,361.37,98.055z"/>
			<polyline style="fill:none;stroke:#DBE2EF;stroke-width:0.6645;stroke-miterlimit:10;" points="322.027,72.722 341.36,87.055 
				369.36,72.722 			"/>
		</g>
		
			<line style="fill:none;stroke:#DBE2EF;stroke-width:0.6645;stroke-linecap:round;stroke-linejoin:round;stroke-miterlimit:10;" x1="323.36" y1="95.555" x2="344.883" y2="95.555"/>
		
			<path style="fill:none;stroke:#DBE2EF;stroke-width:0.6645;stroke-linecap:round;stroke-linejoin:round;stroke-miterlimit:10;" d="
			M347.86,95.555c0.167,0,0.333,0,0.5,0h3.041"/>
	</g>
</g>
</svg>
