<?xml version="1.0" encoding="utf-8"?>
<!-- Generator: Adobe Illustrator 27.5.0, SVG Export Plug-In . SVG Version: 6.00 Build 0)  -->
<svg version="1.1" xmlns="http://www.w3.org/2000/svg" xmlns:xlink="http://www.w3.org/1999/xlink" x="0px" y="0px"
	 viewBox="0 0 500 500" style="enable-background:new 0 0 500 500;" xml:space="preserve">
<g id="BACKGROUND">
	<rect style="fill:#FFFFFF;" width="500" height="500"/>
	<path style="opacity:0.22;fill:#B4E7E9;" d="M47.982,252.098c11.556,112.69,119.27,162.324,127.731,166.05
		c82.103,36.159,206.877,27.934,258.016-56.202c54.976-90.448-8.163-214.307-89.411-268.234
		c-56.641-37.594-156.615-64.121-230.077-8.435C38.436,142.74,47.254,244.996,47.982,252.098z"/>
</g>
<g id="OBJECTS">
	<g>
		<g>
			<path style="fill:#A53D31;" d="M156.803,195.757c0,0,19.058,39.211,37.409,35.504c15.075-3.045,25.384-53.964,25.384-53.964
				l-9.438-2.665l-15.806,28.087l-24.082-42.958C170.269,159.761,156.217,185.607,156.803,195.757z"/>
			<path style="fill:#A53D31;" d="M214.048,170.626c0,0,0.497-3.127,4.474-4.37c3.977-1.243,5.344-3.48,7.456-2.858
				c2.113,0.621-1.219,4.225-1.219,4.225S216.409,171.391,214.048,170.626z"/>
			<path style="fill:#A53D31;" d="M210.157,174.632c0,0,0.452-3.902,3.269-5.062c2.817-1.16,16.735-3.811,19.552-5.965
				c2.817-2.154,5.468-4.87,6.296-3.843c0.829,1.027-4.639,6.992-6.462,9.477c-1.823,2.485-13.217,8.059-13.217,8.059
				S211.527,176.877,210.157,174.632z"/>
			<path style="fill:#B6B1FF;" d="M170.158,157.785l21.483,33.762c0,0-11.443,20.669-19.156,28.1v-1.338
				C172.486,218.309,161.545,178.746,170.158,157.785z"/>
			<g>
				<path style="fill:#4F52A9;" d="M189.416,189.322c-5.44,8.136-10.27,16.66-15.71,24.796c-0.269,0.402,0.38,0.778,0.648,0.378
					c5.44-8.136,10.27-16.66,15.71-24.796C190.333,189.298,189.683,188.922,189.416,189.322L189.416,189.322z"/>
			</g>
			<g>
				<path style="fill:#A53D31;" d="M194.231,203.044c0.009,3.37-0.207,6.73-0.648,10.071c-0.051,0.389,0.561,0.385,0.612,0
					c0.441-3.341,0.657-6.701,0.648-10.071C194.842,202.65,194.23,202.65,194.231,203.044L194.231,203.044z"/>
			</g>
			<g>
				<path style="fill:#A53D31;" d="M194.215,206.377c-0.84,1.23-1.68,2.46-2.52,3.69c-0.223,0.326,0.307,0.632,0.528,0.309
					c0.84-1.23,1.68-2.46,2.52-3.69C194.965,206.36,194.436,206.054,194.215,206.377L194.215,206.377z"/>
			</g>
		</g>
		<g>
			<g>
				<g>
					<polygon style="fill:#A53D31;" points="106.686,425.506 106.686,453.219 117.88,454.111 123.36,428.164 					"/>
				</g>
				<g>
					<g>
						<path style="fill:#EC8B1E;" d="M128.953,466.498h-24.659c0,0-0.696-11.97,0.445-15.024c1.141-3.054,4.137,2.19,4.137,2.19
							s2.66-7.787,6.553-6.814c1.774,0.443,2.886,2.013,3.572,3.594c0.297-0.628,0.728-1.243,1.222-1.068
							c0.932,0.331,1.283,6.424,1.29,6.568c1.061,1.107,2.516,2.375,3.752,2.548C128.142,458.898,130.413,461.979,128.953,466.498z"
							/>
					</g>
					<g>
						<g>
							<path style="fill:#FFFFFF;" d="M113.134,454.632c1.6-1.986,4.163-2.481,6.322-1.056c0.329,0.217,0.636-0.312,0.309-0.528
								c-2.368-1.563-5.297-1.04-7.063,1.152C112.457,454.503,112.887,454.938,113.134,454.632L113.134,454.632z"/>
						</g>
					</g>
					<g>
						<g>
							<path style="fill:#FFFFFF;" d="M113.616,456.589c1.6-1.986,4.163-2.481,6.322-1.056c0.329,0.217,0.636-0.312,0.309-0.528
								c-2.368-1.563-5.297-1.04-7.063,1.152C112.939,456.461,113.369,456.896,113.616,456.589L113.616,456.589z"/>
						</g>
					</g>
					<g>
						<g>
							<path style="fill:#FFFFFF;" d="M114.749,458.789c1.341-1.885,3.576-2.415,5.493-0.994c0.316,0.235,0.622-0.296,0.309-0.528
								c-2.194-1.627-4.808-0.925-6.33,1.214C113.992,458.802,114.522,459.108,114.749,458.789L114.749,458.789z"/>
						</g>
					</g>
					<g>
						<g>
							<path style="fill:#FFFFFF;" d="M104.048,454.926c1.976,2.319,2.88,5.299,2.572,8.325c-0.04,0.391,0.572,0.388,0.612,0
								c0.325-3.194-0.673-6.318-2.751-8.757C104.225,454.194,103.794,454.628,104.048,454.926L104.048,454.926z"/>
						</g>
					</g>
					<g>
						<g>
							<path style="fill:#FFFFFF;" d="M104.374,463.748c7.99,0.083,15.981,0.167,23.971,0.25c0.394,0.004,0.394-0.608,0-0.612
								c-7.99-0.083-15.981-0.167-23.971-0.25C103.98,463.132,103.98,463.744,104.374,463.748L104.374,463.748z"/>
						</g>
					</g>
				</g>
			</g>
			<path style="fill:#343737;" d="M98.164,261.599c0,0,2.929,61.482,1.298,82.424c-1.631,20.943-9.702,79.683,3.793,88.392
				c13.547,8.743,21.099,6.968,27.931,2.314c8.081-5.506,8.556-64.304,9.212-85.79c0.656-21.487,6.796-76.127-0.555-87.34
				C132.491,250.385,98.164,261.599,98.164,261.599z"/>
			<g>
				<path style="fill:#FBCA8C;" d="M101.913,267.165c1.28,22.774,1.907,45.584,1.868,68.394
					c-0.019,11.363-0.203,22.726-0.551,34.084c-0.335,10.95-1.018,21.883-1.414,32.829c-0.363,10.038,0.09,20.811,6.088,29.312
					c0.276,0.391,0.927,0.017,0.648-0.379c-5.476-7.76-6.248-17.463-6.052-26.679c0.228-10.702,1.03-21.399,1.385-32.099
					c0.745-22.466,0.847-44.952,0.307-67.424c-0.305-12.687-0.817-25.368-1.529-38.039
					C102.636,266.685,101.886,266.682,101.913,267.165L101.913,267.165z"/>
			</g>
		</g>
		<g>
			<g>
				<g>
					<g>
						<polygon style="fill:#A53D31;" points="156.569,425.506 156.569,453.219 167.763,454.111 173.243,428.164 						"/>
					</g>
				</g>
				<g>
					<g>
						<path style="fill:#EC8B1E;" d="M164.511,451.501c0,0,3.519-6.757,5.596-6.035c2.077,0.721,2.923,8.917,2.923,8.917
							s11.281,3.773,14.433,3.971c3.152,0.198,5.703,1.986,6.108,8.141h-38.522c0,0,0.26-13.9,0.33-16.282
							c0.07-2.383,3.462,0.596,3.462,0.596L164.511,451.501z"/>
					</g>
					<g>
						<g>
							<path style="fill:#FFFFFF;" d="M155.474,455.495c2.695,1.644,3.959,4.912,2.093,8.122c-0.207,0.356,0.28,0.667,0.489,0.309
								c2.043-3.516,0.783-7.136-2.206-8.959C155.532,454.773,155.156,455.301,155.474,455.495L155.474,455.495z"/>
						</g>
					</g>
					<g>
						<g>
							<path style="fill:#FFFFFF;" d="M155.417,464.282c10.073,0.105,20.145,0.21,30.218,0.316c2.342,0.024,4.684,0.049,7.025,0.073
								c0.393,0.004,0.472-0.608,0.078-0.612c-10.073-0.105-20.145-0.211-30.218-0.316c-2.342-0.025-4.684-0.049-7.025-0.073
								C155.102,463.667,155.024,464.278,155.417,464.282L155.417,464.282z"/>
						</g>
					</g>
					<g>
						<g>
							<path style="fill:#FFFFFF;" d="M171.362,456.806c1.583-1.885,3.885-2.415,5.62-0.994c0.286,0.235,0.66-0.296,0.376-0.528
								c-1.986-1.627-4.689-0.925-6.485,1.214C170.604,456.819,171.095,457.124,171.362,456.806L171.362,456.806z"/>
						</g>
					</g>
					<g>
						<g>
							<path style="fill:#FFFFFF;" d="M174.553,457.808c1.583-1.885,3.885-2.415,5.62-0.994c0.286,0.235,0.66-0.296,0.376-0.528
								c-1.986-1.627-4.689-0.925-6.485,1.214C173.794,457.82,174.286,458.126,174.553,457.808L174.553,457.808z"/>
						</g>
					</g>
					<g>
						<g>
							<path style="fill:#FFFFFF;" d="M177.852,458.809c1.582-1.885,3.885-2.415,5.62-0.994c0.286,0.235,0.66-0.296,0.376-0.528
								c-1.986-1.627-4.689-0.925-6.485,1.214C177.094,458.822,177.585,459.128,177.852,458.809L177.852,458.809z"/>
						</g>
					</g>
				</g>
			</g>
			<path style="fill:#343737;" d="M118.376,276.269c0,0,18.972,27.158,35.775,66.034c6.848,15.843-20.253,73.173-2.65,85.5
				c16.209,11.352,26.718,4.497,31.75-4.375c4.7-8.287,10.146-63.649,8.922-79.405c-1.223-15.756-15.531-83.947-20.829-89.2
				C166.045,249.57,118.376,276.269,118.376,276.269z"/>
			<g>
				<path style="fill:#FBCA8C;" d="M143.43,266.543c0.427,15.605,0.007,31.225-1.255,46.785c-0.039,0.481,0.711,0.479,0.75,0
					c1.263-15.56,1.682-31.18,1.255-46.785C144.167,266.061,143.417,266.059,143.43,266.543L143.43,266.543z"/>
			</g>
			<g>
				<path style="fill:#FBCA8C;" d="M138.745,266.54c-0.162,3.93-0.063,7.864,0.332,11.778c0.249,2.473,0.827,6.037,4.042,5.98
					c0.482-0.009,0.483-0.759,0-0.75c-3.61,0.064-3.372-5.661-3.531-8.108c-0.193-2.964-0.216-5.933-0.093-8.9
					C139.515,266.058,138.765,266.059,138.745,266.54L138.745,266.54z"/>
			</g>
			<g>
				<path style="fill:#FBCA8C;" d="M164.918,263.921c1.377,5.632,5.077,10.471,10.151,13.277c0.423,0.234,0.801-0.414,0.379-0.648
					c-4.913-2.717-8.473-7.376-9.806-12.829C165.527,263.253,164.804,263.452,164.918,263.921L164.918,263.921z"/>
			</g>
			<g>
				<path style="fill:#FBCA8C;" d="M144.402,305.438c8.589,13.478,17.63,27.772,18.71,44.164c0.542,8.23-1.535,16.071-4.076,23.821
					c-2.545,7.761-4.971,15.466-6.331,23.54c-1.514,8.989-1.98,18.13-1.413,27.227c0.03,0.479,0.78,0.483,0.75,0
					c-0.523-8.396-0.177-16.839,1.087-25.158c1.255-8.26,3.573-16.175,6.194-24.089c2.502-7.556,4.806-15.234,4.63-23.276
					c-0.172-7.855-2.316-15.551-5.416-22.729c-3.634-8.416-8.575-16.171-13.488-23.88
					C144.79,304.654,144.141,305.029,144.402,305.438L144.402,305.438z"/>
			</g>
		</g>
		<g>
			<path style="fill:#B6B1FF;" d="M173.887,215.675c-19.271,11.207-77.346,0-77.346,0s-1.719-53.816,3.103-59.405
				c3.798-4.402,14.686-10.22,24.16-14.241c0.275-0.116,0.55-0.232,0.824-0.347c0.153-0.063,0.306-0.128,0.459-0.19
				c1.621-0.671,3.187-1.28,4.652-1.815l15.589,3.919c0,0,0.871,0.451,2.288,1.195c0.128,0.067,0.263,0.139,0.402,0.21
				c0.167,0.088,0.34,0.179,0.52,0.273c6.053,3.193,18.804,10.041,21.621,12.51c3.729,3.266,3.943,17.46,2.041,28.631
				C170.298,197.585,173.887,215.675,173.887,215.675z"/>
			<path style="fill:#4F52A9;" d="M140.24,154.018c-8.708-2.477-13.552-9.625-15.154-12.524c1.621-0.671,3.187-1.28,4.652-1.815
				l15.589,3.919c0,0,0.871,0.451,2.288,1.195c0.128,0.067,0.263,0.139,0.402,0.21c0.167,0.088,0.34,0.179,0.52,0.273
				C149.549,149.329,148.705,156.425,140.24,154.018z"/>
			<g>
				<path style="fill:#4F52A9;" d="M145.653,139.766c-0.002-0.008-0.004-0.014-0.004-0.016c0.002-0.002,0.006,0.004,0.012,0.016
					H145.653z"/>
			</g>
			<path style="fill:#B6B1FF;" d="M171.098,263.839c-0.198,0.055-0.396,0.11-0.597,0.163c-3.562,0.96-7.778,1.8-12.298,2.428
				c-0.204,0.029-0.408,0.055-0.612,0.084c-5.152,0.689-10.673,1.099-16.049,1.091c-0.212,0-0.424-0.002-0.634-0.004
				c-2.302-0.016-4.575-0.11-6.775-0.296c-4.755-0.397-8.997-0.575-12.771-0.624c-0.21-0.004-0.416-0.006-0.622-0.008
				c-7.185-0.069-12.632,0.318-16.643,0.5c-0.212,0.01-0.42,0.018-0.624,0.026c-3.501,0.143-5.835,0.088-7.23-0.658
				c-6.353-3.399-0.016-61.358-0.016-61.358l0.09-0.008l10.082-0.92l0.599-0.055l16.025-1.464l0.62-0.055l12.883-1.176l0.616-0.055
				l16.93-1.545l0.602-0.055l11.747-1.072l0.614-0.057l4.722-0.43c0.552,4.687,1.164,10.182,1.904,16.158
				c0.053,0.42,0.104,0.842,0.159,1.266c1.631,12.997,3.882,28.115,7.468,42.113C181.795,259.809,177.63,262.023,171.098,263.839z"
				/>
			<g>
				<path style="fill:#4F52A9;" d="M171.76,185.822c-0.249,10.597,0.566,21.189,2.422,31.624c0.085,0.474,0.807,0.273,0.723-0.199
					c-1.845-10.37-2.643-20.895-2.396-31.425C172.522,185.339,171.772,185.34,171.76,185.822L171.76,185.822z"/>
			</g>
			<g>
				<path style="fill:#4F52A9;" d="M106.998,204.2c-0.428,4.335-0.926,8.667-1.421,12.997c-0.508,4.43-1.009,8.861-1.431,13.293
					c-1.152,12.139-1.715,24.584-0.049,36.682c-0.212,0.01-0.42,0.018-0.624,0.026c-0.51-3.676-0.813-7.384-0.95-11.097
					c-0.483-13.071,0.991-26.033,2.475-38.994c0.489-4.284,0.981-8.567,1.401-12.853c0.133-1.346,0.259-2.691,0.375-4.039
					c1.364-15.805,1.531-32.18-3.123-47.435c0.169-0.122,0.34-0.245,0.516-0.367c2.234,7.252,3.415,14.802,3.851,22.394
					C108.582,184.644,107.966,194.433,106.998,204.2z"/>
			</g>
			<g>
				<path style="fill:#4F52A9;" d="M123.744,197.527c-0.008,1.719-0.043,3.437-0.102,5.154c-0.188,5.574-0.622,11.132-1.144,16.688
					c-0.149,1.594-0.306,3.191-0.467,4.785c-1.419,14.064-2.981,28.531-0.671,42.527c-0.21-0.004-0.416-0.006-0.622-0.008
					c-1.003-6.116-1.283-12.353-1.142-18.561c0.202-8.844,1.197-17.642,2.071-26.435c0.077-0.791,0.155-1.58,0.228-2.371
					c0.522-5.517,0.936-11.038,1.125-16.569c0.088-2.575,0.128-5.15,0.106-7.731c-0.141-16.73-2.428-33.418-6.767-49.573
					c0.188-0.094,0.373-0.184,0.561-0.273c2.255,8.371,3.961,16.883,5.101,25.479C123.206,179.549,123.783,188.538,123.744,197.527z
					"/>
			</g>
			<g>
				<g>
					<path style="fill:#4F52A9;" d="M141.541,267.605c-0.212,0-0.424-0.002-0.634-0.004c-2.018-7.986-3.225-16.164-3.892-24.376
						c-0.616-7.59-0.789-15.193-0.775-22.802c0.01-6.304,0.155-12.612,0.285-18.918c0.098-4.699,0.188-9.397,0.212-14.092
						c0.082-15.872,0.063-33.198-7.811-47.433c0.194-0.075,0.387-0.147,0.577-0.214c3.929,7.174,5.909,15.242,6.875,23.35
						c1.046,8.747,1.034,17.605,0.954,26.4c-0.037,3.98-0.112,7.955-0.192,11.933c-0.112,5.484-0.232,10.967-0.271,16.451
						c-0.006,0.85-0.01,1.7-0.01,2.553C136.832,236.283,137.643,252.239,141.541,267.605z"/>
				</g>
			</g>
			<g>
				<path style="fill:#4F52A9;" d="M158.202,266.431c-0.204,0.029-0.408,0.055-0.612,0.084c-1.337-6.257-2.194-12.618-2.722-19
					c-0.746-9.034-0.858-18.084-0.84-27.136c0.014-6.824,0.102-13.652,0.043-20.474c-0.018-2.281-0.053-4.563-0.112-6.844
					c-0.436-16.696-2.186-33.646-8.298-49.29c0.194,0.102,0.467,0.245,0.811,0.422c3.034,7.937,5.001,16.243,6.216,24.657
					c1.484,10.282,1.896,20.635,1.984,31c0.057,6.83-0.027,13.664-0.037,20.486c-0.002,0.669-0.002,1.337-0.002,2.006
					C154.644,237.082,155.117,251.998,158.202,266.431z"/>
			</g>
			<g>
				<path style="fill:#4F52A9;" d="M171.098,263.839c-0.198,0.055-0.396,0.11-0.597,0.163c-1.382-5.694-2.308-11.499-2.909-17.334
					c-0.962-9.346-1.132-18.728-1.146-28.115c-0.012-6.593,0.055-13.189-0.025-19.776c-0.014-1.15-0.031-2.3-0.055-3.45
					c-0.177-8.63-0.661-17.275-1.961-25.815c-0.634-4.157-1.44-8.306-2.545-12.363c-0.532-1.957-1.172-3.9-2.008-5.745
					c0.296,0.165,0.589,0.332,0.881,0.495c0.736,1.751,1.315,3.58,1.806,5.419c1.244,4.657,2.114,9.421,2.767,14.196
					c1.234,9.026,1.619,18.109,1.729,27.206c0.081,6.557,0.02,13.12,0.031,19.67c0.002,1.527,0.008,3.052,0.02,4.577
					C167.201,236.664,167.876,250.516,171.098,263.839z"/>
			</g>
		</g>
		<g>
			<path style="fill:#A53D31;" d="M103.06,193.852c0,0-21.7,20.548-23.535,25.795c-1.441,4.121,24.687,42.916,24.687,42.916
				l-7.109,9.386c0,0-44.895-44.767-41.001-57.176c1.685-5.369,12.008-29.963,30.05-44.147L103.06,193.852z"/>
			<g>
				<path style="fill:#343737;" d="M89.853,264.447c0,0,4.17-6.977,10.236-8.506l2.141,3.262c0,0-7.173,3.866-9.545,8.665
					C92.684,267.868,89.937,266.323,89.853,264.447z"/>
				<path style="fill:#343737;" d="M94.961,266.308l1.234-0.913c1.242-0.919,1.233-3.043-0.024-4.743
					c-1.258-1.699-3.287-2.331-4.529-1.411l-1.467,1.116l0.552,0.687l3.828,4.758L94.961,266.308z"/>
				<path style="fill:#343737;" d="M94.961,266.308c1.244-0.92,1.232-3.044-0.025-4.743c-1.258-1.699-3.285-2.331-4.529-1.411
					c-1.244,0.92-1.232,3.044,0.025,4.743C91.69,266.597,93.718,267.228,94.961,266.308z"/>
				<path style="fill:#FFFFFF;" d="M93.928,265.418c0.811-0.6,0.804-1.986-0.016-3.095c-0.82-1.109-2.143-1.521-2.955-0.92
					c-0.812,0.6-0.804,1.986,0.016,3.095C91.794,265.606,93.117,266.018,93.928,265.418z"/>
			</g>
			<g>
				<path style="fill:#A53D31;" d="M79.434,218.903c-2.209-2.584-5.103-4.406-8.38-5.302c-0.699-0.191-0.998,0.894-0.299,1.085
					c3.104,0.849,5.793,2.568,7.883,5.013C79.11,220.25,79.902,219.451,79.434,218.903L79.434,218.903z"/>
			</g>
			<g>
				<path style="fill:#A53D31;" d="M74.467,212.524c1.125,1.527,1.983,3.176,2.565,4.983c0.221,0.686,1.308,0.393,1.085-0.299
					c-0.61-1.893-1.498-3.65-2.679-5.252C75.013,211.38,74.037,211.94,74.467,212.524L74.467,212.524z"/>
			</g>
			<path style="fill:#A53D31;" d="M115.664,270.151c0,0-0.22,0.456-0.603,1.193c0,0,0,0-0.001,0.002
				c-2.963,4.012-6.357,7.708-10.107,10.996c-4.083-1.612-8.71-11.139-8.71-11.139l6.186-11.311c0,0,9.536,1.707,16.57,7.714
				c3.523,3.009-7.034-0.604-7.034-0.604L115.664,270.151z"/>
			<g>
				<path style="fill:#FBCA8C;" d="M116.155,268.9c-3.049,5.62-7.31,10.474-12.503,14.206c-0.388,0.279-0.014,0.93,0.378,0.648
					c5.298-3.808,9.66-8.739,12.772-14.475C117.033,268.854,116.386,268.475,116.155,268.9L116.155,268.9z"/>
			</g>
			<g>
				<g>
					<path style="fill:#B6B1FF;" d="M108.437,149.682c-15.07,4.94-27.87,19.112-34.517,28.888l25.472,24.149
						c0,0,10.058-6.022,13.423-21.245C116.517,164.723,108.437,149.682,108.437,149.682z"/>
				</g>
			</g>
			<g>
				<path style="fill:#4F52A9;" d="M77.31,176.108c8.705,7.667,16.989,15.813,25.055,24.144c0.336,0.347,0.866-0.183,0.53-0.53
					c-8.066-8.332-16.35-16.478-25.055-24.144C77.479,175.26,76.947,175.788,77.31,176.108L77.31,176.108z"/>
			</g>
			<g>
				<path style="fill:#4F52A9;" d="M116.214,170.802c-0.671,12.411-7.833,23.988-17.108,31.937c-0.367,0.315,0.165,0.843,0.53,0.53
					c9.429-8.081,16.646-19.862,17.327-32.468C116.99,170.32,116.24,170.321,116.214,170.802L116.214,170.802z"/>
			</g>
		</g>
		<g>
			<g>
				<g>
					<path style="fill:#A53D31;" d="M128.839,140.4c0,0,6.669,12.863,18.455,7.798l0.423-7.95l0.279-5.246l0.196-3.673
						l-13.008-7.143C133.685,130.612,131.706,136.032,128.839,140.4z"/>
				</g>
				<g>
					<path style="fill:#343737;" d="M136.937,130.445c3.569,9.25,8.662,11.922,10.674,11.802l0.385-7.247L136.937,130.445z"/>
				</g>
			</g>
			<g>
				<g>
					<path style="fill:#A53D31;" d="M135.279,120.142c-0.141,0.562-0.242,1.088-0.305,1.595c-0.145,1.174-0.09,2.247,0.145,3.395
						c0.31,1.512,0.928,3.162,1.803,5.351c1.376,3.439,4.621,5.477,8.04,6.407c9.08,2.473,11.572-3.499,13.344-13.055
						c1.099-5.934,3.606-8.713,2.763-11.361l-0.003-0.001c-0.069-0.131-0.141-0.259-0.214-0.385
						c-1.735-3.025-4.633-5.217-7.983-6.195c-0.646-0.188-1.268-0.347-1.872-0.479c-0.136-0.034-0.273-0.063-0.408-0.088
						c-0.056-0.014-0.113-0.025-0.167-0.034c-0.153-0.033-0.304-0.062-0.456-0.087c-0.108-0.021-0.216-0.04-0.323-0.056
						c-0.247-0.042-0.487-0.077-0.723-0.108c-7.532-0.966-10.531,2.971-11.963,7.268
						C135.985,115.232,135.737,118.319,135.279,120.142z"/>
				</g>
				<path style="fill:#343737;" d="M138.515,112.438c0,0,2.342,1.417,2.599,3.238c0.257,1.821,0.34,3.88,1.84,3.184
					c1.5-0.696,2.723-3.363,2.695-6.029c-0.028-2.667,2.051-5.5,5.386-4.25c3.335,1.25,3.091,5.114,5.422,5.057
					c2.331-0.057,3.901-1.14,4.783-0.557c0,0-1.094,4.361-1.971,7.007c0,0,0.634,0.347,2.228-2.769
					c1.226-2.397,1.125-6.946,1.125-6.946s5.333-4.833,2.25-7c-3.083-2.167-5.965-2.375-12.215-4.208
					c-6.25-1.833-14.602-0.906-18.535,4.25c-4.661,6.111-2.964,25.676-0.111,25.242
					C134.342,128.618,135.777,121.445,138.515,112.438z"/>
				<g>
					<path style="fill:#343737;" d="M137.907,123.533c-1.293-0.305-2.256-0.952-2.932-1.796c-0.145,1.174-0.09,2.247,0.145,3.395
						C136.139,124.913,137.088,124.413,137.907,123.533z"/>
				</g>
				<g>
					<path style="fill:#343737;" d="M150.738,120.524c-0.18,0.477-0.616,0.755-0.974,0.62c-0.358-0.135-0.502-0.631-0.322-1.108
						c0.18-0.477,0.616-0.755,0.974-0.62C150.774,119.551,150.918,120.047,150.738,120.524z"/>
				</g>
				<g>
					<path style="fill:#343737;" d="M156.641,122.247c-0.18,0.477-0.616,0.755-0.974,0.62s-0.502-0.631-0.322-1.108
						c0.18-0.477,0.616-0.755,0.974-0.62C156.677,121.273,156.821,121.77,156.641,122.247z"/>
				</g>
				<g>
					<path style="fill:#A53D31;" d="M145.038,121.876c-0.126,0.501,0.551,1.102,1.511,1.344c0.961,0.241,1.841,0.032,1.967-0.469
						c0.126-0.501-0.551-1.102-1.511-1.344C146.045,121.165,145.164,121.375,145.038,121.876z"/>
				</g>
				<g>
					<path style="fill:#A53D31;" d="M157.828,126.231c-0.373,0.133-0.902,0.143-1.456,0.004c-0.959-0.241-1.636-0.842-1.51-1.344
						c0.126-0.5,1.007-0.709,1.966-0.468c0.528,0.133,0.971,0.375,1.242,0.65L157.828,126.231z"/>
				</g>
				<g>
					<g>
						<path style="fill:#343737;" d="M150.973,117.641c-0.509-0.357-1.334-0.527-1.755,0.068c-0.256,0.361-0.708,0.547-1.122,0.311
							c-0.356-0.204-0.57-0.756-0.311-1.122c0.919-1.297,2.68-1.615,4-0.689c0.363,0.254,0.546,0.71,0.311,1.122
							C151.891,117.688,151.34,117.898,150.973,117.641L150.973,117.641z"/>
					</g>
				</g>
				<g>
					<g>
						<path style="fill:#343737;" d="M157.502,119.985c-0.321-0.659-0.772-1.024-1.528-1.019c-1.06,0.007-1.098-1.639-0.037-1.646
							c1.303-0.009,2.404,0.643,2.978,1.82C159.377,120.086,157.967,120.938,157.502,119.985L157.502,119.985z"/>
					</g>
				</g>
				<g>
					<path style="fill:#343737;" d="M151.602,124.551c-0.139-0.062-0.214-0.219-0.167-0.368c0.049-0.161,0.22-0.251,0.381-0.201
						c0.558,0.172,1.017,0.153,1.307,0.106c-0.554-1.162-0.281-2.761-0.267-2.835c0.029-0.166,0.187-0.276,0.353-0.247
						c0.166,0.03,0.277,0.187,0.247,0.353c-0.003,0.018-0.305,1.795,0.379,2.742c0.054,0.074,0.071,0.169,0.047,0.258
						c-0.024,0.089-0.086,0.162-0.17,0.199c-0.035,0.016-0.872,0.378-2.075,0.008C151.624,124.56,151.612,124.556,151.602,124.551z"
						/>
				</g>
			</g>
			<g>
				<path style="fill:#FFFFFF;" d="M154.601,128.2c0,0-2.078-0.77-6.169-2.258c0,0-0.862,4.59,2.202,5.342
					C153.234,131.921,154.601,128.2,154.601,128.2z"/>
			</g>
			<g>
				<g>
					<path style="fill:#A53D31;" d="M150.746,132.986c-0.748,0.056-1.481-0.128-1.905-0.789c-0.215-0.335,0.316-0.652,0.53-0.317
						c0.302,0.472,0.844,0.527,1.361,0.489C151.129,132.339,151.14,132.957,150.746,132.986L150.746,132.986z"/>
				</g>
			</g>
			<g>
				<g>
					<path style="fill:#A53D31;" d="M141.369,122.004c0.86-1.342,0.992-3.021,0.471-4.527c-0.676-1.95-2.053-5.036-4.061-5.254
						c-2.951-0.32-3.928,2.137-4.299,4.796c-0.37,2.659,0.475,6.477,4.171,6.824C139.499,124.016,140.664,123.102,141.369,122.004z"
						/>
				</g>
			</g>
			<g>
				<g>
					<g>
						<path style="fill:#343737;" d="M138.088,120.691c0.413-1.048,0.768-2.164,0.625-3.306c-0.127-1.02-0.829-2.629-2.118-2.537
							c-0.432,0.031-0.555-0.638-0.119-0.669c1.243-0.089,2.166,0.862,2.612,1.958c0.643,1.58,0.235,3.272-0.365,4.795
							C138.564,121.337,137.927,121.099,138.088,120.691L138.088,120.691z"/>
					</g>
				</g>
			</g>
		</g>
	</g>
	<g>
		<g>
			<g>
				<path style="fill:#FAF2E6;" d="M250.945,218.353c0-1.602,0.368-3.339,1.97-3.339h124.363l47.703,47.21v187.431
					c0,1.602-2.23,2.462-3.832,2.462H252.915c-1.602,0-1.97-0.86-1.97-2.462V218.353z"/>
			</g>
			<g>
				<path style="fill:#FFEAAC;" d="M380.54,261.424h43.146l-45.116-45.608v43.146C378.571,260.563,378.939,261.424,380.54,261.424z"
					/>
			</g>
			<rect x="265.973" y="245.906" style="fill:#343737;" width="15.039" height="11.53"/>
			<path style="fill:#4F52A9;" d="M367.35,245.906h-78.853v11.53h78.853V245.906z M367.35,263.926H266.029v11.53H367.35V263.926z
				 M265.973,383.85h141.95v-11.53h-141.95V383.85z M265.973,408.547h141.95v-11.53h-141.95V408.547z M265.973,433.243h141.95
				v-11.53h-141.95V433.243z M337.133,296.555v11.53h70.79v-11.53H337.133z M337.133,330.48h70.79v-11.53h-70.79V330.48z
				 M337.133,352.875h70.79v-11.53h-70.79V352.875z"/>
		</g>
		<g>
			<g>
				<path style="fill:#FAF2E6;" d="M304.799,348.037c12.413-10.088,14.298-28.333,4.208-40.751
					c-10.094-12.416-28.335-14.301-40.752-4.212c-12.417,10.09-14.303,28.336-4.211,40.754
					C274.136,356.244,292.382,358.13,304.799,348.037z M280.796,318.505c3.894-3.164,9.616-2.573,12.781,1.322
					c3.165,3.895,2.574,9.617-1.319,12.781c-3.895,3.165-9.619,2.575-12.783-1.32C276.309,327.392,276.901,321.67,280.796,318.505z"
					/>
				<path style="fill:#343737;" d="M290.726,330.656c-2.824,2.298-6.997,1.867-9.295-0.96c-2.3-2.825-1.868-6.998,0.962-9.296
					c2.828-2.299,6.997-1.864,9.293,0.962C293.982,324.19,293.556,328.357,290.726,330.656 M293.733,334.352
					c4.873-3.96,5.612-11.123,1.651-15.995c-3.96-4.876-11.123-5.613-15.995-1.654c-4.876,3.962-5.618,11.124-1.655,15.997
					C281.697,337.575,288.857,338.314,293.733,334.352L293.733,334.352z"/>
				<path style="fill:#EC8B1E;" d="M256.476,347.552l4.906,5.901l6.436-3.049c3.547,2.683,7.493,4.585,11.695,5.559l0.936,6.419
					l7.626,0.719l2.264-6.5c4.017-0.488,7.852-1.894,11.509-3.974l5.702,4.22l5.901-4.906l-3.102-6.38
					c2.696-3.197,4.723-6.766,5.94-10.614l6.798-1.01l0.719-7.625l-6.027-2.105c-0.18-4.281-1.087-8.668-3.05-12.637l4.209-5.711
					l-4.906-5.901l-5.777,2.817c-3.495-3.336-7.691-5.663-12.084-7.07l-1.065-6.612l-7.66-0.688l-2.065,5.876
					c-4.867,0.176-9.849,1.344-14.272,3.829l-5.629-4.181l-5.901,4.906l3.046,6.237c-3.309,3.862-5.485,8.458-6.605,13.217
					l-6.218,0.99l-0.69,7.661l6.334,2.219c0.531,4.599,2.234,9.009,4.854,13.101L256.476,347.552z M268.084,340.545
					c-8.265-10.169-6.716-25.167,3.455-33.432c10.169-8.264,25.164-6.713,33.427,3.457c8.266,10.168,6.719,25.165-3.453,33.429
					C291.343,352.263,276.347,350.714,268.084,340.545z"/>
			</g>
			<g>
				<path style="fill:#FAF2E6;" d="M245.559,364.586c8.448-5.552,10.795-16.903,5.242-25.354
					c-5.556-8.45-16.904-10.797-25.354-5.245c-8.45,5.553-10.798,16.905-5.244,25.356
					C225.756,367.793,237.108,370.141,245.559,364.586z M232.348,344.488c2.65-1.742,6.21-1.005,7.952,1.645
					c1.742,2.651,1.006,6.211-1.644,7.952c-2.651,1.742-6.212,1.006-7.953-1.645C228.961,349.79,229.698,346.23,232.348,344.488z"/>
				<path style="fill:#343737;" d="M237.817,352.761c-1.922,1.265-4.518,0.728-5.783-1.196c-1.266-1.922-0.728-4.519,1.197-5.783
					c1.924-1.265,4.518-0.726,5.782,1.197C240.277,348.903,239.744,351.496,237.817,352.761 M239.473,355.277
					c3.316-2.179,4.238-6.636,2.057-9.951c-2.179-3.318-6.636-4.238-9.951-2.059c-3.319,2.18-4.241,6.636-2.06,9.952
					C231.7,356.536,236.155,357.457,239.473,355.277L239.473,355.277z"/>
				<path style="fill:#FFBC00;" d="M215.206,361.202l2.708,4.023l4.241-1.507c2.059,1.913,4.419,3.36,6.999,4.24l0.18,4.095
					l4.749,0.938l1.837-3.943c2.557-0.051,5.058-0.691,7.49-1.765l3.316,3.017l4.023-2.709l-1.544-4.209
					c1.899-1.838,3.401-3.953,4.411-6.295l4.338-0.202l0.938-4.748l-3.655-1.708c0.159-2.703-0.131-5.52-1.113-8.139l3.01-3.323
					l-2.708-4.023l-3.812,1.403c-1.985-2.32-4.475-4.05-7.148-5.215l-0.248-4.225l-4.772-0.921l-1.673,3.563
					c-3.071-0.199-6.278,0.217-9.217,1.498l-3.273-2.988l-4.023,2.708l1.518,4.116c-2.327,2.217-3.988,4.969-4.995,7.889
					l-3.972,0.226l-0.922,4.773l3.841,1.799c0.041,2.926,0.831,5.807,2.217,8.547L215.206,361.202z M222.951,357.536
					c-4.549-6.92-2.619-16.251,4.302-20.8c6.92-4.548,16.25-2.618,20.797,4.303c4.549,6.92,2.621,16.251-4.301,20.798
					C236.829,366.386,227.499,364.456,222.951,357.536z"/>
			</g>
		</g>
	</g>
	<g>
		<g>
			<path style="fill:#B4E7E9;" d="M382.153,146.208c0,25.129-20.371,45.5-45.499,45.5c-25.128,0-45.5-20.371-45.5-45.5
				c0-25.128,20.371-45.499,45.5-45.499C361.782,100.709,382.153,121.08,382.153,146.208z"/>
			<g>
				<g>
					<path style="fill:#EC8B1E;" d="M323.512,148.457c-4.952-1.773-8.415-4.773-10.294-8.919
						c-3.253-7.174-0.473-15.094-0.352-15.428l0.728-2.025l11.438,6.625l-1.744,3.231l-7.632-4.42
						c-0.499,2.468-0.92,6.683,0.801,10.457c1.458,3.199,4.228,5.548,8.229,6.981L323.512,148.457z"/>
				</g>
				<g>
					<path style="fill:#FFBC00;" d="M348.393,148.08c5.08-1.362,8.777-4.069,10.988-8.047c3.828-6.885,1.704-15.006,1.611-15.348
						l-0.56-2.078l-11.941,5.668l1.475,3.363l7.968-3.782c0.295,2.501,0.371,6.736-1.652,10.358
						c-1.715,3.069-4.667,5.184-8.772,6.285L348.393,148.08z"/>
				</g>
				<g>
					<g>
						<path style="fill:#FFBC00;" d="M340.269,168.055c-2.448,1.399-4.757,1.379-6.359,1.073c-1.345-0.259-2.192-0.72-2.192-0.72
							c2.581-2.902,2.694-20.463,2.694-20.463l6.498-0.549c-0.308,1.209-0.461,2.535-0.517,3.903
							C340.158,157.714,340.269,168.055,340.269,168.055z"/>
						<path style="fill:#EC8B1E;" d="M340.394,151.3c-3.115,4.187-6.768,12.567-6.483,17.828c-1.345-0.259-2.192-0.72-2.192-0.72
							c2.581-2.902,2.694-20.463,2.694-20.463l6.498-0.549C340.602,148.606,340.45,149.932,340.394,151.3z"/>
					</g>
					<g>
						<path style="fill:#FFBC00;" d="M350.175,173.598c-14.384,8.338-27.693-1.133-27.693-1.133c0.43-0.377,0.858-0.723,1.274-1.048
							c12.168-9.612,21.544-2.752,24.986,0.617C349.672,172.944,350.175,173.598,350.175,173.598z"/>
						<path style="fill:#EC8B1E;" d="M350.175,173.598c-14.384,8.338-27.693-1.133-27.693-1.133c0.43-0.377,0.858-0.723,1.274-1.048
							c3.917,2.163,8.05,3.547,12.814,3.575c4.258,0.019,8.514-1.032,12.172-2.958C349.672,172.944,350.175,173.598,350.175,173.598
							z"/>
						<path style="fill:#FFCC5E;" d="M341.238,173.102c1.094-0.28,2.169-0.753,2.549-1.58c0.363-0.79-0.116-1.736-0.864-2.271
							c-1.4-0.998-3.614-1.191-5.322-1.305c-2.106-0.141-4.338-0.28-6.415,0.114c-3.249,0.618-3.3,2.924-0.183,4.249
							C334.151,173.647,337.901,173.954,341.238,173.102z"/>
					</g>
				</g>
				<g>
					<path style="fill:#FFBC00;" d="M354.194,146.905c-0.369,1.817-7.144,7.178-14.659,8.397c-0.889,0.149-1.794,0.232-2.704,0.251
						c-0.107,0.005-0.214,0.01-0.321,0.005c-8.643-0.011-15.136-5.025-15.89-8.407c-0.754-3.382,3.786-26.92,3.786-26.92
						c8.753-1.373,27.119-0.742,27.119-0.742s0.101,0.8,0.252,2.121c0.24,1.99,0.609,5.172,0.995,8.612
						C353.574,137.41,354.419,145.758,354.194,146.905z"/>
					<path style="fill:#EC8B1E;" d="M325.929,123.765c0,0-9.126,22.935,10.901,31.789c-0.107,0.005-0.214,0.01-0.321,0.005
						c-8.643-0.011-15.136-5.025-15.89-8.407c-0.754-3.382,3.786-26.92,3.786-26.92c8.753-1.373,27.119-0.742,27.119-0.742
						s0.101,0.8,0.252,2.121C347.61,125.781,338.738,131.592,325.929,123.765z"/>
					<g>
						<path style="fill:#FFBC00;" d="M324.402,120.231c0,0,11.909-10.389,27.123-0.742
							C351.525,119.489,337.8,127.953,324.402,120.231z"/>
						<path style="fill:#EC8B1E;" d="M348.251,120.151c0,0-1.909,0.885-4.906,1.54c-2.987,0.637-7.054,1.054-11.377,0.108
							c-1.423-0.317-2.876-0.775-4.321-1.417C327.646,120.382,336.611,114.464,348.251,120.151z"/>
						<path style="fill:#D1730C;" d="M343.344,121.691c-2.987,0.637-7.054,1.054-11.377,0.108
							C334.765,120.998,338.728,120.503,343.344,121.691z"/>
					</g>
					<path style="fill:#FFCC5E;" d="M354.194,146.905c-0.369,1.817-7.144,7.178-14.659,8.397c-2.23-2.164-4.134-4.686-5.618-7.45
						c-0.896-1.665-1.652-3.445-1.86-5.343c-0.375-3.477,1.214-7.013,3.736-9.344c2.521-2.332,5.88-3.527,9.245-3.815
						c2.605-0.227,5.241,0.085,7.733,0.872C353.574,137.41,354.419,145.758,354.194,146.905z"/>
				</g>
			</g>
		</g>
		<g>
			
				<ellipse transform="matrix(0.0452 -0.999 0.999 0.0452 303.8305 491.7682)" style="fill:#B4E7E9;" cx="409.171" cy="86.943" rx="32.605" ry="32.605"/>
			<g>
				<g>
					<path style="fill:#F76E7F;" d="M431.798,86.958c0,12.488-10.124,22.612-22.612,22.612c-12.488,0-22.612-10.124-22.612-22.612
						c0-12.488,10.124-22.612,22.612-22.612C421.674,64.346,431.798,74.47,431.798,86.958z"/>
					<path style="fill:#FFFFFF;" d="M427.849,86.958c0,10.307-8.355,18.662-18.663,18.662c-10.307,0-18.662-8.355-18.662-18.662
						c0-10.307,8.355-18.663,18.662-18.663C419.493,68.296,427.849,76.651,427.849,86.958z"/>
					<path style="fill:#F76E7F;" d="M423.658,86.958c0,7.993-6.479,14.472-14.472,14.472c-7.993,0-14.472-6.48-14.472-14.472
						c0-7.993,6.479-14.472,14.472-14.472C417.179,72.486,423.658,78.965,423.658,86.958z"/>
					<path style="fill:#FFFFFF;" d="M419.42,86.958c0,5.652-4.582,10.233-10.234,10.233c-5.651,0-10.233-4.582-10.233-10.233
						c0-5.652,4.582-10.233,10.233-10.233C414.838,76.725,419.42,81.307,419.42,86.958z"/>
					<path style="fill:#F76E7F;" d="M415.416,86.958c0,3.44-2.789,6.229-6.23,6.229c-3.44,0-6.229-2.789-6.229-6.229
						c0-3.441,2.789-6.229,6.229-6.229C412.627,80.729,415.416,83.518,415.416,86.958z"/>
				</g>
				<g>
					<g>
						<polygon style="fill:#FFBC00;" points="417.336,95.133 417.336,103.236 424.351,110.252 424.351,102.123 						"/>
						<polygon style="fill:#FFBC00;" points="417.362,95.108 425.464,95.108 432.48,102.123 424.351,102.123 						"/>
					</g>
					<g>
						<path style="fill:#343737;" d="M426.192,105.816c-0.474,0-0.948-0.181-1.309-0.542l-17.687-17.688
							c-0.723-0.723-0.723-1.895,0-2.618c0.723-0.723,1.895-0.723,2.618,0l17.687,17.688c0.723,0.723,0.723,1.895,0,2.618
							C427.14,105.635,426.666,105.816,426.192,105.816z"/>
					</g>
				</g>
			</g>
		</g>
		<g>
			
				<ellipse transform="matrix(0.9996 -0.0277 0.0277 0.9996 -2.3911 6.4199)" style="fill:#B4E7E9;" cx="230.862" cy="89.64" rx="55.353" ry="55.353"/>
			<g>
				<path style="fill:#FFBC00;" d="M254.031,73.947c0-13.286-11.182-23.96-24.648-23.125c-11.805,0.733-21.297,10.535-21.68,22.356
					c-0.17,5.255,1.412,10.132,4.205,14.094c3.861,5.476,5.713,12.119,5.713,18.818v0.28h26.48v-0.279
					c0-6.927,2.26-13.595,6.087-19.368C252.617,83.062,254.031,78.67,254.031,73.947z"/>
				<g>
					<path style="fill:#FFFFFF;" d="M229.649,84.728c-0.648-0.331-1.714-0.831-2.338-1.186c1.324-1.449,1.954-3.48,1.173-5.485
						c-1.181-3.035-5.924-4.004-6.908-0.3c-0.521,1.963,0.328,3.953,1.741,5.541c-0.893,0.119-1.845-0.017-2.675-0.414
						c-2.137-1.021-3.218-3.452-3.479-5.693c-0.142-1.223-2.032-1.288-1.963,0c0.23,4.287,2.99,8.47,7.723,8.399
						c0.829-0.013,1.636-0.222,2.377-0.569c0.779,0.529,1.604,0.944,2.402,1.203v22.046c0,1.234,1.918,1.236,1.918,0
						C229.619,108.27,230.222,85.021,229.649,84.728z M226.515,80.256c-0.102,0.852-0.467,1.524-0.984,2.023
						c-0.373-0.344-0.715-0.732-1.01-1.185c-0.413-0.635-1.096-1.973-0.749-2.733C224.89,75.911,226.662,79.025,226.515,80.256z"/>
					<path style="fill:#FFFFFF;" d="M232.103,108.27c0,1.236,1.918,1.234,1.918,0V86.224c0.798-0.259,1.623-0.674,2.402-1.203
						c0.742,0.347,1.548,0.556,2.377,0.569c4.733,0.071,7.492-4.112,7.723-8.399c0.069-1.288-1.821-1.223-1.963,0
						c-0.26,2.24-1.342,4.671-3.479,5.693c-0.83,0.397-1.782,0.533-2.675,0.414c1.413-1.588,2.262-3.578,1.741-5.541
						c-0.984-3.704-5.727-2.735-6.908,0.3c-0.78,2.005-0.151,4.036,1.173,5.485c-0.624,0.355-1.69,0.855-2.337,1.186
						C231.5,85.021,232.103,108.27,232.103,108.27z M237.951,78.362c0.347,0.76-0.335,2.098-0.749,2.733
						c-0.295,0.453-0.637,0.84-1.01,1.185c-0.517-0.499-0.881-1.171-0.983-2.023C235.06,79.025,236.833,75.911,237.951,78.362z"/>
				</g>
				<g>
					<rect x="212.518" y="106.371" style="fill:#343737;" width="36.686" height="8.893"/>
					<path style="fill:#343737;" d="M238.511,128.505h-15.3c-2.803,0-5.076-2.273-5.076-5.076v-12.611h25.451v12.611
						C243.586,126.232,241.314,128.505,238.511,128.505z"/>
				</g>
				<path style="fill:#FFD75D;" d="M254.034,73.946c0-13.285-11.183-23.956-24.654-23.126
					c-11.801,0.733-21.299,10.539-21.678,22.359c-0.044,1.342,0.027,2.657,0.211,3.937c1.483-10.724,10.478-19.269,21.467-19.949
					c1.239-0.076,2.457-0.052,3.65,0.059c-0.297,0.564-0.487,1.244-0.51,2.08c-0.046,1.674,0.832,3.244,1.907,4.528
					c1.465,1.75,3.348,3.15,5.446,4.05c1.369,0.587,2.876,0.966,4.349,0.742c1.869-0.284,3.636-1.686,4.187-3.46
					c2.852,3.306,4.788,7.425,5.404,11.968C253.964,76.091,254.034,75.023,254.034,73.946z"/>
			</g>
		</g>
		<g>
			
				<ellipse transform="matrix(0.9985 -0.0555 0.0555 0.9985 -5.0355 4.7039)" style="fill:#B4E7E9;" cx="82.161" cy="93" rx="32.605" ry="32.605"/>
			<g>
				<path style="fill:#EC8B1E;" d="M83.271,93.42c0.654,0.654,0.654,1.714,0,2.367l-15.78,15.78c-0.654,0.654-1.714,0.654-2.367,0
					l-0.592-0.592c-0.654-0.654-0.654-1.714,0-2.367l15.78-15.78c0.653-0.654,1.713-0.654,2.367,0L83.271,93.42z"/>
				<path style="fill:#A53D31;" d="M81.016,99.214c0.184,0.184,0.184,0.482,0,0.665l-3.993,3.993c-0.184,0.184-0.482,0.184-0.665,0
					l-3.993-3.993c-0.184-0.184-0.184-0.482,0-0.665l3.993-3.993c0.184-0.184,0.482-0.184,0.665,0L81.016,99.214z"/>
				
					<ellipse transform="matrix(0.7071 -0.7071 0.7071 0.7071 -38.2621 86.9063)" style="fill:#6168BD;" cx="85.774" cy="89.64" rx="14.505" ry="14.505"/>
				<g>
					<path style="fill:#FFEAAC;" d="M97.304,89.64c0,6.368-5.162,11.53-11.53,11.53c-6.368,0-11.53-5.162-11.53-11.53
						c0-6.368,5.162-11.53,11.53-11.53C92.142,78.11,97.304,83.272,97.304,89.64z"/>
					<path style="fill:#FFFFFF;" d="M85.774,78.11c6.368,0,11.53,5.162,11.53,11.53c0,6.368-5.162,11.53-11.53,11.53
						c-6.368,0-11.53-5.162-11.53-11.53C74.244,83.272,79.406,78.11,85.774,78.11 M85.774,77.53c-6.678,0-12.11,5.432-12.11,12.11
						c0,6.677,5.433,12.11,12.11,12.11c6.677,0,12.11-5.433,12.11-12.11C97.884,82.962,92.451,77.53,85.774,77.53L85.774,77.53z"/>
				</g>
				<path style="opacity:0.5;fill:#FFFFFF;" d="M93.317,82.455c1.978,3.775-0.253,8.845-4.984,11.324
					c-4.731,2.479-10.169,1.428-12.148-2.348c-1.978-3.775,0.253-8.845,4.984-11.324C85.9,77.628,91.339,78.679,93.317,82.455z"/>
				<path style="opacity:0.5;fill:#FFFFFF;" d="M87.503,81.09c1.071,2.045-0.126,4.784-2.674,6.119
					c-2.548,1.335-5.482,0.76-6.553-1.284c-1.071-2.045,0.126-4.784,2.674-6.119C83.498,78.471,86.432,79.046,87.503,81.09z"/>
			</g>
		</g>
		<circle style="fill:#B4E7E9;" cx="116.631" cy="126.194" r="7.116"/>
		<path style="fill:#B4E7E9;" d="M176.494,119.728c0,2.638-2.139,4.776-4.777,4.776c-2.638,0-4.776-2.138-4.776-4.776
			c0-2.638,2.139-4.776,4.776-4.776C174.356,114.952,176.494,117.09,176.494,119.728z"/>
		<circle style="fill:#B4E7E9;" cx="275.905" cy="150.743" r="7.042"/>
		<path style="fill:#B4E7E9;" d="M372.244,100.449c0,2.456-1.991,4.446-4.447,4.446c-2.456,0-4.447-1.991-4.447-4.446
			c0-2.456,1.991-4.447,4.447-4.447C370.253,96.002,372.244,97.993,372.244,100.449z"/>
	</g>
	<g>
		
			<path style="fill:none;stroke:#343737;stroke-width:2.0492;stroke-linecap:round;stroke-linejoin:round;stroke-miterlimit:10;stroke-dasharray:2.0492,4.0985;" d="
			M288.498,163.291c0,0-47.954,8.839-61.818,51.724c-14.161,43.804,16.907,67.327,16.907,67.327"/>
		
			<path style="fill:none;stroke:#343737;stroke-width:2.0492;stroke-linecap:round;stroke-linejoin:round;stroke-miterlimit:10;stroke-dasharray:2.0492,4.0985;" d="
			M249.204,148.457c0,0,10.016,40.591,67.485,43.251"/>
		
			<path style="fill:none;stroke:#343737;stroke-width:2.0492;stroke-linecap:round;stroke-linejoin:round;stroke-miterlimit:10;stroke-dasharray:2.0492,4.0985;" d="
			M372.528,77.53c0,0-43.502-20.512-80.991,1.877"/>
		
			<path style="fill:none;stroke:#343737;stroke-width:2.0492;stroke-linecap:round;stroke-linejoin:round;stroke-miterlimit:10;stroke-dasharray:2.0492,4.0985;" d="
			M83.761,54.338c0,0,49.639-20.051,87.779,22.876"/>
		
			<path style="fill:none;stroke:#343737;stroke-width:2.0492;stroke-linecap:round;stroke-linejoin:round;stroke-miterlimit:10;stroke-dasharray:2.0492,4.0985;" d="
			M419.42,124.185c0,0,17.804,53.544-20.467,102.407"/>
	</g>
</g>
</svg>
