<?xml version="1.0" encoding="utf-8"?>
<!-- Generator: Adobe Illustrator 27.5.0, SVG Export Plug-In . SVG Version: 6.00 Build 0)  -->
<svg version="1.1" id="Layer_1" xmlns="http://www.w3.org/2000/svg" xmlns:xlink="http://www.w3.org/1999/xlink" x="0px" y="0px"
	 viewBox="0 0 500 500" style="enable-background:new 0 0 500 500;" xml:space="preserve">
<g>
	<g>
		<rect x="0.5" y="0.5" style="fill-rule:evenodd;clip-rule:evenodd;fill:#FFFFFF;" width="499" height="499.001"/>
	</g>
	<g>
		<g>
			<path style="fill:#BFE1FF;" d="M254.222,426.265c-100.285,0-181.873-81.589-181.873-181.875
				c0-100.285,81.588-181.874,181.873-181.874c100.286,0,181.874,81.589,181.874,181.874
				C436.096,344.676,354.508,426.265,254.222,426.265z M254.222,64.298c-99.303,0-180.091,80.789-180.091,180.092
				c0,99.304,80.788,180.093,180.091,180.093c99.302,0,180.094-80.789,180.094-180.093
				C434.315,145.087,353.523,64.298,254.222,64.298z"/>
		</g>
		<g>
			<circle style="fill-rule:evenodd;clip-rule:evenodd;fill:#BFE1FF;" cx="249.999" cy="249.999" r="180.983"/>
		</g>
		<g>
			<g>
				<g>
					<g>
						<g>
							<path style="fill-rule:evenodd;clip-rule:evenodd;fill:#59B2FF;" d="M136.108,443.482H69.938
								c-1.124,0-2.044,0.92-2.044,2.043l0,0c0,1.126,0.92,2.043,2.044,2.043h66.171c1.124,0,2.044-0.917,2.044-2.043l0,0
								C138.152,444.402,137.232,443.482,136.108,443.482z"/>
						</g>
						<g>
							<path style="fill-rule:evenodd;clip-rule:evenodd;fill:#59B2FF;" d="M61.248,443.482H39.064c-1.125,0-2.045,0.92-2.045,2.043
								l0,0c0,1.126,0.92,2.043,2.045,2.043h22.184c1.124,0,2.044-0.917,2.044-2.043l0,0
								C63.292,444.402,62.372,443.482,61.248,443.482z"/>
						</g>
					</g>
					<g>
						<g>
							<path style="fill-rule:evenodd;clip-rule:evenodd;fill:#BFE1FF;" d="M49.332,432.952h-3.319
								c-1.123,0-2.043,0.919-2.043,2.043l0,0c0,1.125,0.92,2.042,2.043,2.042h3.319c1.125,0,2.044-0.917,2.044-2.042l0,0
								C51.376,433.871,50.457,432.952,49.332,432.952z"/>
						</g>
						<g>
							<path style="fill-rule:evenodd;clip-rule:evenodd;fill:#BFE1FF;" d="M61.68,432.952h-3.318c-1.124,0-2.044,0.919-2.044,2.043
								l0,0c0,1.125,0.92,2.042,2.044,2.042h3.318c1.126,0,2.043-0.917,2.043-2.042l0,0
								C63.723,433.871,62.806,432.952,61.68,432.952z"/>
						</g>
						<g>
							<path style="fill-rule:evenodd;clip-rule:evenodd;fill:#BFE1FF;" d="M81.434,432.952H70.708
								c-1.123,0-2.043,0.919-2.043,2.043l0,0c0,1.125,0.92,2.042,2.043,2.042h10.726c1.125,0,2.044-0.917,2.044-2.042l0,0
								C83.478,433.871,82.559,432.952,81.434,432.952z"/>
						</g>
						<g>
							<path style="fill-rule:evenodd;clip-rule:evenodd;fill:#BFE1FF;" d="M108.588,432.952h-17.76
								c-1.125,0-2.043,0.919-2.043,2.043l0,0c0,1.125,0.918,2.042,2.043,2.042h17.76c1.124,0,2.043-0.917,2.043-2.042l0,0
								C110.631,433.871,109.712,432.952,108.588,432.952z"/>
						</g>
					</g>
					<g>
						<g>
							<path style="fill-rule:evenodd;clip-rule:evenodd;fill:#BFE1FF;" d="M68.037,454.013h-3.319c-1.124,0-2.043,0.92-2.043,2.044
								l0,0c0,1.125,0.919,2.043,2.043,2.043h3.319c1.123,0,2.043-0.918,2.043-2.043l0,0
								C70.08,454.933,69.16,454.013,68.037,454.013z"/>
						</g>
						<g>
							<path style="fill-rule:evenodd;clip-rule:evenodd;fill:#BFE1FF;" d="M80.385,454.013h-3.319c-1.124,0-2.044,0.92-2.044,2.044
								l0,0c0,1.125,0.92,2.043,2.044,2.043h3.319c1.123,0,2.043-0.918,2.043-2.043l0,0
								C82.428,454.933,81.508,454.013,80.385,454.013z"/>
						</g>
						<g>
							<path style="fill-rule:evenodd;clip-rule:evenodd;fill:#BFE1FF;" d="M100.138,454.013H89.413
								c-1.124,0-2.043,0.92-2.043,2.044l0,0c0,1.125,0.919,2.043,2.043,2.043h10.725c1.124,0,2.044-0.918,2.044-2.043l0,0
								C102.182,454.933,101.262,454.013,100.138,454.013z"/>
						</g>
						<g>
							<path style="fill-rule:evenodd;clip-rule:evenodd;fill:#BFE1FF;" d="M127.293,454.013h-17.762
								c-1.125,0-2.044,0.92-2.044,2.044l0,0c0,1.125,0.919,2.043,2.044,2.043h17.762c1.123,0,2.044-0.918,2.044-2.043l0,0
								C129.337,454.933,128.416,454.013,127.293,454.013z"/>
						</g>
					</g>
				</g>
				<g>
					<g>
						<g>
							<path style="fill-rule:evenodd;clip-rule:evenodd;fill:#59B2FF;" d="M452.447,140.987v-66.17
								c0-1.125-0.921-2.044-2.045-2.044l0,0c-1.123,0-2.043,0.919-2.043,2.044v66.17c0,1.123,0.92,2.043,2.043,2.043l0,0
								C451.526,143.03,452.447,142.11,452.447,140.987z"/>
						</g>
						<g>
							<path style="fill-rule:evenodd;clip-rule:evenodd;fill:#59B2FF;" d="M452.447,66.127V43.942c0-1.124-0.921-2.043-2.045-2.043
								l0,0c-1.123,0-2.043,0.919-2.043,2.043v22.185c0,1.124,0.92,2.042,2.043,2.042l0,0
								C451.526,68.169,452.447,67.251,452.447,66.127z"/>
						</g>
					</g>
					<g>
						<g>
							<path style="fill-rule:evenodd;clip-rule:evenodd;fill:#BFE1FF;" d="M462.978,54.21v-3.319c0-1.123-0.922-2.043-2.045-2.043
								l0,0c-1.124,0-2.044,0.92-2.044,2.043v3.319c0,1.125,0.92,2.043,2.044,2.043l0,0
								C462.057,56.253,462.978,55.335,462.978,54.21z"/>
						</g>
						<g>
							<path style="fill-rule:evenodd;clip-rule:evenodd;fill:#BFE1FF;" d="M462.978,66.558v-3.319c0-1.123-0.922-2.043-2.045-2.043
								l0,0c-1.124,0-2.044,0.92-2.044,2.043v3.319c0,1.125,0.92,2.044,2.044,2.044l0,0
								C462.057,68.602,462.978,67.683,462.978,66.558z"/>
						</g>
						<g>
							<path style="fill-rule:evenodd;clip-rule:evenodd;fill:#BFE1FF;" d="M462.978,86.312V75.587c0-1.124-0.922-2.043-2.045-2.043
								l0,0c-1.124,0-2.044,0.919-2.044,2.043v10.725c0,1.125,0.92,2.043,2.044,2.043l0,0
								C462.057,88.355,462.978,87.437,462.978,86.312z"/>
						</g>
						<g>
							<path style="fill-rule:evenodd;clip-rule:evenodd;fill:#BFE1FF;" d="M462.978,113.466v-17.76
								c0-1.124-0.922-2.044-2.045-2.044l0,0c-1.124,0-2.044,0.92-2.044,2.044v17.76c0,1.124,0.92,2.044,2.044,2.044l0,0
								C462.057,115.51,462.978,114.59,462.978,113.466z"/>
						</g>
					</g>
					<g>
						<g>
							<path style="fill-rule:evenodd;clip-rule:evenodd;fill:#BFE1FF;" d="M441.915,72.915v-3.318c0-1.124-0.92-2.044-2.043-2.044
								l0,0c-1.123,0-2.044,0.92-2.044,2.044v3.318c0,1.124,0.921,2.044,2.044,2.044l0,0
								C440.995,74.959,441.915,74.039,441.915,72.915z"/>
						</g>
						<g>
							<path style="fill-rule:evenodd;clip-rule:evenodd;fill:#BFE1FF;" d="M441.915,85.262v-3.318c0-1.125-0.92-2.044-2.043-2.044
								l0,0c-1.123,0-2.044,0.919-2.044,2.044v3.318c0,1.125,0.921,2.043,2.044,2.043l0,0
								C440.995,87.305,441.915,86.387,441.915,85.262z"/>
						</g>
						<g>
							<path style="fill-rule:evenodd;clip-rule:evenodd;fill:#BFE1FF;" d="M441.915,105.016V94.291c0-1.124-0.92-2.043-2.043-2.043
								l0,0c-1.123,0-2.044,0.919-2.044,2.043v10.725c0,1.124,0.921,2.043,2.044,2.043l0,0
								C440.995,107.059,441.915,106.14,441.915,105.016z"/>
						</g>
						<g>
							<path style="fill-rule:evenodd;clip-rule:evenodd;fill:#BFE1FF;" d="M441.915,132.17V114.41c0-1.124-0.92-2.043-2.043-2.043
								l0,0c-1.123,0-2.044,0.919-2.044,2.043v17.761c0,1.123,0.921,2.044,2.044,2.044l0,0
								C440.995,134.214,441.915,133.294,441.915,132.17z"/>
						</g>
					</g>
				</g>
			</g>
			<g>
				<g>
					<g>
						<path style="fill-rule:evenodd;clip-rule:evenodd;fill:#BFE1FF;" d="M173.258,59.241v-3.318c0-1.123-0.919-2.043-2.044-2.043
							l0,0c-1.124,0-2.044,0.92-2.044,2.043v3.318c0,1.125,0.92,2.043,2.044,2.043l0,0
							C172.339,61.284,173.258,60.366,173.258,59.241z"/>
					</g>
					<g>
						<path style="fill-rule:evenodd;clip-rule:evenodd;fill:#FF75CA;" d="M159.348,59.241v-3.318c0-1.123-0.92-2.043-2.044-2.043
							l0,0c-1.124,0-2.043,0.92-2.043,2.043v3.318c0,1.125,0.919,2.043,2.043,2.043l0,0
							C158.428,61.284,159.348,60.366,159.348,59.241z"/>
					</g>
					<g>
						<path style="fill-rule:evenodd;clip-rule:evenodd;fill:#BFE1FF;" d="M145.438,59.241v-3.318c0-1.123-0.92-2.043-2.043-2.043
							l0,0c-1.123,0-2.045,0.92-2.045,2.043v3.318c0,1.125,0.922,2.043,2.045,2.043l0,0
							C144.518,61.284,145.438,60.366,145.438,59.241z"/>
					</g>
					<g>
						<path style="fill-rule:evenodd;clip-rule:evenodd;fill:#BFE1FF;" d="M131.527,59.241v-3.318c0-1.123-0.919-2.043-2.043-2.043
							l0,0c-1.124,0-2.043,0.92-2.043,2.043v3.318c0,1.125,0.919,2.043,2.043,2.043l0,0
							C130.608,61.284,131.527,60.366,131.527,59.241z"/>
					</g>
					<g>
						<path style="fill-rule:evenodd;clip-rule:evenodd;fill:#BFE1FF;" d="M117.619,59.241v-3.318c0-1.123-0.92-2.043-2.046-2.043
							l0,0c-1.123,0-2.043,0.92-2.043,2.043v3.318c0,1.125,0.92,2.043,2.043,2.043l0,0
							C116.699,61.284,117.619,60.366,117.619,59.241z"/>
					</g>
				</g>
				<g>
					<g>
						<path style="fill-rule:evenodd;clip-rule:evenodd;fill:#BFE1FF;" d="M434.875,373.284h-3.318c-1.124,0-2.045,0.92-2.045,2.043
							l0,0c0,1.125,0.921,2.043,2.045,2.043h3.318c1.125,0,2.043-0.918,2.043-2.043l0,0
							C436.918,374.204,436,373.284,434.875,373.284z"/>
					</g>
					<g>
						<path style="fill-rule:evenodd;clip-rule:evenodd;fill:#FF75CA;" d="M434.875,387.194h-3.318c-1.124,0-2.045,0.92-2.045,2.043
							l0,0c0,1.125,0.921,2.043,2.045,2.043h3.318c1.125,0,2.043-0.918,2.043-2.043l0,0
							C436.918,388.114,436,387.194,434.875,387.194z"/>
					</g>
					<g>
						<path style="fill-rule:evenodd;clip-rule:evenodd;fill:#BFE1FF;" d="M434.875,401.104h-3.318
							c-1.124,0-2.045,0.919-2.045,2.042l0,0c0,1.125,0.921,2.044,2.045,2.044h3.318c1.125,0,2.043-0.919,2.043-2.044l0,0
							C436.918,402.023,436,401.104,434.875,401.104z"/>
					</g>
					<g>
						<path style="fill-rule:evenodd;clip-rule:evenodd;fill:#BFE1FF;" d="M434.875,415.012h-3.318c-1.124,0-2.045,0.92-2.045,2.043
							l0,0c0,1.126,0.921,2.045,2.045,2.045h3.318c1.125,0,2.043-0.919,2.043-2.045l0,0
							C436.918,415.932,436,415.012,434.875,415.012z"/>
					</g>
					<g>
						<path style="fill-rule:evenodd;clip-rule:evenodd;fill:#BFE1FF;" d="M434.875,428.923h-3.318c-1.124,0-2.045,0.92-2.045,2.043
							l0,0c0,1.126,0.921,2.044,2.045,2.044h3.318c1.125,0,2.043-0.918,2.043-2.044l0,0
							C436.918,429.843,436,428.923,434.875,428.923z"/>
					</g>
				</g>
			</g>
		</g>
	</g>
	<g>
		<g>
			<path style="fill-rule:evenodd;clip-rule:evenodd;fill:#FFFFFF;" d="M341.739,309.886c1.067,0,2.091,0.192,3.033,0.543
				c0.427-0.47,1.045-0.765,1.729-0.765c0.319,0,0.626,0.063,0.9,0.181c0.152-2.012,1.833-3.595,3.883-3.595
				c0.891,0,1.71,0.299,2.363,0.801c0.143-0.195,0.316-0.369,0.513-0.511c-0.375-0.665-0.586-1.43-0.586-2.245
				c0-1.267,0.513-2.413,1.343-3.245c0.831-0.83,1.98-1.344,3.245-1.344h0.017c0.697-0.368,1.491-0.575,2.336-0.575
				c0.515,0,1.015,0.077,1.483,0.223c0.214-0.456,0.574-0.83,1.021-1.061c-0.124-0.569-0.188-1.16-0.188-1.767
				c0-2.302,0.934-4.384,2.439-5.892c1.507-1.507,3.591-2.441,5.892-2.441c0.732,0,1.439,0.095,2.116,0.272
				c4.926,0.072,8.895,4.086,8.895,9.027c0,0.068-0.003,0.139-0.003,0.208c0.437-0.11,0.893-0.169,1.362-0.169
				c0.934,0,1.814,0.232,2.586,0.64c1.316-1.796,3.439-2.962,5.837-2.962c3.993,0,7.231,3.238,7.231,7.232
				c0,0.786-0.125,1.541-0.357,2.25c0.073-0.005,0.146-0.008,0.219-0.008c1.967,0,3.563,1.594,3.563,3.563
				c0,0.23-0.022,0.455-0.065,0.676c0.026-0.002,0.05-0.003,0.075-0.003c1.111,0,2.017,0.883,2.052,1.985
				c0.31-0.059,0.628-0.09,0.954-0.09c1.282,0,2.483,0.447,3.351,1.266c2.313,2.188-0.214,2.756-2.647,2.756h-3.175h-2.49H349.6
				h-3.987h-6.547c-2.538,0-6.163,0.415-3.645-2.236C337.009,310.929,339.252,309.886,341.739,309.886L341.739,309.886z
				 M363.678,298.073c0.127-0.022,0.257-0.033,0.387-0.033l0.067,0.001c-0.009-0.182-0.017-0.363-0.017-0.546
				c0-3.971,2.563-7.344,6.123-8.551c-1.74,0.208-3.301,1.004-4.48,2.182c-1.381,1.382-2.236,3.292-2.236,5.401
				C363.522,297.056,363.576,297.573,363.678,298.073L363.678,298.073z M354.772,306.221c0.235-0.079,0.484-0.121,0.745-0.121
				c0.128,0,0.255,0.009,0.378,0.03c-0.26-0.607-0.403-1.274-0.403-1.976c0-1.398,0.57-2.665,1.494-3.575
				c-0.603,0.19-1.142,0.524-1.579,0.961c-0.706,0.704-1.141,1.68-1.141,2.755C354.266,304.998,354.451,305.654,354.772,306.221z"/>
		</g>
		<g>
			<path style="fill-rule:evenodd;clip-rule:evenodd;fill:#FFFFFF;" d="M297.512,127.971c1.065,0,2.088,0.193,3.032,0.544
				c0.429-0.471,1.044-0.767,1.729-0.767c0.321,0,0.625,0.063,0.901,0.182c0.153-2.012,1.832-3.594,3.881-3.594
				c0.89,0,1.71,0.299,2.365,0.801c0.143-0.196,0.315-0.369,0.511-0.513c-0.374-0.663-0.587-1.429-0.587-2.243
				c0-1.268,0.515-2.415,1.344-3.246c0.831-0.829,1.979-1.344,3.246-1.344h0.015c0.698-0.367,1.494-0.575,2.337-0.575
				c0.518,0,1.016,0.077,1.484,0.223c0.214-0.455,0.573-0.829,1.02-1.06c-0.122-0.57-0.189-1.162-0.189-1.769
				c0-2.3,0.934-4.384,2.44-5.89c1.508-1.509,3.59-2.44,5.891-2.44c0.732,0,1.442,0.095,2.118,0.271
				c4.924,0.073,8.893,4.088,8.893,9.027c0,0.07,0,0.139-0.003,0.209c0.436-0.109,0.892-0.17,1.362-0.17
				c0.935,0,1.814,0.232,2.587,0.642c1.315-1.796,3.438-2.962,5.836-2.962c3.995,0,7.231,3.237,7.231,7.232
				c0,0.784-0.126,1.541-0.355,2.248c0.071-0.003,0.145-0.006,0.218-0.006c1.967,0,3.562,1.594,3.562,3.56
				c0,0.232-0.023,0.457-0.064,0.676c0.024,0,0.049-0.001,0.072-0.001c1.113,0,2.018,0.883,2.055,1.985
				c0.308-0.059,0.627-0.092,0.953-0.092c1.284,0,2.485,0.447,3.35,1.268c2.313,2.188-0.214,2.756-2.646,2.756h-3.175h-2.491
				h-51.064h-3.984h-6.549c-2.537,0-6.161,0.415-3.645-2.237C292.778,129.014,295.024,127.971,297.512,127.971L297.512,127.971z
				 M319.45,116.157c0.124-0.021,0.255-0.032,0.388-0.032l0.065,0.002c-0.011-0.182-0.018-0.363-0.018-0.548
				c0-3.97,2.562-7.342,6.124-8.551c-1.742,0.209-3.302,1.004-4.48,2.182c-1.381,1.383-2.236,3.293-2.236,5.401
				C319.293,115.14,319.346,115.658,319.45,116.157L319.45,116.157z M310.545,124.307c0.232-0.08,0.483-0.123,0.745-0.123
				c0.127,0,0.251,0.011,0.374,0.031c-0.259-0.607-0.402-1.275-0.402-1.975c0-1.4,0.572-2.665,1.494-3.576
				c-0.604,0.191-1.142,0.524-1.576,0.96c-0.707,0.706-1.144,1.681-1.144,2.757C310.036,123.081,310.221,123.74,310.545,124.307z"/>
		</g>
	</g>
	<g>
		<g>
			<path style="fill-rule:evenodd;clip-rule:evenodd;fill:#12006C;" d="M231.564,256.742c0,0-14.557,2.022-23.987,15.601
				c-9.431,13.581-40.551,57.15-40.551,57.15l65.824,1.131L231.564,256.742z"/>
		</g>
		<g>
			<path style="fill-rule:evenodd;clip-rule:evenodd;fill:#59B2FF;" d="M269.822,221.256c0,0-0.778,3.815-1.445,7.103
				c-0.667,3.285-0.567,13.39-0.567,13.39c-0.509,2.743-1.02,9.487-5,9.348c-6.766-0.238,4.19,23.404,13.254,25.945
				c10.479,2.94,32.467-9.175,44.513-16.33c1.514-0.899,0.026-5.08,1.289-5.662c0,0-5.787-2.203-6.339-7.563
				c-0.553-5.361,1.5-24.797,1.5-24.797L269.822,221.256z"/>
		</g>
		<g>
			<path style="fill-rule:evenodd;clip-rule:evenodd;fill:#2C81FE;" d="M269.822,221.256c0,0-0.778,3.815-1.445,7.103
				c-0.667,3.285-0.567,13.39-0.567,13.39c-0.219,1.176-0.435,3.086-0.929,4.874c4.297,3.746,9.028,7.671,11.523,9.081
				c3.146,1.779,7.09,2.607,10.979,2.599c3.891,0.009,7.832-0.819,10.979-2.599c3.222-1.819,10.161-7.823,15.089-12.234
				c0.189-7.654,1.574-20.779,1.574-20.779L269.822,221.256z"/>
		</g>
		<g>
			<path style="fill-rule:evenodd;clip-rule:evenodd;fill:#FFFFFF;" d="M321.866,255.049l37.839,12.956
				c0,0-32.006,48.277-16.318,89.677l1.782,33.821l-7.234,16.702c-26.036,14.504-56.018,22.778-87.937,22.778
				c-12.6,0-24.898-1.293-36.771-3.743l1.366-14.81l-4.122-52.341c-7.16-31.578-1.756-50.549,21.094-103.348l31.246-5.645
				C264.309,270.523,294.927,272.847,321.866,255.049z"/>
		</g>
		<g>
			<path style="fill-rule:evenodd;clip-rule:evenodd;fill:#12006C;" d="M321.866,255.049l37.839,12.956
				c0,0-7.775,11.735-13.783,28.593c-7.073,2.313-11.104,5.497-11.104,5.497c4.304-14.511-1.205-23.33-10.762-27.845
				c-4.46-2.105-9.918-4.771-10.063-5.039c-0.106-0.201-7.685-1.83-16.103-3.584C305.64,263.804,313.914,260.304,321.866,255.049
				L321.866,255.049z M219.618,285.479c2.681-6.893,2.054-11.268,5.69-19.764c0.803-1.877,5.403-7.006,6.256-8.974l31.246-5.645
				c0.367,4.762,2.487,8.493,5.869,11.155c-8.123,1.561-21.887,4.339-30.79,6.865C225.064,272.755,219.964,284.643,219.618,285.479z
				"/>
		</g>
		<g>
			<path style="fill-rule:evenodd;clip-rule:evenodd;fill:#12006C;" d="M321.866,255.049l8.272,2.833
				c-30.334,30.058-76.214,21.824-74.316-5.524l6.988-1.262C264.309,270.523,294.927,272.847,321.866,255.049z"/>
		</g>
		<g>
			<path style="fill-rule:evenodd;clip-rule:evenodd;fill:#59B2FF;" d="M334.071,193.311c0,0,4.868-3.852,7.555-3.08
				c2.686,0.771,4.95,7.625,3.709,12.271c-1.241,4.648-9.406,20.078-17.275,12.213C320.191,206.85,334.071,193.311,334.071,193.311z
				"/>
		</g>
		<g>
			<path style="fill-rule:evenodd;clip-rule:evenodd;fill:#2C81FE;" d="M330.084,197.713c-0.371,0.267-0.562,0.804-0.426,1.199
				c0.123,0.355,0.467,0.475,0.807,0.302h-0.003c0,0-0.211,14.957,2.224,13.063c2.434-1.895,4.954-3.685,6.479-7.209
				c1.518-3.525-0.94-7.466,0.344-8.224c1.227-0.723,2.103,0.916,2.183,1.07l0.001,0.007l0.003,0.003v0.002
				c0.667,1.409,0.816,2.947,0.816,2.956c0.046,0.444,0.403,0.669,0.795,0.499c0.393-0.169,0.674-0.668,0.625-1.113
				c0-0.017-0.554-5.811-4.388-6.321C335.881,193.456,330.1,197.703,330.084,197.713z"/>
		</g>
		<g>
			<path style="fill-rule:evenodd;clip-rule:evenodd;fill:#59B2FF;" d="M250.93,186.297c0,0-2.97-4.194-5.287-4.208
				c-2.313-0.013-5.711,4.907-5.807,8.889c-0.098,3.983,2.794,18.15,10.883,13.735C258.808,200.296,250.93,186.297,250.93,186.297z"
				/>
		</g>
		<g>
			<path style="fill-rule:evenodd;clip-rule:evenodd;fill:#2C81FE;" d="M252.336,190.571c0.232,0.299,0.258,0.77,0.059,1.052
				c-0.181,0.254-0.482,0.268-0.711,0.052l0,0c0,0-3.319,11.938-4.811,9.864c-1.492-2.073-3.078-4.083-3.467-7.239
				c-0.388-3.156,2.485-5.715,1.64-6.616c-0.805-0.86-1.883,0.238-1.981,0.342l-0.005,0.004l-0.002,0.004l0,0
				c-0.859,0.966-1.335,2.154-1.337,2.159c-0.143,0.344-0.478,0.438-0.749,0.212c-0.273-0.226-0.38-0.688-0.237-1.03
				c0.004-0.012,1.793-4.49,4.961-4.003C248.721,185.836,252.326,190.557,252.336,190.571z"/>
		</g>
		<g>
			<path style="fill-rule:evenodd;clip-rule:evenodd;fill:#59B2FF;" d="M298.652,118.403c-56.577-5.188-53.295,42.502-52.361,80.768
				c1.45,59.571,72.326,67.18,86.387,9.273C341.71,171.247,355.039,125.34,298.652,118.403z"/>
		</g>
		<g>
			<path style="fill-rule:evenodd;clip-rule:evenodd;fill:#2C81FE;" d="M246.1,170.277c-0.194,4.569-0.211,9.217-0.151,13.848
				c0.595,0.301,1.237,0.586,1.941,0.847c11.696,4.364,19.558-9.8,19.558-9.8l2.158-5.769
				C269.604,169.403,254.365,170.036,246.1,170.277L246.1,170.277z M336.88,190.84c0.76-3.42,1.462-6.849,2.06-10.256
				c-3.525-5.55-9.57-11.253-9.57-11.253l-8.463-3.331c0,0-4.388,24.676,13.646,24.95
				C335.422,190.963,336.193,190.924,336.88,190.84z"/>
		</g>
		<g>
			<path style="fill-rule:evenodd;clip-rule:evenodd;fill:#12006C;" d="M333.642,204.495c1.235-5.039,2.596-10.655,3.713-15.832
				c7.503-34.727,7.77-60.677-39.113-66.444c-47.035-4.313-52.283,21.103-52.324,56.628c-0.005,5.296,0.133,11.072,0.268,16.261l0,0
				c0,0,6.126-4.985,6.115-16.134c0,0,11.683,1.341,8.916-18.337c-2.767-19.677,22.059-18.427,34.734-17.066
				c12.673,1.36,37.199,5.407,30.318,24.05c-6.881,18.643,4.823,19.812,4.823,19.812c-2.38,10.892,2.549,17.064,2.549,17.064
				V204.495z"/>
		</g>
		<g>
			<path style="fill-rule:evenodd;clip-rule:evenodd;fill:#12006C;" d="M320.897,165.708c0,0-3.664,2.263-6.384,8.648
				c-2.721,6.387-6.764,12.135-14.907,11.26c-8.146-0.875-10.555-9.342-10.555-9.342s-10.325,13.824-21.605-1.102
				c0,0-6.011,7.158-16.863,5.588c-36.457-5.276,0.026-79.77,54.148-70.798c20.815,3.45,31.438,15.56,33.203,23.045
				c-0.241-13.898,12.11-10.558,7.239,8.725C373.591,155.866,323.033,220.373,320.897,165.708z"/>
		</g>
		<g>
			<path style="fill-rule:evenodd;clip-rule:evenodd;fill:#2C81FE;" d="M256.594,124.822c-1.485,8.438-0.679,27.144,37.813,21.646
				l0.91-0.131c0.659-0.098,1.018-0.155,0.973,0.064l-0.003,0.003v0.006c-0.021,0.072-0.093,0.116-0.167,0.102h-0.002
				c-0.205,0.072-0.603,0.162-1.218,0.3l-0.48,0.108c-2.745,0.615-8.11,1.711-14.019,2.335c-3.808,0.401-7.844,0.606-11.545,0.361
				c-4.531-0.302-8.088-1.298-10.883-2.559c-2.797-1.263-4.832-2.793-6.322-4.163c-0.292-0.27-0.508-0.471-0.726-0.673v-0.001v0.001
				c-2.496-2.317-3.692-3.428-6.681-3.061C247.527,134.073,251.693,129.155,256.594,124.822L256.594,124.822z M299.96,145.61
				c0.036-0.012,13.26-4.215,20.295-0.53c0.071,0.035,0.096,0.123,0.06,0.193c-0.032,0.064-0.113,0.092-0.181,0.064l0,0
				c-0.008-0.002-2.866-1.148-4.989,0.378c-1.823,1.31-3.28,0.922-5.21,0.41c-0.452-0.118-0.932-0.246-1.433-0.357
				c-1.372-0.302-2.841-0.462-4.327-0.441c-1.379,0.019-2.773,0.193-4.123,0.554l-0.008,0.002l0,0h-0.006
				c-0.074,0.021-0.153-0.023-0.175-0.1c-0.019-0.074,0.024-0.15,0.096-0.172V145.61z"/>
		</g>
		<g>
			<g>
				<path style="fill-rule:evenodd;clip-rule:evenodd;fill:#2C81FE;" d="M281.167,195.676c-0.02,0.09-0.057,0.178-0.105,0.26
					l-0.276,0.455l-0.005,0.012v-0.002c-1.414,2.335-5.927,9.804-5.944,10.635c0.031,0.599,2.188,2.431,2.66,2.788
					c1.088,0.825,3.763-0.153,4.723-0.501c4.152-1.506-2.661,3.591-4.315,3.086c-1.316-0.4-2.147-1.043-3.119-1.974
					c-0.82-0.784-1.938-2.218-1.996-3.354c-0.06-1.167,4.558-9.05,6.149-11.602c1.497-2.523,1.54-4.189,1.237-5.172
					c-0.205-0.67-0.185-1.66,0.685-0.387C281.585,190.98,282.442,192.999,281.167,195.676z"/>
			</g>
			<g>
				<path style="fill-rule:evenodd;clip-rule:evenodd;fill:#12006C;" d="M296.724,180.836c0.07,0.705,0.281,1.052,0.432,1.213
					c0.053-0.961,0.712-1.643,1.752-2.111c6.786-2.581,17.603-0.47,22.56,3.229l0,0c0.042,0.033,0.065,0.092,0.049,0.147
					c-0.021,0.066-0.088,0.101-0.152,0.075c-3.633-1.389-7.3-1.756-10.573-1.609c-5.245,0.238-9.472,1.795-10.927,2.581
					c-0.514,0.278-1.13,0.564-1.75,0.572c-0.639,0.009-1.274-0.267-1.799-1.123c-0.172-0.284-0.296-0.56-0.383-0.824
					c-0.206-0.625-0.201-1.184-0.115-1.604c0.086-0.437,0.269-0.736,0.391-0.818c0.017-0.01,0.034-0.019,0.048-0.023l0.004-0.003
					h0.002l0.001-0.001c0.361-0.114,0.459,0.275,0.459,0.277l0,0L296.724,180.836z"/>
			</g>
			<g>
				<path style="fill-rule:evenodd;clip-rule:evenodd;fill:#12006C;" d="M274.148,178.312c-0.211,0.642-0.462,0.917-0.62,1.032
					c0.168-0.906-0.219-1.685-0.968-2.351c-4.994-3.91-14.32-4.355-19.195-2.021l0,0c-0.043,0.021-0.074,0.073-0.073,0.127
					c0.003,0.066,0.05,0.112,0.108,0.104c3.282-0.484,6.369-0.01,9.017,0.857c4.245,1.389,7.366,3.777,8.384,4.831
					c0.359,0.372,0.802,0.775,1.308,0.921c0.521,0.151,1.104,0.035,1.722-0.645c0.202-0.226,0.365-0.453,0.496-0.68
					c0.305-0.536,0.424-1.058,0.447-1.467c0.025-0.425-0.057-0.744-0.141-0.846c-0.012-0.014-0.022-0.024-0.034-0.033l-0.003-0.003
					v-0.001h-0.002c-0.27-0.186-0.436,0.153-0.436,0.154l0,0L274.148,178.312z"/>
			</g>
			<g>
				<path style="fill-rule:evenodd;clip-rule:evenodd;fill:#12006C;" d="M297.583,193.669c2.845-3.646,5.774-5.353,8.474-5.728
					c1.855-0.257,3.602,0.113,5.142,0.914c1.534,0.798,2.863,2.024,3.891,3.487c1.877,2.669,2.754,6.129,2.038,9.199
					c-0.021,0.091-0.113,0.146-0.206,0.126c-0.087-0.021-0.145-0.099-0.137-0.182c0.18-2.191-0.608-4.536-2.047-6.48
					c-1.093-1.475-2.557-2.718-4.257-3.488c-1.693-0.768-3.625-1.067-5.65-0.658c-2.352,0.474-4.835,1.903-7.24,4.656
					c-0.575,0.659-1.076,1.387-1.476,2.151h-0.001h0.001c-0.389,0.741-0.683,1.518-0.854,2.294c-0.019,0.09-0.112,0.146-0.206,0.126
					c-0.088-0.019-0.146-0.1-0.137-0.185c0.115-1.066,0.418-2.15,0.863-3.191C296.242,195.631,296.859,194.594,297.583,193.669z"/>
			</g>
			<g>
				<path style="fill-rule:evenodd;clip-rule:evenodd;fill:#12006C;" d="M299.52,192.285c0.451-0.505,0.908-0.961,1.362-1.379
					c1.673-0.852,3.704-1.194,5.806-0.844c4.747,0.792,8.047,4.812,7.374,8.98c-1.121,6.938-10.845,7.162-15.239,3.23
					c-0.785-0.859-1.37-1.855-1.707-2.923C296.633,196.989,297.717,194.304,299.52,192.285z"/>
			</g>
			<g>
				<g>
					<path style="fill:#BFE1FF;" d="M317.031,205.058c-0.063,0-0.125-0.013-0.189-0.041c-0.716-0.33-1.052-0.781-1.088-0.831
						c-0.144-0.2-0.096-0.479,0.102-0.622c0.204-0.142,0.479-0.097,0.62,0.102c0.014,0.014,0.246,0.316,0.739,0.542
						c0.225,0.103,0.322,0.367,0.219,0.591C317.359,204.961,317.198,205.058,317.031,205.058z"/>
				</g>
				<g>
					<path style="fill:#BFE1FF;" d="M314.712,206.254c-0.115,0-0.229-0.044-0.316-0.131c-0.462-0.461-0.585-0.914-0.599-0.965
						c-0.06-0.238,0.084-0.48,0.323-0.541c0.235-0.062,0.477,0.082,0.539,0.316c0.005,0.017,0.087,0.279,0.367,0.559
						c0.175,0.175,0.175,0.456,0,0.631C314.94,206.21,314.825,206.254,314.712,206.254z"/>
				</g>
			</g>
			<g>
				<path style="fill-rule:evenodd;clip-rule:evenodd;fill:#FFFFFF;" d="M303.096,193.618c0.813,0.055,1.425,0.77,1.367,1.596
					c-0.059,0.825-0.764,1.451-1.576,1.396s-1.426-0.769-1.366-1.595C301.576,194.187,302.284,193.563,303.096,193.618z"/>
			</g>
			<g>
				<g>
					<path style="fill-rule:evenodd;clip-rule:evenodd;fill:#12006C;" d="M266.102,182.114c2.244,1.16,4.288,3.604,5.683,7.787
						c0.352,1.061,0.581,2.191,0.662,3.316c0.078,1.082,0.018,2.161-0.2,3.168c-0.018,0.08-0.091,0.137-0.176,0.126
						c-0.088-0.011-0.151-0.089-0.141-0.178c0.083-0.759,0.059-1.555-0.059-2.347c-0.122-0.817-0.343-1.634-0.646-2.408
						c-1.275-3.236-3.018-5.292-4.924-6.436c-1.644-0.986-3.418-1.299-5.125-1.112c-1.711,0.186-3.361,0.874-4.753,1.887
						c-1.836,1.333-3.223,3.23-3.719,5.282c-0.021,0.078-0.092,0.13-0.174,0.121c-0.088-0.008-0.153-0.087-0.144-0.176
						c0.292-3.012,2.091-5.898,4.524-7.761c1.332-1.02,2.858-1.735,4.435-1.997C262.926,181.126,264.561,181.319,266.102,182.114z"
						/>
				</g>
				<g>
					<path style="fill-rule:evenodd;clip-rule:evenodd;fill:#12006C;" d="M269.095,187.374c-0.243-0.598-0.505-1.15-0.779-1.67
						c-1.204-1.282-2.872-2.209-4.81-2.528c-4.374-0.717-8.453,1.943-9.108,5.945c-1.094,6.658,7.319,9.811,12.324,7.561
						c0.941-0.545,1.75-1.272,2.361-2.145C270.207,192.534,270.061,189.759,269.095,187.374z"/>
				</g>
				<g>
					<g>
						<path style="fill:#BFE1FF;" d="M251.52,194.412c-0.222,0-0.415-0.167-0.442-0.395c-0.026-0.245,0.146-0.465,0.394-0.493
							c0.493-0.058,0.782-0.262,0.785-0.264c0.198-0.146,0.476-0.101,0.622,0.094c0.145,0.196,0.106,0.472-0.09,0.619
							c-0.047,0.035-0.479,0.351-1.217,0.436C251.556,194.411,251.538,194.412,251.52,194.412z"/>
					</g>
					<g>
						<path style="fill:#BFE1FF;" d="M253.188,196.204c-0.162,0-0.315-0.088-0.396-0.24c-0.115-0.219-0.028-0.488,0.19-0.602
							c0.329-0.17,0.477-0.389,0.479-0.39c0.134-0.204,0.409-0.265,0.614-0.131c0.205,0.131,0.268,0.399,0.137,0.607
							c-0.024,0.043-0.271,0.422-0.818,0.705C253.326,196.188,253.257,196.204,253.188,196.204z"/>
					</g>
				</g>
				<g>
					<path style="fill-rule:evenodd;clip-rule:evenodd;fill:#FFFFFF;" d="M260.092,187.256c0.773,0.052,1.355,0.736,1.299,1.529
						c-0.057,0.793-0.73,1.394-1.503,1.342c-0.774-0.05-1.355-0.735-1.299-1.528C258.646,187.807,259.317,187.206,260.092,187.256z"
						/>
				</g>
			</g>
			<g>
				<g>
					<path style="fill-rule:evenodd;clip-rule:evenodd;fill:#2C81FE;" d="M289.414,221.53c0.52-0.132,0.844-0.671,0.724-1.203
						c-0.124-0.531-0.646-0.857-1.167-0.727c-0.008,0.004-2.859,1.171-6.462,0.924c-1.274-0.083-1.327,1.392-0.056,1.475
						C286.34,222.265,289.406,221.531,289.414,221.53z"/>
				</g>
				<g>
					<path style="fill-rule:evenodd;clip-rule:evenodd;fill:#2C81FE;" d="M292.306,215.801c0.474-0.256,0.694-0.896,0.486-1.43
						c-0.206-0.533-0.76-0.759-1.236-0.502c-0.021,0.011-7.329,4.049-17.111,2.266c-1.213-0.22-1.332,1.133-0.122,1.352
						C283.289,219.897,292.282,215.814,292.306,215.801z"/>
				</g>
				<g>
					<path style="fill-rule:evenodd;clip-rule:evenodd;fill:#2C81FE;" d="M292.065,212.071c-0.23-0.347-0.816-0.443-1.304-0.217
						c-0.491,0.229-0.701,0.693-0.472,1.04c0.004,0.004,1.699,1.784,2.178,4.477c0.17,0.952,1.605,0.608,1.435-0.34
						C293.385,214.124,292.068,212.077,292.065,212.071z"/>
				</g>
			</g>
		</g>
		<g>
			<path style="fill-rule:evenodd;clip-rule:evenodd;fill:#12006C;" d="M336.055,397.668l29.219-8.142
				c9.765-8.078,18.662-17.163,26.546-27.092c-3.782-19.486-5.989-53.281-9.775-71.044c-3.787-17.763-22.339-23.385-22.339-23.385
				c-26.225,0.982-30.688,50.983-20.496,69.752l4.02,43.111L336.055,397.668z"/>
		</g>
		<g>
			<g>
				<path style="fill:#FFFFFF;" d="M260.508,206.266C260.508,206.266,260.51,206.266,260.508,206.266
					c-0.566,0-1.141-0.026-1.718-0.081c-4.83-0.454-9.192-2.761-12.288-6.497c-3.093-3.736-4.547-8.453-4.093-13.281
					c0.935-9.952,9.644-17.341,19.78-16.38c9.967,0.938,17.315,9.809,16.377,19.778
					C277.685,199.189,269.921,206.266,260.508,206.266z M260.467,171.193c-8.766,0-15.994,6.591-16.815,15.33
					c-0.422,4.497,0.931,8.891,3.812,12.369c2.883,3.479,6.945,5.628,11.443,6.052c9.447,0.879,17.549-5.987,18.42-15.255
					c0.872-9.284-5.972-17.548-15.255-18.42C261.533,171.218,260.998,171.193,260.467,171.193z"/>
			</g>
			<g>
				<path style="fill:#FFFFFF;" d="M306.835,215.9C306.834,215.9,306.836,215.9,306.835,215.9c-0.679,0-1.37-0.033-2.048-0.097
					c-5.751-0.541-10.948-3.287-14.632-7.736c-3.683-4.448-5.415-10.064-4.872-15.814c1.049-11.174,10.293-19.6,21.501-19.6
					c0.679,0,1.368,0.032,2.05,0.096c11.87,1.116,20.618,11.681,19.504,23.551C327.286,207.473,318.041,215.9,306.835,215.9z
					 M306.784,173.899c-10.561,0-19.271,7.941-20.26,18.471c-0.511,5.418,1.123,10.711,4.592,14.902
					c3.473,4.191,8.366,6.78,13.787,7.289c0.642,0.061,1.29,0.091,1.932,0.091c10.562,0,19.272-7.939,20.261-18.47
					c1.051-11.186-7.195-21.141-18.379-22.192C308.073,173.929,307.427,173.899,306.784,173.899z"/>
			</g>
			<g>
				<path style="fill:#FFFFFF;" d="M287.415,186.564c-0.084,0-0.17-0.018-0.253-0.054c-1.442-0.643-2.975-1.045-4.561-1.193
					c-1.583-0.149-3.166-0.041-4.7,0.321c-0.338,0.085-0.672-0.128-0.752-0.463c-0.078-0.335,0.129-0.671,0.465-0.75
					c1.667-0.394,3.384-0.512,5.105-0.35c1.719,0.161,3.384,0.597,4.951,1.295c0.315,0.142,0.454,0.509,0.315,0.824
					C287.881,186.426,287.652,186.564,287.415,186.564z"/>
			</g>
			<g>
				<path style="fill:#FFFFFF;" d="M291.869,202.387c-0.162,0-0.318-0.088-0.397-0.242c-1.501-2.919-2.131-6.198-1.824-9.482
					c0.208-2.197,0.817-4.297,1.814-6.24c0.11-0.219,0.379-0.306,0.601-0.193c0.219,0.112,0.304,0.381,0.191,0.6
					c-0.944,1.842-1.522,3.833-1.717,5.917c-0.294,3.115,0.304,6.225,1.727,8.992c0.114,0.22,0.027,0.487-0.191,0.6
					C292.007,202.372,291.936,202.387,291.869,202.387z M292.85,185.384c-0.082,0-0.169-0.024-0.247-0.075
					c-0.205-0.138-0.259-0.414-0.12-0.619c0.334-0.498,0.701-0.991,1.098-1.464c0.159-0.189,0.441-0.213,0.628-0.057
					c0.189,0.157,0.214,0.438,0.057,0.628c-0.376,0.449-0.725,0.916-1.044,1.389C293.135,185.315,292.994,185.384,292.85,185.384z"
					/>
			</g>
			<g>
				<path style="fill:#FFFFFF;" d="M246.766,191.452c-0.204,0-0.392-0.145-0.434-0.354c-0.081-0.377-0.146-0.758-0.195-1.145
					c-0.031-0.244,0.143-0.467,0.386-0.499c0.237-0.028,0.468,0.143,0.499,0.386c0.046,0.362,0.106,0.721,0.181,1.072
					c0.053,0.241-0.103,0.478-0.343,0.528C246.828,191.449,246.799,191.452,246.766,191.452z M246.467,188.695
					c-0.243,0-0.443-0.197-0.444-0.442c-0.007-0.497,0.017-1.003,0.063-1.501c0.345-3.671,2.055-7.037,4.817-9.479
					c0.184-0.162,0.463-0.146,0.628,0.039c0.162,0.186,0.145,0.467-0.039,0.63c-2.592,2.29-4.194,5.448-4.518,8.894
					c-0.045,0.469-0.064,0.943-0.06,1.41c0.001,0.246-0.197,0.447-0.442,0.45C246.469,188.695,246.469,188.695,246.467,188.695z"/>
			</g>
		</g>
		<g>
			<path style="fill-rule:evenodd;clip-rule:evenodd;fill:#59B2FF;" d="M162.354,243.915c0,0,1.796,7.065,1.093,13.432
				c-3.966,35.828-17.355,44.117-21.398,73.572c-1.694,12.34,7.113,29.539,12.252,35.641c5.139,6.102,19.158,2.236,27.864-17.691
				c8.706-19.93-1.434-70.282,7.201-96.221L162.354,243.915z"/>
		</g>
		<g>
			<path style="fill-rule:evenodd;clip-rule:evenodd;fill:#2C81FE;" d="M162.354,243.915c0,0,1.796,7.065,1.093,13.432
				c-0.091,0.816-0.188,1.613-0.288,2.4c4.762,3.521,12.37,5.998,20.644-3.644c1.36-1.586,2.163-3.063,2.516-4.442L162.354,243.915z
				"/>
		</g>
		<g>
			<g>
				<path style="fill-rule:evenodd;clip-rule:evenodd;fill:#59B2FF;" d="M137.254,217.252c-2.066,2.316-6.749,7.573-8.268,9.336
					c-4.042,4.697,1.049,7.91,6.661,4.037c-0.201,0.908-1.304,5.902-1.842,8.265c-1.422,6.237,5.88,5.635,7.849-2.894l1.017-4.373
					l3.794-3.656l8.134,2.376c0.915,11.882,9.744,15.545,9.744,15.545c0.007,0.211,0.02,0.422,0.035,0.634
					c1.342,17.117,32.993,17.902,28.608-11.973c-2.809-19.13-9.694-35.559-12.797-56.027c-2.124-14.018-11.909-6.346-11.516,2.011
					c0.364,7.77,3.197,28.79,3.197,28.79c0.18,1.35-2.33,1.645-3.518,0.457c-1.189-1.189-6.352-7.541-9.186-10.421
					c-2.833-2.879-8.134,0.046-8.134,0.046l-7.449,4.066c0,0-7.323,4.203-10.628,6.07
					C126.688,213.079,130.157,218.264,137.254,217.252z"/>
			</g>
			<g>
				<path style="fill:#2C81FE;" d="M164.346,246.333c-0.013,0-0.023,0-0.033-0.002c-0.246-0.017-0.43-0.229-0.414-0.474
					c0.005-0.057,0.439-5.568,5.734-7.107c-1.039-3.196-1.219-6.429-0.482-9.448c0.834-3.42,2.836-6.309,5.356-7.729
					c1.945-1.096,3.563-1.376,4.808-0.831c1.413,0.617,1.771,2.061,1.786,2.121c0.189,7.882,6.236,14.727,6.297,14.796
					c0.163,0.183,0.148,0.466-0.035,0.629c-0.184,0.165-0.462,0.149-0.631-0.034c-0.257-0.289-6.323-7.16-6.511-15.271l0,0
					c-0.012,0-0.304-1.01-1.273-1.428c-0.959-0.414-2.342-0.141-4.003,0.795c-2.31,1.302-4.151,3.979-4.928,7.163
					c-1.098,4.503-0.04,9.525,2.98,14.141c0.134,0.205,0.075,0.482-0.131,0.616c-0.203,0.135-0.481,0.078-0.615-0.129
					c-0.97-1.483-1.747-3.009-2.324-4.549c-4.73,1.342-5.124,6.119-5.139,6.326C164.771,246.154,164.574,246.333,164.346,246.333z
					 M135.648,231.071c-0.12,0-0.241-0.049-0.329-0.145c-0.166-0.182-0.153-0.463,0.029-0.63c0.018-0.017,1.908-1.755,3.701-3.727
					c1.787-1.966,6.588-6.816,6.771-7.001l2.966-3.194c0.168-0.18,0.451-0.19,0.63-0.023c0.181,0.168,0.192,0.45,0.025,0.63
					l-2.5,2.691l10.614,3.529c0.983-1.309,2.249-2.748,3.878-4.276l-8.16-8.863c-1.672,0.922-9.689,5.341-11.486,6.322
					c-2.072,1.13-4.401,1.307-4.499,1.313c-0.244,0.008-0.46-0.166-0.477-0.412c-0.017-0.246,0.167-0.459,0.413-0.477
					c0.02-0.001,2.239-0.172,4.135-1.206c2.012-1.097,11.79-6.488,11.791-6.488c0.178-0.1,0.402-0.064,0.543,0.088l8.396,9.121
					c2.43-2.184,5.602-4.53,9.742-6.92c0.216-0.119,0.486-0.049,0.609,0.164c0.123,0.214,0.05,0.486-0.162,0.609
					c-16.249,9.372-17.227,18.121-17.236,18.208c-0.021,0.246-0.232,0.426-0.482,0.403c-0.246-0.022-0.425-0.24-0.403-0.484
					c0.018-0.194,0.291-2.671,2.851-6.345l-10.742-3.571c-0.932,0.943-4.96,5.028-6.556,6.782c-1.82,2.003-3.741,3.767-3.759,3.784
					C135.863,231.032,135.756,231.071,135.648,231.071z M146.465,228.413c-0.111,0-0.224-0.041-0.311-0.125
					c-0.176-0.171-0.181-0.453-0.009-0.63l1.597-1.647c0.17-0.177,0.452-0.182,0.628-0.011c0.178,0.171,0.182,0.454,0.011,0.63
					l-1.595,1.648C146.696,228.368,146.58,228.413,146.465,228.413z"/>
			</g>
		</g>
		<g>
			<path style="fill-rule:evenodd;clip-rule:evenodd;fill:#59B2FF;" d="M381.79,374.025c-3.35-2.056-7.577-3.48-12.658-3.778
				c-16.658-0.98-47.696,30.074-68.451,31.613l2.212,21.262C333.395,413.812,360.477,396.665,381.79,374.025z"/>
		</g>
		<g>
			<path style="fill-rule:evenodd;clip-rule:evenodd;fill:#FF75CA;" d="M115.307,317.8h174.65c1.869,0,3.703,1.53,4.076,3.4
				l19.551,98.283c-19.063,7.155-39.654,11.184-61.149,11.468v0.015H137.818c-1.868,0-3.703-1.53-4.075-3.399l-21.16-106.366
				C112.21,319.331,113.438,317.8,115.307,317.8z"/>
		</g>
		<g>
			<path style="fill-rule:evenodd;clip-rule:evenodd;fill:#12006C;" d="M289.271,321.201l19.202,96.526l0.669,3.356
				c1.489-0.514,2.972-1.046,4.442-1.6l-19.551-98.283c-0.373-1.87-2.207-3.4-4.076-3.4h-4.762
				C287.065,317.8,288.898,319.331,289.271,321.201z"/>
		</g>
		<g>
			<g>
				<g>
					<path style="fill-rule:evenodd;clip-rule:evenodd;fill:#E33BA3;" d="M115.307,317.8h15.748L233.63,430.966h-23.676
						L113.179,324.2l-0.596-2.999C112.21,319.331,113.438,317.8,115.307,317.8z"/>
				</g>
				<g>
					<path style="fill-rule:evenodd;clip-rule:evenodd;fill:#E33BA3;" d="M147.195,317.8h49.501l97.622,107.703
						c-13.428,3.377-27.453,5.257-41.883,5.448v0.015h-2.664L147.195,317.8z"/>
				</g>
			</g>
			<g>
				<path style="fill-rule:evenodd;clip-rule:evenodd;fill:#FF75CA;" d="M206.176,348.167c13.021,0,25.509,11.736,27.894,26.218
					c2.385,14.478-6.238,26.216-19.259,26.216c-13.021,0-25.51-11.737-27.895-26.216
					C184.531,359.903,193.155,348.167,206.176,348.167z"/>
			</g>
			<g>
				<g>
					<path style="fill-rule:evenodd;clip-rule:evenodd;fill:#FFFFFF;" d="M219.857,392.426l-24.856-8.26
						c-1.395-0.461-2.153-1.968-1.692-3.363c0.074-0.22,0.175-0.426,0.295-0.614h-0.002l16.26-25.073
						c0.802-1.235,2.45-1.586,3.687-0.784c0.581,0.378,0.968,0.946,1.128,1.569l8.715,33.369c0.369,1.424-0.486,2.878-1.911,3.246
						C220.92,392.662,220.358,392.62,219.857,392.426z"/>
				</g>
				<g>
					<path style="fill-rule:evenodd;clip-rule:evenodd;fill:#FFFFFF;" d="M226.856,387.707l-26.026,2.884
						c-0.85,0.097-1.66-0.163-2.281-0.657c-0.621-0.496-1.055-1.23-1.15-2.083c-0.014-0.127-0.021-0.26-0.018-0.396v-0.002v-0.011
						v-0.001c0.002-0.115,0.01-0.228,0.022-0.333c0.003-0.018,0.003-0.035,0.005-0.05l4.291-29.573
						c0.124-0.852,0.581-1.57,1.22-2.048l0,0c0.636-0.475,1.456-0.707,2.306-0.583c0.393,0.056,0.759,0.186,1.085,0.372
						c0.339,0.191,0.638,0.445,0.878,0.742l0.008,0.011l21.83,26.63c0.018,0.018,0.035,0.041,0.049,0.063
						c0.525,0.657,0.738,1.467,0.66,2.245c-0.08,0.789-0.458,1.548-1.115,2.09c-0.013,0.011-0.027,0.021-0.043,0.031
						c-0.246,0.198-0.518,0.353-0.797,0.462C227.48,387.619,227.169,387.687,226.856,387.707L226.856,387.707z M200.732,389.708
						l26.033-2.884l0.021-0.004c0.227-0.014,0.453-0.064,0.669-0.148c0.198-0.078,0.392-0.189,0.567-0.327l0.02-0.021
						c0.478-0.387,0.75-0.932,0.807-1.494c0.058-0.564-0.101-1.154-0.489-1.628l-21.854-26.661l-0.009-0.012
						c-0.172-0.212-0.385-0.393-0.627-0.531c-0.23-0.131-0.492-0.224-0.772-0.264c-0.606-0.088-1.192,0.078-1.647,0.417h-0.002l0,0
						c-0.455,0.339-0.781,0.853-0.869,1.457l-4.285,29.527l-0.002,0.048c-0.016,0.093-0.023,0.185-0.025,0.273v0.008v0.003
						c0,0.089,0.005,0.185,0.016,0.285c0.067,0.608,0.377,1.131,0.818,1.483C199.547,389.591,200.125,389.778,200.732,389.708z"/>
				</g>
			</g>
		</g>
		<g>
			<path style="fill:#FFFFFF;" d="M126.355,390.883c-0.207,0-0.395-0.147-0.436-0.358l-13.774-69.237
				c-0.208-1.05,0.016-2.043,0.634-2.795c0.602-0.733,1.5-1.138,2.527-1.138h87.453c0.246,0,0.444,0.199,0.444,0.445
				s-0.198,0.446-0.444,0.446h-87.453c-0.756,0-1.409,0.288-1.839,0.813c-0.445,0.541-0.603,1.271-0.448,2.055l13.774,69.236
				c0.048,0.241-0.109,0.478-0.351,0.525C126.414,390.88,126.385,390.883,126.355,390.883z M283.667,248.174
				c-0.02,0-0.039-0.001-0.06-0.004c-18.262-2.471-37.022-18.577-37.762-48.989l-0.017-0.727c-0.008-0.246,0.186-0.45,0.434-0.457
				c0.257-0.03,0.449,0.188,0.454,0.434l0.02,0.727c0.727,29.889,19.102,45.709,36.99,48.129c0.243,0.033,0.416,0.257,0.382,0.501
				C284.076,248.012,283.886,248.174,283.667,248.174z M245.246,179.742c-0.061,0-0.121-0.012-0.178-0.037
				c-8.76-3.79-11.773-13.587-8.058-26.206c6.499-22.071,33.671-49.636,67.792-43.978c9.135,1.514,17.262,4.884,23.504,9.746
				c0.193,0.151,0.229,0.432,0.077,0.626c-0.151,0.194-0.43,0.229-0.626,0.077c-6.125-4.771-14.112-8.08-23.101-9.569
				c-33.61-5.575-60.386,21.595-66.791,43.35c-3.575,12.145-0.751,21.543,7.556,25.137c0.227,0.098,0.329,0.36,0.231,0.586
				C245.583,179.641,245.417,179.742,245.246,179.742z"/>
		</g>
	</g>
	<g style="opacity:0.25;">
		<path style="fill-rule:evenodd;clip-rule:evenodd;fill:#FFFFFF;" d="M59.763,124.742h151.154c4.05,0,7.363,3.314,7.363,7.363
			v106.089c0,4.051-3.314,7.363-7.363,7.363H59.763c-4.051,0-7.365-3.313-7.365-7.363V132.105
			C52.397,128.055,55.712,124.742,59.763,124.742z"/>
	</g>
	<g>
		<path style="fill:#BFE1FF;" d="M69.275,246.449h-9.513c-4.552,0-8.256-3.703-8.256-8.255V132.105c0-4.552,3.704-8.254,8.256-8.254
			h57.798c0.492,0,0.89,0.397,0.89,0.891c0,0.492-0.398,0.891-0.89,0.891H59.763c-3.569,0-6.474,2.904-6.474,6.473v106.089
			c0,3.568,2.904,6.473,6.474,6.473h9.513c0.493,0,0.893,0.398,0.893,0.891C70.168,246.05,69.769,246.449,69.275,246.449z"/>
	</g>
	<g>
		<g>
			<path style="fill-rule:evenodd;clip-rule:evenodd;fill:#FFFFFF;" d="M170.896,181.901c2.233,0,4.056-1.823,4.056-4.057
				c0-2.233-1.822-4.055-4.056-4.055c-2.234,0-4.056,1.821-4.056,4.055C166.841,180.078,168.662,181.901,170.896,181.901z"/>
		</g>
		<g>
			<path style="fill:#FFFFFF;" d="M170.896,193.258c-8.498,0-15.414-6.915-15.414-15.414c0-8.499,6.916-15.413,15.414-15.413
				c8.498,0,15.413,6.914,15.413,15.413C186.31,186.343,179.395,193.258,170.896,193.258z M170.896,164.212
				c-7.518,0-13.632,6.115-13.632,13.632c0,7.518,6.114,13.632,13.632,13.632c7.516,0,13.63-6.114,13.63-13.632
				C184.526,170.328,178.412,164.212,170.896,164.212z"/>
		</g>
		<g>
			<path style="fill:#59B2FF;" d="M167.137,192.765c-0.076,0-0.154-0.01-0.23-0.03c-8.209-2.2-13.1-10.67-10.899-18.88
				c0.128-0.476,0.612-0.762,1.092-0.63c0.476,0.127,0.757,0.615,0.63,1.092c-1.946,7.261,2.381,14.75,9.64,16.696
				c0.476,0.127,0.757,0.616,0.63,1.091C167.891,192.502,167.53,192.765,167.137,192.765z M184.925,182.496
				c-0.075,0-0.154-0.01-0.232-0.03c-0.476-0.128-0.757-0.616-0.629-1.092c1.944-7.261-2.379-14.751-9.641-16.696
				c-0.474-0.128-0.756-0.615-0.63-1.091c0.126-0.476,0.613-0.762,1.091-0.631c8.212,2.2,13.099,10.67,10.9,18.88
				C185.678,182.233,185.318,182.496,184.925,182.496z"/>
		</g>
		<g>
			<path style="fill:#FFFFFF;" d="M170.896,198.815c-11.564,0-20.972-9.406-20.972-20.969c0-11.564,9.408-20.972,20.972-20.972
				c11.563,0,20.969,9.408,20.969,20.972C191.865,189.409,182.459,198.815,170.896,198.815z M170.896,158.657
				c-10.581,0-19.189,8.608-19.189,19.19c0,10.58,8.608,19.188,19.189,19.188c10.581,0,19.188-8.607,19.188-19.188
				C190.084,167.265,181.477,158.657,170.896,158.657z"/>
		</g>
		<g>
			<path style="fill:#FF75CA;" d="M167.615,198.547c-0.05,0-0.099-0.004-0.148-0.013c-0.671-0.112-1.345-0.258-1.999-0.433
				c-0.476-0.127-0.757-0.615-0.631-1.092c0.127-0.476,0.612-0.759,1.092-0.63c0.599,0.16,1.216,0.294,1.832,0.397
				c0.484,0.081,0.813,0.54,0.732,1.025C168.419,198.239,168.042,198.547,167.615,198.547z M185.608,192.406
				c-0.218,0-0.435-0.078-0.608-0.239c-0.357-0.334-0.379-0.898-0.044-1.259c2.117-2.275,3.665-5.075,4.475-8.096
				c0.128-0.476,0.611-0.761,1.093-0.63c0.475,0.127,0.758,0.616,0.629,1.092c-0.883,3.3-2.576,6.36-4.892,8.849
				C186.086,192.311,185.848,192.406,185.608,192.406z M151.5,173.54c-0.076,0-0.155-0.01-0.23-0.03
				c-0.477-0.128-0.759-0.616-0.631-1.092c1.766-6.589,6.648-11.925,13.064-14.273c0.462-0.167,0.975,0.068,1.143,0.53
				c0.17,0.463-0.068,0.975-0.53,1.145c-5.87,2.148-10.34,7.031-11.956,13.061C152.254,173.277,151.893,173.54,151.5,173.54z
				 M176.093,159.34c-0.075,0-0.153-0.009-0.232-0.03c-2.249-0.603-4.556-0.792-6.861-0.564c-0.493,0.046-0.926-0.309-0.973-0.799
				c-0.049-0.49,0.308-0.926,0.799-0.975c2.515-0.251,5.04-0.042,7.498,0.616c0.475,0.128,0.756,0.616,0.628,1.092
				C176.847,159.079,176.487,159.34,176.093,159.34z"/>
		</g>
	</g>
	<g>
		<path style="fill:#FFFFFF;" d="M210.917,246.449H69.275c-0.492,0-0.889-0.398-0.889-0.892c0-0.492,0.396-0.891,0.889-0.891
			h141.642c3.569,0,6.473-2.904,6.473-6.473V132.105c0-3.568-2.903-6.473-6.473-6.473h-93.357c-0.492,0-0.892-0.398-0.892-0.891
			c0-0.493,0.399-0.891,0.892-0.891h93.357c4.551,0,8.254,3.702,8.254,8.254v106.089
			C219.171,242.746,215.468,246.449,210.917,246.449z"/>
	</g>
	<g>
		<g>
			<g>
				<polygon style="fill-rule:evenodd;clip-rule:evenodd;fill:#FFFFFF;" points="80.852,211.121 97.333,204.602 80.852,198.085 
					64.371,204.602 				"/>
				<path style="fill:#59B2FF;" d="M80.852,212.011c-0.11,0-0.221-0.02-0.326-0.063l-16.482-6.517
					c-0.339-0.135-0.562-0.465-0.562-0.83c0-0.366,0.223-0.693,0.562-0.829l16.482-6.516c0.211-0.083,0.443-0.083,0.656,0
					l16.48,6.516c0.34,0.136,0.563,0.463,0.563,0.829c0,0.365-0.223,0.695-0.563,0.83l-16.48,6.517
					C81.076,211.991,80.964,212.011,80.852,212.011z M66.795,204.602l14.057,5.56l14.06-5.56l-14.06-5.558L66.795,204.602z"/>
			</g>
			<g>
				<polygon style="fill-rule:evenodd;clip-rule:evenodd;fill:#59B2FF;" points="64.371,204.602 80.852,198.085 80.852,175.877 
					64.371,182.394 				"/>
				<path style="fill:#59B2FF;" d="M64.371,205.493c-0.176,0-0.352-0.051-0.5-0.153c-0.244-0.166-0.39-0.441-0.39-0.737v-22.208
					c0-0.365,0.223-0.694,0.562-0.829l16.482-6.517c0.275-0.107,0.584-0.073,0.828,0.093c0.245,0.165,0.391,0.441,0.391,0.736
					v22.208c0,0.366-0.224,0.694-0.563,0.829L64.7,205.432C64.592,205.473,64.481,205.493,64.371,205.493z M65.263,183.001v20.291
					l14.7-5.812v-20.292L65.263,183.001z"/>
			</g>
			<g>
				<polygon style="fill-rule:evenodd;clip-rule:evenodd;fill:#BFE1FF;" points="97.333,204.602 80.852,198.085 80.852,175.877 
					97.333,182.394 				"/>
				<path style="fill:#59B2FF;" d="M97.333,205.493c-0.11,0-0.221-0.02-0.327-0.061l-16.48-6.518
					c-0.34-0.135-0.563-0.463-0.563-0.829v-22.208c0-0.295,0.146-0.571,0.389-0.736c0.244-0.166,0.553-0.2,0.83-0.093l16.479,6.517
					c0.341,0.135,0.563,0.464,0.563,0.829v22.208c0,0.296-0.146,0.571-0.39,0.737C97.686,205.442,97.509,205.493,97.333,205.493z
					 M81.744,197.48l14.698,5.812v-20.291l-14.698-5.813V197.48z"/>
			</g>
		</g>
		<g>
			<g>
				<polygon style="fill-rule:evenodd;clip-rule:evenodd;fill:#BFE1FF;" points="117.947,177.634 134.429,171.117 117.947,164.6 
					101.467,171.117 				"/>
				<path style="fill:#59B2FF;" d="M117.947,178.525c-0.11,0-0.221-0.021-0.326-0.062l-16.481-6.518
					c-0.34-0.135-0.563-0.464-0.563-0.829c0-0.366,0.223-0.694,0.563-0.828l16.481-6.517c0.211-0.083,0.445-0.083,0.654,0
					l16.482,6.517c0.34,0.134,0.563,0.462,0.563,0.828c0,0.365-0.223,0.694-0.563,0.829l-16.482,6.518
					C118.172,178.504,118.06,178.525,117.947,178.525z M103.892,171.117l14.056,5.56l14.06-5.56l-14.06-5.558L103.892,171.117z"/>
			</g>
			<g>
				<polygon style="fill-rule:evenodd;clip-rule:evenodd;fill:#FFFFFF;" points="101.467,171.117 117.947,164.6 117.947,142.393 
					101.467,148.91 				"/>
				<path style="fill:#59B2FF;" d="M101.467,172.007c-0.176,0-0.351-0.052-0.5-0.153c-0.244-0.166-0.39-0.441-0.39-0.737V148.91
					c0-0.366,0.223-0.694,0.563-0.829l16.48-6.517c0.276-0.108,0.584-0.074,0.829,0.093c0.244,0.165,0.39,0.441,0.39,0.736V164.6
					c0,0.366-0.224,0.695-0.563,0.828l-16.48,6.518C101.689,171.987,101.577,172.007,101.467,172.007z M102.358,149.515v20.291
					l14.698-5.813v-20.29L102.358,149.515z"/>
			</g>
			<g>
				<polygon style="fill-rule:evenodd;clip-rule:evenodd;fill:#59B2FF;" points="134.429,171.117 117.947,164.6 117.947,142.393 
					134.429,148.91 				"/>
				<path style="fill:#59B2FF;" d="M134.429,172.007c-0.11,0-0.224-0.02-0.328-0.061l-16.48-6.518
					c-0.34-0.133-0.563-0.462-0.563-0.828v-22.207c0-0.295,0.146-0.571,0.39-0.736c0.245-0.167,0.554-0.201,0.829-0.093
					l16.481,6.517c0.339,0.135,0.563,0.463,0.563,0.829v22.207c0,0.296-0.145,0.571-0.39,0.737
					C134.779,171.956,134.604,172.007,134.429,172.007z M118.839,163.994l14.699,5.813v-20.291l-14.699-5.812V163.994z"/>
			</g>
		</g>
		<g>
			<path style="fill:#59B2FF;" d="M112.53,220.876h-26.26c-3.45,0-6.092-2.593-6.147-6.031l-0.16-10.228
				c-0.009-0.49,0.384-0.897,0.875-0.904c0.006,0,0.011,0,0.014,0c0.486,0,0.885,0.39,0.893,0.877l0.161,10.227
				c0.04,2.48,1.876,4.279,4.365,4.279h26.26c2.496,0,4.528-2.031,4.528-4.527v-43.45c0-0.492,0.396-0.891,0.889-0.891
				c0.493,0,0.892,0.398,0.892,0.891v43.45C118.84,218.045,116.008,220.876,112.53,220.876z M80.942,178.196c0,0-0.003,0-0.004,0
				c-0.491-0.002-0.888-0.402-0.886-0.895l0.07-13.755c0.018-3.62,2.777-6.565,6.147-6.565h15.196c0.492,0,0.892,0.398,0.892,0.891
				s-0.399,0.891-0.892,0.891H86.271c-2.353,0-4.352,2.195-4.365,4.794l-0.071,13.755C81.832,177.8,81.434,178.196,80.942,178.196z"
				/>
		</g>
		<g>
			<path style="fill-rule:evenodd;clip-rule:evenodd;fill:#59B2FF;" d="M80.854,206.737c1.176,0,2.135-0.958,2.135-2.135
				c0-1.176-0.959-2.134-2.135-2.134c-1.176,0-2.135,0.958-2.135,2.134C78.719,205.779,79.678,206.737,80.854,206.737z"/>
			<path style="fill:#59B2FF;" d="M80.854,207.627c-1.669,0-3.027-1.356-3.027-3.025c0-1.668,1.358-3.024,3.027-3.024
				c1.668,0,3.026,1.356,3.026,3.024C83.88,206.271,82.521,207.627,80.854,207.627z M80.854,203.359
				c-0.688,0-1.245,0.558-1.245,1.243c0,0.686,0.558,1.243,1.245,1.243c0.685,0,1.244-0.558,1.244-1.243
				C82.098,203.917,81.538,203.359,80.854,203.359z"/>
		</g>
		<g>
			<path style="fill-rule:evenodd;clip-rule:evenodd;fill:#59B2FF;" d="M117.949,173.252c1.176,0,2.135-0.959,2.135-2.136
				c0-1.175-0.959-2.134-2.135-2.134c-1.176,0-2.135,0.959-2.135,2.134C115.814,172.294,116.773,173.252,117.949,173.252z"/>
			<path style="fill:#59B2FF;" d="M117.949,174.143c-1.669,0-3.025-1.357-3.025-3.026c0-1.668,1.356-3.025,3.025-3.025
				c1.668,0,3.025,1.357,3.025,3.025C120.975,172.786,119.617,174.143,117.949,174.143z M117.949,169.874
				c-0.687,0-1.244,0.559-1.244,1.243c0,0.687,0.558,1.245,1.244,1.245c0.685,0,1.244-0.559,1.244-1.245
				C119.193,170.432,118.634,169.874,117.949,169.874z"/>
		</g>
	</g>
	<g>
		<path style="fill:#59B2FF;" d="M145.5,157.003c-0.001,0-0.002,0-0.005,0c-0.493-0.003-0.889-0.403-0.886-0.896l0.071-13.754
			c0.018-3.62,2.774-6.565,6.146-6.565h15.197c0.492,0,0.891,0.398,0.891,0.891s-0.398,0.892-0.891,0.892h-15.197
			c-2.353,0-4.351,2.194-4.364,4.792l-0.072,13.755C146.39,156.608,145.99,157.003,145.5,157.003z"/>
	</g>
	<g>
		<path style="fill:#59B2FF;" d="M203.675,238.839c-0.493,0-0.892-0.4-0.892-0.891c0-0.493,0.398-0.892,0.892-0.892
			c2.362,0,4.362-2.193,4.365-4.789l0.07-81.277c0-0.492,0.4-0.891,0.892-0.891l0,0c0.494,0,0.891,0.399,0.891,0.892l-0.071,81.276
			C209.818,235.891,207.063,238.839,203.675,238.839z"/>
	</g>
	<g>
		<path style="fill-rule:evenodd;clip-rule:evenodd;fill:#59B2FF;" d="M145.5,157.679c0.861,0,1.568-0.703,1.568-1.566
			c0-0.863-0.707-1.567-1.568-1.567c-0.863,0-1.565,0.704-1.565,1.567C143.935,156.976,144.637,157.679,145.5,157.679z"/>
		<path style="fill:#59B2FF;" d="M145.5,158.571c-1.355,0-2.457-1.104-2.457-2.458c0-1.355,1.102-2.458,2.457-2.458
			s2.457,1.102,2.457,2.458C147.957,157.467,146.855,158.571,145.5,158.571z M145.5,155.437c-0.372,0-0.675,0.304-0.675,0.676
			c0,0.372,0.303,0.676,0.675,0.676c0.373,0,0.676-0.304,0.676-0.676C146.176,155.741,145.873,155.437,145.5,155.437z"/>
	</g>
	<g>
		<path style="fill-rule:evenodd;clip-rule:evenodd;fill:#59B2FF;" d="M166.024,138.245c0.861,0,1.567-0.703,1.567-1.566
			c0-0.863-0.706-1.567-1.567-1.567c-0.863,0-1.567,0.704-1.567,1.567C164.457,137.542,165.161,138.245,166.024,138.245z"/>
		<path style="fill:#59B2FF;" d="M166.024,139.136c-1.356,0-2.458-1.102-2.458-2.458c0-1.355,1.102-2.458,2.458-2.458
			c1.355,0,2.457,1.104,2.457,2.458C168.481,138.034,167.38,139.136,166.024,139.136z M166.024,136.002
			c-0.374,0-0.675,0.303-0.675,0.676c0,0.373,0.301,0.676,0.675,0.676c0.372,0,0.676-0.303,0.676-0.676
			C166.7,136.305,166.396,136.002,166.024,136.002z"/>
	</g>
	<g>
		<path style="fill-rule:evenodd;clip-rule:evenodd;fill:#59B2FF;" d="M209.002,152.557c0.864,0,1.566-0.703,1.566-1.566
			c0-0.863-0.702-1.566-1.566-1.566c-0.861,0-1.566,0.703-1.566,1.566C207.436,151.854,208.141,152.557,209.002,152.557z"/>
		<path style="fill:#59B2FF;" d="M209.002,153.449c-1.354,0-2.456-1.102-2.456-2.458c0-1.355,1.102-2.457,2.456-2.457
			c1.355,0,2.458,1.102,2.458,2.457C211.46,152.346,210.357,153.449,209.002,153.449z M209.002,150.315
			c-0.371,0-0.676,0.304-0.676,0.676c0,0.373,0.305,0.676,0.676,0.676c0.373,0,0.676-0.303,0.676-0.676
			C209.678,150.619,209.375,150.315,209.002,150.315z"/>
	</g>
	<g>
		<path style="fill-rule:evenodd;clip-rule:evenodd;fill:#59B2FF;" d="M203.675,239.514c0.862,0,1.567-0.704,1.567-1.566
			c0-0.864-0.705-1.567-1.567-1.567c-0.862,0-1.566,0.703-1.566,1.567C202.108,238.81,202.813,239.514,203.675,239.514z"/>
		<path style="fill:#59B2FF;" d="M203.675,240.405c-1.355,0-2.457-1.102-2.457-2.456c0-1.355,1.102-2.458,2.457-2.458
			c1.354,0,2.458,1.103,2.458,2.458C206.133,239.303,205.029,240.405,203.675,240.405z M203.675,237.272
			c-0.373,0-0.676,0.303-0.676,0.677c0,0.372,0.303,0.675,0.676,0.675c0.372,0,0.677-0.303,0.677-0.675
			C204.352,237.575,204.047,237.272,203.675,237.272z"/>
	</g>
	<g>
		<path style="fill-rule:evenodd;clip-rule:evenodd;fill:#FF75CA;" d="M403.374,250.603c21.85,0,39.671-17.819,39.671-39.669
			s-17.821-39.671-39.671-39.671c-21.851,0-39.67,17.821-39.67,39.671S381.523,250.603,403.374,250.603z"/>
		<path style="fill:#FFFFFF;" d="M403.374,251.494c-22.366,0-40.56-18.195-40.56-40.56c0-22.366,18.194-40.561,40.56-40.561
			c22.366,0,40.561,18.195,40.561,40.561C443.935,233.298,425.74,251.494,403.374,251.494z M403.374,172.154
			c-21.383,0-38.778,17.396-38.778,38.78c0,21.382,17.396,38.778,38.778,38.778c21.383,0,38.779-17.396,38.779-38.778
			C442.153,189.55,424.757,172.154,403.374,172.154z"/>
	</g>
	<g>
		<g>
			<path style="fill:#E33BA3;" d="M403.367,244.498c-8.614,0-17.168-3.343-23.691-9.865c-6.33-6.33-9.816-14.746-9.816-23.698
				c0-8.952,3.486-17.368,9.816-23.697c0.174-0.175,0.455-0.175,0.629,0c0.176,0.174,0.176,0.456,0,0.629
				c-6.161,6.162-9.555,14.353-9.555,23.068c0,8.713,3.394,16.906,9.555,23.068c11.366,11.365,29.071,12.811,42.096,3.435
				c0.2-0.145,0.479-0.099,0.623,0.101c0.143,0.2,0.098,0.479-0.103,0.623C417.015,242.411,410.173,244.498,403.367,244.498z
				 M426.758,234.763c-0.115,0-0.229-0.044-0.316-0.131c-0.174-0.174-0.174-0.456,0-0.63c6.161-6.162,9.556-14.355,9.556-23.068
				c0-8.715-3.395-16.906-9.556-23.068c-11.365-11.364-29.07-12.812-42.096-3.436c-0.201,0.143-0.479,0.098-0.621-0.101
				c-0.145-0.2-0.098-0.479,0.101-0.622c13.382-9.631,31.57-8.147,43.247,3.529c6.329,6.329,9.816,14.745,9.816,23.697
				c0,8.952-3.487,17.368-9.816,23.698C426.984,234.719,426.871,234.763,426.758,234.763z"/>
		</g>
		<g>
			<path style="fill-rule:evenodd;clip-rule:evenodd;fill:#E33BA3;" d="M428.09,235.65c-0.736,0.734-1.929,0.734-2.665,0
				c-0.736-0.735-0.736-1.929,0-2.665c0.736-0.736,1.929-0.736,2.665,0C428.823,233.721,428.823,234.915,428.09,235.65z"/>
		</g>
		<g>
			<path style="fill-rule:evenodd;clip-rule:evenodd;fill:#E33BA3;" d="M381.322,188.882c-0.734,0.735-1.927,0.735-2.664,0
				c-0.734-0.735-0.734-1.928,0-2.663c0.737-0.735,1.93-0.735,2.664,0C382.059,186.955,382.059,188.147,381.322,188.882z"/>
		</g>
	</g>
	<g style="opacity:0.25;">
		<path style="fill-rule:evenodd;clip-rule:evenodd;fill:#FFFFFF;" d="M96.398,272.573h70.973c1.101,0,2,0.898,2,2v28.815
			c0,1.101-0.899,2.001-2,2.001H96.398c-1.101,0-2-0.9-2-2.001v-28.815C94.398,273.471,95.298,272.573,96.398,272.573z"/>
	</g>
	<g>
		<path style="fill:#FFFFFF;" d="M167.371,306.28H96.398c-1.594,0-2.891-1.297-2.891-2.892v-28.815c0-1.595,1.297-2.892,2.891-2.892
			h70.973c1.593,0,2.89,1.297,2.89,2.892v28.815C170.261,304.983,168.964,306.28,167.371,306.28z M96.398,273.463
			c-0.611,0-1.108,0.497-1.108,1.109v28.815c0,0.612,0.497,1.109,1.108,1.109h70.973c0.61,0,1.109-0.497,1.109-1.109v-28.815
			c0-0.612-0.499-1.109-1.109-1.109H96.398z"/>
	</g>
	<g>
		<g>
			<path style="fill:#59B2FF;" d="M100.721,293.997c-0.002,0-0.003,0-0.006,0c-0.492-0.003-0.888-0.403-0.885-0.896l0.055-10.578
				c0.014-2.896,2.227-5.253,4.933-5.253h11.688c0.492,0,0.889,0.398,0.889,0.891c0,0.492-0.396,0.891-0.889,0.891h-11.688
				c-1.697,0-3.142,1.594-3.151,3.481l-0.055,10.578C101.609,293.601,101.211,293.997,100.721,293.997z"/>
		</g>
		<g>
			<path style="fill:#59B2FF;" d="M158.951,300.692h-11.688c-0.492,0-0.891-0.398-0.891-0.891s0.398-0.891,0.891-0.891h11.688
				c1.698,0,3.141-1.595,3.15-3.482l0.056-10.578c0.002-0.49,0.4-0.886,0.891-0.886c0.001,0,0.003,0,0.005,0
				c0.491,0.003,0.89,0.403,0.886,0.896l-0.056,10.578C163.871,298.335,161.657,300.692,158.951,300.692z"/>
		</g>
	</g>
	<g>
		<g>
			<path style="fill:#FFFFFF;" d="M131.884,295.525c-0.247,0-0.445-0.2-0.445-0.445v-2.972c0-0.246,0.198-0.446,0.445-0.446
				s0.445,0.2,0.445,0.446v2.972C132.329,295.325,132.131,295.525,131.884,295.525z M115.122,295.141
				c-0.246,0-0.446-0.199-0.446-0.445v-11.431c0-0.246,0.2-0.446,0.446-0.446s0.446,0.2,0.446,0.446v11.431
				C115.568,294.942,115.368,295.141,115.122,295.141z M136.983,293.746c-0.248,0-0.446-0.199-0.446-0.446v-4.241
				c0-0.246,0.198-0.445,0.446-0.445c0.247,0,0.445,0.199,0.445,0.445v4.241C137.429,293.546,137.23,293.746,136.983,293.746z
				 M126.786,293.746c-0.246,0-0.446-0.199-0.446-0.446v-1.484c0-0.246,0.2-0.445,0.446-0.445s0.446,0.199,0.446,0.445v1.484
				C127.232,293.546,127.032,293.746,126.786,293.746z M120.221,291.571c-0.246,0-0.446-0.199-0.446-0.445v-4.29
				c0-0.246,0.2-0.446,0.446-0.446c0.246,0,0.445,0.2,0.445,0.446v4.29C120.666,291.372,120.467,291.571,120.221,291.571z
				 M131.884,290.591c-0.247,0-0.445-0.2-0.445-0.446v-7.264c0-0.246,0.198-0.445,0.445-0.445s0.445,0.199,0.445,0.445v7.264
				C132.329,290.391,132.131,290.591,131.884,290.591z M126.786,290.299c-0.246,0-0.446-0.2-0.446-0.446v-5.191
				c0-0.246,0.2-0.446,0.446-0.446s0.446,0.2,0.446,0.446v5.191C127.232,290.099,127.032,290.299,126.786,290.299z M136.983,287.543
				c-0.248,0-0.446-0.2-0.446-0.446v-2.436c0-0.246,0.198-0.446,0.446-0.446c0.247,0,0.445,0.2,0.445,0.446v2.436
				C137.429,287.343,137.23,287.543,136.983,287.543z"/>
		</g>
		<g>
			<path style="fill:#FFFFFF;" d="M151.195,295.703c-0.004,0-0.009,0-0.014-0.001h-0.213c-1.325-0.004-4.396,0.018-9.898-6.312
				c0-0.001-0.003-0.001-0.003-0.002c-5.126-5.898-7.807-5.886-8.951-5.882l-0.232-0.001l-0.232,0.001
				c-1.141,0.015-3.824-0.016-8.951,5.882c-0.002,0.001-0.002,0.001-0.002,0.002c-5.503,6.328-8.581,6.305-9.9,6.312h-0.211
				c-0.347,0.044-0.629-0.264-0.639-0.607c-0.01-0.346,0.265-0.631,0.608-0.639l0.248-0.001c1.157,0.017,3.825,0.015,8.951-5.882
				v-0.001c5.503-6.329,8.585-6.324,9.9-6.313l0.211-0.001c0.005,0,0.011,0,0.016,0l0,0l0,0c0.007,0,0.013,0,0.016,0l0.213,0.001
				c1.325,0.005,4.397-0.015,9.898,6.313v0.001c5.128,5.896,7.792,5.881,8.953,5.882l0.246,0.001
				c0.346,0.008,0.618,0.293,0.609,0.639C151.813,295.432,151.534,295.703,151.195,295.703z"/>
		</g>
		<g>
			<path style="fill:#FFFFFF;" d="M131.884,295.703L131.884,295.703L131.884,295.703c-0.005,0-0.011,0-0.016-0.001h-0.211
				c-1.309-0.004-4.398,0.018-9.9-6.312v-0.001c-5.128-5.898-7.817-5.887-8.952-5.883l-0.247-0.001
				c-0.344-0.009-0.618-0.294-0.608-0.639c0.01-0.344,0.287-0.661,0.639-0.608l0.211,0.001c1.348,0.012,4.4-0.014,9.9,6.313
				c0,0.001,0,0.001,0.002,0.002c5.124,5.896,7.79,5.88,8.951,5.881l0.232,0.001l0.232-0.001c1.177,0.009,3.829,0.013,8.951-5.881
				c0-0.001,0.003-0.001,0.003-0.002c5.502-6.329,8.586-6.324,9.9-6.313l0.211-0.001c0.371-0.045,0.631,0.265,0.638,0.608
				c0.009,0.345-0.264,0.63-0.609,0.639l-0.245,0.001c-1.132,0.015-3.825-0.016-8.954,5.883v0.001
				c-5.501,6.328-8.595,6.305-9.898,6.312h-0.213C131.896,295.703,131.891,295.703,131.884,295.703z"/>
		</g>
	</g>
	<g>
		<g>
			<g>
				<polygon style="fill-rule:evenodd;clip-rule:evenodd;fill:#FFFFFF;" points="187.817,102.774 183.463,102.774 185.64,106.286 
									"/>
				<path style="fill:#FFFFFF;" d="M185.64,106.731c-0.151,0-0.298-0.079-0.378-0.211l-2.176-3.512
					c-0.087-0.138-0.088-0.311-0.01-0.451c0.078-0.142,0.226-0.229,0.387-0.229h4.354c0.161,0,0.309,0.088,0.388,0.229
					c0.079,0.141,0.077,0.313-0.009,0.451l-2.176,3.512C185.939,106.652,185.795,106.731,185.64,106.731z M184.264,103.219
					l1.376,2.221l1.378-2.221H184.264z"/>
			</g>
			<g>
				<path style="fill:#59B2FF;" d="M189.817,101.014c-0.005,0.001-0.013,0.001-0.021,0h-4.354c-0.162,0-0.311-0.088-0.388-0.229
					c-0.079-0.142-0.076-0.314,0.01-0.452l2.176-3.512c0.162-0.263,0.595-0.263,0.757,0l2.116,3.412
					c0.092,0.082,0.151,0.201,0.151,0.335C190.265,100.815,190.064,101.014,189.817,101.014z M186.243,100.123h2.753l-1.377-2.22
					L186.243,100.123z"/>
			</g>
		</g>
		<g>
			<g>
				<polygon style="fill-rule:evenodd;clip-rule:evenodd;fill:#FFFFFF;" points="406.984,283.085 402.631,283.085 404.807,286.598 
									"/>
				<path style="fill:#FFFFFF;" d="M404.807,287.043c-0.153,0-0.298-0.08-0.379-0.211l-2.177-3.512
					c-0.085-0.138-0.088-0.31-0.01-0.452c0.079-0.141,0.228-0.229,0.39-0.229h4.354c0.159,0,0.309,0.088,0.388,0.229
					c0.078,0.142,0.075,0.314-0.01,0.452l-2.177,3.512C405.105,286.963,404.96,287.043,404.807,287.043z M403.43,283.532l1.377,2.22
					l1.377-2.22H403.43z"/>
			</g>
			<g>
				<path style="fill:#59B2FF;" d="M408.984,281.325c-0.007,0-0.016,0-0.022,0h-4.354c-0.161,0-0.31-0.088-0.39-0.229
					c-0.078-0.141-0.074-0.314,0.013-0.451l2.176-3.51c0.161-0.264,0.593-0.264,0.757,0l2.115,3.411
					c0.091,0.081,0.15,0.201,0.15,0.334C409.43,281.125,409.231,281.325,408.984,281.325z M405.41,280.433h2.751l-1.377-2.22
					L405.41,280.433z"/>
			</g>
		</g>
		<g>
			<g>
				<polygon style="fill-rule:evenodd;clip-rule:evenodd;fill:#FFFFFF;" points="235.347,236.31 230.995,236.31 233.17,239.822 				
					"/>
				<path style="fill:#FFFFFF;" d="M233.17,240.268c-0.153,0-0.297-0.08-0.377-0.211l-2.176-3.513
					c-0.087-0.138-0.091-0.31-0.012-0.451c0.078-0.141,0.227-0.229,0.39-0.229h4.352c0.161,0,0.311,0.088,0.39,0.229
					c0.079,0.142,0.074,0.313-0.01,0.451l-2.178,3.513C233.469,240.188,233.325,240.268,233.17,240.268z M231.795,236.755
					l1.375,2.221l1.377-2.221H231.795z"/>
			</g>
			<g>
				<path style="fill:#59B2FF;" d="M237.349,234.549c-0.008,0-0.016,0-0.022,0h-4.354c-0.161,0-0.311-0.088-0.39-0.23
					c-0.079-0.141-0.074-0.313,0.01-0.451l2.178-3.51c0.163-0.264,0.594-0.264,0.757,0l2.115,3.411c0.093,0.081,0.15,0.2,0.15,0.333
					C237.793,234.35,237.594,234.549,237.349,234.549z M233.773,233.658h2.752l-1.375-2.22L233.773,233.658z"/>
			</g>
		</g>
	</g>
	<g>
		<g>
			<path style="fill-rule:evenodd;clip-rule:evenodd;fill:#FFFFFF;" d="M386.44,212.881c-1.054,1.182-3.442,3.861-4.215,4.76
				c-2.063,2.396,0.534,4.034,3.396,2.059c-0.103,0.464-0.666,3.012-0.94,4.216c-0.726,3.181,2.999,2.873,4.002-1.477l0.52-2.229
				l1.934-1.864l4.147,1.212c0.468,6.059,4.971,7.926,4.971,7.926c0.004,0.109,0.009,0.217,0.019,0.325
				c0.684,8.727,16.824,9.128,14.588-6.105c-1.433-9.756-4.944-18.134-6.526-28.571c-1.082-7.149-6.072-3.235-5.873,1.023
				c0.188,3.963,1.632,14.683,1.632,14.683c0.091,0.688-1.189,0.839-1.794,0.231c-0.605-0.604-3.24-3.844-4.684-5.313
				c-1.445-1.469-4.148,0.023-4.148,0.023l-3.8,2.074c0,0-3.735,2.143-5.42,3.094C381.051,210.752,382.82,213.397,386.44,212.881z"
				/>
			<path style="fill:#2C81FE;" d="M407.254,234.316c-3.438,0-7.094-2.224-7.426-6.474c-0.003-0.023-0.004-0.047-0.004-0.07
				c-0.993-0.505-4.431-2.619-4.957-7.872l-3.607-1.054l-1.654,1.593l-0.488,2.102c-0.598,2.59-2.171,3.946-3.418,3.946
				c-0.473,0-0.888-0.193-1.169-0.546c-0.272-0.341-0.544-0.987-0.284-2.124c0.185-0.816,0.504-2.247,0.721-3.229
				c-1.614,0.748-3.286,0.453-3.78-0.625c-0.2-0.439-0.377-1.359,0.698-2.611c0.63-0.732,2.324-2.636,3.505-3.961
				c-1.66-0.043-2.906-0.768-3.195-1.873c-0.133-0.502-0.219-1.798,1.835-2.956c1.686-0.952,5.417-3.094,5.417-3.094l3.807-2.078
				c0.053-0.029,1.327-0.726,2.662-0.726c0.831,0,1.509,0.263,2.017,0.78c0.869,0.884,2.151,2.385,3.182,3.592
				c0.678,0.797,1.268,1.486,1.501,1.719c0.153,0.154,0.409,0.25,0.67,0.25c0.231,0,0.354-0.076,0.372-0.102
				c-0.021-0.113-1.454-10.789-1.642-14.727c-0.073-1.602,0.533-3.283,1.589-4.388c0.65-0.683,1.406-1.058,2.131-1.058
				c0.889,0,2.47,0.563,3.041,4.334c0.792,5.23,2.084,9.988,3.336,14.59c1.272,4.686,2.475,9.113,3.189,13.983
				c0.785,5.346-0.701,8.38-2.087,9.983C411.734,233.333,409.564,234.316,407.254,234.316z M391.136,217.9
				c0.042,0,0.085,0.006,0.125,0.018l4.148,1.212c0.179,0.053,0.306,0.209,0.319,0.394c0.437,5.696,4.525,7.476,4.697,7.55
				c0.159,0.067,0.268,0.223,0.273,0.396c0.003,0.101,0.008,0.203,0.017,0.304c0.29,3.711,3.511,5.652,6.538,5.652
				c2.079,0,3.957-0.847,5.284-2.385c1.265-1.463,2.616-4.26,1.88-9.272c-0.705-4.816-1.9-9.218-3.169-13.879
				c-1.256-4.626-2.556-9.409-3.354-14.69c-0.346-2.273-1.131-3.576-2.16-3.576c-0.479,0-1.006,0.279-1.486,0.782
				c-0.879,0.92-1.405,2.384-1.341,3.73c0.183,3.898,1.613,14.537,1.628,14.644c0.035,0.265-0.04,0.518-0.213,0.715
				c-0.478,0.547-1.739,0.492-2.339-0.107c-0.257-0.259-0.828-0.926-1.549-1.771c-1.021-1.194-2.292-2.684-3.138-3.545
				c-0.335-0.341-0.8-0.514-1.382-0.514c-1.099,0-2.222,0.609-2.235,0.615l-3.799,2.074l0,0c0,0-3.73,2.141-5.415,3.091
				c-1.048,0.593-1.575,1.324-1.409,1.955c0.158,0.603,0.99,1.211,2.49,1.211l0,0c0.264,0,0.539-0.02,0.83-0.061
				c0.184-0.027,0.367,0.064,0.455,0.229c0.089,0.165,0.064,0.368-0.06,0.508c-1.053,1.18-3.438,3.855-4.212,4.754
				c-0.55,0.639-0.754,1.244-0.564,1.658c0.343,0.748,1.994,0.693,3.372-0.257c0.15-0.104,0.348-0.105,0.5-0.003
				c0.151,0.102,0.226,0.287,0.186,0.466c-0.13,0.587-0.672,3.042-0.939,4.218c-0.138,0.608-0.098,1.108,0.112,1.371
				c0.11,0.14,0.271,0.21,0.472,0.21c0.695,0,2.003-0.884,2.551-3.256l0.52-2.23c0.019-0.084,0.061-0.161,0.124-0.221l1.934-1.863
				C390.911,217.943,391.024,217.9,391.136,217.9z"/>
		</g>
		<g>
			<path style="fill:#2C81FE;" d="M400.255,227.929c-0.012,0-0.022-0.001-0.031-0.001c-0.247-0.017-0.43-0.23-0.415-0.475
				c0.07-1.02,0.766-3.024,2.869-3.751c-0.484-1.601-0.555-3.215-0.186-4.73c0.439-1.801,1.5-3.325,2.837-4.078
				c1.056-0.594,1.946-0.74,2.646-0.435c0.82,0.358,1.028,1.196,1.036,1.231c0.102,3.986,3.131,7.416,3.162,7.45
				c0.165,0.184,0.148,0.464-0.036,0.629c-0.182,0.164-0.463,0.149-0.629-0.034c-0.133-0.15-3.275-3.708-3.374-7.923l-0.001,0.001
				c-0.015,0-0.144-0.38-0.522-0.541c-0.424-0.179-1.063-0.043-1.845,0.396c-1.126,0.635-2.025,1.948-2.407,3.514
				c-0.545,2.238-0.018,4.738,1.49,7.042c0.136,0.205,0.075,0.481-0.131,0.616c-0.203,0.135-0.48,0.076-0.615-0.129
				c-0.463-0.708-0.842-1.436-1.134-2.17c-2.093,0.721-2.271,2.947-2.271,2.971C400.684,227.749,400.486,227.929,400.255,227.929z
				 M385.621,220.145c-0.121,0-0.24-0.049-0.331-0.145c-0.165-0.181-0.153-0.463,0.03-0.629c0.008-0.009,0.966-0.889,1.873-1.886
				c0.917-1.008,3.298-3.413,3.457-3.574l1.51-1.627c0.168-0.181,0.449-0.191,0.629-0.023c0.18,0.168,0.191,0.449,0.024,0.63
				l-1.044,1.124l4.951,1.645c0.46-0.599,1.033-1.249,1.746-1.933l-3.904-4.239c-1.101,0.607-4.836,2.666-5.707,3.141
				c-1.098,0.6-2.333,0.693-2.386,0.696c-0.235,0.002-0.456-0.167-0.474-0.412s0.166-0.459,0.412-0.477
				c0.01-0.001,1.096-0.087,2.02-0.589c1.024-0.559,6.012-3.309,6.012-3.309c0.18-0.099,0.402-0.063,0.542,0.088l4.14,4.497
				c0.66-0.581,1.419-1.184,2.293-1.798c0.203-0.142,0.48-0.092,0.621,0.109c0.142,0.201,0.094,0.479-0.108,0.62
				c-5.771,4.05-6.196,7.511-6.198,7.545c-0.025,0.245-0.24,0.419-0.488,0.398c-0.243-0.023-0.422-0.238-0.399-0.482
				c0.009-0.089,0.139-1.294,1.337-3.097l-5.083-1.69c-0.609,0.616-2.478,2.514-3.241,3.355c-0.936,1.028-1.893,1.906-1.933,1.943
				C385.837,220.107,385.728,220.145,385.621,220.145z M391.136,218.792c-0.111,0-0.222-0.043-0.309-0.126
				c-0.177-0.171-0.183-0.453-0.012-0.63l0.815-0.84c0.171-0.178,0.455-0.182,0.631-0.01c0.179,0.171,0.181,0.453,0.01,0.63
				l-0.815,0.84C391.369,218.747,391.252,218.792,391.136,218.792z"/>
		</g>
	</g>
	<g>
		<path style="fill-rule:evenodd;clip-rule:evenodd;fill:#2C81FE;" d="M405.891,203.745c4.884,0,8.866-3.982,8.866-8.865
			c0-4.883-3.982-8.864-8.866-8.864c-4.881,0-8.863,3.981-8.863,8.864C397.027,199.762,401.01,203.745,405.891,203.745z"/>
		<path style="fill:#FFFFFF;" d="M405.891,204.19c-5.132,0-9.31-4.177-9.31-9.311c0-5.133,4.178-9.31,9.31-9.31
			c5.135,0,9.311,4.177,9.311,9.31C415.202,200.013,411.025,204.19,405.891,204.19z M405.891,186.461
			c-4.641,0-8.419,3.776-8.419,8.418c0,4.643,3.778,8.419,8.419,8.419c4.645,0,8.42-3.776,8.42-8.419
			C414.31,190.238,410.535,186.461,405.891,186.461z"/>
	</g>
	<g>
		<path style="fill-rule:evenodd;clip-rule:evenodd;fill:#FFFFFF;" d="M404.352,196.602l3.427-6.85
			c0.089-0.18,0.308-0.252,0.488-0.164l2.45,1.486c0.178,0.09,0.254,0.309,0.166,0.487l-5.338,8.446
			c-0.047,0.096-0.125,0.16-0.23,0.188c-0.104,0.028-0.204,0.012-0.294-0.049l-3.993-2.764c-0.167-0.109-0.213-0.336-0.103-0.502
			l0.65-1.683c0.11-0.165,0.337-0.212,0.503-0.102L404.352,196.602z"/>
	</g>
</g>
</svg>
