<?xml version="1.0" encoding="utf-8"?>
<!-- Generator: Adobe Illustrator 27.5.0, SVG Export Plug-In . SVG Version: 6.00 Build 0)  -->
<svg version="1.1" xmlns="http://www.w3.org/2000/svg" xmlns:xlink="http://www.w3.org/1999/xlink" x="0px" y="0px"
	 viewBox="0 0 500 500" style="enable-background:new 0 0 500 500;" xml:space="preserve">
<g id="BACKGROUND">
	<rect style="fill:#E6F0FF;" width="500" height="500"/>
</g>
<g id="OBJECTS">
	<g>
		<g>
			
				<path style="fill:none;stroke:#2979E2;stroke-width:6.0559;stroke-linecap:round;stroke-linejoin:round;stroke-miterlimit:10;" d="
				M96.065,250.492c-54.216-16.438-61.329-97.237,2.008-116.394c18.161-5.493,35.632-0.778,48.404,5.656"/>
			
				<path style="fill:none;stroke:#FFC361;stroke-width:6.056;stroke-linecap:round;stroke-linejoin:round;stroke-miterlimit:10;" d="
				M232.478,75.66c-8.509,12.822-14.41,28.287-17.478,45.242c-9.12,50.4,5.911,106.697-67.907,128.197
				c-19.985,5.821-37.109,5.613-51.028,1.393"/>
		</g>
		
			<path style="fill:none;stroke:#589BF9;stroke-width:6.0559;stroke-linecap:round;stroke-linejoin:round;stroke-miterlimit:10;" d="
			M332.214,192.083c0,0,47.435-20.957,52.336-63.901c5.35-46.877-22.898-82.815-72.977-88.677
			c-35.374-4.141-62.31,10.864-79.095,36.155"/>
	</g>
	<g>
		<path style="fill:#AAC3F3;" d="M316.126,340.213c0.011,0.282,0.011,0.563,0,0.834c-0.217,5.917-4.584,10.729-10.035,10.967
			c-0.141,0.022-0.271,0.022-0.412,0.022l-82.18-0.401l-82.18-0.401h-0.011c-1.777,0-3.425-0.477-4.877-1.322
			c-2.558-2.601-3.901-6.556-3.132-10.664l16.939-90.394l16.939-90.394c0.824-4.368,3.88-7.814,7.857-8.843l62.206-15.129
			l62.206-15.129c2.612-0.672,5.169-0.228,7.326,1.04c0.488,0.498,0.943,1.051,1.333,1.669c1.181,1.766,1.907,3.934,1.972,6.329
			l3.024,105.908L316.126,340.213z"/>
		<g>
			<path style="fill:#EA7DAE;" d="M326.389,114.536c-0.087-2.699-0.986-5.159-2.438-7.153c-2.937-4.086-8.161-6.329-13.525-5.061
				l-150.542,35.579c-4.92,1.17-8.713,5.072-9.732,10.014l-41.94,204.555c-1.16,5.668,1.55,11.065,6.101,13.763
				c1.94,1.149,4.205,1.81,6.643,1.81l199.992-0.434c7.304-0.022,13.157-6.08,12.918-13.373L326.389,114.536z M316.126,341.047
				c-0.282,5.885-4.606,10.653-10.035,10.967c-0.141,0.022-0.271,0.022-0.412,0.022l-164.359-0.802h-0.011l-2.135-0.011
				c-1.799,0-3.479-0.477-4.953-1.333c-0.163-0.087-0.314-0.184-0.466-0.282c-3.728-2.417-5.939-7.25-4.996-12.311l34.289-183
				c0.834-4.422,3.945-7.922,7.965-8.962l125.941-30.626c3.641-0.943,7.218,0.293,9.699,2.839c0.499,0.509,0.954,1.073,1.355,1.691
				c1.192,1.788,1.929,3.988,1.994,6.405l0.076,2.753l6.047,211.816C316.137,340.495,316.137,340.776,316.126,341.047z"/>
			<path style="fill:#AAC3F3;" d="M337.79,357.802c0.228,7.315-5.625,13.362-12.929,13.373l-199.993,0.455
				c-4.4,0.011-8.204-2.157-10.556-5.397c1.94,1.149,4.205,1.81,6.643,1.81l199.992-0.434c7.304-0.022,13.157-6.08,12.918-13.373
				l-7.478-239.701c-0.087-2.699-0.986-5.159-2.438-7.153c3.652,2.157,6.21,6.08,6.351,10.74L337.79,357.802z"/>
		</g>
		<path style="fill:#1C211C;" d="M310.079,128.397c-0.065-2.395-0.791-4.563-1.972-6.329c-0.39-0.618-0.845-1.17-1.333-1.669
			c-2.157-1.268-4.714-1.712-7.326-1.04l-124.413,30.258c-3.977,1.03-7.033,4.476-7.857,8.843L133.3,339.248
			c-0.769,4.107,0.574,8.063,3.132,10.664c1.452,0.845,3.1,1.322,4.877,1.322l-2.135-0.011c-1.799,0-3.479-0.477-4.953-1.333
			c-0.163-0.087-0.314-0.184-0.466-0.282c-3.728-2.417-5.939-7.25-4.996-12.311l34.289-183c0.834-4.422,3.945-7.922,7.965-8.962
			l125.941-30.626c3.641-0.943,7.218,0.293,9.699,2.839c0.499,0.509,0.954,1.073,1.355,1.691c1.192,1.788,1.929,3.988,1.994,6.405
			L310.079,128.397z"/>
		<g>
			<path style="fill:#1C211C;" d="M172.82,134.844c-1.871,1.472-3.943,1.987-6.01,2.518l-3.084,0.823
				c-1.025,0.277-2.005,0.552-3.056,0.86c-2.028,0.563-3.96,1.158-5.533,2.275c-1.583,1.087-2.738,2.667-3.352,4.522
				c-0.172,0.455-0.272,0.939-0.367,1.425c-0.109,0.46-0.187,1.027-0.278,1.549l-0.553,3.18c-0.367,2.119-0.742,4.234-1.156,6.34
				c-0.406,2.108-0.864,4.205-1.363,6.292c-0.238,1.046-0.52,2.082-0.784,3.122c-0.26,1.04-0.429,2.104-1.794,2.893
				c-0.889-1.3-0.59-2.326-0.386-3.376c0.201-1.051,0.377-2.106,0.593-3.153c0.41-2.099,0.84-4.193,1.299-6.279l1.348-6.263
				l0.605-3.14c0.102-0.531,0.176-1.026,0.318-1.607c0.12-0.564,0.254-1.125,0.461-1.674c0.678-2.229,2.147-4.302,4.064-5.692
				c1.897-1.44,4.127-2.19,6.196-2.797c1.008-0.28,2.083-0.609,3.139-0.843c1.055-0.247,2.105-0.481,3.163-0.682
				C168.396,134.696,170.505,134.279,172.82,134.844z"/>
		</g>
		<g>
			<path style="fill:#1C211C;" d="M141.548,189.878c0.056,4.893-0.854,9.588-1.762,14.284c-0.882,4.701-1.824,9.389-2.801,14.071
				l-5.901,28.081l-5.615,28.139c-0.959,4.685-1.886,9.377-2.904,14.05l-1.535,7.008c-0.508,2.337-0.923,4.692-2.534,6.803
				c-0.651-2.574-0.105-4.903,0.347-7.251l1.347-7.047c0.903-4.697,1.897-9.375,2.859-14.059l5.911-28.078l5.626-28.137
				c0.944-4.688,1.923-9.369,2.962-14.038C138.56,199.029,139.571,194.355,141.548,189.878z"/>
		</g>
		<g>
			<path style="fill:#1C211C;" d="M315.572,320.833c1.06,0.633,1.132,1.294,1.199,1.956c0.099,0.66,0.134,1.323,0.154,1.986
				c0.009,1.326-0.086,2.656-0.042,3.981c0.03,1.326,0.182,2.648,0.272,3.972c0.047,0.662,0.053,1.325,0.027,1.989
				c-0.001,0.332-0.046,0.665-0.068,0.997c-0.019,0.332,0.057,0.662-1.087,1.026c-1.163-0.298-1.106-0.632-1.144-0.962
				c-0.041-0.331-0.105-0.66-0.125-0.991c-0.064-0.661-0.096-1.324-0.087-1.987c0.014-1.327,0.09-2.656,0.045-3.981
				c-0.032-1.326-0.202-2.647-0.269-3.972c-0.018-0.663-0.021-1.326,0.04-1.991C314.517,322.19,314.55,321.526,315.572,320.833z"/>
		</g>
		<g>
			<path style="fill:#1C211C;" d="M315.449,344.527c0.276,1.047,0.138,2.223-0.297,3.278c-0.432,1.066-1.185,1.998-2.064,2.741
				c-1.795,1.488-4.021,2.169-6.163,2.547c-1.081,0.232-2.163,0.274-3.244,0.375l-3.145,0.108c-2.087,0.055-4.175,0.062-6.258,0.076
				c-4.169,0.04-8.335,0.004-12.501-0.026l-12.496-0.064l-24.99,0.079c-4.165-0.016-8.33-0.001-12.494-0.081l-6.247-0.13
				c-2.082-0.04-4.165,0.014-6.24-1.153c2.089-1.141,4.171-1.063,6.253-1.079l6.246-0.063c4.164-0.037,8.328,0.016,12.492,0.035
				l12.491,0.141l12.491,0.083l12.49-0.063l12.485-0.128l6.234-0.067l3.099-0.049c0.991-0.084,2.002-0.068,2.966-0.249
				c1.951-0.27,3.818-0.846,5.415-1.805C313.559,348.073,314.878,346.604,315.449,344.527z"/>
		</g>
		<line style="fill:none;stroke:#2979E2;stroke-miterlimit:10;" x1="174.68" y1="160.92" x2="301.64" y2="130.665"/>
		<line style="fill:none;stroke:#2979E2;stroke-miterlimit:10;" x1="173.418" y1="169.195" x2="301.64" y2="141.003"/>
		<line style="fill:none;stroke:#2979E2;stroke-miterlimit:10;" x1="172.157" y1="177.469" x2="301.64" y2="151.341"/>
		<line style="fill:none;stroke:#2979E2;stroke-miterlimit:10;" x1="170.895" y1="185.744" x2="301.64" y2="161.68"/>
		<line style="fill:none;stroke:#2979E2;stroke-miterlimit:10;" x1="169.633" y1="194.019" x2="301.64" y2="172.018"/>
		<line style="fill:none;stroke:#2979E2;stroke-miterlimit:10;" x1="168.372" y1="202.294" x2="301.64" y2="182.356"/>
		<line style="fill:none;stroke:#2979E2;stroke-miterlimit:10;" x1="167.11" y1="210.568" x2="301.64" y2="192.694"/>
		<line style="fill:none;stroke:#2979E2;stroke-miterlimit:10;" x1="165.848" y1="218.843" x2="301.64" y2="203.033"/>
		<line style="fill:none;stroke:#2979E2;stroke-miterlimit:10;" x1="164.587" y1="227.118" x2="301.64" y2="213.371"/>
		<line style="fill:none;stroke:#2979E2;stroke-miterlimit:10;" x1="163.325" y1="235.393" x2="301.64" y2="223.709"/>
		<line style="fill:none;stroke:#2979E2;stroke-miterlimit:10;" x1="160.813" y1="245.349" x2="301.64" y2="236.35"/>
		<line style="fill:none;stroke:#2979E2;stroke-miterlimit:10;" x1="160.813" y1="254.384" x2="301.64" y2="249.885"/>
		<line style="fill:none;stroke:#2979E2;stroke-miterlimit:10;" x1="159.518" y1="264.099" x2="301.64" y2="264.56"/>
	</g>
	<g>
		<path style="fill:#1C211C;" d="M91.246,145.01c-7.181,4.099-14.808,4.528-17.89,1.236c-0.288-0.293-0.518-0.622-0.72-0.969
			c-2.463-4.314,1.877-11.423,9.697-15.874c7.615-4.354,15.735-4.572,18.411-0.583c0.071,0.1,0.143,0.215,0.199,0.317
			C103.406,133.45,99.051,140.561,91.246,145.01z"/>
		<path style="fill:#2979E2;" d="M148.221,225.805c-5.385,3.238-10.661,3.808-13.984,1.822c-0.711-0.405-1.345-0.955-1.851-1.609
			l-59.03-79.773c3.082,3.292,10.709,2.863,17.89-1.236c7.804-4.449,12.16-11.559,9.697-15.874c-0.036-0.058-0.074-0.13-0.11-0.188
			c2.43,3.661,54.333,81.6,54.5,81.905c0.238,0.405,0.418,0.846,0.555,1.321C157.003,215.977,154.992,221.731,148.221,225.805z"/>
		<path style="fill:#1C211C;" d="M194.231,286.793c0,0,1.586,3.844,1.779,4.404c0.222,0.643-0.616,1.457-1.538,0.446
			c-0.922-1.011-2.929-2.812-2.929-2.812L194.231,286.793z"/>
		<path style="fill:#D65151;" d="M193.584,289.004c-1.289,0.827-2.724,0.268-2.724,0.268l-13.109-7.917c0,0-2.967-1.167-6.372-5.363
			c2.128,2.116,7.175,1.556,11.772-1.447c4.743-3.089,7.309-7.649,5.983-10.446c0.632,1.131,2.383,4.585,3.186,9.424
			c0.985,5.947,2.444,13,2.444,13S194.886,288.202,193.584,289.004z"/>
		<path style="fill:#FFC361;" d="M183.151,274.545c-4.597,3.004-8.981,4.349-11.109,2.233c-0.569,0.195-1.872-0.445-2.392-1.074
			c0,0-28.662-32.24-37.038-45.192c-1.239-1.915-0.008-4.23-0.008-4.23c3.32,1.982,10.235,2.759,15.622-0.476
			c6.761-4.074,8.227-11.146,7.108-14.953c0,0,1.969-0.462,3.453,0.907c2.818,2.599,30.18,50.893,30.18,50.893
			s0.875,1.126,0.515,2.099c0.012,0.012,0.012,0.012,0.012,0.012C189.924,267.851,187.893,271.457,183.151,274.545z"/>
		<path style="fill:#2979E2;" d="M108.698,203.083c-1.099,0.488-4.584,0.543-7.02,0.778c-1.771,0.171-3.324-1.043-4.185-2.06
			c-0.929-1.087-20.214-25.797-21.012-27.583c-0.782-1.773-1.122-3.046-0.991-4.388c0.186-1.908,4.366-14.802,4.366-14.802
			s7.085,1.715,14.492-3.215c0,0-11.832,15.117-11.646,18.949c0.169,3.497,16.811,26.073,21.139,30.88c0,0,0.001,0.015,0.017,0.014
			c0.411,0.464,0.715,0.756,0.876,0.847C106.121,203.285,107.621,203.477,108.698,203.083z"/>
		<path style="fill:#1C211C;" d="M111.232,192.534c-0.17,0.292-2.906,4.962-3.393,5.326c-0.511,0.401-1.143,0.255-1.763-0.377
			c-0.024-0.036-0.122-0.134-0.219-0.316c0,0,0-0.012-0.012-0.012l2.298-3.891C110.199,193.093,111.123,192.594,111.232,192.534z"/>
		<path style="fill:#1C211C;" d="M113.446,196.23c0,0-2.797,4.937-3.685,6.129c-0.182,0.231-0.389,0.401-0.657,0.547
			c0,0-0.012,0-0.037,0.024c-0.061,0.024-0.194,0.073-0.365,0.146c-1.082,0.401-2.578,0.207-3.976-0.572
			c-0.158-0.097-0.462-0.389-0.876-0.851c-0.012,0-0.012-0.012-0.012-0.012c-4.329-4.804-20.965-27.386-21.135-30.876
			c-0.195-3.831,11.638-18.958,11.638-18.958l5.29,8.294l-8.379,10.312c0,0-0.888,0.888-0.219,2.615
			c0.62,1.617,12.866,21.33,14.812,24.127c0.012,0,0.012,0.012,0.012,0.012c0.097,0.182,0.195,0.28,0.219,0.316
			c0.62,0.632,1.253,0.778,1.763,0.377c0.487-0.365,3.223-5.035,3.393-5.326c0.012-0.012,0.012-0.012,0.012-0.012L113.446,196.23z"
			/>
		<g>
			<path style="fill:#1C211C;" d="M81.194,130.009c-4.491,2.565-9.265,2.621-10.674,0.151c-0.568-0.977-0.507-2.223,0.039-3.502
				c0.038,0.247,0.129,0.475,0.246,0.673c1.138,1.98,4.952,1.933,8.545-0.113c3.593-2.047,5.592-5.305,4.468-7.287
				c-0.2-0.343-0.479-0.637-0.833-0.839c1.747,0.055,3.128,0.646,3.784,1.809C88.177,123.372,85.686,127.458,81.194,130.009z"/>
			<g>
				<path style="fill:#FFC361;" d="M79.35,127.219c-3.593,2.046-7.407,2.094-8.545,0.113c-0.117-0.198-0.208-0.426-0.246-0.673
					l-0.001-0.014c-0.428-1.979,1.505-4.772,4.715-6.6c2.945-1.691,6.076-2.021,7.712-0.952c0.354,0.203,0.633,0.496,0.833,0.839
					C84.943,121.914,82.944,125.172,79.35,127.219z"/>
				<path style="fill:#2979E2;" d="M89.16,141.379c-5.192,2.953-10.731,3.027-12.373,0.162l-6.267-11.38
					c1.409,2.47,6.183,2.414,10.674-0.151c4.492-2.551,6.983-6.638,5.574-9.108l7.906,8.867l0.015,0.012l0.922,1.04
					C97.24,133.688,94.351,138.412,89.16,141.379z"/>
			</g>
		</g>
		<g>
			<path style="fill:#D69C3F;" d="M154.249,219.333c0.587,1.39,0.05,2.327-0.516,3.129c-0.535,0.85-1.213,1.6-1.93,2.307
				c-1.486,1.37-3.27,2.395-5.121,3.191c-1.85,0.78-3.836,1.404-5.872,1.476c-1.02,0.128-2.023-0.05-3.02-0.172
				c-0.506-0.032-0.969-0.254-1.451-0.374c-0.234-0.091-0.489-0.091-0.693-0.299c-0.204-0.204-0.368-0.561-0.428-1.221
				c0.397-0.562,0.69-0.822,0.943-0.928c0.253-0.111,0.455-0.013,0.678-0.006c0.438,0.039,0.871,0.132,1.303,0.13
				c0.866,0.005,1.721,0.143,2.571,0.084c1.707,0.055,3.425-0.246,5.001-0.922c1.585-0.669,2.952-1.767,4.172-2.976
				c0.614-0.606,1.218-1.221,1.817-1.858c0.31-0.313,0.554-0.669,0.942-0.937C153.044,219.689,153.502,219.471,154.249,219.333z"/>
		</g>
		<g>
			<path style="fill:#D69C3F;" d="M181.784,275.392c-0.506,0.841-1.167,1.514-1.916,2.083c-0.373,0.288-0.792,0.512-1.204,0.749
				c-0.44,0.191-0.874,0.397-1.353,0.521c-0.934,0.28-1.964,0.415-3.039,0.34c-0.538-0.037-1.09-0.154-1.63-0.362
				c-0.271-0.101-0.538-0.233-0.801-0.386c-0.132-0.088-0.261-0.163-0.393-0.267c-0.143-0.114-0.233-0.174-0.444-0.402l1.367,0.438
				c-0.922,0.219-1.652-0.056-2.165-0.311c-0.528-0.272-0.946-0.587-1.319-0.91c-0.37-0.326-0.704-0.662-1.015-1.009
				c-0.312-0.357-0.582-0.693-0.88-1.108l0.072,0.093l-6.588-8.008c-2.186-2.677-4.483-5.261-6.732-7.885
				c-2.274-2.603-4.571-5.187-6.781-7.845c-1.107-1.327-2.202-2.664-3.273-4.022l-1.604-2.038c-0.523-0.689-0.903-1.5-0.743-2.766
				c1.276,0.053,2.012,0.562,2.604,1.193l1.742,1.921c1.16,1.282,2.296,2.584,3.42,3.897c2.253,2.621,4.418,5.316,6.606,7.992
				c2.213,2.655,4.378,5.35,6.654,7.952l6.799,7.829l0.018,0.02l0.055,0.073c0.197,0.263,0.458,0.58,0.705,0.849
				c0.249,0.278,0.507,0.539,0.766,0.77c0.258,0.23,0.523,0.414,0.74,0.529c0.223,0.122,0.351,0.118,0.262,0.132l1.367,0.438
				c-0.062-0.067,0.015,0.015,0.045,0.036c0.037,0.035,0.099,0.07,0.145,0.109c0.115,0.07,0.236,0.139,0.375,0.196
				c0.274,0.115,0.582,0.202,0.915,0.252c0.667,0.092,1.413,0.072,2.17-0.104c0.379-0.057,0.764-0.179,1.16-0.243
				c0.392-0.109,0.798-0.188,1.213-0.282C179.939,275.672,180.791,275.461,181.784,275.392z"/>
		</g>
		<g>
			<path style="fill:#1C211C;" d="M110.167,142.971c1.882,1.783,3.315,3.865,4.728,5.96c1.428,2.085,2.861,4.167,4.246,6.281
				l8.336,12.666l8.472,12.575c1.4,2.104,2.821,4.194,4.182,6.324l2.061,3.182c0.691,1.058,1.419,2.091,1.583,3.5
				c-1.237-0.695-1.909-1.765-2.618-2.811l-2.14-3.129c-1.44-2.077-2.82-4.195-4.22-6.298l-8.331-12.669l-8.467-12.579
				c-1.416-2.093-2.783-4.219-4.156-6.341C112.454,147.521,111.085,145.396,110.167,142.971z"/>
		</g>
		<g>
			<path style="fill:#1C211C;" d="M85.706,155.12c-0.403,0.387-0.895,0.607-1.393,0.769c-0.502,0.148-1.025,0.224-1.548,0.224
				c-1.047,0.026-2.104-0.122-3.119-0.426l0.871-0.458c-0.658,2.195-1.385,4.369-2.068,6.556c-0.7,2.182-1.326,4.387-1.962,6.588
				l-0.001,0.002l-0.041,0.102c-0.212,0.531-0.314,1.3-0.298,1.981c0.014,0.704,0.159,1.407,0.375,2.091
				c0.202,0.692,0.532,1.349,0.874,2.001c0.177,0.325,0.395,0.628,0.58,0.952c0.194,0.324,0.321,0.694,0.249,1.27
				c-0.559-0.034-0.923-0.271-1.213-0.559c-0.245-0.326-0.493-0.652-0.718-0.996c-0.443-0.694-0.831-1.434-1.101-2.233
				c-0.261-0.8-0.421-1.643-0.435-2.502c-0.004-0.874,0.092-1.691,0.494-2.599l-0.041,0.103c0.699-2.182,1.409-4.361,2.044-6.563
				c0.652-2.197,1.26-4.407,1.938-6.596l0.207-0.671l0.664,0.213c0.874,0.28,1.789,0.457,2.72,0.507
				C83.721,154.921,84.635,154.934,85.706,155.12z"/>
		</g>
		<g>
			<path style="fill:#D69C3F;" d="M81.964,125.258c0.477,1.181,0.08,1.594-0.281,1.959c-0.359,0.387-0.769,0.72-1.22,0.994
				c-0.91,0.542-1.927,0.887-2.936,1.245c-1.02,0.333-2.099,0.647-3.249,0.691c-0.576,0.009-1.154-0.058-1.701-0.257
				c-0.278-0.076-0.543-0.187-0.788-0.342c-0.116-0.092-0.271-0.087-0.336-0.296c-0.07-0.194-0.062-0.563,0.078-1.146
				c0.364-0.497,0.596-0.782,0.75-0.891c0.159-0.124,0.228-0.034,0.336-0.041c0.197,0.039,0.393,0.054,0.589,0.06
				c0.195,0.007,0.379,0.055,0.57,0.069c0.192,0.004,0.381,0.026,0.573,0.056c0.765,0.064,1.601,0.067,2.401-0.208
				c0.802-0.274,1.51-0.793,2.215-1.283c0.359-0.237,0.731-0.462,1.122-0.672C80.478,124.97,80.81,124.756,81.964,125.258z"/>
		</g>
		<g>
			<path style="fill:#1C211C;" d="M94.716,175.112c1.027,0.41,1.61,1.149,2.194,1.888c0.596,0.729,1.163,1.48,1.715,2.242
				l3.293,4.585l3.425,4.487c0.56,0.756,1.135,1.501,1.668,2.277c0.275,0.382,0.53,0.778,0.796,1.167
				c0.267,0.388,0.577,0.744,0.336,1.507c-0.8,0.007-1.05-0.393-1.343-0.762c-0.294-0.367-0.598-0.728-0.882-1.102
				c-0.586-0.737-1.13-1.504-1.689-2.261l-3.289-4.588l-3.42-4.491c-0.567-0.751-1.118-1.513-1.641-2.296
				C95.344,176.988,94.808,176.214,94.716,175.112z"/>
		</g>
		<g>
			<path style="fill:#D69C3F;" d="M109.299,193.117c0.277-0.404,0.53-0.7,0.773-0.956c0.242-0.253,0.465-0.462,0.657-0.635
				l0.584-0.528l0.887,0.956c0.428,0.462,0.731,0.999,0.918,1.605c0.175,0.614,0.251,1.287,0.017,2.146
				c-0.868-0.198-1.426-0.582-1.885-1.026c-0.447-0.451-0.777-0.971-0.983-1.566l1.47,0.428c-0.415,0.125-0.827,0.151-1.234,0.088
				C110.097,193.563,109.69,193.419,109.299,193.117z"/>
		</g>
	</g>
	<g>
		<path style="fill:#2979E2;" d="M278.447,142.95c-0.07,0.28-0.24,0.64-0.51,1.07c-2.88,4.74-16.4,17.89-16.4,17.89
			s-2.15,2.43-6.59,1.41c0.47-0.32,0.88-0.73,1.23-1.21c1.98-2.72-0.25-5.15-3.36-7.4c-3.11-2.26-5.92-3.49-7.9-0.76
			c-0.37,0.5-0.63,1.05-0.81,1.62c-2.52-4.01-0.83-6.9-0.83-6.9s8.28-16.91,11.9-21.14c0.34-0.39,0.63-0.67,0.87-0.82
			c2.1-1.32,6.29-1.5,10.52,0.01c1.61,0.58,3.24,1.4,4.75,2.5c1.53,1.11,2.82,2.4,3.87,3.77
			C277.917,136.53,279.037,140.55,278.447,142.95z"/>
		<g>
			<path style="fill:#1C211C;" d="M252.245,132.165c0.321-0.781,0.988-1.284,1.664-1.599c0.689-0.318,1.429-0.403,2.153-0.489
				c1.454-0.15,2.905-0.032,4.31,0.252c2.807,0.608,5.431,1.851,7.728,3.534c2.315,1.653,4.291,3.785,5.759,6.246
				c0.729,1.235,1.297,2.578,1.639,4.003c0.176,0.712,0.269,1.45,0.301,2.201c-0.004,0.376,0.045,0.763-0.104,1.141
				c-0.075,0.189-0.203,0.372-0.358,0.538c-0.081,0.083-0.181,0.162-0.307,0.23c-0.118,0.069-0.223,0.137-0.384,0.184
				c-0.434-0.45-0.657-0.752-0.766-1.051c-0.064-0.151-0.085-0.295-0.087-0.44l-0.048-0.443c-0.078-0.595-0.243-1.187-0.408-1.781
				c-0.363-1.184-0.873-2.339-1.473-3.453c-0.601-1.11-1.321-2.179-2.14-3.152c-0.834-0.964-1.772-1.839-2.799-2.603
				c-2.076-1.487-4.517-2.451-7.003-2.91c-1.241-0.253-2.499-0.38-3.743-0.389c-0.624-0.003-1.228,0.082-1.852,0.08
				C253.69,132.262,253.074,132.236,252.245,132.165z"/>
		</g>
		<g>
			<path style="fill:#1C211C;" d="M248.755,138.028c0.439-0.658,1.065-1.016,1.697-1.24c0.64-0.221,1.305-0.237,1.96-0.267
				c1.314-0.042,2.618,0.131,3.883,0.431c2.523,0.658,4.872,1.827,6.96,3.355c2.104,1.494,3.94,3.385,5.367,5.556
				c0.708,1.092,1.283,2.277,1.688,3.53c0.21,0.625,0.349,1.275,0.458,1.932c0.037,0.331,0.133,0.659,0.047,1.007
				c-0.089,0.348-0.323,0.71-0.836,1.027c-1.076-0.57-1.084-1.051-1.227-1.612c-0.145-0.542-0.351-1.071-0.549-1.602
				c-0.422-1.056-0.944-2.079-1.527-3.07c-0.595-0.983-1.261-1.941-2.027-2.808c-0.774-0.861-1.634-1.645-2.567-2.339
				c-1.887-1.346-4.084-2.247-6.324-2.752c-1.12-0.268-2.255-0.445-3.393-0.547c-0.571-0.052-1.133-0.023-1.711-0.106
				C250.069,138.439,249.485,138.313,248.755,138.028z"/>
		</g>
		<g>
			<path style="fill:#1C211C;" d="M245.48,144.152c0.976-1.118,2.246-1.176,3.4-1.113c1.177,0.033,2.338,0.245,3.464,0.562
				c2.247,0.681,4.327,1.779,6.207,3.155c1.892,1.343,3.583,3.004,4.943,4.902c0.676,0.956,1.246,1.991,1.677,3.088
				c0.227,0.544,0.391,1.114,0.541,1.687c0.151,0.56,0.367,1.172-0.584,1.915c-1.143-0.344-1.199-0.804-1.381-1.296
				c-0.183-0.48-0.412-0.942-0.626-1.41c-0.448-0.928-0.967-1.823-1.525-2.697c-1.114-1.758-2.53-3.326-4.219-4.568
				c-1.698-1.21-3.659-2.05-5.658-2.576c-0.998-0.283-2.012-0.496-3.034-0.663C247.643,145.004,246.69,144.947,245.48,144.152z"/>
		</g>
		<path style="fill:#1C211C;" d="M256.177,162.11c-0.35,0.48-0.76,0.89-1.23,1.21c-2.17,1.57-5.42,1.5-7.98-0.35
			c-2.54-1.84-3.62-4.87-2.86-7.4c0.18-0.57,0.44-1.12,0.81-1.62c1.98-2.73,4.79-1.5,7.9,0.76
			C255.927,156.96,258.157,159.39,256.177,162.11z"/>
		<path style="fill:#FFC361;" d="M340.717,118.99c-8.75,12.06-21.87,19.07-35.61,20.44c0,0-0.04,0-0.12,0.01
			c-0.4,0.01-1.84,0.08-3.84,0.23h-0.05c-5.72,0.41-15.96,1.41-20.17,3.53c-0.95,0.48-1.96,0.74-2.99,0.82
			c0.27-0.43,0.44-0.79,0.51-1.07c0.59-2.4-0.53-6.42-3.26-9.96c-1.05-1.37-2.34-2.66-3.87-3.77c-1.51-1.1-3.14-1.92-4.75-2.5
			c-4.23-1.51-8.42-1.33-10.52-0.01c-0.24,0.15-0.53,0.43-0.87,0.82c-0.24-1.01-0.31-2.05-0.15-3.11
			c0.75-4.87-1.63-15.53-2.94-20.81c0-0.01,0-0.02-0.01-0.03c-0.34-1.37-0.6-2.38-0.72-2.82c0-0.01,0-0.01,0-0.01
			c-3.11-13.59-0.56-28.39,8.27-40.56c16.23-22.39,47.55-27.38,69.94-11.15C351.967,65.28,356.957,96.6,340.717,118.99z"/>
		<g>
			<path style="fill:#D69C3F;" d="M251.357,100.75c-2.211-5.554-2.655-11.742-1.888-17.688c0.362-2.984,0.98-5.938,1.845-8.823
				c0.864-2.888,2.079-5.659,3.46-8.331c1.396-2.665,2.994-5.238,4.91-7.558l1.425-1.75c0.478-0.58,0.93-1.184,1.485-1.695
				c1.067-1.06,2.113-2.143,3.199-3.18c4.475-4.026,9.671-7.225,15.246-9.449c11.121-4.513,23.85-5.057,35.319-1.288
				c1.415,0.512,2.808,1.089,4.212,1.633c0.714,0.246,1.367,0.627,2.041,0.963l2.009,1.033c1.373,0.632,2.587,1.536,3.852,2.35
				c0.625,0.42,1.259,0.825,1.875,1.256c0.603,0.45,1.198,0.91,1.782,1.385c2.331,1.902,4.507,3.994,6.467,6.273
				c1.963,2.256,3.824,4.709,4.446,7.792c-2.429-1.955-4.063-4.27-5.984-6.441c-1.92-2.153-4.042-4.12-6.305-5.901
				c-0.567-0.444-1.144-0.875-1.729-1.295c-0.597-0.402-1.212-0.778-1.817-1.168c-1.231-0.744-2.376-1.633-3.69-2.231l-1.917-0.991
				c-0.642-0.323-1.264-0.691-1.947-0.925c-1.341-0.52-2.669-1.076-4.019-1.57c-5.458-1.832-11.243-2.678-17.002-2.519
				c-5.76,0.174-11.49,1.361-16.847,3.499c-5.34,2.172-10.319,5.257-14.569,9.16c-1.029,1.008-2.018,2.058-3.029,3.082
				c-0.527,0.494-0.952,1.079-1.403,1.64l-1.345,1.691c-1.8,2.246-3.344,4.697-4.665,7.251c-2.658,5.103-4.455,10.656-5.24,16.37
				C250.76,89.064,251.021,94.812,251.357,100.75z"/>
		</g>
		<g>
			<path style="fill:#D69C3F;" d="M273.058,130.665c-1.238,0.165-1.846-0.247-2.513-0.662c-0.672-0.39-1.334-0.786-2.008-1.154
				c-1.329-0.763-2.716-1.456-4.197-1.807c-1.48-0.375-3.004-0.299-4.441-0.051c-0.358,0.083-0.716,0.152-1.078,0.212
				c-0.346,0.122-0.699,0.222-1.054,0.325l-0.536,0.151l-0.517,0.214c-0.35,0.154-0.625,0.363-1.537-0.361
				c-0.19-1.1,0.256-1.266,0.627-1.487c0.371-0.239,0.749-0.476,1.175-0.611c0.414-0.16,0.828-0.332,1.253-0.467
				c0.437-0.091,0.877-0.173,1.318-0.241c1.773-0.202,3.558-0.041,5.241,0.369c1.682,0.409,3.332,0.949,4.851,1.754
				c0.751,0.413,1.472,0.88,2.122,1.436C272.427,128.801,273.102,129.395,273.058,130.665z"/>
		</g>
		<g>
			<path style="fill:#D69C3F;" d="M276.931,135.702c3.224-3.858,7.134-6.758,11.045-9.659c3.888-2.933,7.814-5.81,11.757-8.665
				c3.923-2.877,7.888-5.709,11.777-8.599l1.44-1.09c0.4-0.328,0.798-0.689,1.168-1.097c0.743-0.809,1.407-1.729,1.939-2.692
				c1.07-1.88,1.588-4.245,0.461-5.237c-0.247-0.245-0.707-0.558-1.148-0.741c-0.437-0.219-0.921-0.344-1.411-0.433
				c-0.987-0.171-2.047-0.101-3.088,0.154c-2.094,0.512-4.082,1.702-5.772,3.184c-1.687,1.548-3.401,3.377-5.089,5.093l-5.077,5.241
				c-3.399,3.483-6.762,7.004-10.201,10.452l-5.161,5.169c-1.721,1.723-3.342,3.54-6.036,4.326c0.686-2.721,2.446-4.408,4.11-6.187
				c1.665-1.778,3.312-3.574,4.998-5.332c3.339-3.548,6.762-7.015,10.169-10.499c1.7-1.746,3.429-3.464,5.158-5.186
				c1.76-1.721,3.403-3.429,5.334-5.141c1.98-1.691,4.292-3.081,6.951-3.713c2.624-0.626,5.769-0.37,8.098,1.769
				c0.32,0.258,0.531,0.653,0.781,0.987c0.179,0.372,0.374,0.765,0.468,1.158c0.082,0.394,0.184,0.799,0.173,1.178l0.014,0.578
				l-0.058,0.549c-0.182,1.459-0.703,2.731-1.328,3.907c-0.635,1.173-1.396,2.25-2.29,3.242c-0.443,0.498-0.942,0.965-1.481,1.412
				l-1.453,1.141c-3.877,2.99-7.775,5.907-11.713,8.781c-3.924,2.891-7.88,5.735-11.883,8.513
				C285.603,131.072,281.615,133.873,276.931,135.702z"/>
		</g>
		<g>
			<path style="fill:#D69C3F;" d="M275.187,132.99c2.259-5.417,5.426-10.183,8.557-14.981c3.094-4.82,6.2-9.629,9.236-14.472
				c2.995-4.858,6.011-9.735,8.528-14.763c1.225-2.515,2.162-5.045,2.201-7.636c0.076-0.651-0.078-1.268-0.123-1.902
				c-0.009-0.323-0.151-0.605-0.217-0.91c-0.1-0.291-0.124-0.62-0.281-0.884c-0.445-1.154-1.204-2.119-2.105-2.863
				c-1.884-1.427-4.514-1.399-6.549-0.002c-2.094,1.348-3.458,3.72-4.815,6.168c-2.572,5.008-4.708,10.325-6.832,15.621
				c-2.111,5.311-4.072,10.688-6.083,16.049l-2.976,8.059c-0.978,2.694-1.815,5.427-4.043,7.706
				c-0.417-3.166,0.608-5.859,1.513-8.585c0.908-2.727,1.803-5.459,2.769-8.167c1.887-5.432,3.934-10.809,6.066-16.161
				c2.163-5.344,4.435-10.641,7.172-15.812l1.118-1.922c0.194-0.319,0.357-0.642,0.577-0.958l0.685-0.944l0.69-0.94
				c0.268-0.291,0.561-0.567,0.842-0.849c0.298-0.269,0.54-0.585,0.886-0.81l1-0.706c1.387-0.844,3.023-1.506,4.762-1.442
				c1.706,0.019,3.444,0.562,4.785,1.618c1.327,1.05,2.371,2.42,2.978,3.946c0.201,0.366,0.253,0.771,0.384,1.157
				c0.093,0.392,0.261,0.778,0.286,1.177c0.079,0.793,0.251,1.594,0.179,2.381c-0.014,3.185-1.159,6.154-2.384,8.796
				c-2.543,5.277-5.485,10.228-8.518,15.129c-3.026,4.901-6.184,9.71-9.45,14.44C282.788,124.277,279.499,128.999,275.187,132.99z"
				/>
		</g>
	</g>
	<g>
		
			<path style="fill:none;stroke:#589BF9;stroke-width:6.0559;stroke-linecap:round;stroke-linejoin:round;stroke-miterlimit:10;" d="
			M242.037,424.986c54.187,26.285,126.4,11.556,157.54-35.946c37.177-56.712,2.379-117.72,2.379-117.72"/>
		
			<path style="fill:none;stroke:#B81502;stroke-width:6.0559;stroke-linecap:round;stroke-linejoin:round;stroke-miterlimit:10;" d="
			M146.477,139.754c24.719,12.452,37.535,44.35,31.443,84.496c-7.763,51.156-9.822,117.659,18.126,160.474
			c11.868,18.181,27.928,31.5,45.99,40.262"/>
	</g>
	<g>
		<path style="fill:#AAC3F3;" d="M329.29,423.832"/>
		<g>
			<path style="fill:#D65151;" d="M434.06,210.59c-1.59,0.74-3.58,3.15-8.97,3.15c-4.98-0.01-8.49-7.02-10.16-12.93
				c0,0-1.98-5.13-3.98-10.99c0,0,0,0,0-0.01c-0.16-0.21-2.55-3.46-3.3-5.25c0,0,0.5-0.65,1.14-1.46c0.75-0.97,1.7-2.16,2.19-2.73
				c0.9-1.03,3.51-2.7,4.05-2.83c0.52-0.14,4.06,1.38,4.27,1.47l-1.12-2.91c0,0,1.08-0.77,2.52-1.08c1.06-0.24,2.1-0.01,2.68,0.19
				c0.21,0.07,0.36,0.13,0.43,0.17c0.22,0.11,2.99,5.11,3.82,6.62c0.06,0.1,0.1,0.18,0.14,0.25c0.06,0.11,0.09,0.17,0.09,0.17
				c6.115,8.935,6.301,11.909,6.301,11.909s1.899,6.371,2.829,8.361C437.92,204.68,435.66,209.86,434.06,210.59z"/>
			<path style="fill:#913A3A;" d="M423.38,175.21c-0.58-0.2-1.62-0.43-2.68-0.19c-1.44,0.31-2.52,1.08-2.52,1.08l1.12,2.91
				c-0.21-0.09-3.75-1.61-4.27-1.47c-0.54,0.13-3.15,1.8-4.05,2.83c-0.49,0.57-1.44,1.76-2.19,2.73c-1.2-4-2.83-8.02-2.7-9.7
				c0.46-6.01,8.95-7.86,13.13-3.52C420.54,171.25,421.96,173.11,423.38,175.21z"/>
			<g>
				<path style="fill:#913A3A;" d="M406.85,176.12l-2.782-2.304c0,0-0.648-0.036-1.308-0.206c-3.327,1.11-6.85,0.57-6.85,0.57
					s-6.01-0.46-6.14-0.53c-0.13-0.07-3.82-1.36-4.22-1.73c-0.4-0.36-0.63-1.99,1.06-2.35c1.7-0.37,3.29,0.56,3.29,0.56l3.035-0.78
					l0.345-0.54c-0.71-0.56-1.24-1.08-1.62-1.57h-0.01l-2.364-1.166l-3.978,0.014c0,0-1.877,1.303-3.328,1.202
					c-1.44-0.1-3.04-1.09-2.19-1.94c0.85-0.85,3.88-2.44,4.33-2.59c0.27-0.09,1.9-0.32,3.17-0.49h0.01c0.12-0.13,2.19-2.19,2.9-2.77
					c0.29-0.24,1.32-0.37,2.45-0.45c0.21-0.14,2.95-1.92,3.48-1.92c0.22,0,1.14,0.11,2.18,0.24h0.01c0.14-0.08,1.44-0.79,2.24-0.84
					c0.85-0.05,6.64,1.65,6.64,1.65c2.48,0.5,11.04,10.61,12.02,11.7C420.2,170.97,413.24,178.97,406.85,176.12z"/>
			</g>
			<path style="fill:#D65151;" d="M390.422,185.033l28.132,6.499c0,0,9.498,1.932,12.256,6.111
				c3.551,5.38,1.555,14.047-4.518,15.841c-3.824,1.129-27.817,2.087-27.817,2.087s-7.147-2.953-10.22-9.497
				C384.249,197.543,385.975,185.395,390.422,185.033z"/>
			<g>
				<path style="fill:#702303;" d="M398.475,215.571c0.922-1.02,1.901-1.128,2.879-1.233c0.977-0.134,1.957-0.209,2.939-0.27
					c1.964-0.094,3.934-0.093,5.897-0.219c0.981-0.06,1.959-0.186,2.94-0.241c0.981-0.072,1.97-0.005,2.956,0.022
					c1.975,0.079,3.954,0.219,5.941,0.494c-1.938,0.517-3.885,0.898-5.835,1.217c-0.976,0.147-1.949,0.335-2.931,0.384
					c-0.981,0.066-1.966,0.06-2.948,0.121c-1.963,0.115-3.918,0.357-5.879,0.505c-0.981,0.059-1.964,0.105-2.949,0.092
					C400.5,216.458,399.516,216.47,398.475,215.571z"/>
			</g>
			<g>
				<path style="fill:#702303;" d="M422.027,192.466c-0.834-0.086-1.651-0.235-2.478-0.351c-0.82-0.14-1.639-0.285-2.454-0.449
					c-1.631-0.317-3.25-0.689-4.864-1.077l-2.586-0.621l2.629-0.357c1.63-0.221,3.251-0.354,4.89-0.353
					c0.818-0.001,1.636,0.032,2.451,0.114c0.813,0.107,1.628,0.211,2.411,0.448c-1.628-0.056-3.227,0.077-4.827,0.211
					c-1.595,0.156-3.2,0.333-4.775,0.566l0.043-0.978c1.611,0.399,3.219,0.815,4.813,1.285c0.798,0.23,1.592,0.478,2.385,0.731
					C420.453,191.914,421.248,192.158,422.027,192.466z"/>
			</g>
			<g>
				<path style="fill:#1C211C;" d="M387.3,162.27c0.198-0.321,0.524-0.429,0.793-0.532c0.282-0.1,0.568-0.135,0.851-0.154
					c0.568-0.004,1.136,0.078,1.696,0.475c-0.56,0.396-1.112,0.491-1.663,0.524c-0.276-0.002-0.55-0.009-0.827-0.07
					C387.868,162.472,387.609,162.35,387.3,162.27z"/>
			</g>
			<g>
				<path style="fill:#1C211C;" d="M392.65,159.05c0.61-0.394,1.22-0.483,1.83-0.5c0.61,0.015,1.22,0.103,1.83,0.5
					c-0.61,0.396-1.22,0.485-1.83,0.5C393.87,159.533,393.26,159.444,392.65,159.05z"/>
			</g>
			<g>
				<path style="fill:#1C211C;" d="M392.174,169.546c0.221-0.19,0.455-0.334,0.692-0.465l-0.165,0.12
					c0.065-0.212,0.15-0.411,0.234-0.611l-0.039,0.077c0.074-0.32,0.161-0.628,0.28-0.928c0.104-0.305,0.254-0.591,0.405-0.878
					c0.159-0.283,0.341-0.556,0.556-0.811c0.216-0.252,0.462-0.498,0.778-0.661c-0.132,0.674-0.272,1.266-0.484,1.857
					c-0.212,0.584-0.459,1.16-0.767,1.706l-0.039,0.078c-0.146,0.16-0.292,0.32-0.456,0.469l-0.133,0.12l-0.033,0
					C392.733,169.619,392.459,169.605,392.174,169.546z"/>
			</g>
			<g>
				<path style="fill:#702303;" d="M404.948,188.389c-0.914,0.767-1.612,0.646-2.309,0.522c-0.704-0.095-1.394-0.249-2.08-0.415
					c-1.367-0.361-2.711-0.814-4.085-1.144c-1.371-0.342-2.769-0.574-4.153-0.863c-0.693-0.142-1.376-0.322-2.053-0.529
					c-0.341-0.093-0.672-0.225-1.009-0.337c-0.337-0.109-0.695-0.133-0.786-1.252c0.596-0.951,0.924-0.808,1.274-0.75
					c0.35,0.055,0.705,0.091,1.051,0.165c0.696,0.127,1.386,0.283,2.066,0.475c1.362,0.381,2.71,0.818,4.084,1.146
					c1.372,0.34,2.773,0.557,4.153,0.865c0.686,0.169,1.369,0.35,2.038,0.589C403.814,187.073,404.489,187.288,404.948,188.389z"/>
			</g>
		</g>
		<g>
			<path style="fill:#913A3A;" d="M330.7,406.06c-4.84,8.3-11.13,18.96-11.97,19.62c-1.38,1.08-6.86,5.42-11.01,5.15
				c-4.16-0.27-7.21-3.8-7.21-6.24c0-0.98,2.81-10.77,6.17-22.09c0,0,4.023-2.215,12.65-1.22
				C328.69,402.36,329.886,406.107,330.7,406.06z"/>
			<path style="fill:#197F3B;" d="M322.99,441.74c-0.5,0.6-4.71,1.6-5.46,2.98c-0.65,1.23,0.33,4.4-0.32,6
				c-2.58,6.41-4.55,8.67-4.55,8.67s-7.18,7.49-13.3,8.04c-3.07,0.27-8.29-1.65-11.62-3.87c-0.64-0.43-1.11-0.98-1.45-1.62
				c-1.32-3.3,6.47-10.62,6.47-10.62s16.08-21.84,20.16-24.36c4.08-2.52,10.44-0.72,13.25,2.48
				C327.31,433.82,325.49,438.72,322.99,441.74z"/>
			<path style="fill:#5BC6B6;" d="M326.17,429.44c-2.81-3.2-9.17-5-13.25-2.48c-4.08,2.52-20.16,24.36-20.16,24.36
				s-7.79,7.32-6.47,10.62c-0.94-1.73-0.91-4.07-0.73-6.1c0.41-4.88,5.55-9.38,5.55-9.38l6.86-11.59l2.54-10.28
				c0,0,2.57,0.27,5.04-0.95c2.48-1.22,1.27-3.25,4.59-6.1c3.33-2.84,12.91,1.35,12.91,1.35s2.12,7.74,2.8,9.54
				C325.97,428.76,326.08,429.1,326.17,429.44z"/>
			<path style="fill:#1C211C;" d="M401.956,271.32c1.587,6.667,4.072,12.37-7.448,33.43c-4.667,8.533-16.258,15.679-16.258,15.679
				s-21.342,31.06-26.607,35.392c-5.265,4.332-20.303,6.69-22.52,5.606s-6.577-5.775-6.093-10.383
				c0.485-4.609,16.548-50.761,18.211-52.93s10.53-23.179,23.277-26.635C377.265,268.022,401.209,268.181,401.956,271.32z"/>
			<path style="fill:#1C211C;" d="M354.36,352.91c0,0-1.16,14.7-7.01,28.81c-3.78,9.12-9.9,12.9-9.9,12.9s-1.6,2.52-2.45,4.01
				c-0.17,2.27-2.59,7.33-4.3,7.43c-1.72,0.1-24.02-3.56-24.02-3.56s-1.87-1.46-1.99-2.42c-0.12-0.93,8.76-23.28,9.63-25.32
				c0.01-0.03,0.02-0.05,0.03-0.08c0.01-0.02,0.02-0.03,0.02-0.05c0.01-0.01,0.01-0.02,0.01-0.02c1.65-5.43,2.97-8.91,2.97-8.91
				s1.03-5.8,1.58-7.49c0.5-1.55,4.5-9.04,4.5-9.04s6.12-0.37,13.32,0.06C348.82,349.95,354.36,352.91,354.36,352.91z"/>
			<g>
				<path style="fill:#1C211C;" d="M403.139,276.813c1.145,0.973,1.264,2.213,1.299,3.378c0.063,1.181-0.021,2.37-0.212,3.541
					c-0.201,1.166-0.537,2.329-0.931,3.427l-1.154,3.206c-0.364,1.076-0.74,2.15-1.135,3.218c-0.382,1.073-0.767,2.148-1.203,3.205
					c-0.428,1.061-0.909,2.102-1.453,3.115c-0.261,0.512-0.564,1.004-0.86,1.498c-0.287,0.495-0.524,1.04-1.726,1.001
					c-0.647-1.021-0.33-1.458-0.096-1.963l0.671-1.518l1.357-3.038c0.936-2.018,1.794-4.083,2.559-6.187
					c0.354-1.062,0.709-2.124,1.028-3.198c0.305-1.046,0.527-2.074,0.686-3.134c0.174-1.053,0.277-2.119,0.361-3.192
					C402.379,279.085,402.38,278.064,403.139,276.813z"/>
			</g>
		</g>
		<g>
			<path style="fill:#913A3A;" d="M336.85,166.05c0,0-1.38,6.33-1.26,7.05c0.12,0.72,0.9,0.9,1.56,0.9s1.546,0,1.546,0
				s0.374,0.54,0.374-1.44S336.85,166.05,336.85,166.05z"/>
			<path style="fill:#1C211C;" d="M331.24,161.662c0,0-0.27,1.123,0.27,1.68c0,0,0.704,4.398,3.96,4.818
				c3.225,0.416,5.31-1.638,5.58-3.249c0.27-1.611-0.15-7.281-0.15-7.281l-0.39,0.24c0,0-0.058,5.097-0.03,6.69s-2.207,3.52-5.04,3
				c-3.226-0.592-3.574-6.248-3.574-6.248L331.24,161.662z"/>
			<path style="fill:#913A3A;" d="M379.9,157.92c-0.13,5.4-5.38,14.17-5.38,14.17l0.99,2.14c0,0,3.19,8.77,3.29,9.73
				c0.1,0.96,0.11,3.29-2.29,6c-2.4,2.71-7.57,6.49-14.15,5.39c-6.57-1.09-7.57-4.78-7.57-4.78s-0.89-4.24-1.29-6.41
				c-0.02-0.11-0.04-0.22-0.06-0.32c-0.07-0.4-0.12-0.69-0.14-0.84c-0.07-0.6-0.45-2.45-0.18-4.74c-2.05,2.55-4.2,5.21-4.51,5.7
				c-0.47,0.76-2.51,2.17-3.98,2.05c-0.16-0.01-0.31-0.04-0.46-0.09c-0.2-0.06-0.38-0.17-0.54-0.33c-1.54-1.55-5.73-13.4-6.52-16.74
				c-0.8-3.34,0.3-4.68,0.55-5.63c0.24-0.94-0.35-1.04-0.9-1.99c-0.55-0.95-1.4-6.72,0-11.81c1.39-5.08,7.67-17.23,25.4-16.04
				C379.9,134.58,380.03,152.52,379.9,157.92z"/>
			<path style="fill:#1C211C;" d="M353.5,184.16c-0.6,0.18-2,0.59-2.98,0.9c-1.17,0.37-4.15,1.18-5.89,0.95
				c1.47,0.12,3.51-1.29,3.98-2.05c0.31-0.49,2.46-3.15,4.51-5.7c-0.27,2.29,0.11,4.14,0.18,4.74c0.02,0.15,0.07,0.44,0.14,0.84
				C353.46,183.94,353.48,184.05,353.5,184.16z"/>
			<path style="fill:#1C211C;" d="M383.53,156.3c0,0,0,1.44,0,4.14s-1.26,4.062-1.26,4.062s0.72,3.138,0,4.758
				c-0.72,1.62-3.96,3.24-3.96,3.24l-1.02,3.06c0,0-0.738,1.574-2.28,1.62c-1.542,0.046-3-1.62-3-1.62s-1.44,1.62-4.32,1.62
				c-2.88,0-2.88-1.98-2.88-1.98c-5.76-0.72-5.13-6.03-5.13-6.03c-1.98-1.08-1.723-3.06-1.723-3.06
				c-2.353-0.36-5.324-9.87-5.324-9.87s2.428,8.262,1.95,9.084c-0.478,0.822-4.439-7.851-5.519-9.875
				c-2.7-0.964-2.255-3.705-2.255-3.705s-1.975,0.675-4.5-1.443c-1.755-1.472-1.485-4.937-1.485-4.937s-3.33,1.012-4.283,4.937
				c0,0-0.118,1.16-1.702,1.443c-1.26,0.225-3.859-1.745-1.879-3.005c0,0-1.991-1.799,0.529-5.039c0,0-1.26-3.24,0.9-5.04
				s2.16-1.8,2.16-1.8s1.8-5.58,6.48-4.86c0,0,1.81-4.86,6.035-3.96c0,0,5.707-3.822,9.826-0.111c0,0,3.219-1.869,5.019,0.291
				c0,0,3.232-2.243,7.642-0.51c1.34,0.526,2.438,2.85,2.438,2.85s2.7-1.98,4.86-0.72c2.16,1.26,2.16,3.458,2.16,3.458
				s2.098,0.711,2.52,3.202c0.393,2.319,0.482,2.236,0.18,2.52c0,0,2.34,5.04,1.8,6.48s-0.54,1.44-0.54,1.44s1.08,2.58-0.72,4.02
				C384.25,150.96,386.41,153.48,383.53,156.3z"/>
			<path style="fill:#1C211C;" d="M355.529,150.072l-24.289,11.59c0,0-0.33,0.078,0.27,1.68c0.211,0.565,24.66-12.217,24.66-12.217
				c0.585-0.225,0.874-0.405,1.787-0.045c0.913,0.36,2.334,2.118,2.874,2.361c0.54,0.243,0.913-1.281,0.139-2.481
				C360.467,150.18,357.127,149.1,355.529,150.072z"/>
			<g>
				<path style="fill:#913A3A;" d="M355.286,165.266l-2.653-9.026c0,0,0.093-5.665,3.997-5.929c3.904-0.264,5.349,5.25,4.909,7.979
					c-0.439,2.73-3.173,4.951-3.173,4.951S358.476,166.476,355.286,165.266z"/>
				<g>
					<path style="fill:#1C211C;" d="M354.746,157.56c-0.664-0.644-0.602-1.431-0.559-2.174c0.084-0.752,0.332-1.5,0.744-2.185
						c0.203-0.342,0.461-0.662,0.759-0.947c0.356-0.358,0.877-0.505,1.293-0.509c0.433-0.009,0.846,0.095,1.206,0.306
						c0.35,0.204,0.681,0.571,0.7,1.009c-0.398-0.135-0.702-0.138-1.008-0.174c-0.298-0.036-0.593-0.046-0.862-0.038
						c-0.277,0.016-0.493,0.044-0.649,0.18c-0.216,0.193-0.429,0.407-0.561,0.686c-0.304,0.531-0.42,1.171-0.507,1.812
						C355.173,156.178,355.239,156.808,354.746,157.56z"/>
				</g>
				<g>
					<path style="fill:#1C211C;" d="M354.664,155.194c0.787-0.204,1.384,0.146,1.935,0.556c0.278,0.21,0.528,0.474,0.736,0.808
						c0.208,0.323,0.341,0.776,0.306,1.198c-0.074,0.739-0.292,1.357-0.501,1.98c-0.239,0.61-0.56,1.173-1.095,1.605l-0.035-0.382
						c0.353,0.489,0.684,0.998,0.989,1.532c-0.509-0.345-0.99-0.715-1.451-1.104l-0.09-0.076l0.055-0.306
						c0.113-0.626,0.372-1.165,0.619-1.696c0.268-0.517,0.469-1.091,0.466-1.596c-0.008-0.368-0.304-0.749-0.712-1.125
						C355.49,156.193,355.003,155.913,354.664,155.194z"/>
				</g>
			</g>
		</g>
		<g>
			<path style="fill:#1C211C;" d="M387.37,278.28c0,0,6.57,22.16-15.54,35.7c-8.328,5.1-13.043,3.953-27.3-0.255
				c-1.827-0.539-6.9-1.725-18.42-6.765c-3.009-1.368-40.161-17.722-43.583-21.552c-3.422-3.83-5.05-18.312-5.05-23.237
				s7.118-7.114,9.168-7.114s50.773,9.764,64.985,13.306C366.671,272.111,384.913,274.134,387.37,278.28z"/>
			<path style="fill:#913A3A;" d="M294.996,358.853c-9.138-0.2-9.437-5.868-9.437-5.868s-1.654-11.992-2.536-16.35
				c0.215,0.134-0.025-7.25,10.934-7.135c5.3,0.056,8.173,2.066,8.935,4.832l2.249,15.838
				C305.141,350.168,305.67,359.085,294.996,358.853z"/>
			<path style="fill:#197F3B;" d="M311.78,358.67c-0.44,3.26-3.78,12.54-5.26,12.75c-1.48,0.21-4.35,2.47-4.35,2.47
				s-3.55,15.51-5.27,17.55c-1.73,2.04-10.78,6.61-13.19,6.07c-2.41-0.53-5.53-3.44-6.42-3.98c-0.69-1.38,1.18-7.71,4.59-9.93
				c3.41-2.23,12.66-9.33,13.05-10.69c0.39-1.36-1.6-4.94,1.07-7.89c2.68-2.95,8.5-9.2,10.16-9.18
				C307.81,355.85,310.4,356.62,311.78,358.67z"/>
			<path style="fill:#5BC6B6;" d="M311.78,358.67c-1.38-2.05-3.97-2.82-5.62-2.83c-1.66-0.02-7.48,6.23-10.16,9.18
				c-2.67,2.95-0.68,6.53-1.07,7.89c-0.39,1.36-9.64,8.46-13.05,10.69c-3.41,2.22-5.28,8.55-4.59,9.93
				c-0.88-0.53-1.15-4.3-1.42-5.37c-0.27-1.07,5.34-13.35,5.34-13.35l4.21-12.68l0.28-8.43c0,0,4.66-4.22,7.92-6.16
				c1.85-1.09,8.54-0.91,11.19,0.32C304.81,347.86,312.22,355.42,311.78,358.67z"/>
			<g>
				<path style="fill:#1C211C;" d="M389.11,294c0.023,1.349-0.272,2.671-0.682,3.936c-0.402,1.275-0.974,2.488-1.641,3.643
					c-1.363,2.292-3.005,4.428-4.9,6.316c-1.886,1.897-4.026,3.534-6.3,4.925c-2.283,1.417-4.817,2.431-7.378,3.154
					c-5.149,1.419-10.525,1.774-15.794,1.23c-2.639-0.251-5.243-0.789-7.781-1.519l-1.893-0.583l-1.85-0.701
					c-1.212-0.498-2.548-0.77-3.261-2.4c0.851-0.339,1.526-0.314,2.153-0.17c0.612,0.182,1.198,0.427,1.813,0.594l1.817,0.567
					l1.833,0.5c1.218,0.345,2.455,0.606,3.687,0.887c1.243,0.225,2.484,0.457,3.738,0.606c4.991,0.689,10.157,0.455,14.954-1.006
					c2.408-0.715,4.654-1.789,6.78-3.08c2.143-1.303,4.099-2.881,5.914-4.598c1.792-1.742,3.415-3.666,4.781-5.769
					C386.485,298.434,387.78,296.302,389.11,294z"/>
			</g>
			<path style="fill:#1C211C;" d="M303.571,333.24c0,0-0.181,0.369-0.681,0.927c-1.749-1.015-4.512-1.775-9.715-0.767
				c-7.453,1.448-9.644,4.833-9.871,4.721c-0.009-0.011-0.452-0.355-0.452-0.355c-4.185-13.447-14.522-60.505-14.927-64.24
				c-0.251-2.311,4.764-13.273,5.108-13.911c0.787-1.461,6.838-4.036,6.838-4.036c2.499-2.078,14.866,0.883,14.866,0.883
				c5.416,2.322,7.219,14.899,8.333,22.509c1.114,7.61,1.787,17.568,1.5,23.43c-0.084,1.721-0.84,6.84-0.84,6.84L303.571,333.24z"/>
			<g>
				<path style="fill:#1C211C;" d="M293.89,276.36c0.204,1.731,0.503,3.39,1.01,4.98c0.489,1.59,1.142,3.112,1.919,4.564
					c0.761,1.464,1.694,2.83,2.671,4.165c0.998,1.304,2.096,2.608,3.25,3.716l-1.297,0.909c-0.593-1.978-1.099-3.954-1.479-5.978
					c-0.187-1.01-0.335-2.031-0.418-3.06c-0.052-1.018-0.128-2.105,0.277-3.066c-0.108,0.501-0.053,1.005,0.017,1.499
					c0.069,0.496,0.177,0.987,0.299,1.474c0.233,0.977,0.532,1.939,0.839,2.898c0.62,1.913,1.3,3.824,2.019,5.689
					c0.162,0.42-0.047,0.892-0.467,1.054c-0.277,0.107-0.577,0.052-0.795-0.117l-0.035-0.027c-1.447-1.132-2.664-2.385-3.767-3.79
					c-1.108-1.388-2.041-2.922-2.784-4.543c-0.737-1.624-1.265-3.352-1.495-5.117C293.405,279.85,293.489,278.052,293.89,276.36z"/>
			</g>
		</g>
		<g>
			<path style="fill:#1C211C;" d="M377.05,177.81c-0.581-0.129-9.99,0.108-13.14,1.35c-2.079,0.82-11.782,5.04-12.281,6.36
				c-0.499,1.32-0.499,3.6-0.499,3.6s9.913-5.043,13.129-5.689c3.216-0.646,15.045-1.473,15.853-1.308
				C380.111,182.123,377.86,177.99,377.05,177.81z"/>
			<path style="fill:#D65151;" d="M399.13,232.935l0.36-7.331c0,0,2.24-11.288,2.16-20.254c-0.079-8.802-4.792-17.036-6.57-18.45
				c-1.069-0.851-11.596-4.147-11.596-4.147s-2.59-0.352-4.583-0.95c-1.993-0.598-13.809,0.999-19.328,2.79
				c-9.884,3.208-13.293,6.208-13.293,6.208s-14.207,13.835-17.015,28.093c-1.775,9.011,9.805,17.687,9.805,17.687l1.98,6.21
				c-1.141,5.85-2.365,12.84-1.543,17.465l0,0c0,0-6.147,3.63-6.659,4.387c-0.347,0.513,6.044,8.016,12.254,13.723
				c0.854,0.785,6.389-5.37,6.389-5.37s2.056,9.669,2.639,9.969c8.257,4.244,30.211,2.125,30.211,2.125
				c4.32,0.54,23.791-9.18,23.791-14.04C408.13,266.19,399.13,232.935,399.13,232.935z"/>
			<g>
				<path style="fill:#702303;" d="M394.27,205.71c0.714,1.97,0.417,3.849,0.076,5.684c-0.316,1.848-0.75,3.673-1.257,5.479
					c-1.053,3.601-2.392,7.122-4.001,10.528c-0.773,1.718-1.665,3.389-2.644,5.013c-0.964,1.633-2.051,3.211-3.301,4.671
					c-1.242,1.462-2.641,2.824-4.243,3.931c-0.379,0.304-0.809,0.54-1.223,0.794c-0.412,0.259-0.834,0.5-1.278,0.704
					c-0.449,0.19-0.841,0.497-1.351,0.554c-0.501,0.067-1.04,0.044-1.656-0.279c0.464-1.356,1.256-1.606,2.013-2.079
					c0.385-0.21,0.749-0.455,1.102-0.717c0.353-0.262,0.728-0.487,1.063-0.776c1.401-1.061,2.655-2.316,3.843-3.636
					c2.393-2.639,4.299-5.757,5.863-9.029c0.747-1.655,1.433-3.342,2.028-5.064c0.584-1.726,1.101-3.475,1.583-5.235
					c0.495-1.756,0.945-3.525,1.396-5.297C392.704,209.172,393.08,207.409,394.27,205.71z"/>
			</g>
			<g>
				<path style="fill:#702303;" d="M395.71,234.63c0.237,1.47-0.428,2.493-1.121,3.414c-0.667,0.958-1.449,1.828-2.264,2.662
					c-1.681,1.621-3.58,3.007-5.581,4.203c-1.971,1.248-4.122,2.25-6.382,2.921c-0.569,0.154-1.134,0.336-1.715,0.437
					c-0.583,0.094-1.17,0.157-1.755,0.228c-0.582,0.103-1.175,0.068-1.762,0.058c-0.581-0.003-1.19,0.081-1.741-0.963
					c0.573-1.087,1.088-1.048,1.63-1.095c0.537-0.046,1.07-0.106,1.595-0.221c0.527-0.097,1.052-0.202,1.581-0.276
					c0.524-0.101,1.034-0.266,1.557-0.379c1.053-0.205,2.047-0.623,3.068-0.96c0.974-0.458,1.967-0.883,2.884-1.461
					c1.842-1.136,3.5-2.555,5.003-4.111c0.758-0.773,1.502-1.559,2.235-2.362C393.671,235.9,394.312,235.085,395.71,234.63z"/>
			</g>
			<g>
				<path style="fill:#702303;" d="M339.07,236.58c0.774,0.089,1.407,0.209,2.032,0.324l1.782,0.378l1.769,0.422
					c0.612,0.178,1.243,0.311,1.977,0.617c-1.168,1.027-2.762,1.227-4.19,0.911c-0.719-0.158-1.402-0.47-1.995-0.905
					C339.861,237.883,339.332,237.329,339.07,236.58z"/>
			</g>
			<g>
				<path style="fill:#702303;" d="M399.742,224.25c-0.738-1.452-0.607-2.744-0.482-4.051c0.094-1.308,0.229-2.61,0.359-3.912
					c0.303-2.599,0.582-5.202,0.685-7.811c0.023-1.304,0.018-2.606-0.022-3.903c-0.061-1.296-0.172-2.583-0.315-3.855
					c-0.152-1.271-0.337-2.525-0.601-3.735c-0.141-0.602-0.277-1.202-0.48-1.762c-0.071-0.302-0.255-0.525-0.268-0.852
					c-0.017-0.329,0.029-0.677,0.271-1.273c0.589-0.036,1.05,0.136,1.323,0.4c0.279,0.264,0.427,0.613,0.576,0.935
					c0.307,0.656,0.565,1.32,0.746,1.996c0.384,1.347,0.607,2.708,0.715,4.061c0.204,2.709,0.154,5.388,0.056,8.054
					c-0.075,2.665-0.18,5.326-0.409,7.977c-0.134,1.323-0.301,2.642-0.543,3.951C401.137,221.777,400.904,223.098,399.742,224.25z"
					/>
			</g>
			<g>
				<path style="fill:#702303;" d="M351.49,272.996c1.195-7.157,2.524-14.286,4-21.383c0.712-3.555,1.499-7.091,2.277-10.637
					c0.393-1.777,0.85-3.545,1.257-5.288c0.403-1.755,0.791-3.514,1.137-5.28c0.735-3.523,1.325-7.074,1.77-10.638
					c0.469-3.561,0.734-7.146,0.786-10.726c0.027-3.577-0.17-7.172-0.944-10.656c-0.743-3.453-2.147-6.943-4.986-9.268
					c0.759,0.496,1.472,1.077,2.102,1.746c0.609,0.684,1.174,1.419,1.638,2.214c0.958,1.576,1.659,3.299,2.189,5.062
					c1.031,3.543,1.448,7.225,1.555,10.884c0.21,7.336-0.732,14.63-2.15,21.777c-0.713,3.565-1.646,7.131-2.506,10.609
					l-2.597,10.547C355.287,258.995,353.447,266.008,351.49,272.996z"/>
			</g>
		</g>
		<g>
			<g>
				<path style="fill:#913A3A;" d="M289.964,193.537c-1.358,0.721-3.686-0.179-3.686-0.179l0.087-0.715l2.188-2.483l0.023-0.027
					c0,0,2.074,0.919,2.331,1.373C291.155,191.96,291.321,192.827,289.964,193.537z"/>
				<path style="fill:#913A3A;" d="M294.878,202.208l-2.473,4.852l-0.543,3.988c0.62,3.41-0.382,5.262-4.15,8.721
					c-2.215,2.046-5.858,0.946-5.858,0.946s-4.54-3.487-5.529-4.877c-0.738-1.047-1.67-4.305-2.11-6.877l-1.156-3.396
					c0,0-0.215-2.363-0.071-2.88c0.135-0.527,1.174-2.677,1.174-2.677s0.072-0.586,0.081-0.665c0.023-0.189,0.579-1.934,0.69-2.182
					c0.1-0.24,1.957-2.41,2.192-2.684c0.012-0.019,0.023-0.027,0.023-0.027l2.182-3.592l4.583-1.474l0.01,0.001l3.129-2.357
					c0,0,3.926-0.96,4.148-0.883c0.211,0.086,1.617,1.357,0.787,2.464c-0.821,1.108-3.189,1.282-3.189,1.282l-0.221,0.245
					l-0.023,0.027l-2.188,2.483l-0.564,4.606c0.078,0.1,0.167,0.202,0.255,0.303c0.467,0.551,0.983,1.682,1.453,2.948l1.955,0.239
					l2.562-4.472c0,0-0.251-3.547,1.854-4.78c2.116-1.242,2.485,1.342,2.483,1.855C296.362,193.867,294.878,202.208,294.878,202.208
					z"/>
			</g>
			<path style="fill:#913A3A;" d="M293.805,211.104c0.606,0.83,1.836,4.834-2.039,9.709c-3.041,3.825-4.66,4.03-6.296,3.482
				c-1.949-1.86-3.676-3.62-4.041-4.097c-1.096-1.414-0.393-6.093,2.927-9.183c3.31-3.091,6.881-1.072,6.881-1.072
				S292.267,210.412,293.805,211.104z"/>
			<path style="fill:#D65151;" d="M325.75,239.03c-2.896,2.013-6.561,1.419-9.63,0.52c-1.985-0.581-24.518-10.07-29.902-14.378
				c-0.563-0.45-0.643-0.687-0.748-0.877c-0.108-0.196,1.029-3.578,1.423-4.287c0.066-0.12,3.24,0.045,3.24,0.045l-2.418-2.149
				c0,0-0.192-0.742,1.315-3.375c0.668-1.166,3.145-2.538,4.775-3.426c0.734-0.404,1.37-0.659,1.691-0.649
				c1.024,0.025,12.731,4.308,12.731,4.308l-3.452-1.247c1.098,0.344,13.251,1.911,13.617,1.966
				c2.748,0.346,3.914,2.101,5.737,4.239C326.736,222.789,330.77,235.544,325.75,239.03z"/>
			<path style="fill:#D65151;" d="M353.5,191.13c-0.66-1.44-2.061-2.958-3.81-2.485c-2.296,0.621-5.392,1.553-8.549,3.115
				c-2.79,1.38-7.476,7.68-7.476,7.68s-17.118,16.087-18.391,17.802c-2.762,3.721-3.759,11.922-1.584,15.318
				c5.33,8.321,12.647,5.959,12.647,5.959c1.916-1.195,8.673-8.179,8.673-8.179s10.211-8.577,11.62-9.96
				C356.106,211.076,355.713,195.96,353.5,191.13z"/>
			<g>
				<path style="fill:#702303;" d="M346.63,220.38c-0.741,1.391-1.694,2.531-2.708,3.598c-1.004,1.079-2.251,1.868-3.369,2.811
					c-1.121,0.939-2.115,2.03-3.364,2.817c-1.239,0.799-2.523,1.544-4,2.059c0.763-1.366,1.719-2.502,2.721-3.583
					c0.992-1.094,2.238-1.884,3.357-2.826c1.122-0.938,2.115-2.03,3.352-2.832C343.843,221.611,345.131,220.869,346.63,220.38z"/>
			</g>
			<g>
				<path style="fill:#702303;" d="M342.061,224.215c0.73-0.332,1.372-0.549,2.012-0.758c0.636-0.198,1.254-0.362,1.873-0.519
					c0.619-0.156,1.246-0.279,1.897-0.405c0.666-0.098,1.33-0.232,2.146-0.234c-0.754,1.412-2.137,2.221-3.572,2.582
					c-0.723,0.18-1.479,0.226-2.222,0.138C343.456,224.919,342.707,224.713,342.061,224.215z"/>
			</g>
			<g>
				<path style="fill:#702303;" d="M310.9,221.28c0.21-0.709,0.495-1.402,0.855-2.062c0.343-0.672,0.809-1.275,1.307-1.849
					c0.51-0.566,1.091-1.074,1.729-1.503c0.645-0.435,1.301-0.797,2.105-1.04l0.065,0.957c-0.831-0.031-1.808,0.098-2.711,0.271
					c-0.917,0.188-1.834,0.418-2.735,0.709c-0.911,0.265-1.801,0.603-2.701,0.931l-1.344,0.518
					c-0.441,0.191-0.886,0.376-1.341,0.548c0.786-0.567,1.615-1.07,2.461-1.551c0.857-0.458,1.735-0.884,2.647-1.239
					c0.914-0.344,1.845-0.667,2.815-0.867c0.979-0.206,1.925-0.365,3.019-0.289L319.74,215l-2.603,0.772
					c-0.606,0.18-1.274,0.491-1.867,0.845c-0.596,0.368-1.177,0.777-1.699,1.259c-0.517,0.486-1.022,0.999-1.456,1.578
					C311.652,220.015,311.289,220.648,310.9,221.28z"/>
			</g>
		</g>
		<path style="fill:#1C211C;" d="M352.553,268.972"/>
	</g>
</g>
</svg>
