<?xml version="1.0" encoding="utf-8"?>
<!-- Generator: Adobe Illustrator 27.5.0, SVG Export Plug-In . SVG Version: 6.00 Build 0)  -->
<svg version="1.1" xmlns="http://www.w3.org/2000/svg" xmlns:xlink="http://www.w3.org/1999/xlink" x="0px" y="0px"
	 viewBox="0 0 750 500" style="enable-background:new 0 0 750 500;" xml:space="preserve">
<g id="BACKGROUND">
	<rect style="fill:#FFFFFF;" width="750" height="500"/>
	<g>
		<path style="fill:#E5F7F9;" d="M658.6,302.125c0.554-5.027-0.879-10.113-3.183-14.615c-10.599-20.717-63.623-34.486-59.945,1.458
			C597.698,310.712,655.47,330.5,658.6,302.125z"/>
		<g>
			<path style="fill:#E5F7F9;" d="M371.857,341.94c17.946,9.665,36.504,19.658,54.99,28.992
				c45.068,22.756,105.056,49.65,169.426,55.681c23.579,2.211,46.613,1.328,68.37-2.406c3.38-9.03,5.904-18.303,6.943-27.913
				c0.366-3.383,0.497-6.825,0.406-10.273c-25.386,9.305-52.421,14.213-79.397,14.215c-22.188,0.001-44.32-3.305-65.473-10.181
				c-36.86-11.983-70.03-33.576-102.108-54.457c-7.31-4.759-14.868-9.679-22.338-14.397
				c-83.947-53.035-163.132-81.717-236.223-85.68c-0.216,0.346-0.426,0.695-0.654,1.037c-5.947,8.923-15.085,14.649-24.533,20.042
				c38.758,2.927,80.162,13.809,125.308,32.859C302.739,304.72,337.876,323.641,371.857,341.94z"/>
			<path style="fill:#E5F7F9;" d="M167.593,233.576c73.149,4.195,152.307,32.963,236.152,85.933
				c7.48,4.727,15.045,9.65,22.36,14.412c31.97,20.81,65.026,42.33,101.637,54.231c46.644,15.164,98.174,12.802,144.168-4.203
				c-1.054-19.797-9.712-39.465-26.619-49.258c-11.752-6.807-25.857-8.106-38.437-13.224c-22.137-9.007-38.601-30.655-41.367-54.393
				c-2.229-19.127,3.794-38.102,7.788-56.94c3.994-18.838,5.679-39.699-4.185-56.237c-13.776-23.095-44.687-29.159-71.518-27.352
				c-32.982,2.221-66.396,12.673-98.477,4.704c-28.451-7.067-51.538-27.683-78.75-38.587c-29.924-11.991-65.101-11.314-93.667,3.625
				c-28.567,14.939-49.533,44.413-52.351,76.526C172.527,193.314,177.288,215.875,167.593,233.576z"/>
			<path style="fill:#E5F7F9;" d="M621.736,429.813c-8.456,0-17.015-0.399-25.65-1.208c-64.703-6.064-124.913-33.052-170.141-55.888
				c-18.509-9.346-37.078-19.346-55.036-29.016c-33.939-18.277-69.034-37.176-105.112-52.401
				c-46.11-19.457-88.276-30.351-127.676-32.916c-3.751,2.118-7.501,4.233-11.071,6.522c-34.719,22.256-54.315,65.951-47.844,106.68
				c5.433,34.192,28.985,64.669,60.016,79.726H652.21c4.242-8.15,8.274-16.436,11.594-24.93
				C650.209,428.646,636.129,429.813,621.736,429.813z"/>
		</g>
	</g>
	<g>
		<g>
			<rect x="100" y="451.458" style="fill:#2A72BA;" width="550" height="1"/>
		</g>
	</g>
</g>
<g id="OBJECTS">
	<g>
		<g>
			<path style="fill:#B4EFFF;" d="M122.056,283.413c-4.877-1.951-10.072-3.36-15.321-3.155c-5.249,0.206-10.58,2.179-14.063,6.111
				c-3.483,3.933-4.752,9.961-2.377,14.647c1.974,3.894,6.051,6.342,10.247,7.548c4.196,1.206,8.607,1.364,12.941,1.888
				c13.101,1.585,25.766,6.645,36.352,14.523c3.706,2.758,12.744,6.655,11.319-1.636c-0.987-5.741-5.654-12.095-9.052-16.65
				C144.434,296.411,133.978,288.182,122.056,283.413z"/>
			<path style="fill:#B4EFFF;" d="M172.127,307.479c0.967-12.299,5.271-24.1,10.42-35.311c7.397-16.104,17.243-31.994,32.485-41.036
				c3.023-1.793,6.683-3.321,9.967-2.067c4.14,1.581,5.547,6.622,6.385,10.974c2.794,14.517,5.423,29.215,4.773,43.984
				c-0.65,14.769-4.85,29.8-14.352,41.125c-6.897,8.221-16.852,14.191-27.546,15.663c-3.57,0.491-9.648,1.476-13.051-0.165
				c-4.124-1.99-5.94-8.736-7.113-12.733C172.156,321.312,171.589,314.326,172.127,307.479z"/>
			<path style="fill:#B4EFFF;" d="M144.341,336.098c-9.291-7.887-21.619-12.099-33.793-11.545c-3.55,0.161-8.016,1.684-8.1,5.236
				c-0.058,2.48,2.158,4.317,4.018,5.959c4.788,4.227,8.385,9.61,11.863,14.966c3.479,5.356,6.941,10.806,11.532,15.246
				c4.591,4.439,10.508,7.84,16.888,8.125C173.283,375.268,154.021,344.315,144.341,336.098z"/>
			<path style="fill:#B4EFFF;" d="M224.901,336.354c2.115-0.482,4.531-0.825,6.288,0.448c2.327,1.686,2.192,5.172,1.517,7.965
				c-3.914,16.176-18.805,29.07-35.374,30.631c-3.609,0.34-7.361,0.169-10.681-1.29c-14.652-6.436,0.296-18.098,7.413-23.423
				C203.204,343.847,213.765,338.894,224.901,336.354z"/>
		</g>
		<path style="fill:#B4EFFF;" d="M157.154,406.603c6.521-0.911,20.256-2.272,33.772-0.093c2.17,0.35,3.676,2.363,3.44,4.548
			c-0.738,6.836-2.561,21.772-5.733,36.149c-0.376,1.703-1.789,2.974-3.517,3.204c-4.719,0.628-14.374,1.57-22.491,0.179
			c-1.715-0.294-3.075-1.598-3.409-3.305c-1.245-6.361-4.322-22.789-5.627-36.139C153.372,408.917,154.935,406.914,157.154,406.603z
			"/>
		<path style="fill:#8EE4FD;" d="M228.819,338.681c-0.072-0.267-0.347-0.423-0.614-0.352c-1.986,0.54-44.982,12.487-54.367,34.318
			c9.074-70.433,49.786-139.779,50.261-140.579c0.141-0.238,0.063-0.545-0.175-0.686c-0.237-0.14-0.544-0.063-0.686,0.175
			c-0.424,0.714-32.764,55.794-46.313,117.692c-10.933-39.509-80.421-58.069-81.13-58.253c-0.263-0.073-0.54,0.09-0.61,0.357
			c-0.07,0.267,0.09,0.54,0.357,0.609c0.712,0.186,71.3,19.037,80.786,58.944c0.027,0.116,0.093,0.212,0.18,0.279
			c-2.398,11.309-4.151,22.827-4.957,34.268c-10.139-23.997-59.459-55.369-61.615-56.731c-0.233-0.145-0.542-0.077-0.69,0.156
			c-0.148,0.233-0.078,0.542,0.156,0.689c0.54,0.342,54.123,34.417,61.994,58.3c-0.347,5.916-0.443,11.806-0.227,17.629
			c0.01,0.27,0.232,0.482,0.499,0.482c0.006,0,0.013,0,0.019,0c0.276-0.011,0.491-0.242,0.481-0.519
			c-0.322-8.693,0.035-17.536,0.926-26.394c0.035-0.059,0.062-0.124,0.071-0.197c2.926-25.036,54.778-39.433,55.302-39.575
			C228.735,339.222,228.892,338.946,228.819,338.681z"/>
	</g>
	<g>
		<g>
			<g>
				<g>
					<g>
						<g>
							<path style="fill:#B4EFFF;" d="M497.114,79.068h-16.772V62.296h16.772V79.068z M480.995,78.415h15.466V62.949h-15.466V78.415
								z"/>
						</g>
						<g>
							<path style="fill:#B4EFFF;" d="M482.538,69.258l6.132,4.577l-2.303,0.023l17.586-17.229c0.129-0.126,0.336-0.124,0.463,0.005
								c0.118,0.121,0.123,0.311,0.018,0.438l-15.741,18.929l-0.105,0.126c-0.487,0.586-1.357,0.666-1.942,0.179
								c-0.099-0.082-0.187-0.181-0.256-0.281l-4.323-6.314c-0.103-0.151-0.065-0.357,0.086-0.46
								C482.272,69.168,482.427,69.176,482.538,69.258z"/>
						</g>
					</g>
					<g>
						<g>
							<path style="fill:#B4EFFF;" d="M497.114,99.979h-16.772V83.207h16.772V99.979z M480.995,99.326h15.466V83.86h-15.466V99.326z
								"/>
						</g>
						<g>
							<path style="fill:#B4EFFF;" d="M482.538,90.169l6.132,4.577l-2.303,0.023l17.586-17.229c0.129-0.126,0.336-0.124,0.463,0.005
								c0.118,0.121,0.123,0.311,0.018,0.438l-15.741,18.929l-0.105,0.126c-0.487,0.586-1.357,0.666-1.942,0.179
								c-0.099-0.082-0.187-0.181-0.256-0.281l-4.323-6.314c-0.103-0.151-0.065-0.357,0.086-0.46
								C482.272,90.079,482.427,90.087,482.538,90.169z"/>
						</g>
					</g>
					<g>
						<path style="fill:#B4EFFF;" d="M497.114,120.89h-16.772v-16.772h16.772V120.89z M480.995,120.236h15.466v-15.465h-15.466
							V120.236z"/>
					</g>
				</g>
			</g>
			<g>
				<path style="fill:#FFFFFF;" d="M277.92,134.745c0,15.189-12.31,27.5-27.5,27.5c-15.189,0-27.5-12.311-27.5-27.5
					c0-1.071,0.057-2.133,0.191-3.176c0.689-6.103,3.386-11.593,7.413-15.802c5.003-5.251,12.062-8.522,19.896-8.522
					c4.304,0,8.379,0.995,12.014,2.764c4.888,2.363,8.963,6.15,11.698,10.809C276.543,124.903,277.92,129.666,277.92,134.745z"/>
				<path style="fill:#FFA430;" d="M250.42,134.745l-27.309-3.176c0.689-6.103,3.386-11.593,7.413-15.802L250.42,134.745z"/>
				<path style="fill:#24629F;" d="M262.434,110.01l-12.014,24.736l-19.896-18.978c5.003-5.251,12.062-8.522,19.896-8.522
					C254.724,107.245,258.799,108.24,262.434,110.01z"/>
				<path style="fill:#FD6E74;" d="M274.132,120.818l-23.712,13.927l12.014-24.736C267.322,112.372,271.397,116.16,274.132,120.818z
					"/>
			</g>
			<g>
				<rect x="449.67" y="227.245" style="fill:#FD6E74;" width="10.5" height="44.5"/>
				<rect x="466.503" y="244.412" style="fill:#FFA430;" width="10.5" height="27.333"/>
				<rect x="483.337" y="227.245" style="fill:#24629F;" width="10.5" height="44.5"/>
				<rect x="500.17" y="257.746" style="fill:#8EE4FD;" width="10.5" height="14"/>
				<g>
					<rect x="439.42" y="271.496" style="fill:#FFFFFF;" width="87.25" height="1"/>
				</g>
				<g>
					<g>
						<rect x="438.67" y="222.245" style="fill:#FFFFFF;" width="1" height="44.25"/>
					</g>
					<g>
						<rect x="435.67" y="228.245" style="fill:#FFFFFF;" width="9.75" height="1"/>
					</g>
					<g>
						<rect x="435.67" y="236.245" style="fill:#FFFFFF;" width="9.75" height="1"/>
					</g>
					<g>
						<rect x="435.67" y="244.245" style="fill:#FFFFFF;" width="9.75" height="1"/>
					</g>
					<g>
						<rect x="435.67" y="252.245" style="fill:#FFFFFF;" width="9.75" height="1"/>
					</g>
					<g>
						<rect x="435.67" y="260.246" style="fill:#FFFFFF;" width="9.75" height="1"/>
					</g>
				</g>
			</g>
			<g>
				<rect x="498.149" y="155.982" style="fill:#FFFFFF;" width="65.042" height="43.361"/>
				<rect x="498.149" y="155.982" style="fill:#24629F;" width="65.042" height="6.347"/>
				<g>
					<g>
						<rect x="528.704" y="165.995" style="fill:#E5F7F9;" width="3.932" height="3.932"/>
					</g>
					<g>
						<rect x="536.716" y="165.995" style="fill:#E5F7F9;" width="3.932" height="3.932"/>
					</g>
					<g>
						<rect x="544.728" y="165.995" style="fill:#E5F7F9;" width="3.932" height="3.932"/>
					</g>
					<g>
						<rect x="552.74" y="165.995" style="fill:#E5F7F9;" width="3.932" height="3.932"/>
					</g>
				</g>
				<g>
					<g>
						<rect x="504.668" y="172.387" style="fill:#E5F7F9;" width="3.932" height="3.932"/>
					</g>
					<g>
						<rect x="512.68" y="172.387" style="fill:#E5F7F9;" width="3.932" height="3.932"/>
					</g>
					<g>
						<rect x="520.692" y="172.387" style="fill:#E5F7F9;" width="3.932" height="3.932"/>
					</g>
					<g>
						<rect x="528.704" y="172.387" style="fill:#FD6E74;" width="3.932" height="3.932"/>
					</g>
					<g>
						<rect x="536.716" y="172.387" style="fill:#E5F7F9;" width="3.932" height="3.932"/>
					</g>
					<g>
						<rect x="544.728" y="172.387" style="fill:#E5F7F9;" width="3.932" height="3.932"/>
					</g>
					<g>
						<rect x="552.74" y="172.387" style="fill:#E5F7F9;" width="3.932" height="3.932"/>
					</g>
				</g>
				<g>
					<g>
						<rect x="504.668" y="178.779" style="fill:#E5F7F9;" width="3.932" height="3.932"/>
					</g>
					<g>
						<rect x="512.68" y="178.779" style="fill:#E5F7F9;" width="3.932" height="3.932"/>
					</g>
					<g>
						<rect x="520.692" y="178.779" style="fill:#E5F7F9;" width="3.932" height="3.932"/>
					</g>
					<g>
						<rect x="528.704" y="178.779" style="fill:#E5F7F9;" width="3.932" height="3.932"/>
					</g>
					<g>
						<rect x="536.716" y="178.779" style="fill:#E5F7F9;" width="3.932" height="3.932"/>
					</g>
					<g>
						<rect x="544.728" y="178.779" style="fill:#E5F7F9;" width="3.932" height="3.932"/>
					</g>
					<g>
						<rect x="552.74" y="178.779" style="fill:#E5F7F9;" width="3.932" height="3.932"/>
					</g>
				</g>
				<g>
					<g>
						<rect x="504.668" y="185.171" style="fill:#E5F7F9;" width="3.932" height="3.932"/>
					</g>
					<g>
						<rect x="512.68" y="185.171" style="fill:#E5F7F9;" width="3.932" height="3.932"/>
					</g>
					<g>
						<rect x="520.692" y="185.171" style="fill:#E5F7F9;" width="3.932" height="3.932"/>
					</g>
					<g>
						<rect x="528.704" y="185.171" style="fill:#E5F7F9;" width="3.932" height="3.932"/>
					</g>
					<g>
						<rect x="536.716" y="185.171" style="fill:#E5F7F9;" width="3.932" height="3.932"/>
					</g>
					<g>
						<rect x="544.728" y="185.171" style="fill:#E5F7F9;" width="3.932" height="3.932"/>
					</g>
					<g>
						<rect x="552.74" y="185.171" style="fill:#FD6E74;" width="3.932" height="3.932"/>
					</g>
				</g>
				<g>
					<g>
						<rect x="504.668" y="191.563" style="fill:#E5F7F9;" width="3.932" height="3.932"/>
					</g>
					<g>
						<g>
							<rect x="512.68" y="191.563" style="fill:#FD6E74;" width="3.932" height="3.932"/>
						</g>
					</g>
					<g>
						<rect x="520.692" y="191.563" style="fill:#E5F7F9;" width="3.932" height="3.932"/>
					</g>
				</g>
			</g>
			<g>
				<path style="fill:#B4EFFF;" d="M176.67,104.745c0,1.335-1.082,2.417-2.417,2.417c-1.335,0-2.417-1.082-2.417-2.417
					s1.082-2.417,2.417-2.417C175.588,102.329,176.67,103.411,176.67,104.745z"/>
				<path style="fill:#B4EFFF;" d="M188.67,104.745c0,1.335-1.082,2.417-2.417,2.417c-1.335,0-2.417-1.082-2.417-2.417
					s1.082-2.417,2.417-2.417C187.588,102.329,188.67,103.411,188.67,104.745z"/>
				<path style="fill:#B4EFFF;" d="M200.67,104.745c0,1.335-1.082,2.417-2.417,2.417c-1.335,0-2.417-1.082-2.417-2.417
					s1.082-2.417,2.417-2.417C199.588,102.329,200.67,103.411,200.67,104.745z"/>
			</g>
			<g>
				<g>
					<rect x="204.67" y="194.72" style="fill:#B4EFFF;" width="37.222" height="4.165"/>
					<rect x="204.67" y="201.747" style="fill:#B4EFFF;" width="16.919" height="4.165"/>
					<rect x="223.411" y="201.747" style="fill:#B4EFFF;" width="32.536" height="4.165"/>
					<rect x="244.495" y="194.72" style="fill:#B4EFFF;" width="15.357" height="4.165"/>
					<rect x="261.934" y="194.72" style="fill:#B4EFFF;" width="8.069" height="4.165"/>
				</g>
			</g>
			<g>
				<g>
					<path style="fill:#B4EFFF;" d="M276.199,68.063l6.133,4.577l-2.303,0.023l17.586-17.229c0.129-0.126,0.336-0.124,0.463,0.005
						c0.118,0.121,0.123,0.311,0.018,0.438l-15.741,18.929l-0.105,0.126c-0.487,0.586-1.357,0.666-1.942,0.179
						c-0.099-0.082-0.187-0.181-0.256-0.281l-4.323-6.314c-0.103-0.151-0.065-0.357,0.086-0.461
						C275.934,67.974,276.089,67.981,276.199,68.063z"/>
				</g>
			</g>
		</g>
		<g>
			<g>
				<path style="fill:#FFFFFF;" d="M261.67,108.412c-0.276,0-0.5-0.224-0.5-0.5V99.18c0-0.276,0.224-0.5,0.5-0.5h66.716
					c0.276,0,0.5,0.224,0.5,0.5c0,0.276-0.224,0.5-0.5,0.5H262.17v8.232C262.17,108.188,261.947,108.412,261.67,108.412z"/>
			</g>
			<g>
				<path style="fill:#FFFFFF;" d="M214.321,190.803c-0.276,0-0.5-0.224-0.5-0.5v-48.224c0-0.276,0.224-0.5,0.5-0.5h7.849
					c0.276,0,0.5,0.224,0.5,0.5c0,0.276-0.224,0.5-0.5,0.5h-7.349v47.724C214.821,190.579,214.597,190.803,214.321,190.803z"/>
			</g>
			<g>
				<path style="fill:#FFFFFF;" d="M545.337,252.079h-27c-0.276,0-0.5-0.224-0.5-0.5c0-0.276,0.224-0.5,0.5-0.5h26.5v-43.833
					c0-0.276,0.224-0.5,0.5-0.5c0.276,0,0.5,0.224,0.5,0.5v44.333C545.837,251.855,545.613,252.079,545.337,252.079z"/>
			</g>
			<g>
				<path style="fill:#E5F7F9;" d="M394.67,107.079h-13.334c-0.276,0-0.5-0.224-0.5-0.5c0-0.276,0.224-0.5,0.5-0.5h12.834V89.245
					c0-0.276,0.224-0.5,0.5-0.5h79.667c0.276,0,0.5,0.224,0.5,0.5c0,0.276-0.224,0.5-0.5,0.5H395.17v16.834
					C395.17,106.855,394.947,107.079,394.67,107.079z"/>
			</g>
			<g>
				<path style="fill:#E5F7F9;" d="M533.67,119.745c-0.276,0-0.5-0.224-0.5-0.5v-29.5h-26.5c-0.276,0-0.5-0.224-0.5-0.5
					c0-0.276,0.224-0.5,0.5-0.5h27c0.276,0,0.5,0.224,0.5,0.5v30C534.17,119.522,533.946,119.745,533.67,119.745z"/>
			</g>
		</g>
	</g>
	<g>
		<g>
			<g>
				<path style="fill:#BA6141;" d="M390.599,436.194c-0.113-4.884-0.374-14.131-0.744-26.149c-6.66,1.552-13.524,2.393-20.42,2.835
					l3.238,22.366l0.008-0.001c0.105,0.945,1.515,13.577,1.708,15.308l47.502-0.09l0.751-3.947L390.599,436.194z"/>
				<path style="fill:#2E2044;" d="M425.027,451.312c1.251-2.068-0.146-4.889-2.223-6.126c-2.077-1.237-4.596-1.377-6.987-1.731
					c-6.837-1.011-13.531-3.631-18.703-8.204c-0.239-0.211-0.525-0.357-0.839-0.413c-2.873-0.514-6.054-0.839-8.327,0.936
					c-1.606,1.254-2.405,3.331-4.013,4.583c-1.626,1.265-3.89,1.491-5.885,0.978c-1.604-0.412-3.059-1.249-4.393-2.242
					c-0.434-0.322-1.045-0.046-1.095,0.492c-0.182,1.967-0.219,3.99-0.48,5.927c-0.256,1.904-0.458,4.035,0.706,5.564
					L425.027,451.312z"/>
			</g>
			<g>
				<path style="fill:#BA6141;" d="M256.986,407.136l11.047-14.05c-5.183-3.767-10.629-7.24-15.777-11.041
					c-6.601,10.841-10.827,17.808-11.249,18.503c-0.024,0.038-0.035,0.057-0.035,0.057l0.001,0.001
					c-0.575,0.781-8.095,11.002-9.127,12.405l31.813,23.392l1.618-2.402l-8.293-26.862L256.986,407.136z"/>
				<path style="fill:#2E2044;" d="M273.167,444.206c2.215-0.968,2.701-4.078,1.718-6.286c-0.983-2.208-2.96-3.776-4.709-5.444
					c-5.002-4.77-8.958-10.771-10.546-17.49c-0.073-0.31-0.223-0.595-0.447-0.821c-2.05-2.077-4.461-4.177-7.342-4.039
					c-2.035,0.098-3.886,1.334-5.922,1.429c-2.057,0.095-4.038-1.026-5.371-2.596c-1.072-1.262-1.778-2.785-2.296-4.366
					c-0.168-0.514-0.827-0.64-1.178-0.23c-1.284,1.501-2.48,3.133-3.81,4.565c-1.308,1.408-2.701,3.032-2.633,4.952L273.167,444.206
					z"/>
			</g>
			<g>
				<path style="fill:#24629F;" d="M324.365,179.626c0,0-10.455,14.913-12.804,29.088c-2.349,14.175-20.913,107.505-20.913,107.505
					l-50.849,84.241l19.661,11.575c0,0,61.013-74.906,64.423-82.619c3.41-7.712,21.555-78.984,21.555-78.984l25.114,183.525
					l22.405-3.232l-9.373-218.863c0,0-3.532-22.769-9.665-28.708L324.365,179.626z"/>
				<polygon style="fill:#2E2044;" points="345.44,250.432 352.762,226.182 356.606,331.265 				"/>
				<g style="opacity:0.5;">
					<g>
						<g>
							<path style="fill:#24629F;" d="M345.408,250.764c0.434-2.162,0.974-4.292,1.529-6.418c0.544-2.129,1.164-4.235,1.784-6.341
								c0.643-2.099,1.287-4.198,2.006-6.274l1.081-3.114c0.396-1.027,0.758-2.065,1.183-3.083
								c-0.207,1.084-0.477,2.149-0.713,3.224l-0.814,3.194c-0.545,2.129-1.164,4.235-1.786,6.341
								c-0.644,2.099-1.288,4.198-2.008,6.274C346.962,246.646,346.237,248.721,345.408,250.764z"/>
						</g>
						<g>
							<polygon style="fill:#24629F;" points="350.04,235.467 353.432,259.8 356.721,284.147 363.138,332.862 369.325,381.606 
								372.337,405.988 375.245,430.385 371.852,406.051 368.563,381.704 362.147,332.99 355.962,284.245 352.95,259.862 							"/>
						</g>
						<g>
							<path style="fill:#24629F;" d="M313.952,328.125c0.527-0.749,1.124-1.265,1.736-1.786c0.631-0.497,1.256-0.979,2.097-1.344
								c-0.243,0.889-0.812,1.567-1.465,2.118C315.648,327.641,314.87,328.062,313.952,328.125z"/>
						</g>
						<g>
							<path style="fill:#24629F;" d="M317.613,208.45l-4.81,27.817l-4.918,27.797l-10.039,55.557
								c-0.012,0.066-0.038,0.129-0.073,0.181l-27.092,40.9l-13.61,20.408l-13.685,20.359l13.305-20.609l13.38-20.56l26.887-41.035
								l-0.073,0.181l10.208-55.527l5.206-27.745L317.613,208.45z"/>
						</g>
					</g>
				</g>
			</g>
		</g>
		<g>
			<g>
				<path style="fill:#BA6141;" d="M375.951,67.196c0.317-13.306-14.348-15.458-14.348-15.458l-1.142-0.108
					c0,0-14.829-0.646-16.999,12.485c-0.337,2.023-0.498,4.059-0.494,6.058c-0.529-0.104-1.108-0.073-1.708,0.217
					c-1.897,0.916-0.661,8.003,3.294,9.689c1.88,5.388,5.416,9.521,10.552,10.814c6.035,2.149,12.87,1.482,14.431,0.489
					c0.96-0.605,1.945-2.967,2.82-5.776c0.002-0.021,0.014-0.031,0.016-0.053c0.078-0.254,0.146-0.508,0.225-0.772
					c0.602-1.986,1.13-4.121,1.559-6.004c0.11-0.468,0.207-0.926,0.303-1.363c0.02-0.096,0.039-0.181,0.059-0.277
					c0.464-2.141,0.748-3.646,0.748-3.646l-0.023,0.009C375.656,71.45,375.9,69.343,375.951,67.196z"/>
				<g>
					<path style="fill:#CC6A47;" d="M364.616,74.884c0,0,1.084,0.698,1.001,1.781c-0.083,1.083-0.832,1.032-0.832,1.032
						s-1,0.117-1.315-0.003c-0.219-0.083-0.62-0.518-0.62-0.518S362.019,74.44,364.616,74.884z"/>
					<g>
						<path style="fill:#2E2044;" d="M364.585,77.719c0.505-0.171,0.692-0.657,0.666-1.039c-0.031-0.411-0.232-0.798-0.522-1.157
							c-0.141-0.193-0.293-0.357-0.472-0.575c-0.224-0.292-0.273-0.652-0.226-0.941c0.089-0.587,0.405-1.039,0.777-1.406
							c-0.137,0.501-0.245,1.003-0.224,1.433c0.023,0.212,0.075,0.385,0.187,0.482c0.155,0.162,0.352,0.366,0.519,0.575
							c0.329,0.428,0.609,1.013,0.511,1.628C365.739,77.339,365.125,77.856,364.585,77.719z"/>
						<path style="fill:#2E2044;" d="M362.606,77.113c0.099-0.19,0.297-0.176,0.407-0.094c0.106,0.086,0.167,0.276,0.005,0.418
							c-0.205-0.042-0.256-0.016-0.298-0.045C362.683,77.357,362.695,77.3,362.606,77.113z"/>
					</g>
					<path style="fill:#CC6A47;" d="M356.615,80.23c-0.221,2.332-2.292,4.044-4.624,3.823c-2.332-0.221-4.044-2.291-3.823-4.624
						c0.221-2.332,2.291-4.044,4.624-3.823C355.124,75.828,356.836,77.898,356.615,80.23z"/>
					<path style="fill:#CC6A47;" d="M374.157,78.775c-0.429,1.883-0.957,4.018-1.559,6.004c-0.079,0.264-0.147,0.519-0.225,0.772
						c-0.002,0.022-0.014,0.031-0.016,0.053c-0.551,0.198-1.145,0.272-1.759,0.214c-2.338-0.222-4.043-2.297-3.822-4.623
						c0.222-2.337,2.286-4.044,4.623-3.822C372.509,77.478,373.47,78.004,374.157,78.775z"/>
					<path style="fill:#2E2044;" d="M356.016,68.61c0.182-0.301,0.428-0.568,0.718-0.789c0.284-0.232,0.626-0.387,0.977-0.511
						c0.354-0.122,0.735-0.169,1.109-0.156c0.374,0.022,0.746,0.096,1.081,0.252c0.273,0.127,0.391,0.451,0.264,0.724
						c-0.104,0.224-0.341,0.344-0.574,0.31l-0.024-0.004c-0.274-0.041-0.538-0.086-0.803-0.094
						c-0.265-0.018-0.529-0.005-0.798,0.024c-0.271,0.027-0.529,0.115-0.799,0.205c-0.265,0.101-0.526,0.234-0.791,0.392
						l-0.008,0.005c-0.123,0.073-0.281,0.032-0.354-0.091C355.964,68.791,355.968,68.689,356.016,68.61z"/>
					<path style="fill:#2E2044;" d="M371.946,70.122c-0.122-0.33-0.314-0.639-0.556-0.91c-0.236-0.281-0.542-0.498-0.864-0.686
						c-0.325-0.186-0.69-0.304-1.06-0.362c-0.372-0.049-0.751-0.046-1.109,0.044c-0.292,0.073-0.469,0.369-0.396,0.661
						c0.06,0.24,0.271,0.402,0.505,0.412l0.025,0.001c0.277,0.012,0.544,0.016,0.807,0.059c0.264,0.033,0.521,0.095,0.779,0.174
						c0.261,0.077,0.498,0.212,0.746,0.351c0.241,0.149,0.472,0.329,0.704,0.533l0.007,0.006c0.107,0.095,0.27,0.085,0.365-0.022
						C371.962,70.309,371.978,70.208,371.946,70.122z"/>
					<path style="fill:#2E2044;" d="M360.406,82.169c0.294,0.114,0.477,0.21,0.678,0.311c0.195,0.112,0.375,0.212,0.631,0.397
						c-0.261,0.19-0.598,0.154-0.857,0.019C360.604,82.753,360.39,82.491,360.406,82.169z"/>
					<path style="fill:#2E2044;" d="M358.388,78.004c0.958,0.859,1.842,1.628,2.843,2.2c0.488,0.305,1.017,0.519,1.567,0.706
						c0.553,0.203,1.139,0.278,1.782,0.419c-0.59,0.251-1.263,0.392-1.926,0.307c-0.666-0.056-1.322-0.274-1.898-0.612
						c-0.572-0.344-1.085-0.778-1.489-1.294C358.863,79.218,358.536,78.642,358.388,78.004z"/>
					<g>
						<path style="fill:#2E2044;" d="M342.649,73.693c-0.347-0.178-0.445-0.697-0.267-1.095c0.191-0.433,0.671-0.674,1.112-0.689
							c0.449-0.039,0.897,0.15,1.233,0.384c0.341,0.245,0.593,0.546,0.822,0.833c0.887,1.18,1.399,2.682,1.206,4.13
							c-0.572-1.327-1.168-2.496-1.975-3.546c-0.392-0.537-0.797-0.968-1.303-1.051c-0.249-0.038-0.517,0.002-0.692,0.184
							C342.6,73.03,342.477,73.367,342.649,73.693z"/>
						<path style="fill:#2E2044;" d="M344.345,77.25c-0.384-0.101-0.676-0.454-0.788-0.853c-0.124-0.401-0.068-0.867,0.162-1.261
							c0.244-0.386,0.632-0.649,1.046-0.723c0.406-0.082,0.854,0.015,1.119,0.312c-0.377,0.097-0.633,0.239-0.853,0.394
							c-0.212,0.162-0.382,0.331-0.488,0.52c-0.12,0.18-0.193,0.409-0.24,0.672C344.266,76.578,344.258,76.871,344.345,77.25z"/>
					</g>
					<g>
						<path style="fill:#2E2044;" d="M356.535,73.021c0.999,0.511,1.881,1.086,2.783,1.336c0.444,0.132,0.865,0.151,1.282,0.02
							c0.437-0.121,0.797-0.491,1.245-0.853c-0.115,0.537-0.348,1.141-0.915,1.489c-0.547,0.371-1.274,0.393-1.858,0.227
							c-0.591-0.178-1.099-0.487-1.521-0.87C357.128,73.988,356.77,73.543,356.535,73.021z"/>
					</g>
					<g>
						<path style="fill:#2E2044;" d="M366.739,73.989c0.999,0.511,1.881,1.085,2.783,1.336c0.444,0.132,0.865,0.151,1.282,0.02
							c0.437-0.121,0.797-0.491,1.245-0.853c-0.115,0.537-0.348,1.141-0.915,1.488c-0.547,0.372-1.274,0.393-1.858,0.227
							c-0.591-0.178-1.099-0.487-1.521-0.87C367.333,74.956,366.975,74.511,366.739,73.989z"/>
					</g>
				</g>
				<path style="fill:#FFFFFF;" d="M341.827,74.123c-0.257-0.628-0.025-1.353,0.529-1.743c0.88-0.62,1.384-0.89,2.374-0.438
					c1.58,0.72,0.129,4.121,0.129,4.121l2.596,2.69l-1.423,0.835C346.032,79.587,343.111,77.266,341.827,74.123z"/>
			</g>
			<path style="fill:#2E2044;" d="M378.116,59.512c-0.122-2.312-0.556-4.724-2.003-6.518c-1.402-1.74-3.554-2.668-5.696-3.273
				c-6.604-1.862-14.038-1.211-20.089,2.002c-1.24-1.223-3.361-1.414-4.791-0.424c-1.216,0.849-1.826,2.308-2.262,3.723
				c-1.477,4.872-1.556,10.048-1.316,15.143c0.358-0.067,0.688-0.055,1.014,0.006c0-0.004,0-0.008,0-0.013
				c0.453,0.226,0.992,0.444,1.314,0.582c1.517,0.653,3.263,2.261,4.406,3.454c1.656-3.262,2.925-6.72,3.773-10.278
				c0.216-0.907,1.363-1.188,1.957-0.469c0.071,0.086,0.143,0.171,0.22,0.251c0.735,0.763,1.841,1.012,2.883,1.203
				c5.191,0.952,10.478,1.384,15.755,1.288c1.016-0.019,2,0.385,2.666,1.09c-0.058,2.125-0.295,4.203-0.705,6.225l0.022-0.018
				c0,0-0.099,0.513-0.27,1.361C377.302,70.102,378.399,64.782,378.116,59.512z"/>
		</g>
		<g>
			<g>
				<g>
					<path style="fill:#BA6141;" d="M354.348,120.981c3.622,1.949,7.632,3.601,11.734,4.079c1.69,0.197,2.839,0.098,4.04-0.316
						c0.018-0.059,0.037-0.12,0.055-0.179c1.168-3.757,2.62-7.413,4.198-11.017c-0.484-0.284-0.959-0.559-1.418-0.821
						c-4.191-2.397-6.43-10.121-6.3-14.947l0.238-8.877l-17.796-1.688l-1.435,8.763c-0.78,4.765-4.431,11.93-8.998,13.496
						c-0.349,0.12-0.714,0.248-1.078,0.375C343.191,113.522,348.449,117.807,354.348,120.981z"/>
					<path style="fill:#2E2044;" d="M366.715,95.59c-2.586-0.006-5.647-0.394-8.528-1.418c-3.333-0.838-5.988-2.872-7.951-5.667
						c1.417,1.102,3.045,1.93,4.871,2.386c4.195,1.496,8.77,1.625,11.698,1.229L366.715,95.59z"/>
				</g>
				<g>
					<path style="fill:#8EE4FD;" d="M346.9,99.144c0,0-1.176,3.572-2.7,5.52c0,0,13.441,4.791,14.176,5.865
						c0.735,1.074,4.309,7.524,4.309,7.524l3.36-5.195c1.153-1.783,2.01-3.741,2.538-5.797l0,0c0,0-1.55-3.077-1.653-5.514
						c0,0,5.3,6.781,6.893,10.28c0,0,15.422,9.499,18.538,17.244c0,0-10.747,37.402-17.72,55.324c0,0-25.969,1.973-50.274-4.769
						c0,0-11.295-55.649-11.459-61.859c0,0,6.392-10.024,26.005-11.177C338.911,106.59,342.753,100.508,346.9,99.144z"/>
					<g style="opacity:0.5;">
						<g>
							<g>
								<g>
									<path style="fill:#8EE4FD;" d="M338.928,106.995c-0.137,0.912-0.266,1.827-0.261,2.734c0.006,0.904,0.186,1.802,0.62,2.537
										c0.433,0.744,1.169,1.228,1.985,1.552c0.815,0.33,1.718,0.529,2.607,0.822c3.544,1.15,6.915,2.86,9.935,5.051l-0.699,0.15
										l2.217-3.689l2.272-3.656l0.009-0.015c0.089-0.144,0.278-0.188,0.422-0.099c0.043,0.027,0.077,0.063,0.102,0.104
										c0.595,1.001,1.131,2.026,1.636,3.063c0.512,1.033,1.029,2.06,1.575,3.077c-0.685-0.93-1.289-1.918-1.899-2.896
										c-0.617-0.975-1.202-1.964-1.839-2.91l0.532-0.01l-2.068,3.776l-2.123,3.743c-0.13,0.23-0.422,0.311-0.652,0.18
										l-0.038-0.024l-0.009-0.007c-2.979-2.087-6.225-3.787-9.65-5.032c-0.847-0.319-1.737-0.579-2.612-0.987
										c-0.864-0.398-1.723-1.031-2.174-1.929c-0.472-0.885-0.522-1.887-0.451-2.813
										C338.443,108.781,338.666,107.879,338.928,106.995z"/>
								</g>
								<g>
									<path style="fill:#8EE4FD;" d="M365.135,117.253c0.576-1.411,1.212-2.756,1.816-4.115c0.607-1.357,1.2-2.713,1.787-4.079
										l0.015-0.036c0.094-0.218,0.346-0.318,0.564-0.225l0.004,0.002c1.414,0.624,2.675,1.604,3.518,2.859
										c-1.228-0.87-2.496-1.567-3.845-2.024l0.583-0.259c-0.474,1.442-1.086,2.838-1.822,4.164
										C367.016,114.864,366.171,116.132,365.135,117.253z"/>
								</g>
								<g>
									<path style="fill:#8EE4FD;" d="M362.5,119.439c0.064,1.117,0.12,2.237,0.162,3.358l-0.011,3.366l-0.184,3.362l-0.297,3.354
										c-0.47,4.467-1.263,8.885-2.021,13.297c-0.837,4.398-1.647,8.792-2.338,13.203l-0.486,3.313l-0.391,3.325l-0.315,3.337
										l-0.195,3.351c-0.033-1.118-0.058-2.239-0.069-3.361l0.091-3.365l0.252-3.357l0.352-3.348
										c0.537-4.457,1.357-8.867,2.117-13.276c0.839-4.395,1.614-8.794,2.244-13.212
										C362.036,128.369,362.445,123.919,362.5,119.439z"/>
								</g>
							</g>
							<g>
								<path style="fill:#8EE4FD;" d="M379.561,170.646c0.369-2.408,0.845-4.791,1.337-7.17c0.481-2.381,1.038-4.744,1.595-7.107
									c0.581-2.357,1.163-4.714,1.821-7.053l0.99-3.507c0.366-1.161,0.698-2.329,1.093-3.482
									c-0.175,1.207-0.412,2.398-0.616,3.597l-0.719,3.573c-0.481,2.381-1.038,4.744-1.597,7.107
									c-0.582,2.357-1.164,4.714-1.822,7.053C380.995,165.997,380.331,168.334,379.561,170.646z"/>
							</g>
							<g>
								<path style="fill:#8EE4FD;" d="M389.549,131.571c0.035-1.423,0.237-2.739,0.404-4.074c0.197-1.331,0.357-2.653,0.71-4.032
									c0.441,1.359,0.456,2.784,0.28,4.168C390.738,129.013,390.339,130.38,389.549,131.571z"/>
							</g>
						</g>
					</g>
				</g>
			</g>
			<g>
				<g>
					<g>
						<path style="fill:#BA6141;" d="M463.008,191.601c2.345,0.184,4.84,0.446,6.918-0.517c0.511-0.237,1.045-0.733,0.794-1.212
							c-0.153-0.291-0.53-0.414-0.868-0.507c-1.622-0.448-3.355-0.434-4.977-0.882c2.239-0.214,4.589-0.891,6.828-1.105
							c0.375-0.036,0.764-0.076,1.085-0.252c0.321-0.176,0.556-0.529,0.451-0.861c-0.147-0.466-0.793-0.599-1.321-0.647
							c-2.366-0.215-4.733-0.43-7.099-0.645c2.868-0.136,5.892-0.316,8.255-1.766c0.439-0.269,0.891-0.677,0.796-1.157
							c-0.07-0.352-0.431-0.613-0.811-0.706c-0.38-0.093-0.779-0.051-1.167-0.009c-2.536,0.277-5.071,0.555-7.607,0.832
							c1.717-0.499,3.433-0.997,5.15-1.496c0.422-0.123,0.855-0.25,1.198-0.503c0.343-0.253,0.582-0.663,0.485-1.061
							c-0.098-0.403-0.518-0.695-0.958-0.799c-0.44-0.104-0.9-0.055-1.347-0.004c-2.293,0.265-4.574,0.599-6.839,1.003
							c-0.534,0.095-1.201,0.15-1.524-0.257c-0.392-0.493,0.09-1.137,0.509-1.596c0.372-0.408,0.718-0.857,0.847-1.377
							c0.128-0.52-0.003-1.127-0.456-1.476c-0.507-0.391-1.277-0.359-1.864-0.098c-0.587,0.262-1.04,0.71-1.505,1.125
							c-1.619,1.448-3.547,2.609-5.649,3.403c-1.201,0.453-2.497,0.81-3.434,1.626c-1.055,0.918-1.494,2.295-1.579,3.633
							c-0.145,2.269,0.668,4.617,2.287,6.386c0.336,0.367,0.679,0.787,1.215,0.872c0.656,0.104,1.466-0.078,2.128-0.108
							c1.551-0.072,3.106-0.1,4.661-0.082C459.41,191.38,461.211,191.46,463.008,191.601z"/>
					</g>
					<g>
						<path style="fill:#8EE4FD;" d="M373.823,111.826c0,0,14.516,7.571,20.602,14.008c6.086,6.437,15.187,48.149,15.187,48.149
							l40.888,4.883c0,0,1.379,10.176,0.685,13.96c0,0-42.717,7.332-59.682,0.868c0,0-14.981-23.855-19.626-43.715
							C367.232,130.119,373.823,111.826,373.823,111.826z"/>
						<polygon style="fill:#2E2044;" points="379.28,170.772 386.483,142.492 385.953,184.034 						"/>
						<g style="opacity:0.5;">
							<g>
								<path style="fill:#8EE4FD;" d="M409.462,173.817c-1.103,0.341-2.19,0.377-3.275,0.341c-1.083-0.067-2.162-0.209-3.226-0.658
									c1.103-0.343,2.191-0.379,3.275-0.341C407.318,173.229,408.397,173.371,409.462,173.817z"/>
							</g>
						</g>
					</g>
				</g>
				<g>
					<g>
						<polygon style="fill:#FFA430;" points="438.734,156.048 427.15,156.05 429.483,151.883 441.066,151.881 						"/>
						<polygon style="fill:#FD6E74;" points="436.568,161.132 424.985,161.134 427.317,156.967 438.901,156.965 						"/>
						<polygon style="fill:#24629F;" points="434.402,166.216 422.819,166.218 425.151,162.051 436.735,162.049 						"/>
					</g>
					<g>
						<g>
							<g>
								<path style="fill:#BECDCF;" d="M470.364,185.433l-47.466,0.008l13.831-35.839c0.206-0.534,0.72-0.887,1.292-0.887
									l44.496-0.007c0.973,0,1.643,0.977,1.293,1.885L470.364,185.433z"/>
								<path style="fill:#D1E1E3;" d="M441.566,148.715l-14.172,36.726l-4.5,0.001l13.829-35.839
									c0.206-0.534,0.72-0.887,1.293-0.887L441.566,148.715z"/>
							</g>
							<g>
								<path style="fill:#BECDCF;" d="M469.006,187.168l-65.403,0.011c-1.398,0-2.531-1.133-2.531-2.53l0-0.784l69.886-0.012
									l0,1.362C470.958,186.294,470.084,187.168,469.006,187.168z"/>
								<path style="fill:#D1E1E3;" d="M470.962,183.853l0,1.757c0,0.862-1.1,1.559-2.45,1.559l-43.66,0.007
									c1.35,0,2.44-0.697,2.44-1.559l0-1.757L470.962,183.853z"/>
							</g>
						</g>
						<g style="opacity:0.5;">
							<g>
								<path style="fill:#BECDCF;" d="M459.382,168.482c0.051,2.172-1.777,4.278-4.124,4.374c-1.143,0.065-2.341-0.342-3.22-1.153
									c-0.882-0.808-1.402-2.008-1.405-3.22c0.002-1.211,0.52-2.413,1.402-3.222c0.878-0.814,2.078-1.22,3.222-1.155
									C457.605,164.203,459.431,166.311,459.382,168.482z M459.382,168.482c-0.004-1.082-0.468-2.15-1.258-2.867
									c-0.788-0.72-1.854-1.07-2.867-1.006c-2.079,0.104-3.667,1.97-3.625,3.874c-0.043,1.903,1.544,3.774,3.626,3.876
									c1.014,0.063,2.08-0.288,2.867-1.009C458.914,170.632,459.378,169.564,459.382,168.482z"/>
							</g>
							<g>
								<path style="fill:#BECDCF;" d="M463.009,182.107c0.912-0.395,1.824-0.483,2.736-0.5c0.912,0.014,1.825,0.103,2.737,0.499
									c-0.912,0.397-1.824,0.485-2.737,0.5C464.833,182.589,463.921,182.501,463.009,182.107z"/>
							</g>
							<g>
								<path style="fill:#BECDCF;" d="M466.509,180.544c0.532-0.394,1.063-0.483,1.595-0.5c0.532,0.015,1.063,0.103,1.595,0.5
									c-0.531,0.396-1.063,0.485-1.595,0.5C467.572,181.027,467.04,180.938,466.509,180.544z"/>
							</g>
							<g>
								<path style="fill:#BECDCF;" d="M442.629,150.36c0.991-0.395,1.982-0.483,2.973-0.5c0.991,0.014,1.982,0.103,2.973,0.499
									c-0.991,0.397-1.982,0.485-2.973,0.5C444.611,150.843,443.62,150.754,442.629,150.36z"/>
							</g>
							<g>
								<path style="fill:#BECDCF;" d="M403.01,185.867c0.658-0.394,1.316-0.483,1.975-0.5c0.658,0.014,1.317,0.103,1.975,0.499
									c-0.658,0.397-1.317,0.485-1.975,0.5C404.326,186.349,403.668,186.261,403.01,185.867z"/>
							</g>
						</g>
					</g>
					<path style="fill:#FFA430;" d="M469.733,152.293l9.167-0.002c0,0,0.251,5.833,3.168,8.916l-10.667,0.002
						C471.401,161.21,469.4,155.793,469.733,152.293z"/>
				</g>
			</g>
			<g>
				<g>
					<path style="fill:#E8952C;" d="M359.999,177.8c0.504-0.663,0.402-1.588-0.227-2.067l-1.52-1.156l-0.136-0.103l-27.876-21.21
						c-0.63-0.479-1.549-0.33-2.053,0.332l-29.208,38.387c-0.504,0.663-0.402,1.588,0.227,2.067l26.871,20.446
						c0.63,0.479,1.549,0.33,2.053-0.332l20.928-27.505c0.504-0.662,1.423-0.811,2.053-0.332l0.38,0.289
						c0.63,0.479,1.549,0.33,2.053-0.332L359.999,177.8z"/>
					<path style="fill:#FFA430;" d="M358.452,176.623c0.504-0.663,0.402-1.588-0.227-2.067l-1.52-1.156l-0.136-0.103l-27.876-21.21
						c-0.63-0.479-1.549-0.33-2.053,0.332l-29.207,38.387c-0.504,0.662-0.402,1.588,0.227,2.067l26.871,20.446
						c0.63,0.479,1.549,0.33,2.053-0.332l20.928-27.505c0.504-0.663,1.423-0.811,2.053-0.332l0.38,0.289
						c0.63,0.479,1.549,0.33,2.053-0.332L358.452,176.623z"/>
					<polygon style="fill:#FFFFFF;" points="339.441,187.402 315.646,179.145 317.968,173.031 341.762,181.288 					"/>
				</g>
				<g>
					<g>
						<polygon style="fill:#FFFFFF;" points="369.391,218.475 356.483,214.216 361.77,191.355 378.745,196.955 						"/>
						<polygon style="fill:#FD6E74;" points="372.144,213.991 356.938,208.975 359.816,197.278 376.79,202.878 						"/>
						
							<rect x="360.706" y="192.614" transform="matrix(0.9497 0.3133 -0.3133 0.9497 79.4073 -106.2574)" style="fill:#FD6E74;" width="19.24" height="2.669"/>
						<path style="fill:#FD6E74;" d="M378.437,195.808l-15.737-5.192l0,0c0.483-1.465,2.062-2.26,3.527-1.777l13.084,4.317
							L378.437,195.808z"/>
					</g>
					<g>
						<g>
							<path style="fill:#BA6141;" d="M360.961,214.772c2.188,0.865,4.495,1.849,6.765,1.539c0.558-0.076,1.214-0.394,1.115-0.925
								c-0.061-0.323-0.385-0.551-0.681-0.74c-1.419-0.905-3.079-1.401-4.498-2.307c2.203,0.453,4.648,0.497,6.851,0.951
								c0.369,0.076,0.752,0.152,1.111,0.078c0.359-0.074,0.686-0.342,0.684-0.691c-0.003-0.488-0.582-0.805-1.072-1.007
								c-2.199-0.901-4.397-1.802-6.596-2.704c2.782,0.714,5.724,1.43,8.41,0.739c0.499-0.128,1.05-0.385,1.101-0.872
								c0.037-0.357-0.232-0.712-0.567-0.913c-0.336-0.2-0.73-0.278-1.113-0.351c-2.505-0.48-5.01-0.96-7.515-1.44
								c1.787,0.028,3.575,0.056,5.362,0.083c0.44,0.007,0.891,0.012,1.293-0.129c0.402-0.141,0.751-0.462,0.776-0.871
								c0.025-0.415-0.291-0.817-0.681-1.045c-0.39-0.229-0.844-0.318-1.287-0.4c-2.269-0.421-4.548-0.772-6.832-1.052
								c-0.539-0.066-1.192-0.209-1.381-0.693c-0.23-0.586,0.42-1.06,0.956-1.376c0.476-0.28,0.939-0.608,1.214-1.067
								c0.276-0.459,0.328-1.078-0.002-1.545c-0.37-0.523-1.115-0.719-1.753-0.641c-0.638,0.077-1.202,0.372-1.769,0.633
								c-1.974,0.908-4.157,1.451-6.4,1.592c-1.281,0.08-2.625,0.04-3.76,0.544c-1.279,0.567-2.102,1.755-2.577,3.008
								c-0.805,2.126-0.718,4.609,0.309,6.777c0.213,0.449,0.418,0.952,0.905,1.191c0.596,0.292,1.424,0.357,2.066,0.522
								c1.504,0.387,2.998,0.818,4.479,1.292C357.587,213.503,359.285,214.109,360.961,214.772z"/>
						</g>
						<g>
							<path style="fill:#8EE4FD;" d="M338.911,106.59c0,0-19.59,0.904-31.001,13.55c-11.412,12.645-28.152,60.277-25.147,67.426
								c3.005,7.149,23.529,21.987,65.617,24.808c0,0,3.901-5.824,3.226-14.594l-42.149-18.061l15.997-27.445L338.911,106.59z"/>
							<g style="opacity:0.5;">
								<g>
									<g>
										<path style="fill:#8EE4FD;" d="M325.359,151.891c0.648-2.677,1.719-5.218,2.977-7.651c1.284-2.42,2.765-4.746,4.601-6.8
											c-1.174,2.488-2.47,4.858-3.716,7.264C327.95,147.096,326.736,149.509,325.359,151.891z"/>
									</g>
									<g>
										<path style="fill:#8EE4FD;" d="M335.695,144.107c-1.239,1.267-2.695,2.235-4.212,3.082
											c-1.531,0.819-3.134,1.521-4.87,1.876c1.406-1.076,2.893-1.918,4.392-2.753
											C332.518,145.505,334.031,144.71,335.695,144.107z"/>
									</g>
									<g>
										<path style="fill:#8EE4FD;" d="M302.261,179.758c1.217-0.335,2.44-0.495,3.666-0.598c1.226-0.093,2.454-0.129,3.685-0.079
											l-0.32,0.651c-0.474-0.796-0.923-1.611-1.274-2.495c0.721,0.62,1.346,1.309,1.945,2.017
											c0.14,0.165,0.12,0.413-0.046,0.553c-0.062,0.052-0.135,0.082-0.21,0.09l-0.065,0.007
											c-1.224,0.139-2.451,0.19-3.681,0.187C304.731,180.075,303.499,180.004,302.261,179.758z"/>
									</g>
									<g>
										<path style="fill:#8EE4FD;" d="M349.103,197.376c0.292,2.405,0.03,4.847-0.537,7.196
											c-0.596,2.342-1.506,4.623-2.892,6.611c0.665-2.323,1.367-4.561,1.922-6.852
											C348.18,202.047,348.606,199.741,349.103,197.376z"/>
									</g>
									<g>
										<path style="fill:#8EE4FD;" d="M320.511,111.568c1.835,0.332,3.515,1.326,4.874,2.607
											c1.343,1.299,2.412,2.932,2.824,4.752c-1.129-1.469-2.234-2.82-3.515-4.029
											C323.43,113.671,322.03,112.628,320.511,111.568z"/>
									</g>
									<g>
										<path style="fill:#8EE4FD;" d="M323.747,115.62c0.213-0.73,0.737-1.221,1.321-1.567c0.598-0.321,1.291-0.514,2.025-0.314
											c-0.505,0.561-1.009,0.874-1.536,1.186C325.017,115.211,324.487,115.479,323.747,115.62z"/>
									</g>
								</g>
							</g>
						</g>
					</g>
				</g>
			</g>
		</g>
	</g>
</g>
</svg>
