<?xml version="1.0" encoding="utf-8"?>
<!-- Generator: Adobe Illustrator 27.5.0, SVG Export Plug-In . SVG Version: 6.00 Build 0)  -->
<svg version="1.1" xmlns="http://www.w3.org/2000/svg" xmlns:xlink="http://www.w3.org/1999/xlink" x="0px" y="0px"
	 viewBox="0 0 500 500" style="enable-background:new 0 0 500 500;" xml:space="preserve">
<g id="BACKGROUND">
	<rect x="0.684" y="0.288" style="fill:#FFFFFF;" width="499.712" height="499.712"/>
</g>
<g id="OBJECTS">
	<g>
		<g>
			<g>
				<path style="fill:#DEDEFC;" d="M328.104,93.548c1.952-7.819,7.648-14.168,10.495-21.707c2.847-7.539,1.186-18.226-6.56-20.451
					c-5.509-1.582-11.238,1.953-16.962,1.64c-7.016-0.384-12.46-6.45-15.395-12.835c-2.935-6.385-4.219-13.471-7.552-19.657
					c-9.694-17.989-37.748-22.203-52.3-7.857c-10.85,10.697-14.642,28.964-28.805,34.581c-19.264,7.64-41.346-14.786-60.28-6.36
					C139,46.13,134.955,60.684,133.912,73.498c-1.044,12.814-0.847,26.779-8.701,36.957c-12.239,15.859-36.668,14.052-54.173,23.793
					c-16.153,8.989-25.353,28.977-21.676,47.093c3.646,17.964,18.37,33.311,17.512,51.621c-0.753,16.061-13.446,29.368-15.757,45.28
					c-4.031,27.743,23.779,50.571,26.735,78.449c1.202,11.338-1.831,22.642-3.003,33.983c-1.171,11.341-0.033,23.932,7.836,32.183
					c10.518,11.028,28.152,9.91,43.219,7.619c15.067-2.291,32.336-4.352,43.843,5.641c7.474,6.49,10.518,16.529,14.822,25.443
					c4.304,8.913,11.638,17.929,21.532,18.202c16.916,0.467,23.185-22.389,36.96-32.22c14.966-10.681,36.267-3.806,50.979,7.221
					c14.713,11.027,26.893,25.967,43.831,33.121c16.938,7.154,41.485,1.695,45.502-16.247c2.595-11.589-4.271-22.884-7.984-34.164
					c-3.713-11.28-1.96-27.15,9.486-30.317c11.032-3.052,20.498,8.294,31.5,11.451c13.372,3.837,27.662-5.566,34.165-17.865
					c6.503-12.298,7.127-26.743,7.743-40.641c0.616-13.898,1.531-28.385,8.492-40.43c3.579-6.194,8.634-11.487,11.777-17.913
					c3.143-6.426,3.943-14.838-0.774-20.216c-5.153-5.875-14.953-6.102-19.6-12.385c-9.032-12.214,10.704-27.536,9.01-42.632
					c-1.084-9.658-10.939-16.1-20.496-17.867c-9.557-1.767-19.435-0.299-29.085-1.458c-9.649-1.159-19.99-6.07-22.876-15.351
					c-3.239-10.415,4.359-21.229,13.227-27.579c8.868-6.35,19.486-10.408,27-18.314c15.872-16.699,9.388-48.608-11.743-57.788
					c-9.017-3.917-19.411-3.013-28.212,1.046c-8.348,3.85-14.932,10.458-19.951,18.051c-3.391,5.132-6.268,11.184-12.061,14.013
					c-7.779,3.799-18.509,2.884-25.396-2.274c-6.8-5.092-10.868-13.863-10.025-22.357C327.672,95.602,327.85,94.566,328.104,93.548z
					"/>
				<path style="fill:#DEDEFC;" d="M427.908,178.366c0.565,4.388,4.049,8.049,8.178,9.638c4.129,1.589,8.779,1.344,13.051,0.195
					c5.69-1.53,11.091-4.775,14.276-9.733c2.384-3.712,3.349-8.441,2.322-12.759c-1.126-4.736-4.797-7.988-9.065-10.035
					c-3.43-1.645-6.806-1.414-10.198,0.195c-4.3,2.041-8.487,4.971-11.874,8.307C430.886,167.83,427.198,172.852,427.908,178.366z"
					/>
				<path style="fill:#CCCCEA;" d="M27.456,375.82c-0.243,7.071,1.971,14.832,7.904,18.687c6.953,4.518,16.875,1.85,22.461-4.279
					c5.586-6.129,7.55-14.777,7.818-23.065c0.451-13.919-3.721-28.517-13.796-38.132c-4.198-4.007-9.722-7.274-15.714-6.932
					c-4.691,0.267-10.119,3.082-11.541,7.901c-0.973,3.298,1.298,6.146,2.935,8.788c2.661,4.294,3.763,8.429,3.462,13.511
					C30.514,360.239,27.73,367.856,27.456,375.82z"/>
			</g>
			<g>
				<defs>
					<path id="SVGID_1_" d="M328.104,93.548c1.952-7.819,7.648-14.168,10.495-21.707c2.847-7.539,1.186-18.226-6.56-20.451
						c-5.509-1.582-11.238,1.953-16.962,1.64c-7.016-0.384-12.46-6.45-15.395-12.835c-2.935-6.385-4.219-13.471-7.552-19.657
						c-9.694-17.989-37.748-22.203-52.3-7.857c-10.85,10.697-14.642,28.964-28.805,34.581c-19.264,7.64-41.346-14.786-60.28-6.36
						C139,46.13,134.955,60.684,133.912,73.498c-1.044,12.814-0.847,26.779-8.701,36.957
						c-12.239,15.859-36.668,14.052-54.173,23.793c-16.153,8.989-25.353,28.977-21.676,47.093
						c3.646,17.964,18.37,33.311,17.512,51.621c-0.753,16.061-13.446,29.368-15.757,45.28
						c-4.031,27.743,23.779,50.571,26.735,78.449c1.202,11.338-1.831,22.642-3.003,33.983c-1.171,11.341-0.033,23.932,7.836,32.183
						c10.518,11.028,28.152,9.91,43.219,7.619c15.067-2.291,32.336-4.352,43.843,5.641c7.474,6.49,10.518,16.529,14.822,25.443
						c4.304,8.913,11.638,17.929,21.532,18.202c16.916,0.467,23.185-22.389,36.96-32.22c14.966-10.681,36.267-3.806,50.979,7.221
						c14.713,11.027,26.893,25.967,43.831,33.121c16.938,7.154,41.485,1.695,45.502-16.247c2.595-11.589-4.271-22.884-7.984-34.164
						c-3.713-11.28-1.96-27.15,9.486-30.317c11.032-3.052,20.498,8.294,31.5,11.451c13.372,3.837,27.662-5.566,34.165-17.865
						c6.503-12.298,7.127-26.743,7.743-40.641c0.616-13.898,1.531-28.385,8.492-40.43c3.579-6.194,8.634-11.487,11.777-17.913
						c3.143-6.426,3.943-14.838-0.774-20.216c-5.153-5.875-14.953-6.102-19.6-12.385c-9.032-12.214,10.704-27.536,9.01-42.632
						c-1.084-9.658-10.939-16.1-20.496-17.867c-9.557-1.767-19.435-0.299-29.085-1.458c-9.649-1.159-19.99-6.07-22.876-15.351
						c-3.239-10.415,4.359-21.229,13.227-27.579c8.868-6.35,19.486-10.408,27-18.314c15.872-16.699,9.388-48.608-11.743-57.788
						c-9.017-3.917-19.411-3.013-28.212,1.046c-8.348,3.85-14.932,10.458-19.951,18.051c-3.391,5.132-6.268,11.184-12.061,14.013
						c-7.779,3.799-18.509,2.884-25.396-2.274c-6.8-5.092-10.868-13.863-10.025-22.357C327.672,95.602,327.85,94.566,328.104,93.548
						z"/>
				</defs>
				<clipPath id="SVGID_00000152257875924782929190000009643849476999984287_">
					<use xlink:href="#SVGID_1_"  style="overflow:visible;"/>
				</clipPath>
				<g style="clip-path:url(#SVGID_00000152257875924782929190000009643849476999984287_);">
					<g>
						<g>
							<rect x="242.468" y="57.581" style="fill:#CCCCEA;" width="21.542" height="8.731"/>
							<rect x="267.208" y="57.581" style="fill:#CCCCEA;" width="21.542" height="8.731"/>
							<rect x="256.437" y="46.017" style="fill:#CCCCEA;" width="21.542" height="8.731"/>
						</g>
						<g>
							
								<rect x="287.151" y="174.072" transform="matrix(-1 -1.224647e-16 1.224647e-16 -1 595.845 356.8751)" style="fill:#CCCCEA;" width="21.542" height="8.731"/>
							
								<rect x="262.411" y="174.072" transform="matrix(-1 -1.224647e-16 1.224647e-16 -1 546.3643 356.8751)" style="fill:#CCCCEA;" width="21.542" height="8.731"/>
							
								<rect x="273.182" y="185.636" transform="matrix(-1 -1.224647e-16 1.224647e-16 -1 567.9067 380.0035)" style="fill:#CCCCEA;" width="21.542" height="8.731"/>
						</g>
						<g>
							
								<rect x="71.984" y="263.082" transform="matrix(-1 -1.224647e-16 1.224647e-16 -1 165.51 534.8949)" style="fill:#CCCCEA;" width="21.542" height="8.731"/>
							
								<rect x="47.243" y="263.082" transform="matrix(-1 -1.224647e-16 1.224647e-16 -1 116.0293 534.8949)" style="fill:#CCCCEA;" width="21.542" height="8.731"/>
							
								<rect x="58.015" y="274.646" transform="matrix(-1 -1.224647e-16 1.224647e-16 -1 137.5716 558.0233)" style="fill:#CCCCEA;" width="21.542" height="8.731"/>
						</g>
					</g>
					<g>
						<g>
							<rect x="317.381" y="205.413" style="fill:#CCCCEA;" width="174.821" height="88.421"/>
							<rect x="329.128" y="214.76" style="fill:#B8B8DD;" width="89.558" height="71.747"/>
							<rect x="421.465" y="214.76" style="fill:#B8B8DD;" width="71.747" height="71.747"/>
							<polygon style="fill:#CCCCEA;" points="327.486,293.834 317.381,293.834 317.381,306.466 325.465,306.466 							"/>
							<path style="fill:#CCCCEA;" d="M409.339,257.708L409.339,257.708c-1.395,0-2.526-1.131-2.526-2.526v-11.368
								c0-1.395,1.131-2.526,2.526-2.526l0,0c1.395,0,2.526,1.131,2.526,2.526v11.368
								C411.865,256.577,410.734,257.708,409.339,257.708z"/>
							<path style="fill:#CCCCEA;" d="M431.823,257.708L431.823,257.708c-1.395,0-2.526-1.131-2.526-2.526v-11.368
								c0-1.395,1.131-2.526,2.526-2.526l0,0c1.395,0,2.526,1.131,2.526,2.526v11.368
								C434.349,256.577,433.218,257.708,431.823,257.708z"/>
						</g>
						<g>
							<g>
								<path style="fill:#CCCCEA;" d="M333.949,163.477c1.715,1.787,1.657,4.626-0.13,6.342c-1.787,1.715-4.626,1.657-6.341-0.13
									c-1.715-1.787-1.657-4.626,0.13-6.342C329.394,161.632,332.233,161.69,333.949,163.477z"/>
								<path style="fill:#B8B8DD;" d="M334.496,155.184c0,0-4.913,4.82-9.99,0.558c-0.772-0.648-1.951-0.648-2.592,0.13
									c-0.237,0.288-0.396,0.662-0.381,1.147l9.18,9.564l9.18,9.564c0.484,0.035,0.865-0.109,1.161-0.334
									c0.803-0.608,0.851-1.787,0.235-2.584c-4.051-5.247,0.967-9.959,0.967-9.959c2.233-2.143,2.305-5.691,0.162-7.923
									C340.276,153.114,336.728,153.041,334.496,155.184z"/>
								<path style="fill:#DEDEFC;" d="M338.569,155.564l-1.569,1.506c-0.199,0.191-0.518,0.185-0.71-0.015l0,0
									c-0.191-0.199-0.185-0.518,0.015-0.71l1.569-1.506c0.199-0.191,0.518-0.185,0.71,0.014l0,0
									C338.775,155.053,338.769,155.372,338.569,155.564z"/>
								<path style="fill:#DEDEFC;" d="M339.786,156.831l-1.569,1.506c-0.199,0.191-0.518,0.185-0.71-0.014l0,0
									c-0.191-0.199-0.185-0.518,0.014-0.71l1.569-1.506c0.199-0.191,0.518-0.185,0.71,0.014l0,0
									C339.991,156.32,339.985,156.64,339.786,156.831z"/>
								<path style="fill:#DEDEFC;" d="M341.002,158.098l-1.569,1.506c-0.199,0.191-0.518,0.184-0.71-0.015l0,0
									c-0.191-0.199-0.185-0.518,0.015-0.71l1.569-1.506c0.199-0.191,0.518-0.185,0.71,0.015v0
									C341.208,157.587,341.201,157.907,341.002,158.098z"/>
								<path style="fill:#DEDEFC;" d="M342.218,159.365l-1.569,1.506c-0.199,0.191-0.518,0.185-0.71-0.014l0,0
									c-0.191-0.199-0.185-0.518,0.014-0.71l1.569-1.506c0.199-0.191,0.518-0.185,0.71,0.014l0,0
									C342.424,158.855,342.417,159.174,342.218,159.365z"/>
							</g>
							<g>
								<path style="fill:#B8B8DD;" d="M338.855,205.413L338.855,205.413h24.253l0,0c0-2.232-1.81-4.042-4.042-4.042h-16.168
									C340.664,201.371,338.855,203.18,338.855,205.413z"/>
								
									<line style="fill:none;stroke:#B8B8DD;stroke-width:2;stroke-miterlimit:10;" x1="350.981" y1="202.375" x2="366.834" y2="170.29"/>
								
									<line style="fill:none;stroke:#B8B8DD;stroke-width:2;stroke-miterlimit:10;" x1="342.013" y1="153.623" x2="366.834" y2="170.29"/>
								<path style="fill:#CCCCEA;stroke:#B8B8DD;stroke-miterlimit:10;" d="M345.637,154.125c0-1.306-1.059-2.365-2.365-2.365
									c-1.306,0-2.365,1.059-2.365,2.365c0,1.306,1.059,2.365,2.365,2.365C344.578,156.49,345.637,155.431,345.637,154.125z"/>
								<path style="fill:#CCCCEA;stroke:#B8B8DD;stroke-miterlimit:10;" d="M368.626,170.29c0-1.306-1.059-2.365-2.365-2.365
									c-1.306,0-2.365,1.059-2.365,2.365s1.059,2.365,2.365,2.365C367.567,172.655,368.626,171.597,368.626,170.29z"/>
							</g>
						</g>
					</g>
					<g>
						<rect x="317.381" y="132.529" style="fill:#B8B8DD;" width="188.809" height="9.884"/>
						<g>
							<g>
								
									<rect x="379.279" y="87.212" transform="matrix(0.927 0.3751 -0.3751 0.927 69.231 -136.4735)" style="fill:#CCCCEA;" width="11.747" height="44.747"/>
								
									<rect x="384.106" y="96.141" transform="matrix(0.927 0.3751 -0.3751 0.927 65.1089 -139.1552)" style="fill:#B8B8DD;" width="11.747" height="3.032"/>
								
									<rect x="381.831" y="101.761" transform="matrix(0.927 0.3751 -0.3751 0.927 67.0518 -137.8927)" style="fill:#B8B8DD;" width="11.747" height="3.032"/>
								<path style="fill:#B8B8DD;" d="M387.817,109.317c0.673,1.684-0.146,3.595-1.83,4.269c-1.684,0.673-3.595-0.146-4.269-1.83
									c-0.673-1.684,0.146-3.595,1.83-4.269C385.232,106.814,387.143,107.633,387.817,109.317z"/>
							</g>
							<g>
								<rect x="398.918" y="87.781" style="fill:#CCCCEA;" width="11.747" height="44.747"/>
								<rect x="398.918" y="95.771" style="fill:#B8B8DD;" width="11.747" height="8.147"/>
							</g>
							<g>
								<rect x="412.813" y="87.781" style="fill:#CCCCEA;" width="11.747" height="44.747"/>
								<rect x="412.813" y="95.771" style="fill:#B8B8DD;" width="11.747" height="3.032"/>
								<rect x="412.813" y="101.834" style="fill:#B8B8DD;" width="11.747" height="3.032"/>
								<path style="fill:#B8B8DD;" d="M421.056,108.907c1.256,1.309,1.213,3.388-0.095,4.644c-1.309,1.256-3.388,1.213-4.644-0.095
									c-1.256-1.309-1.214-3.388,0.095-4.644C417.721,107.556,419.8,107.599,421.056,108.907z"/>
							</g>
						</g>
					</g>
					<rect x="48.556" y="306.466" style="fill:#CCCCEA;" width="436.067" height="196.547"/>
					<g>
						<g>
							<rect x="39.992" y="67.729" style="fill:#DADAEF;" width="95.012" height="156.126"/>
							<rect x="39.992" y="223.855" style="fill:#C8C8ED;" width="193.703" height="12.379"/>
							<rect x="138.682" y="67.729" style="fill:#DADAEF;" width="95.012" height="156.126"/>
							
								<rect x="135.004" y="67.729" transform="matrix(-1 -1.224647e-16 1.224647e-16 -1 273.6863 291.5837)" style="fill:#C8C8ED;" width="3.679" height="156.126"/>
							
								<rect x="230.016" y="67.729" transform="matrix(-1 -1.224647e-16 1.224647e-16 -1 463.7109 291.5837)" style="fill:#C8C8ED;" width="3.679" height="156.126"/>
							
								<rect x="182.51" y="16.551" transform="matrix(-1.836970e-16 1 -1 -1.836970e-16 250.246 -118.4525)" style="fill:#C8C8ED;" width="3.679" height="98.691"/>
							
								<rect x="83.819" y="16.551" transform="matrix(-1.836970e-16 1 -1 -1.836970e-16 151.5551 -19.7616)" style="fill:#C8C8ED;" width="3.679" height="98.691"/>
							<polyline style="fill:#EEEEFF;" points="194.097,67.729 150.139,223.855 172.118,223.855 215.318,67.729 							"/>
							<polyline style="fill:#EEEEFF;" points="105.17,67.729 61.213,223.855 83.192,223.855 126.392,67.729 							"/>
						</g>
						<g>
							<g>
								<path style="fill:#CCCCEA;" d="M164.457,209.605h-8.052c0,0,0,13.599,3.197,14.25h4.855h4.855
									c3.197-0.651,3.197-14.25,3.197-14.25H164.457z"/>
							</g>
							<g>
								<path style="fill:#B8B8DD;" d="M166.878,197.49c-0.84,2.027-2.425,3.223-3.579,3.663c-0.67-2.508-1.57-5.097-2.585-7.534
									c0.007-0.008,0.017-0.012,0.023-0.021c0.565-0.827,1.193-1.972,1.25-3.435c0.294,0.841,0.488,1.719,0.703,2.585
									c0.124,0.499,0.264,1.012,0.588,1.411c0.324,0.399,0.881,0.654,1.362,0.475c0.67-0.25,0.825-1.116,1.281-1.666
									c0.249-0.301,0.593-0.484,0.967-0.567C167.701,194.558,167.356,196.337,166.878,197.49z"/>
								<path style="fill:#B8B8DD;" d="M160.439,192.977c-1.013-2.362-2.119-4.555-3.206-6.357c0.703-0.181,1.491-0.096,2.153,0.22
									c0.756,0.36,1.354,0.974,1.814,1.682C161.727,190.46,161.094,191.943,160.439,192.977z"/>
								<path style="fill:#B8B8DD;" d="M159.283,191.847c0.89,1.954,1.732,4.067,2.447,6.198c-1.146,0.653-2.922,0.621-4.618-0.113
									c-1.575-0.683-2.737-1.814-3.177-3.046c0.268-0.083,0.55-0.108,0.827-0.04c0.554,0.135,0.985,0.552,1.459,0.868
									c0.474,0.316,1.111,0.534,1.599,0.24c0.486-0.292,0.594-0.983,0.403-1.517c-0.191-0.534-0.605-0.952-0.991-1.367
									c-0.537-0.579-1.044-1.206-1.404-1.903c1.06,0.686,2.22,0.829,2.975,0.765C158.996,191.914,159.152,191.883,159.283,191.847
									z"/>
								<path style="fill:#B8B8DD;" d="M155.418,190.059c-0.216-0.999-0.029-2.117,0.698-2.826c0.166-0.162,0.358-0.287,0.56-0.392
									c0.784,1.293,1.586,2.808,2.361,4.466C158.327,191.458,156.647,191.346,155.418,190.059z"/>
								<path style="fill:#B8B8DD;" d="M164.356,205.85c-0.031,0-0.06,0.008-0.088,0.017c-0.179-1.318-0.46-2.71-0.823-4.14
									c1.656-0.602,3.212-2.167,3.976-4.011c0.508-1.226,0.887-3.095,0.087-5.355c0.481,0.031,0.96,0.204,1.325,0.517
									c0.82,0.704,1.106,1.882,0.981,2.955c-0.126,1.073-0.605,2.07-1.106,3.027c-0.334,0.638-0.69,1.305-0.681,2.025
									c0.009,0.72,0.535,1.49,1.255,1.485c0.701-0.004,1.231-0.698,1.927-0.785c0.112-0.014,0.221-0.006,0.327,0.013
									C170.941,205.101,166.64,205.923,164.356,205.85z"/>
								<path style="fill:#B8B8DD;" d="M157.036,205.258c1.088,0.517,2.554,0.832,3.992,0.709c0.892-0.076,1.768-0.332,2.542-0.803
									c0.158,0.954,0.268,1.872,0.314,2.73c0.009,0.162,0.147,0.286,0.309,0.278c0.003,0,0.006-0.001,0.009-0.001
									c0.157-0.013,0.277-0.15,0.268-0.308c-0.025-0.461-0.069-0.939-0.125-1.426c0.36,0.011,0.766,0.001,1.199-0.036
									c2.505-0.214,5.918-1.333,6.553-4.55c0.343,0.259,0.595,0.669,0.656,1.1c0.107,0.755-0.225,1.506-0.652,2.138
									c-1.09,1.613-2.838,2.568-4.725,3.124c-1.304,0.385-2.674,0.579-3.94,0.67c-1.73,0.124-3.446-0.138-5.126-0.536
									c-1.226-0.291-2.502-0.751-3.253-1.762c-0.639-0.861-0.67-2.212,0.02-2.96C155.452,204.255,156.121,204.824,157.036,205.258
									z"/>
								<path style="fill:#B8B8DD;" d="M152.689,196.074c0.13-0.375,0.394-0.699,0.719-0.928c0.507,1.368,1.747,2.577,3.471,3.325
									c1.156,0.501,2.332,0.707,3.373,0.618c0.614-0.053,1.177-0.213,1.665-0.47c0.658,2.026,1.192,4.044,1.541,5.933
									c-1.842,1.258-4.49,0.973-6.17,0.176c-0.828-0.393-1.432-0.911-1.737-1.458c0.499-0.243,1.08-0.242,1.633-0.316
									c0.571-0.076,1.192-0.295,1.442-0.814c0.329-0.683-0.191-1.516-0.867-1.861s-1.463-0.367-2.205-0.522
									c-0.863-0.18-1.707-0.566-2.291-1.227C152.68,197.869,152.4,196.906,152.689,196.074z"/>
							</g>
						</g>
					</g>
				</g>
			</g>
		</g>
		<g>
			<g>
				<g>
					<path style="fill:#DEDEFC;" d="M154.285,459.797c-27.513-6.481-41.202-42.116-41.202-42.116
						c-17.249,14.073-38.589,12.713-38.589,12.713c5.533,16.721,10.924,24.003,19.775,33.177c0.311,0.069,15.392,5.016,24.501-7.479
						c0,0,6.02,12.51,18.994,11.667C154.982,460.491,154.285,459.797,154.285,459.797z"/>
					<path style="fill:#FFFFFF;" d="M126.095,484.11c-0.002,0-0.004-0.001-0.007-0.001c-0.007,0.003-0.013,0.006-0.019,0.009
						C126.072,484.117,126.095,484.11,126.095,484.11z"/>
					<path style="fill:#FFFFFF;" d="M95.363,479.459c0.007,0.004,0.014,0.006,0.021,0.01c-0.002-0.002-0.004-0.005-0.007-0.007
						C95.374,479.462,95.363,479.459,95.363,479.459z"/>
				</g>
				<path style="fill:#B8B8DD;" d="M94.269,463.571c0,0,23.441,12.129,43.495,4.188c0,0-11.142-0.727-17.56-13.525
					C120.203,454.235,111.904,465.79,94.269,463.571z"/>
				<path style="fill:#B8B8DD;" d="M81.591,437.474l0.602,0.973c0,0,19.106,1.392,30.673-9.623l-0.467-0.77
					C112.399,428.055,102.619,438.141,81.591,437.474z"/>
				<path style="fill:#B8B8DD;" d="M83.99,441.045l0.602,0.973c0,0,19.106,1.392,30.673-9.623l-0.467-0.77
					C114.798,431.625,105.018,441.712,83.99,441.045z"/>
				<path style="fill:#B8B8DD;" d="M86.389,444.616l0.602,0.973c0,0,19.106,1.392,30.673-9.623l-0.467-0.77
					C117.197,435.196,107.417,445.283,86.389,444.616z"/>
				<path style="fill:#B8B8DD;" d="M88.788,448.186l0.602,0.973c0,0,19.106,1.392,30.673-9.623l-0.467-0.77
					C119.596,438.767,109.816,448.853,88.788,448.186z"/>
				<path style="fill:#B8B8DD;" d="M91.187,451.757l0.602,0.973c0,0,19.106,1.392,30.673-9.623l-0.467-0.77
					C121.994,442.337,112.215,452.424,91.187,451.757z"/>
				<path style="fill:#B8B8DD;" d="M93.586,455.328l0.602,0.973c0,0,19.106,1.392,30.673-9.623l-0.467-0.77
					C124.393,445.908,114.614,455.995,93.586,455.328z"/>
				<path style="fill:#DEDEFC;" d="M101.595,433.444c0,0,1.882,5.199,5.815,9.512c0,0,6.465-2.374,12.09-7.502
					c0,0-4.506-6.152-6.262-9.321C113.239,426.134,110.214,429.837,101.595,433.444z"/>
				<path style="fill:#B8B8DD;" d="M103.477,433.656c0,0,1.442,3.984,4.456,7.288c0,0,4.954-1.819,9.264-5.748
					c0,0-3.452-4.714-4.798-7.141C112.399,428.055,110.081,430.892,103.477,433.656z"/>
			</g>
			<g>
				<g>
					<path style="fill:#DEDEFC;" d="M337.063,34.718c27.568,6.243,41.565,41.758,41.565,41.758
						c17.126-14.222,38.478-13.047,38.478-13.047c-5.678-16.672-11.132-23.907-20.061-33.005
						c-0.312-0.066-15.435-4.882-24.435,7.691c0,0-6.128-12.458-19.094-11.502C336.36,34.031,337.063,34.718,337.063,34.718z"/>
					<path style="fill:#FFFFFF;" d="M365.042,10.162c0.002,0,0.004,0.001,0.007,0.001c0.007-0.003,0.013-0.006,0.019-0.009
						C365.065,10.154,365.042,10.162,365.042,10.162z"/>
					<path style="fill:#FFFFFF;" d="M395.813,14.547c-0.007-0.004-0.014-0.006-0.021-0.01c0.002,0.002,0.004,0.005,0.007,0.007
						C395.801,14.544,395.813,14.547,395.813,14.547z"/>
				</g>
				<path style="fill:#B8B8DD;" d="M397.044,30.425c0,0-23.545-11.925-43.529-3.812c0,0,11.148,0.631,17.677,13.372
					C371.192,39.985,379.391,28.358,397.044,30.425z"/>
				<path style="fill:#B8B8DD;" d="M409.947,56.411l-0.61-0.968c0,0-19.117-1.227-30.588,9.888l0.474,0.766
					C379.223,66.097,388.914,55.926,409.947,56.411z"/>
				<path style="fill:#B8B8DD;" d="M407.518,52.861l-0.61-0.968c0,0-19.117-1.226-30.588,9.888l0.474,0.766
					C376.793,62.547,386.485,52.376,407.518,52.861z"/>
				<path style="fill:#B8B8DD;" d="M405.088,49.311l-0.61-0.968c0,0-19.117-1.226-30.588,9.888l0.474,0.766
					C374.363,58.997,384.055,48.826,405.088,49.311z"/>
				<path style="fill:#B8B8DD;" d="M402.658,45.761l-0.61-0.968c0,0-19.117-1.227-30.588,9.888l0.474,0.766
					C371.934,55.447,381.625,45.277,402.658,45.761z"/>
				<path style="fill:#B8B8DD;" d="M400.228,42.211l-0.61-0.968c0,0-19.117-1.227-30.588,9.888l0.474,0.766
					C369.504,51.898,379.195,41.727,400.228,42.211z"/>
				<path style="fill:#B8B8DD;" d="M397.799,38.662l-0.61-0.968c0,0-19.117-1.226-30.588,9.889l0.474,0.766
					C367.074,48.348,376.766,38.177,397.799,38.662z"/>
				<path style="fill:#DEDEFC;" d="M389.979,60.614c0,0-1.927-5.183-5.897-9.461c0,0-6.445,2.43-12.025,7.606
					c0,0,4.559,6.113,6.342,9.266C378.399,68.025,381.392,64.296,389.979,60.614z"/>
				<path style="fill:#B8B8DD;" d="M388.095,60.419c0,0-1.477-3.971-4.519-7.249c0,0-4.938,1.862-9.214,5.828
					c0,0,3.493,4.684,4.859,7.1C379.223,66.097,381.516,63.239,388.095,60.419z"/>
			</g>
			<g>
				<path style="fill:#EDEDFC;" d="M394.86,361.058c-4.65,3.008-3.667,9.385-1.501,13.82c-1.586,4.316-1.007,9.188,1.666,13.04
					l3.035,4.373l4.009,3.502c4.087,3.57,9.847,4.509,14.857,2.423l11.335-4.721c0.878-0.1,1.628-0.399,2.213-0.921
					c3.499-3.13-0.178-12.948-8.213-21.931c-8.035-8.982-17.384-13.727-20.883-10.597c-0.317,0.283-0.568,0.626-0.768,1.014
					C399.053,359.87,396.384,360.072,394.86,361.058z M399.532,363.377l-4.753,8.579
					C393.867,364.185,397.47,363.283,399.532,363.377z"/>
				<path style="fill:#B6B6D3;" d="M403.999,361.791c-2.258,2.019,1.516,9.921,8.428,17.648
					c6.912,7.727,14.346,12.355,16.603,10.335c2.258-2.019-1.516-9.921-8.428-17.648
					C413.69,364.399,406.256,359.772,403.999,361.791z"/>
				<path style="fill:#9F9FCC;" d="M415.493,372.418c1.338-1.202,3.577-0.651,5.059-1.671c1.446-0.995,1.609-3.023,1.694-4.775
					c0.084-1.753,0.424-3.809,1.992-4.595c1.61-0.807,3.45,0.087,5.134-0.231c0.532-0.1,1.048-0.32,1.541-0.541
					c0.665-0.299,1.297-0.66,1.909-1.055c0.932-0.602,1.829-1.375,2.897-1.727c2.776-0.917,5.357,1.347,6.678,3.55
					c0.971,1.62,1.665,3.421,2.871,4.875c1.206,1.454,3.146,2.531,4.961,2.006c1.115-0.323,2.049-1.208,3.206-1.311
					c2.266-0.203,3.466,2.172,5.301,2.988c2.775,1.233,4.481-1.172,3.933-3.913c-0.309-1.543-1.09-2.974-1.288-4.535
					c-0.425-3.348,2.036-6.288,5.179-7.116c3.816-1.004,7.659,0.915,11.495,0.252c2.609-0.451,6.38-2.418,5.024-5.664
					c-1.565-3.744-7.593-5.186-11.197-5.365c-1.265-0.063-2.575-0.001-3.752-0.477c-2.813-1.14-1.85-5.063-2.45-7.44
					c-0.504-1.998-2.018-3.713-3.938-4.461c-2.938-1.145-5.343,0.116-7.544,1.965c-0.23,0.193-0.499,0.327-0.724,0.527
					c-1.122,1-1.83,2.336-3.36,2.82c-2.03,0.642-4.11-0.613-6.169-1.159c-4.866-1.29-10.458,2.129-11.527,7.048
					c-0.36,1.656-0.309,3.505-1.347,4.844c-1.42,1.832-4.124,1.839-6.442,1.784c-2.317-0.055-5.093,0.259-6.157,2.319
					c-0.793,1.534-0.271,3.46-0.904,5.067c-0.364,0.922-1.075,1.656-1.628,2.478c-1.887,2.805-1.888,6.557-3.765,9.368
					c-1.346,2.016-3.634,3.372-6.048,3.586c0.177-0.016,1.239,1.9,1.396,2.129c0.503,0.737,1.02,1.465,1.551,2.183
					c1.044,1.412,2.142,2.784,3.29,4.113c0.405,0.469,0.83,1.167,1.544,1.063c0.577-0.084,0.976-0.624,1.101-1.159
					c0.292-1.242-0.144-2.677-0.316-3.909C414.509,374.954,414.402,373.398,415.493,372.418z"/>
				<path style="fill:none;stroke:#000000;stroke-width:0.5;stroke-miterlimit:10;" d="M428.078,390.216
					c0,0-11.684-2.341-21.95-19.103"/>
				<path style="fill:#9F9FCC;" d="M476.2,340.709c1.54-0.201,2.908-1.619,2.802-3.169c-0.088-1.291-1.089-2.333-2.207-2.868
					c-1.051-0.503-2.675-0.962-3.829-0.583c-2.187,0.716-1.73,3.592-0.568,4.98C473.313,340.161,474.753,340.898,476.2,340.709z"/>
			</g>
			<g>
				<path style="fill:#9F9FCC;" d="M107.079,98.691L46.546,59.64l33.495-42.093c1.66-2.086,4.674-2.484,6.818-0.898l50.747,37.521
					c2.296,1.697,2.684,4.98,0.848,7.166L107.079,98.691z"/>
				<path style="fill:#9F9FCC;" d="M106.734,99.948L46.546,59.64l-4.951,46.644c-0.069,0.915,0.417,1.783,1.235,2.201l62.214,36.716
					c1.551,0.794,3.383-0.374,3.317-2.115L106.734,99.948z"/>
				<path style="fill:#B8B8DD;" d="M107.951,99.082L47.417,60.031l33.495-42.094c1.66-2.086,4.674-2.483,6.818-0.898l50.747,37.521
					c2.296,1.697,2.684,4.98,0.848,7.166L107.951,99.082z"/>
				<path style="fill:#DADAEF;" d="M106.022,92.401L55.06,59.526l28.199-35.437c1.398-1.757,3.935-2.091,5.74-0.756l42.722,31.588
					c1.933,1.429,2.26,4.192,0.714,6.033L106.022,92.401z"/>
				<path style="fill:#B8B8DD;" d="M107.951,99.082L47.417,60.031l-4.44,45.371c-0.069,0.913,0.416,1.778,1.231,2.196l62.055,36.622
					c1.547,0.792,3.374-0.374,3.309-2.11L107.951,99.082z"/>
				<path style="fill:#DEDEFC;" d="M104.414,99.587L51.612,66.741l-1.829,22.867c-0.05,0.667,0.304,1.299,0.899,1.604l51.585,30.102
					c1.13,0.578,2.418,1.775,2.417-1.541L104.414,99.587z"/>
				<path style="fill:#DEDEFC;" d="M88.434,115.503l-18.563-10.517l-0.626,13.458c-0.017,0.228,0.104,0.444,0.308,0.549
					l18.331,10.481c0.387,0.198,0.827,0.607,0.827-0.527L88.434,115.503z"/>
				<polygon style="fill:#FFFFFF;" points="66.245,66.741 113.11,41.16 122.308,47.96 76.273,73.21 				"/>
				<g>
					<defs>
						<path id="SVGID_00000150090280897193435270000010059460362094531516_" d="M104.414,99.587L51.612,66.741l-1.829,22.867
							c-0.05,0.667,0.304,1.299,0.899,1.604l51.585,30.102c1.13,0.578,2.418,1.775,2.417-1.541L104.414,99.587z"/>
					</defs>
					<clipPath id="SVGID_00000105396914226784185560000015520978027684495791_">
						<use xlink:href="#SVGID_00000150090280897193435270000010059460362094531516_"  style="overflow:visible;"/>
					</clipPath>
					<g style="clip-path:url(#SVGID_00000105396914226784185560000015520978027684495791_);">
						
							<line style="fill:none;stroke:#B8B8DD;stroke-width:0.5;stroke-miterlimit:10;" x1="55.457" y1="68.513" x2="53.645" y2="93.812"/>
						
							<line style="fill:none;stroke:#B8B8DD;stroke-width:0.5;stroke-miterlimit:10;" x1="60.182" y1="71.333" x2="58.37" y2="96.631"/>
						
							<line style="fill:none;stroke:#B8B8DD;stroke-width:0.5;stroke-miterlimit:10;" x1="64.907" y1="74.152" x2="63.095" y2="99.451"/>
						
							<line style="fill:none;stroke:#B8B8DD;stroke-width:0.5;stroke-miterlimit:10;" x1="69.632" y1="76.972" x2="67.82" y2="102.27"/>
						
							<line style="fill:none;stroke:#B8B8DD;stroke-width:0.5;stroke-miterlimit:10;" x1="74.357" y1="79.791" x2="72.545" y2="105.09"/>
						
							<line style="fill:none;stroke:#B8B8DD;stroke-width:0.5;stroke-miterlimit:10;" x1="79.082" y1="82.611" x2="77.27" y2="107.909"/>
						
							<line style="fill:none;stroke:#B8B8DD;stroke-width:0.5;stroke-miterlimit:10;" x1="83.807" y1="85.43" x2="81.995" y2="110.729"/>
						
							<line style="fill:none;stroke:#B8B8DD;stroke-width:0.5;stroke-miterlimit:10;" x1="88.532" y1="88.25" x2="86.72" y2="113.548"/>
						
							<line style="fill:none;stroke:#B8B8DD;stroke-width:0.5;stroke-miterlimit:10;" x1="93.257" y1="91.069" x2="91.445" y2="116.367"/>
						
							<line style="fill:none;stroke:#B8B8DD;stroke-width:0.5;stroke-miterlimit:10;" x1="97.981" y1="93.888" x2="96.17" y2="119.187"/>
						
							<line style="fill:none;stroke:#B8B8DD;stroke-width:0.5;stroke-miterlimit:10;" x1="102.706" y1="96.708" x2="100.895" y2="122.006"/>
						
							<line style="fill:none;stroke:#B8B8DD;stroke-width:0.5;stroke-miterlimit:10;" x1="49.577" y1="70.178" x2="106.113" y2="103.718"/>
						
							<line style="fill:none;stroke:#B8B8DD;stroke-width:0.5;stroke-miterlimit:10;" x1="49.577" y1="75.592" x2="106.113" y2="109.132"/>
						
							<line style="fill:none;stroke:#B8B8DD;stroke-width:0.5;stroke-miterlimit:10;" x1="49.577" y1="81.006" x2="106.113" y2="114.546"/>
						
							<line style="fill:none;stroke:#B8B8DD;stroke-width:0.5;stroke-miterlimit:10;" x1="49.577" y1="86.419" x2="106.113" y2="119.96"/>
					</g>
				</g>
				
					<line style="fill:none;stroke:#9F9FCC;stroke-width:0.5;stroke-miterlimit:10;" x1="48.332" y1="60.621" x2="107.079" y2="98.691"/>
			</g>
		</g>
	</g>
	<g>
		<g>
			<g>
				<path style="fill:#13161C;" d="M100.118,188.571c0,0,9.979-7.642,28.547,3.568c0,0-13.612,2.684-22.974,0
					c0,0-3.299-0.497-5.573-3.043"/>
				<path style="fill:#13161C;" d="M392.057,163.01c0,0-11.228-5.649-27.382,8.826c0,0,13.874,0.101,22.572-4.281
					c0,0,3.149-1.103,4.908-4.028"/>
			</g>
			<g>
				<g>
					<path style="fill:#B4441C;" d="M138.897,175.93c-0.6-1.915-1.996-3.091-4.069-2.736c-1.395,0.239-1.626,2.329-1.626,2.329
						c0.191,2.207,0.667,5.681-1.162,7.4c-1.816,1.707-5.207,1.275-6.884-0.362c-2.22-2.167-3.596-8.709,0.43-9.772
						c2.194-0.579,3.739,0.576,5.785,0.9c1.924,0.305,3.499-1.247,2.882-3.116c-0.553-1.675-2.334-2.811-3.893-3.407
						c-7.405-2.831-10.622,3.071-10.622,3.071s-2.808-22.895-9.65-18.531l3.641,17.489l-0.734,0.153l-3.569-17.141
						c-0.661,0.571-1.356,1.387-2.089,2.499c-0.327,0.497-0.618,1.016-0.889,1.547l3.464,16.635l-0.734,0.153l-3.264-15.672
						c-5.963,13.954,4.634,37.028,4.634,37.028l17.046-0.741c0.385-2.767,3.234-3.161,5.372-4.295
						c2.19-1.161,4.134-2.678,5.219-4.966C139.415,181.801,139.763,178.696,138.897,175.93z"/>
					<path style="fill:#712124;" d="M109.912,172.888l-3.464-16.635c-0.188,0.366-0.371,0.735-0.534,1.116l3.264,15.672
						L109.912,172.888z"/>
					<path style="fill:#712124;" d="M113.729,169.195l-3.641-17.489c-0.216,0.138-0.437,0.307-0.662,0.501l3.569,17.141
						L113.729,169.195z"/>
				</g>
				<g>
					<path style="fill:#B4441C;" d="M351.602,157.818c0.233-1.993,1.385-3.409,3.488-3.447c1.415-0.025,2.031,1.985,2.031,1.985
						c0.223,2.204,0.404,5.706,2.521,7.054c2.102,1.339,5.353,0.282,6.696-1.639c1.777-2.543,1.911-9.227-2.243-9.521
						c-2.264-0.16-3.567,1.262-5.516,1.962c-1.834,0.659-3.67-0.573-3.412-2.524c0.232-1.749,1.77-3.196,3.19-4.072
						c6.747-4.162,11.009,1.038,11.009,1.038s-1.508-23.017,6.027-20.005l-0.319,17.861l0.75,0.014l0.312-17.506
						c0.756,0.438,1.591,1.11,2.518,2.066c0.414,0.427,0.796,0.884,1.162,1.354l-0.304,16.989l0.75,0.014l0.286-16.006
						c8.459,12.599,2.348,37.243,2.348,37.243l-16.885,2.448c-0.894-2.647-3.766-2.503-6.078-3.218
						c-2.368-0.733-4.561-1.861-6.053-3.906C352.186,163.682,351.266,160.697,351.602,157.818z"/>
					<path style="fill:#712124;" d="M379.512,149.427l0.304-16.989c0.253,0.325,0.502,0.653,0.732,0.997l-0.286,16.006
						L379.512,149.427z"/>
					<path style="fill:#712124;" d="M375.074,146.511l0.319-17.861c0.238,0.095,0.487,0.22,0.744,0.369l-0.312,17.506
						L375.074,146.511z"/>
				</g>
			</g>
		</g>
		<g>
			<g>
				<g>
					<g>
						<g>
							<path style="fill:#2A2E39;" d="M196.094,202.372c-1.197-3.929,0.167-8.181,3.392-10.726
								c11.312-8.929,24.924-14.943,39.159-17.219c16.537-2.645,33.848-0.235,49.034,6.826c4.586,2.132,9.151,4.833,11.902,9.077
								c1.776,2.74,2.677,5.946,3.441,9.121c3.833,15.916,4.857,32.353,7.147,48.563c2.29,16.21,5.994,32.586,14.563,46.535
								c-14.548,12.94-34.829,18.024-54.275,18.987c-19.446,0.963-38.811-2.542-57.925-6.251
								C214.407,271.852,206.465,236.402,196.094,202.372z"/>
							<g>
								<path style="fill:#54575E;" d="M225.208,183.443c-2.015,3.33-2.81,7.242-3.4,11.089c-0.827,5.393-1.319,10.837-1.47,16.291
									c-0.029,1.035-0.04,2.1,0.324,3.07c0.576,1.535,2.023,2.6,3.557,3.179c1.534,0.578,3.185,0.751,4.798,1.047
									c3.014,0.553,6.214,1.766,7.694,4.449c2.547,4.616-1.369,10.507,0.168,15.549c0.992,3.255,4.008,5.394,6.785,7.36
									c8.128,5.753,16.908,12.127,24.068,19.048c0.083-5.617-2.749-11.127-5.16-16.201c-2.41-5.074-5.488-9.798-8.289-14.667
									c-2.442-4.246-4.676-8.612-6.693-13.075c-2.017-4.464-3.818-9.025-5.396-13.662c-1.577-4.637-2.931-9.351-4.054-14.119
									c-0.562-2.384-1.065-4.781-1.511-7.19c-0.225-1.218-0.435-2.439-0.631-3.662c-0.162-1.016-0.16-2.23-0.644-3.157
									c-0.84-1.61-2.83-1.285-4.224-0.693c-1.997,0.847-3.713,2.318-5.024,4.03C225.784,182.548,225.484,182.988,225.208,183.443z
									"/>
								<path style="fill:#54575E;" d="M270.662,180.06c2.794,2.226,4.859,5.361,6.741,8.507c2.638,4.41,5.035,8.976,7.172,13.662
									c0.406,0.89,0.809,1.811,0.886,2.773c0.122,1.523-0.604,2.927-1.579,3.936c-0.975,1.009-2.19,1.705-3.33,2.495
									c-2.131,1.476-4.161,3.586-4.315,6.406c-0.265,4.85,4.952,8.672,5.627,13.559c0.436,3.154-1.108,6.008-2.532,8.633
									c-4.168,7.682-8.611,16.118-11.596,24.494c-2.144-4.851-1.99-10.572-2.001-15.775c-0.011-5.203,0.624-10.322,0.992-15.476
									c0.32-4.494,0.434-9.024,0.345-13.566s-0.383-9.099-0.878-13.648c-0.495-4.548-1.191-9.089-2.087-13.601
									c-0.448-2.256-0.945-4.504-1.492-6.743c-0.277-1.132-0.566-2.262-0.868-3.389c-0.251-0.936-0.702-1.989-0.67-2.955
									c0.055-1.676,1.717-2.051,3.017-1.997c1.861,0.076,3.736,0.786,5.385,1.839C269.885,179.473,270.28,179.756,270.662,180.06z
									"/>
							</g>
						</g>
						<path style="fill:#2A2E39;" d="M196.487,200.386c-0.666,0.415-1.342,3.476-1.664,4.197c-1.57,3.513-3.472,6.895-5.719,10.021
							c-4.713,6.558-11.012,11.542-18.936,13.587c-16.904,4.363-38.076-5.005-40.766-23.529c-0.161-1.108-1.214-12.444-0.737-12.522
							c0,0-24.253,4.01-28.547-3.568c0.357,0.63,0.042,2.492,0.071,3.2c0.121,2.9,0.373,5.795,0.719,8.676
							c1.085,9.041,3.125,18.026,6.436,26.52c9.907,25.415,32.472,41.827,60.556,38.163c15.616-2.037,30.794-9.164,41.355-20.981
							C209.255,244.15,206.709,194.012,196.487,200.386z"/>
					</g>
					<path style="fill:#2A2E39;" d="M299.577,192.577c0.731,0.284,1.966,3.165,2.417,3.813c2.197,3.159,4.696,6.127,7.486,8.779
						c5.853,5.565,12.97,9.288,21.136,9.82c17.421,1.136,36.477-12.013,35.667-30.713c-0.048-1.118-1.126-12.452-1.609-12.44
						c0,0,24.575-0.579,27.382-8.826c-0.233,0.685,0.423,2.456,0.526,3.157c0.422,2.871,0.713,5.763,0.91,8.658
						c0.619,9.085,0.289,18.292-1.381,27.255c-4.998,26.816-24.109,47.146-52.383,48.779c-15.722,0.908-31.963-3.264-44.54-12.907
						C295.189,237.953,288.347,188.22,299.577,192.577z"/>
				</g>
				<g>
					<path style="fill:none;stroke:#54575E;stroke-miterlimit:10;" d="M267.735,266.76c0,0-3.238,45.971,12.698,44.337"/>
					<circle style="fill:#54575E;" cx="272.286" cy="273.183" r="1.658"/>
					<path style="fill:#54575E;" d="M274.932,288.95c0,0.916-0.742,1.658-1.658,1.658c-0.916,0-1.658-0.742-1.658-1.658
						c0-0.916,0.742-1.658,1.658-1.658C274.19,287.292,274.932,288.034,274.932,288.95z"/>
					<circle style="fill:#54575E;" cx="277.227" cy="303.248" r="1.658"/>
					<path style="fill:none;stroke:#54575E;stroke-miterlimit:10;" d="M196.487,200.386c0,0,2.662-1.963,5.315,2.206
						c2.653,4.169,6.059,20.068,7.453,41.558"/>
					<path style="fill:none;stroke:#54575E;stroke-miterlimit:10;" d="M100.867,200.095c0,0,14.041,7.17,28.082-0.171"/>
					<circle style="fill:#54575E;" cx="106.138" cy="197.161" r="1.535"/>
					<path style="fill:none;stroke:#54575E;stroke-miterlimit:10;" d="M393.468,174.472c0,0-12.459,9.661-27.622,5.065"/>
					<path style="fill:#54575E;" d="M386.235,172.858c0.158,0.833,0.962,1.38,1.795,1.222c0.833-0.158,1.381-0.962,1.223-1.795
						c-0.158-0.833-0.962-1.38-1.795-1.223C386.624,171.221,386.077,172.025,386.235,172.858z"/>
					<path style="fill:none;stroke:#54575E;stroke-miterlimit:10;" d="M303.022,199.451c0,0,3.391,13.826,6.624,44.698"/>
					<path style="fill:none;stroke:#54575E;stroke-miterlimit:10;" d="M217.831,301.59c0,0,19.617,0.664,18.404-17.272"/>
					<path style="fill:none;stroke:#54575E;stroke-miterlimit:10;" d="M317.342,294.177c0,0-19.617,0.664-18.405-17.272"/>
				</g>
			</g>
			<g>
				<path style="fill:#FFFFFF;" d="M230.977,193.323c3.137,11.583,9.376,21.936,15.993,31.83
					c6.734,10.07,12.928,20.232,19.116,30.604c2.384-8.451,2.42-18.499,3.276-27.261c0.927-9.475,1.589-18.981,1.714-28.503
					c0.044-3.379,0.016-6.797-0.789-10.079c-0.805-3.282-2.462-6.458-5.153-8.503c-3.949-3.001-9.312-3.098-14.272-3.068
					c-2.713,0.017-5.427,0.033-8.14,0.05c-4.805,0.029-10.526-1.078-12.23,4.74C229.531,186.416,230.102,190.091,230.977,193.323z"
					/>
				<polygon style="fill:#FFFFFF;" points="255.36,202.592 243.77,224.697 234.552,203.406 				"/>
				<polygon style="fill:#FFFFFF;" points="254.811,202.112 272.286,218.35 271.089,195.423 				"/>
			</g>
			<g>
				<path style="fill:#7F3CBA;" d="M255.36,202.592l-5.504,14.451l5.996,6.098c0.964,0.981,2.329,1.46,3.695,1.298l0,0
					c1.879-0.224,3.411-1.613,3.817-3.462l1.47-6.702L255.36,202.592z"/>
				<path style="fill:#7F3CBA;" d="M262.307,221.792l6.678,11.222c-0.678,17.546-2.942,23.083-2.942,23.083l-11.676-19.537
					l2.425-12.697L262.307,221.792z"/>
				<path style="fill:none;stroke:#622D9B;stroke-width:0.75;stroke-miterlimit:10;" d="M256.792,223.863
					c0,0,4.194,1.969,5.929-1.377"/>
			</g>
		</g>
		<g>
			<g>
				<path style="fill:#2A2E39;" d="M254.563,166.325c-1.077-0.26-2.151-0.564-3.254-0.697c-1.298-0.157-2.402-0.493-3.639-0.924
					c-0.741-0.258-1.547-0.189-2.302-0.391c-0.654-0.175-1.258-0.451-1.927-0.579c-1.247-0.237-2.549-0.667-3.745-1.09
					c-0.579-0.205-1.161-0.333-1.729-0.568c-0.414-0.171-0.865-0.358-1.31-0.436c-0.728-0.127-1.451-0.136-2.177-0.243
					c-0.625-0.092-1.181-0.408-1.793-0.552c-0.423-0.099-0.825-0.267-1.24-0.354c-0.091,1.612-0.08,3.225-0.011,4.837
					c6.085,8.33,15.41,13.361,25.372,15.708c2.06,0.485,4.167,0.85,6.324,0.968c0.062,0.003,0.141,0.008,0.211,0.012
					c-0.278-3.886-1.03-7.845-1.462-11.673C261.448,166.522,257.524,167.041,254.563,166.325z"/>
				<path style="fill:#B4441C;" d="M256.807,181.036c-9.962-2.348-19.287-7.378-25.372-15.708c0.226,5.267,1.14,10.526,1.71,15.729
					c0.499,4.564,4.529,7.397,7.762,10.188c2.918,2.52,5.735,5.242,9.056,7.241c1.201,0.723,3.051,1.927,4.548,1.532
					c2.671-0.704,4.221-3.199,5.345-5.533c1.542-3.202,3.658-6.655,3.595-10.257c-0.013-0.734-0.055-1.472-0.108-2.213
					c-0.07-0.004-0.149-0.008-0.211-0.012C260.974,181.885,258.868,181.521,256.807,181.036z"/>
			</g>
			<g>
				<path style="fill:#FFAD2E;" d="M212.409,123.426c-0.808-2.932-1.4-6.103-0.381-8.969c2.039-5.732,9.519-7.888,12.025-13.432
					c0.699-1.546,0.964-3.277,1.806-4.749c0.842-1.473,2.588-2.673,4.183-2.096c0.831,0.301,1.446,1.019,2.245,1.397
					c2.119,1.002,4.578-0.734,5.787-2.742c1.209-2.008,1.831-4.416,3.5-6.062c1.669-1.646,5.064-1.86,5.929,0.319
					c0.492,1.241,0.056,2.951,1.142,3.728c1.263,0.903,2.839-0.54,3.816-1.747c1.346-1.663,2.906-3.153,4.629-4.422
					c1.615-1.188,3.526-2.218,5.52-2.012s3.886,2.145,3.361,4.08c-0.351,1.296-1.645,2.592-0.954,3.743
					c0.426,0.709,1.379,0.844,2.205,0.885c2.59,0.127,5.353,0.095,7.533,1.499c2.179,1.405,3.178,4.931,1.164,6.564
					c-0.651,0.528-1.652,1.13-1.323,1.901c0.115,0.271,0.378,0.446,0.633,0.593c1.385,0.798,2.948,1.236,4.379,1.949
					c1.431,0.713,2.798,1.809,3.245,3.344c0.447,1.535-0.425,3.495-2.007,3.724c-0.313,0.045-0.642,0.025-0.935,0.146
					c-1.231,0.508-0.44,2.405,0.603,3.233c1.103,0.875,2.347,1.596,3.28,2.652c0.933,1.056,1.511,2.59,0.962,3.887
					c-0.814,1.927-3.39,2.192-5.482,2.161c-0.177,1.731,0.83,3.328,1.582,4.897c0.753,1.569,1.229,3.581,0.142,4.941
					c-0.977,1.223-2.895,1.339-4.291,0.632c-1.397-0.706-2.363-2.039-3.149-3.392c-1.881-3.238-3.06-6.886-5.3-9.886
					c-2.24-3-6.055-5.315-9.648-4.258c-1.26,0.37-2.38,1.122-3.638,1.498c-1.755,0.524-3.692,0.291-5.392,0.973
					c-1.589,0.637-2.809,2.013-4.426,2.576c-1.104,0.384-2.301,0.357-3.47,0.359c-5.183,0.007-10.723,0.823-14.579,4.286
					c-1.822,1.637-3.135,3.752-4.421,5.837c-0.848,1.373-1.692,2.748-2.543,4.12c-0.628,1.013-1.459,1.426-2.468,0.566
					c-0.992-0.846-1.462-2.39-1.978-3.548c-0.621-1.395-1.193-2.811-1.714-4.246C213.392,126.734,212.867,125.09,212.409,123.426z"
					/>
				<g>
					<g>
						<g>
							<path style="fill:#B4441C;" d="M267.9,117.259c-0.53-1.151-1.212-1.999-2.005-2.617c-3.26-2.542-8.393-1.182-12.539-0.912
								c-3.954,0.258-7.922,0.896-11.69,2.141c-1.394,0.461-2.756,1.023-4.05,1.685c-5.417,2.772-9.628,7.333-9.851,13.921
								c-0.177,5.212,0.931,10.405,0.922,15.616c-1.716-1.127-1.609-1.149-3.476-2.003c-1.405-0.643-3.058-0.576-4.477,0.025
								c-0.995,0.421-1.877,1.096-2.464,2.006c-1.424,2.209-0.967,5.434,1.015,7.16c1.982,1.726,5.24,1.735,7.232,0.021
								c2.518,10.835,12.046,19.854,22.874,21.857c15.284,2.827,21.752-11.817,23.486-24.38
								C274.481,140.154,272.819,127.935,267.9,117.259z"/>
							<path style="fill:#712124;" d="M224.876,145.21c0.365,0.165,0.714,0.357,1.041,0.561c1.227,0.769,5.023,5.941,6.126,3.292
								c0.706-1.695-0.26-3.675-0.838-5.258c-1.218-3.338-2.168-6.813-2.593-10.347c-0.385-3.203,0.476-6.464,2.062-9.242
								c1.697-2.974,4.058-4.543,6.602-6.645c-1.414,0.114-2.789,0.636-4.089,1.176c-2.169,0.9-4.207,2.06-6.326,3.063
								c-3.809,1.803-7.042,5.112-8.392,9.208c-1.637,4.967,0.193,9.47,1.983,14.095c-0.084-0.216,2.077-0.458,2.254-0.453
								C223.443,144.683,224.186,144.898,224.876,145.21z"/>
						</g>
						<path style="fill:#FFAD2E;" d="M236.028,123.224c0.061,1.513,0.651,2.946,1.127,4.384c0.476,1.438,0.844,2.991,0.454,4.455
							c-0.391,1.463-1.773,2.76-3.275,2.563c-0.893-0.117-1.652-0.721-2.229-1.412c-0.924-1.107-1.503-2.499-1.635-3.935
							c-0.095-1.029,0.031-2.086-0.239-3.083c-0.206-0.759-0.634-1.452-0.765-2.228c-0.114-0.681,0.011-1.382,0.218-2.041
							c0.972-3.09,3.731-5.392,6.794-6.447c1.243-0.428,2.543-0.676,3.852-0.789c0.548-0.047,2.42-0.407,1.593,0.614
							c-0.645,0.797-1.664,1.137-2.493,1.688c-0.985,0.654-1.834,1.494-2.436,2.517
							C236.339,120.627,235.976,121.925,236.028,123.224z"/>
					</g>
					<g>
						<path style="fill:none;stroke:#712124;stroke-miterlimit:10;" d="M259.016,131.396c0.43,1.861,0.625,4.161,1.435,5.869
							c0.715-0.695,2.298-1.694,3.296-1.119c1.822,1.049-1.102,5.271-1.851,6.323"/>
						<path style="fill:none;stroke:#712124;stroke-miterlimit:10;" d="M265.074,150.423c0,0-3.398-6.189-11.988,3.916"/>
						<path style="fill:none;stroke:#712124;stroke-width:0.75;stroke-miterlimit:10;" d="M263.342,153.076
							c0,0-1.288-1.642-4.825,1.263"/>
						<path style="fill:none;stroke:#712124;stroke-miterlimit:10;" d="M254.01,130.764c0,0-4.271,4.773-10.808,4.015"/>
						<path style="fill:none;stroke:#712124;stroke-miterlimit:10;" d="M262.528,129.96c0,0,3,2.62,8.147,2.241"/>
						<path style="fill:#712124;" d="M248.885,125.628l2.689-2.072c0.706-0.544,0.839-1.567,0.294-2.273l0,0
							c-0.544-0.706-1.567-0.839-2.273-0.294l-2.689,2.073c-0.706,0.544-0.838,1.567-0.294,2.273l0,0
							C247.156,126.039,248.179,126.172,248.885,125.628z"/>
						<path style="fill:#712124;" d="M265.105,124.513l-3.02-1.55c-0.793-0.407-1.109-1.389-0.702-2.182l0,0
							c0.407-0.793,1.389-1.109,2.182-0.702l3.02,1.55c0.793,0.407,1.109,1.389,0.702,2.182l0,0
							C266.881,124.604,265.899,124.92,265.105,124.513z"/>
						<path style="fill:none;stroke:#712124;stroke-width:0.75;stroke-miterlimit:10;" d="M219.234,149.286
							c0,0,4.168-3.897,6.568,2.157"/>
					</g>
				</g>
			</g>
		</g>
		<g>
			<g>
				<path style="fill:#592000;" d="M226.202,393.779c0,0,16.465-1.139,32.741-28.951l-7.261-4.217
					C251.682,360.612,216.472,381.204,226.202,393.779z"/>
				<path style="fill:#592000;" d="M332.81,381.956c0,0-16.305,2.56-38.371-20.923l6.138-5.73
					C300.577,355.303,339.492,367.528,332.81,381.956z"/>
				<path style="fill:#7E3000;" d="M385.659,262.122c-16.833,2.291-32.768,11.928-46.365,21.623
					c-22.108,15.764-43.116,23.764-61.88,27.143l0-0.008c-21.654,3.232-48.392,1.529-79.425-11.395
					c-15.416-6.42-33.099-12.262-50.019-10.743c-18.973,1.703-32.896,20.686-23.713,39.366c5.142,10.46,17.028,17.499,26.397,23.804
					c12.476,8.395,25.802,15.222,39.032,22.309c0.001,0,36.516,19.559,36.516,19.559s-10.743-7.091,32.52-33.745l3.255,5.919
					l12.485,2.269l0.332,1.837l2.913-1.247l2.4,0.436l-0.066-1.435l11.692-5.006l1.853-6.496
					c48.117,16.339,39.225,25.647,39.225,25.647s31.237-27.206,31.237-27.207c11.318-9.857,22.786-19.483,33.077-30.448
					c7.728-8.235,17.746-17.746,20.427-29.089C422.339,274.954,404.534,259.553,385.659,262.122z"/>
			</g>
			<g>
				<path style="fill:none;stroke:#592000;stroke-miterlimit:10;" d="M212.113,386.233c0,0,3.247-24.95,37.694-35.454"/>
				<line style="fill:none;stroke:#592000;stroke-miterlimit:10;" x1="261.04" y1="357.651" x2="188.387" y2="313.205"/>
				<path style="fill:none;stroke:#592000;stroke-miterlimit:10;" d="M344.862,371.459c0,0-8.727-23.598-44.649-26.159"/>
				<line style="fill:none;stroke:#592000;stroke-miterlimit:10;" x1="290.795" y1="354.503" x2="351.711" y2="294.98"/>
				<path style="fill:none;stroke:#592000;stroke-miterlimit:10;" d="M275.986,335.428c0,0,2.572,13.47,1.658,31.849"/>
				<path style="fill:none;stroke:#592000;stroke-miterlimit:10;" d="M233.258,358.171l-55.564-39.982
					c-1.927-1.387-3.545-3.193-4.557-5.341c-1.272-2.702-1.767-6.185,2.132-8.522c7.198-4.315,18.953,3.787,18.953,3.787
					c11.162,8.011,23.644,14.678,36.328,19.889c13.112,5.387,27.171,8.658,41.41,7.791c11.948-0.727,22.763-5.07,32.973-11.143
					c14.542-8.651,27.81-20.046,39.223-32.524c0.246-0.269,0.49-0.538,0.733-0.809c0,0,9.652-10.519,17.632-7.917
					c4.322,1.409,4.616,4.915,3.978,7.832c-0.507,2.32-1.682,4.441-3.251,6.223l-45.253,51.362"/>
			</g>
		</g>
		<g>
			<g>
				<path style="fill:#7F3CBA;" d="M259.638,417.086c5.288,5.264,12.723,8.225,20.568,7.644c-0.534,1.484-1.048,2.971-1.522,4.459
					c-1.169,3.667-3.888,6.694-7.491,8.049c-4.991,1.877-8.312,0.057-10.452-2.493c-2.629-3.133-3.372-7.442-2.274-11.381
					L259.638,417.086z"/>
				<path style="fill:#FFFFFF;" d="M266.227,381.766c1.582,0.288,3.237,0.325,4.914,0.035c5.336-0.921,9.441-4.734,11.003-9.55
					c0.681-2.103,0.884-4.394,0.482-6.724c-0.214-1.241-0.599-2.406-1.102-3.498l1.682-0.596c-0.001-0.009-0.004-0.018-0.006-0.026
					l8.397-6.063c0,0,22.312,8.41,27.717,11.51l-15.778,9.927c0.041,0.017,0.069,0.028,0.069,0.028
					c-0.933,1.901-2.134,4.154-3.504,6.681c-5.65,10.415-14.273,25.612-19.896,41.24c-7.845,0.581-15.28-2.38-20.568-7.644
					L266.227,381.766z"/>
				<path style="fill:#7F3CBA;" d="M267.637,374.209l0.576-3.089c1.122-4.027,9.04-7.575,12.98-8.972l0.331-0.118
					c0.503,1.092,0.888,2.258,1.102,3.498c0.402,2.329,0.199,4.621-0.482,6.724c-1.561,4.816-5.667,8.629-11.003,9.55
					c-1.677,0.289-3.332,0.253-4.914-0.035L267.637,374.209z"/>
			</g>
			<g>
				<defs>
					<path id="SVGID_00000053515089291688913300000004800480942101373344_" d="M266.227,381.766
						c1.582,0.288,3.237,0.325,4.914,0.035c5.336-0.921,9.441-4.734,11.003-9.55c0.681-2.103,0.884-4.394,0.482-6.724
						c-0.214-1.241-0.599-2.406-1.102-3.498l1.682-0.596c-0.001-0.009-0.004-0.018-0.006-0.026l8.397-6.063
						c0,0,22.312,8.41,27.717,11.51l-15.778,9.927c0.041,0.017,0.069,0.028,0.069,0.028c-0.933,1.901-2.134,4.154-3.504,6.681
						c-5.65,10.415-14.273,25.612-19.896,41.24c-7.845,0.581-15.28-2.38-20.568-7.644L266.227,381.766z"/>
				</defs>
				<clipPath id="SVGID_00000031176442521684754900000004403608752457688196_">
					<use xlink:href="#SVGID_00000053515089291688913300000004800480942101373344_"  style="overflow:visible;"/>
				</clipPath>
				<g style="clip-path:url(#SVGID_00000031176442521684754900000004403608752457688196_);">
					
						<line style="fill:none;stroke:#B3B3B3;stroke-width:0.75;stroke-miterlimit:10;" x1="317.287" y1="365.908" x2="303.278" y2="375.408"/>
					
						<line style="fill:none;stroke:#B3B3B3;stroke-width:0.75;stroke-miterlimit:10;" x1="314.639" y1="363.993" x2="300.631" y2="373.494"/>
					
						<line style="fill:none;stroke:#B3B3B3;stroke-width:0.75;stroke-miterlimit:10;" x1="311.992" y1="362.079" x2="297.983" y2="371.579"/>
					
						<line style="fill:none;stroke:#B3B3B3;stroke-width:0.75;stroke-miterlimit:10;" x1="309.344" y1="360.164" x2="295.335" y2="369.664"/>
					
						<line style="fill:none;stroke:#B3B3B3;stroke-width:0.75;stroke-miterlimit:10;" x1="306.696" y1="358.25" x2="292.688" y2="367.75"/>
					
						<line style="fill:none;stroke:#B3B3B3;stroke-width:0.75;stroke-miterlimit:10;" x1="304.048" y1="356.335" x2="290.04" y2="365.835"/>
					
						<line style="fill:none;stroke:#B3B3B3;stroke-width:0.75;stroke-miterlimit:10;" x1="301.401" y1="354.42" x2="287.392" y2="363.921"/>
					
						<line style="fill:none;stroke:#B3B3B3;stroke-width:0.75;stroke-miterlimit:10;" x1="298.753" y1="352.506" x2="284.744" y2="362.006"/>
				</g>
				<g style="clip-path:url(#SVGID_00000031176442521684754900000004403608752457688196_);">
					<path style="fill:none;stroke:#7F3CBA;stroke-width:2;stroke-miterlimit:10;" d="M251.558,406.188
						c0,0,19.911,19.216,44.533,11.902"/>
					<path style="fill:none;stroke:#7F3CBA;stroke-width:2;stroke-miterlimit:10;" d="M254.37,401.732
						c0,0,19.911,19.216,44.533,11.902"/>
				</g>
			</g>
		</g>
		<g>
			<g>
				<g>
					<path style="fill:#7F3CBA;" d="M305.326,411.992c-4.031,6.279-10.654,10.771-18.44,11.892c0.841,1.334,1.663,2.676,2.446,4.027
						c1.931,3.33,5.238,5.7,9.048,6.248c5.278,0.759,8.129-1.734,9.67-4.684c1.893-3.625,1.691-7.993-0.229-11.604L305.326,411.992z
						"/>
					<path style="fill:#FFFFFF;" d="M291.289,378.919c-1.483,0.622-3.091,1.014-4.792,1.093c-5.409,0.25-10.239-2.59-12.8-6.958
						c-1.118-1.907-1.809-4.101-1.918-6.462c-0.058-1.258,0.067-2.479,0.323-3.653l-1.772-0.22c0-0.009,0.001-0.018,0-0.027
						l-9.505-4.114c0,0-19.979,13.016-24.59,17.207l17.545,6.298c-0.037,0.025-0.061,0.042-0.061,0.042
						c1.32,1.655,2.978,3.598,4.86,5.77c7.759,8.955,19.452,21.939,28.306,35.99c7.786-1.122,14.409-5.613,18.44-11.892
						L291.289,378.919z"/>
					<path style="fill:#7F3CBA;" d="M288.285,371.843l-1.228-2.893c-1.963-3.691-10.458-5.452-14.607-5.968l-0.349-0.043
						c-0.256,1.174-0.381,2.396-0.323,3.653c0.109,2.361,0.8,4.556,1.918,6.462c2.561,4.367,7.391,7.207,12.8,6.958
						c1.7-0.078,3.308-0.47,4.792-1.093L288.285,371.843z"/>
				</g>
				<path style="fill:none;stroke:#000000;stroke-width:0.5;stroke-miterlimit:10;" d="M275.895,363.55
					c0,0,9.052,0.427,11.721,6.715s9.883,23.285,9.883,23.285"/>
			</g>
			<g>
				<defs>
					<path id="SVGID_00000040552099210663193220000014321202876130806440_" d="M291.289,378.919
						c-1.483,0.622-3.091,1.014-4.792,1.093c-5.409,0.25-10.239-2.59-12.8-6.958c-1.118-1.907-1.809-4.101-1.918-6.462
						c-0.058-1.258,0.067-2.479,0.323-3.653l-1.772-0.22c0-0.009,0.001-0.018,0-0.027l-9.505-4.114c0,0-19.979,13.016-24.59,17.207
						l17.545,6.298c-0.037,0.025-0.061,0.042-0.061,0.042c1.32,1.655,2.978,3.598,4.86,5.77c7.759,8.955,19.452,21.939,28.306,35.99
						c7.786-1.122,14.409-5.613,18.44-11.892L291.289,378.919z"/>
				</defs>
				<clipPath id="SVGID_00000129895843437611450130000004373813060076970634_">
					<use xlink:href="#SVGID_00000040552099210663193220000014321202876130806440_"  style="overflow:visible;"/>
				</clipPath>
				<g style="clip-path:url(#SVGID_00000129895843437611450130000004373813060076970634_);">
					
						<line style="fill:none;stroke:#B3B3B3;stroke-width:0.75;stroke-miterlimit:10;" x1="238.012" y1="374.424" x2="253.738" y2="380.686"/>
					
						<line style="fill:none;stroke:#B3B3B3;stroke-width:0.75;stroke-miterlimit:10;" x1="240.186" y1="371.984" x2="255.911" y2="378.246"/>
					
						<line style="fill:none;stroke:#B3B3B3;stroke-width:0.75;stroke-miterlimit:10;" x1="242.359" y1="369.544" x2="258.085" y2="375.806"/>
					
						<line style="fill:none;stroke:#B3B3B3;stroke-width:0.75;stroke-miterlimit:10;" x1="244.533" y1="367.105" x2="260.258" y2="373.367"/>
					
						<line style="fill:none;stroke:#B3B3B3;stroke-width:0.75;stroke-miterlimit:10;" x1="246.706" y1="364.665" x2="262.432" y2="370.927"/>
					
						<line style="fill:none;stroke:#B3B3B3;stroke-width:0.75;stroke-miterlimit:10;" x1="248.88" y1="362.225" x2="264.605" y2="368.487"/>
					
						<line style="fill:none;stroke:#B3B3B3;stroke-width:0.75;stroke-miterlimit:10;" x1="251.053" y1="359.786" x2="266.779" y2="366.048"/>
					
						<line style="fill:none;stroke:#B3B3B3;stroke-width:0.75;stroke-miterlimit:10;" x1="253.227" y1="357.346" x2="268.952" y2="363.608"/>
				</g>
				<g style="clip-path:url(#SVGID_00000129895843437611450130000004373813060076970634_);">
					<path style="fill:none;stroke:#7F3CBA;stroke-width:2;stroke-miterlimit:10;" d="M310.871,399.611
						c0,0-15.308,23.052-40.927,21.21"/>
					<path style="fill:none;stroke:#7F3CBA;stroke-width:2;stroke-miterlimit:10;" d="M307.166,395.864
						c0,0-15.308,23.052-40.927,21.21"/>
				</g>
			</g>
		</g>
	</g>
</g>
</svg>
